solid AssimpScene
 facet normal 0 0 0
  outer loop
  vertex -0.210170954 -0.12387713 8.9458008e-05
  vertex -0.209835708 0.123895086 8.18449564e-07
  vertex 0.166164294 0.123895086 8.18449564e-07
  endloop
 endfacet

 facet normal 0 0 0
  outer loop
  vertex -0.210170954 -0.12387713 8.9458008e-05
  vertex 0.166164294 0.123895086 8.18449564e-07
  vertex 0.165829062 -0.12387713 8.9458008e-05
  endloop
 endfacet

 facet normal 0 0 0
  outer loop
  vertex -0.220830202 0.164929837 0.35770157
  vertex -0.2682302 0.0752526596 0.358252496
  vertex 0.0921127945 0.253534168 0.357655674
  endloop
 endfacet

 facet normal 0 0 0
  outer loop
  vertex 0.165829062 -0.12387713 8.9458008e-05
  vertex 0.166164294 0.123895086 8.18449564e-07
  vertex 0.282657683 0.00143922446 0.0380999967
  endloop
 endfacet

 facet normal 0 0 0
  outer loop
  vertex 0.220288724 0.169134364 0.358252645
  vertex 0.0921127945 0.253534168 0.357655674
  vertex -0.2682302 0.0752526596 0.358252496
  endloop
 endfacet

 facet normal 0 0 0
  outer loop
  vertex 0.217366979 -0.172891319 0.358252704
  vertex 0.278541952 -0.000158789291 0.357649028
  vertex 0.220288724 0.169134364 0.358252645
  endloop
 endfacet

 facet normal 0 0 0
  outer loop
  vertex -0.268186182 -0.0755709335 0.358252496
  vertex -0.2682302 0.0752526596 0.358252496
  vertex -0.279556364 -0.0648638383 0.332939267
  endloop
 endfacet

 facet normal 0 0 0
  outer loop
  vertex 0.0220710244 -0.254718304 0.356782198
  vertex -0.22861819 -0.167024389 0.345702261
  vertex -0.115376316 -0.25764057 0.248643965
  endloop
 endfacet

 facet normal 0 0 0
  outer loop
  vertex 0.0221539922 0.25474748 0.35678193
  vertex -0.157610908 0.239402965 0.254043251
  vertex -0.220830202 0.164929837 0.35770157
  endloop
 endfacet

 facet normal 0 0 0
  outer loop
  vertex 0.0221539922 0.25474748 0.35678193
  vertex -0.220830202 0.164929837 0.35770157
  vertex 0.0921127945 0.253534168 0.357655674
  endloop
 endfacet

 facet normal 0 0 0
  outer loop
  vertex 0.100200526 -0.255434662 0.0380999967
  vertex -0.0923649818 -0.256207883 0.0380999967
  vertex 0.165829062 -0.12387713 8.9458008e-05
  endloop
 endfacet

 facet normal 0 0 0
  outer loop
  vertex -0.183406904 -0.221451104 0.262992859
  vertex -0.200377762 -0.201870516 0.0643923059
  vertex -0.174569398 -0.221150681 0.0380999967
  endloop
 endfacet

 facet normal 0 0 0
  outer loop
  vertex 0.154121816 0.232346773 0.357652068
  vertex 0.0921127945 0.253534168 0.357655674
  vertex 0.220288724 0.169134364 0.358252645
  endloop
 endfacet

 facet normal 0 0 0
  outer loop
  vertex 0.260916412 -0.0975646153 0.357649297
  vertex 0.278541952 -0.000158789291 0.357649028
  vertex 0.217366979 -0.172891319 0.358252704
  endloop
 endfacet

 facet normal 0 0 0
  outer loop
  vertex -0.21981211 -0.163260952 0.358516932
  vertex -0.22861819 -0.167024389 0.345702261
  vertex 0.0220710244 -0.254718304 0.356782198
  endloop
 endfacet

 facet normal 0 0 0
  outer loop
  vertex -0.21981211 -0.163260952 0.358516932
  vertex 0.0220710244 -0.254718304 0.356782198
  vertex 0.092066735 -0.253556758 0.357656181
  endloop
 endfacet

 facet normal 0 0 0
  outer loop
  vertex -0.21981211 -0.163260952 0.358516932
  vertex 0.092066735 -0.253556758 0.357656181
  vertex 0.217366979 -0.172891319 0.358252704
  endloop
 endfacet

 facet normal 0 0 0
  outer loop
  vertex -0.21981211 -0.163260952 0.358516932
  vertex 0.217366979 -0.172891319 0.358252704
  vertex 0.220288724 0.169134364 0.358252645
  endloop
 endfacet

 facet normal 0 0 0
  outer loop
  vertex -0.21981211 -0.163260952 0.358516932
  vertex 0.220288724 0.169134364 0.358252645
  vertex -0.2682302 0.0752526596 0.358252496
  endloop
 endfacet

 facet normal 0 0 0
  outer loop
  vertex -0.21981211 -0.163260952 0.358516932
  vertex -0.2682302 0.0752526596 0.358252496
  vertex -0.268186182 -0.0755709335 0.358252496
  endloop
 endfacet

 facet normal 0 0 0
  outer loop
  vertex 0.154128641 -0.23235701 0.357652366
  vertex 0.217366979 -0.172891319 0.358252704
  vertex 0.092066735 -0.253556758 0.357656181
  endloop
 endfacet

 facet normal 0 0 0
  outer loop
  vertex 0.266460121 0.0811819509 0.357649088
  vertex 0.220288724 0.169134364 0.358252645
  vertex 0.278541952 -0.000158789291 0.357649028
  endloop
 endfacet

 facet normal 0 0 0
  outer loop
  vertex -0.267178357 -0.0896997526 0.0380999967
  vertex -0.227915064 -0.122394815 0.00528953131
  vertex -0.236960679 -0.152449399 0.0380999967
  endloop
 endfacet

 facet normal 0 0 0
  outer loop
  vertex -0.267178357 -0.0896997526 0.0380999967
  vertex -0.236960679 -0.152449399 0.0380999967
  vertex -0.264716148 -0.104269691 0.0643886924
  endloop
 endfacet

 facet normal 0 0 0
  outer loop
  vertex -0.279494703 0.0679999441 0.326118946
  vertex -0.252515644 0.137282029 0.33463341
  vertex -0.264426917 0.105023161 0.0645184219
  endloop
 endfacet

 facet normal 0 0 0
  outer loop
  vertex -0.279494703 0.0679999441 0.326118946
  vertex -0.264426917 0.105023161 0.0645184219
  vertex -0.272923648 0.0703939795 0.0380999967
  endloop
 endfacet

 facet normal 0 0 0
  outer loop
  vertex -0.279494703 0.0679999441 0.326118946
  vertex -0.286869496 -0.00267413259 0.151336089
  vertex -0.279556364 -0.0648638383 0.332939267
  endloop
 endfacet

 facet normal 0 0 0
  outer loop
  vertex -0.279494703 0.0679999441 0.326118946
  vertex -0.279556364 -0.0648638383 0.332939267
  vertex -0.2682302 0.0752526596 0.358252496
  endloop
 endfacet

 facet normal 0 0 0
  outer loop
  vertex -0.235281304 0.155024707 0.0380999967
  vertex -0.189905375 0.208121583 0.0380999967
  vertex -0.235227004 0.127043068 0.0133691859
  endloop
 endfacet

 facet normal 0 0 0
  outer loop
  vertex 0.274438947 -0.0671753511 0.0380999967
  vertex 0.256049752 -0.125134751 0.0643694997
  vertex 0.24946703 -0.132042959 0.0380999967
  endloop
 endfacet

 facet normal 0 0 0
  outer loop
  vertex 0.274438947 -0.0671753511 0.0380999967
  vertex 0.24946703 -0.132042959 0.0380999967
  vertex 0.165829062 -0.12387713 8.9458008e-05
  endloop
 endfacet

 facet normal 0 0 0
  outer loop
  vertex 0.274438947 -0.0671753511 0.0380999967
  vertex 0.165829062 -0.12387713 8.9458008e-05
  vertex 0.282657683 0.00143922446 0.0380999967
  endloop
 endfacet

 facet normal 0 0 0
  outer loop
  vertex 0.222229108 0.173661307 0.0380999967
  vertex 0.256459862 0.124301545 0.0643694401
  vertex 0.258268684 0.114091374 0.0380999967
  endloop
 endfacet

 facet normal 0 0 0
  outer loop
  vertex 0.222229108 0.173661307 0.0380999967
  vertex 0.258268684 0.114091374 0.0380999967
  vertex 0.166164294 0.123895086 8.18449564e-07
  endloop
 endfacet

 facet normal 0 0 0
  outer loop
  vertex 0.222229108 0.173661307 0.0380999967
  vertex 0.166164294 0.123895086 8.18449564e-07
  vertex 0.172666326 0.222698212 0.0380999967
  endloop
 endfacet

 facet normal 0 0 0
  outer loop
  vertex 0.0270166118 -0.2637887 0.332476079
  vertex 0.0220710244 -0.254718304 0.356782198
  vertex -0.115376316 -0.25764057 0.248643965
  endloop
 endfacet

 facet normal 0 0 0
  outer loop
  vertex 0.214963019 -0.186635345 0.0645112991
  vertex 0.256049752 -0.125134751 0.0643694997
  vertex 0.236368686 -0.161916375 0.334697008
  endloop
 endfacet

 facet normal 0 0 0
  outer loop
  vertex -0.142129555 0.242706135 0.0380999967
  vertex -0.189905375 0.208121583 0.0380999967
  vertex -0.140016228 0.246732369 0.064521648
  endloop
 endfacet

 facet normal 0 0 0
  outer loop
  vertex -0.142129555 0.242706135 0.0380999967
  vertex -0.140016228 0.246732369 0.064521648
  vertex -0.100202188 0.255441189 0.0380999967
  endloop
 endfacet

 facet normal 0 0 0
  outer loop
  vertex -0.142129555 0.242706135 0.0380999967
  vertex -0.100202188 0.255441189 0.0380999967
  vertex -0.209835708 0.123895086 8.18449564e-07
  endloop
 endfacet

 facet normal 0 0 0
  outer loop
  vertex 0.278498411 0.0617429465 0.064449273
  vertex 0.258268684 0.114091374 0.0380999967
  vertex 0.256459862 0.124301545 0.0643694401
  endloop
 endfacet

 facet normal 0 0 0
  outer loop
  vertex 0.278498411 0.0617429465 0.064449273
  vertex 0.256459862 0.124301545 0.0643694401
  vertex 0.270344824 0.0946065858 0.334633321
  endloop
 endfacet

 facet normal 0 0 0
  outer loop
  vertex 0.278498411 0.0617429465 0.064449273
  vertex 0.270344824 0.0946065858 0.334633321
  vertex 0.285582304 0.0216288883 0.3346183
  endloop
 endfacet

 facet normal 0 0 0
  outer loop
  vertex 0.278498411 0.0617429465 0.064449273
  vertex 0.285582304 0.0216288883 0.3346183
  vertex 0.28639999 6.75620279e-18 0.101860911
  endloop
 endfacet

 facet normal 0 0 0
  outer loop
  vertex 0.278498411 0.0617429465 0.064449273
  vertex 0.28639999 6.75620279e-18 0.101860911
  vertex 0.282657683 0.00143922446 0.0380999967
  endloop
 endfacet

 facet normal 0 0 0
  outer loop
  vertex 0.139968351 -0.246710196 0.0645304769
  vertex 0.175167009 -0.220747083 0.0380999967
  vertex 0.158542082 -0.238957509 0.334846884
  endloop
 endfacet

 facet normal 0 0 0
  outer loop
  vertex 0.139968351 -0.246710196 0.0645304769
  vertex 0.158542082 -0.238957509 0.334846884
  vertex 0.120290287 -0.256748021 0.335033
  endloop
 endfacet

 facet normal 0 0 0
  outer loop
  vertex 0.139968351 -0.246710196 0.0645304769
  vertex 0.120290287 -0.256748021 0.335033
  vertex 0.100536376 -0.258116275 0.0645172223
  endloop
 endfacet

 facet normal 0 0 0
  outer loop
  vertex 0.139968351 -0.246710196 0.0645304769
  vertex 0.100536376 -0.258116275 0.0645172223
  vertex 0.100200526 -0.255434662 0.0380999967
  endloop
 endfacet

 facet normal 0 0 0
  outer loop
  vertex 0.0293597057 0.263737708 0.333941728
  vertex 0.0221539922 0.25474748 0.35678193
  vertex 0.0921127945 0.253534168 0.357655674
  endloop
 endfacet

 facet normal 0 0 0
  outer loop
  vertex 0.0293597057 0.263737708 0.333941728
  vertex 0.0921127945 0.253534168 0.357655674
  vertex 0.113141634 0.258544713 0.335026234
  endloop
 endfacet

 facet normal 0 0 0
  outer loop
  vertex 0.0293597057 0.263737708 0.333941728
  vertex 0.113141634 0.258544713 0.335026234
  vertex 0.100536786 0.258116245 0.0645172223
  endloop
 endfacet

 facet normal 0 0 0
  outer loop
  vertex 0.0293597057 0.263737708 0.333941728
  vertex -0.0936861113 0.261689156 0.249253854
  vertex 0.0221539922 0.25474748 0.35678193
  endloop
 endfacet

 facet normal 0 0 0
  outer loop
  vertex -0.130528986 -0.247831389 0.0380999967
  vertex -0.137984157 -0.247660905 0.0645215958
  vertex -0.174569398 -0.221150681 0.0380999967
  endloop
 endfacet

 facet normal 0 0 0
  outer loop
  vertex 0.144055709 0.244715586 0.0645317733
  vertex 0.100536786 0.258116245 0.0645172223
  vertex 0.113141634 0.258544713 0.335026234
  endloop
 endfacet

 facet normal 0 0 0
  outer loop
  vertex 0.144055709 0.244715586 0.0645317733
  vertex 0.113141634 0.258544713 0.335026234
  vertex 0.154399797 0.24159877 0.334831268
  endloop
 endfacet

 facet normal 0 0 0
  outer loop
  vertex -0.246539876 -0.131795779 0.357648998
  vertex -0.21981211 -0.163260952 0.358516932
  vertex -0.268186182 -0.0755709335 0.358252496
  endloop
 endfacet

 facet normal 0 0 0
  outer loop
  vertex -0.247099087 0.132095009 0.356759489
  vertex -0.2682302 0.0752526596 0.358252496
  vertex -0.220830202 0.164929837 0.35770157
  endloop
 endfacet

 facet normal 0 0 0
  outer loop
  vertex -0.233953983 0.165152758 0.339529693
  vertex -0.220830202 0.164929837 0.35770157
  vertex -0.157610908 0.239402965 0.254043251
  endloop
 endfacet

 facet normal 0 0 0
  outer loop
  vertex -0.233953983 0.165152758 0.339529693
  vertex -0.157610908 0.239402965 0.254043251
  vertex -0.212343246 0.193860263 0.293800354
  endloop
 endfacet

 facet normal 0 0 0
  outer loop
  vertex -0.233953983 0.165152758 0.339529693
  vertex -0.252515644 0.137282029 0.33463341
  vertex -0.247099087 0.132095009 0.356759489
  endloop
 endfacet

 facet normal 0 0 0
  outer loop
  vertex -0.233953983 0.165152758 0.339529693
  vertex -0.247099087 0.132095009 0.356759489
  vertex -0.220830202 0.164929837 0.35770157
  endloop
 endfacet

 facet normal 0 0 0
  outer loop
  vertex 0.14188996 -0.242780522 0.0380999967
  vertex 0.175167009 -0.220747083 0.0380999967
  vertex 0.139968351 -0.246710196 0.0645304769
  endloop
 endfacet

 facet normal 0 0 0
  outer loop
  vertex 0.14188996 -0.242780522 0.0380999967
  vertex 0.139968351 -0.246710196 0.0645304769
  vertex 0.100200526 -0.255434662 0.0380999967
  endloop
 endfacet

 facet normal 0 0 0
  outer loop
  vertex 0.14188996 -0.242780522 0.0380999967
  vertex 0.100200526 -0.255434662 0.0380999967
  vertex 0.165829062 -0.12387713 8.9458008e-05
  endloop
 endfacet

 facet normal 0 0 0
  outer loop
  vertex 0.14188996 -0.242780522 0.0380999967
  vertex 0.165829062 -0.12387713 8.9458008e-05
  vertex 0.175167009 -0.220747083 0.0380999967
  endloop
 endfacet

 facet normal 0 0 0
  outer loop
  vertex 0.273702592 0.0700754225 0.0380999967
  vertex 0.258268684 0.114091374 0.0380999967
  vertex 0.278498411 0.0617429465 0.064449273
  endloop
 endfacet

 facet normal 0 0 0
  outer loop
  vertex 0.273702592 0.0700754225 0.0380999967
  vertex 0.278498411 0.0617429465 0.064449273
  vertex 0.282657683 0.00143922446 0.0380999967
  endloop
 endfacet

 facet normal 0 0 0
  outer loop
  vertex 0.273702592 0.0700754225 0.0380999967
  vertex 0.282657683 0.00143922446 0.0380999967
  vertex 0.166164294 0.123895086 8.18449564e-07
  endloop
 endfacet

 facet normal 0 0 0
  outer loop
  vertex 0.273702592 0.0700754225 0.0380999967
  vertex 0.166164294 0.123895086 8.18449564e-07
  vertex 0.258268684 0.114091374 0.0380999967
  endloop
 endfacet

 facet normal 0 0 0
  outer loop
  vertex 0.224239454 -0.171080485 0.0380999967
  vertex 0.24946703 -0.132042959 0.0380999967
  vertex 0.256049752 -0.125134751 0.0643694997
  endloop
 endfacet

 facet normal 0 0 0
  outer loop
  vertex 0.224239454 -0.171080485 0.0380999967
  vertex 0.256049752 -0.125134751 0.0643694997
  vertex 0.214963019 -0.186635345 0.0645112991
  endloop
 endfacet

 facet normal 0 0 0
  outer loop
  vertex 0.224239454 -0.171080485 0.0380999967
  vertex 0.214963019 -0.186635345 0.0645112991
  vertex 0.175167009 -0.220747083 0.0380999967
  endloop
 endfacet

 facet normal 0 0 0
  outer loop
  vertex 0.224239454 -0.171080485 0.0380999967
  vertex 0.175167009 -0.220747083 0.0380999967
  vertex 0.165829062 -0.12387713 8.9458008e-05
  endloop
 endfacet

 facet normal 0 0 0
  outer loop
  vertex 0.224239454 -0.171080485 0.0380999967
  vertex 0.165829062 -0.12387713 8.9458008e-05
  vertex 0.24946703 -0.132042959 0.0380999967
  endloop
 endfacet

 facet normal 0 0 0
  outer loop
  vertex 0.130426884 0.24783425 0.0380999967
  vertex 0.100200526 0.255434662 0.0380999967
  vertex 0.100536786 0.258116245 0.0645172223
  endloop
 endfacet

 facet normal 0 0 0
  outer loop
  vertex 0.130426884 0.24783425 0.0380999967
  vertex 0.100536786 0.258116245 0.0645172223
  vertex 0.144055709 0.244715586 0.0645317733
  endloop
 endfacet

 facet normal 0 0 0
  outer loop
  vertex 0.130426884 0.24783425 0.0380999967
  vertex 0.144055709 0.244715586 0.0645317733
  vertex 0.172666326 0.222698212 0.0380999967
  endloop
 endfacet

 facet normal 0 0 0
  outer loop
  vertex 0.130426884 0.24783425 0.0380999967
  vertex 0.172666326 0.222698212 0.0380999967
  vertex 0.166164294 0.123895086 8.18449564e-07
  endloop
 endfacet

 facet normal 0 0 0
  outer loop
  vertex 0.130426884 0.24783425 0.0380999967
  vertex 0.166164294 0.123895086 8.18449564e-07
  vertex 0.100200526 0.255434662 0.0380999967
  endloop
 endfacet

 facet normal 0 0 0
  outer loop
  vertex -0.210170954 -0.12387713 8.9458008e-05
  vertex 0.165829062 -0.12387713 8.9458008e-05
  vertex -0.0923649818 -0.256207883 0.0380999967
  endloop
 endfacet

 facet normal 0 0 0
  outer loop
  vertex -0.210170954 -0.12387713 8.9458008e-05
  vertex -0.0923649818 -0.256207883 0.0380999967
  vertex -0.130528986 -0.247831389 0.0380999967
  endloop
 endfacet

 facet normal 0 0 0
  outer loop
  vertex -0.210170954 -0.12387713 8.9458008e-05
  vertex -0.130528986 -0.247831389 0.0380999967
  vertex -0.174569398 -0.221150681 0.0380999967
  endloop
 endfacet

 facet normal 0 0 0
  outer loop
  vertex -0.210170954 -0.12387713 8.9458008e-05
  vertex -0.174569398 -0.221150681 0.0380999967
  vertex -0.227915064 -0.122394815 0.00528953131
  endloop
 endfacet

 facet normal 0 0 0
  outer loop
  vertex 0.197446465 -0.20789291 0.316851825
  vertex 0.158542082 -0.238957509 0.334846884
  vertex 0.175167009 -0.220747083 0.0380999967
  endloop
 endfacet

 facet normal 0 0 0
  outer loop
  vertex 0.197446465 -0.20789291 0.316851825
  vertex 0.175167009 -0.220747083 0.0380999967
  vertex 0.214963019 -0.186635345 0.0645112991
  endloop
 endfacet

 facet normal 0 0 0
  outer loop
  vertex 0.197446465 -0.20789291 0.316851825
  vertex 0.214963019 -0.186635345 0.0645112991
  vertex 0.236368686 -0.161916375 0.334697008
  endloop
 endfacet

 facet normal 0 0 0
  outer loop
  vertex 0.249907836 0.134163812 0.347288728
  vertex 0.266460121 0.0811819509 0.357649088
  vertex 0.270344824 0.0946065858 0.334633321
  endloop
 endfacet

 facet normal 0 0 0
  outer loop
  vertex 0.249907836 0.134163812 0.347288728
  vertex 0.225227788 0.17712985 0.334708959
  vertex 0.220288724 0.169134364 0.358252645
  endloop
 endfacet

 facet normal 0 0 0
  outer loop
  vertex -0.279302627 -0.0545219034 0.0645123869
  vertex -0.267178357 -0.0896997526 0.0380999967
  vertex -0.264716148 -0.104269691 0.0643886924
  endloop
 endfacet

 facet normal 0 0 0
  outer loop
  vertex -0.279302627 -0.0545219034 0.0645123869
  vertex -0.279556364 -0.0648638383 0.332939267
  vertex -0.286869496 -0.00267413259 0.151336089
  endloop
 endfacet

 facet normal 0 0 0
  outer loop
  vertex -0.279302627 -0.0545219034 0.0645123869
  vertex -0.286869496 -0.00267413259 0.151336089
  vertex -0.28189519 0.00164269027 0.0380999967
  endloop
 endfacet

 facet normal 0 0 0
  outer loop
  vertex 0.190828636 -0.210089296 0.347267121
  vertex 0.158542082 -0.238957509 0.334846884
  vertex 0.197446465 -0.20789291 0.316851825
  endloop
 endfacet

 facet normal 0 0 0
  outer loop
  vertex 0.190828636 -0.210089296 0.347267121
  vertex 0.197446465 -0.20789291 0.316851825
  vertex 0.236368686 -0.161916375 0.334697008
  endloop
 endfacet

 facet normal 0 0 0
  outer loop
  vertex 0.190828636 -0.210089296 0.347267121
  vertex 0.236368686 -0.161916375 0.334697008
  vertex 0.217366979 -0.172891319 0.358252704
  endloop
 endfacet

 facet normal 0 0 0
  outer loop
  vertex 0.190828636 -0.210089296 0.347267121
  vertex 0.154128641 -0.23235701 0.357652366
  vertex 0.158542082 -0.238957509 0.334846884
  endloop
 endfacet

 facet normal 0 0 0
  outer loop
  vertex -0.151342362 -0.244265229 0.243356511
  vertex -0.183406904 -0.221451104 0.262992859
  vertex -0.174569398 -0.221150681 0.0380999967
  endloop
 endfacet

 facet normal 0 0 0
  outer loop
  vertex -0.151342362 -0.244265229 0.243356511
  vertex -0.174569398 -0.221150681 0.0380999967
  vertex -0.137984157 -0.247660905 0.0645215958
  endloop
 endfacet

 facet normal 0 0 0
  outer loop
  vertex -0.151342362 -0.244265229 0.243356511
  vertex -0.137984157 -0.247660905 0.0645215958
  vertex -0.115376316 -0.25764057 0.248643965
  endloop
 endfacet

 facet normal 0 0 0
  outer loop
  vertex -0.151342362 -0.244265229 0.243356511
  vertex -0.115376316 -0.25764057 0.248643965
  vertex -0.22861819 -0.167024389 0.345702261
  endloop
 endfacet

 facet normal 0 0 0
  outer loop
  vertex -0.151342362 -0.244265229 0.243356511
  vertex -0.22861819 -0.167024389 0.345702261
  vertex -0.183406904 -0.221451104 0.262992859
  endloop
 endfacet

 facet normal 0 0 0
  outer loop
  vertex 0.193098947 0.207979143 0.347271681
  vertex 0.154399797 0.24159877 0.334831268
  vertex 0.154121816 0.232346773 0.357652068
  endloop
 endfacet

 facet normal 0 0 0
  outer loop
  vertex 0.193098947 0.207979143 0.347271681
  vertex 0.220288724 0.169134364 0.358252645
  vertex 0.225227788 0.17712985 0.334708959
  endloop
 endfacet

 facet normal 0 0 0
  outer loop
  vertex -0.225239202 -0.178698853 0.312730193
  vertex -0.200377762 -0.201870516 0.0643923059
  vertex -0.183406904 -0.221451104 0.262992859
  endloop
 endfacet

 facet normal 0 0 0
  outer loop
  vertex -0.225239202 -0.178698853 0.312730193
  vertex -0.183406904 -0.221451104 0.262992859
  vertex -0.22861819 -0.167024389 0.345702261
  endloop
 endfacet

 facet normal 0 0 0
  outer loop
  vertex -0.225239202 -0.178698853 0.312730193
  vertex -0.22861819 -0.167024389 0.345702261
  vertex -0.252512455 -0.137289971 0.334635198
  endloop
 endfacet

 facet normal 0 0 0
  outer loop
  vertex 0.203682974 0.200016066 0.0997799933
  vertex 0.222229108 0.173661307 0.0380999967
  vertex 0.172666326 0.222698212 0.0380999967
  endloop
 endfacet

 facet normal 0 0 0
  outer loop
  vertex -0.132131472 0.253266364 0.240292162
  vertex -0.140016228 0.246732369 0.064521648
  vertex -0.157610908 0.239402965 0.254043251
  endloop
 endfacet

 facet normal 0 0 0
  outer loop
  vertex -0.132131472 0.253266364 0.240292162
  vertex -0.157610908 0.239402965 0.254043251
  vertex 0.0221539922 0.25474748 0.35678193
  endloop
 endfacet

 facet normal 0 0 0
  outer loop
  vertex -0.132131472 0.253266364 0.240292162
  vertex 0.0221539922 0.25474748 0.35678193
  vertex -0.0936861113 0.261689156 0.249253854
  endloop
 endfacet

 facet normal 0 0 0
  outer loop
  vertex -0.000305695867 0.262422293 0.0977033898
  vertex -0.0936861113 0.261689156 0.249253854
  vertex 0.0293597057 0.263737708 0.333941728
  endloop
 endfacet

 facet normal 0 0 0
  outer loop
  vertex -0.000305695867 0.262422293 0.0977033898
  vertex 0.0293597057 0.263737708 0.333941728
  vertex 0.100536786 0.258116245 0.0645172223
  endloop
 endfacet

 facet normal 0 0 0
  outer loop
  vertex 0.274807364 -0.0492141731 0.356758893
  vertex 0.278541952 -0.000158789291 0.357649028
  vertex 0.260916412 -0.0975646153 0.357649297
  endloop
 endfacet

 facet normal 0 0 0
  outer loop
  vertex 0.274807364 -0.0492141731 0.356758893
  vertex 0.260916412 -0.0975646153 0.357649297
  vertex 0.276558042 -0.0744763464 0.334626585
  endloop
 endfacet

 facet normal 0 0 0
  outer loop
  vertex 0.285496742 -0.0227310061 0.334618419
  vertex 0.28639999 6.75620279e-18 0.101860911
  vertex 0.285582304 0.0216288883 0.3346183
  endloop
 endfacet

 facet normal 0 0 0
  outer loop
  vertex 0.285496742 -0.0227310061 0.334618419
  vertex 0.285582304 0.0216288883 0.3346183
  vertex 0.278541952 -0.000158789291 0.357649028
  endloop
 endfacet

 facet normal 0 0 0
  outer loop
  vertex 0.285496742 -0.0227310061 0.334618419
  vertex 0.278541952 -0.000158789291 0.357649028
  vertex 0.274807364 -0.0492141731 0.356758893
  endloop
 endfacet

 facet normal 0 0 0
  outer loop
  vertex 0.285496742 -0.0227310061 0.334618419
  vertex 0.274807364 -0.0492141731 0.356758893
  vertex 0.276558042 -0.0744763464 0.334626585
  endloop
 endfacet

 facet normal 0 0 0
  outer loop
  vertex -0.214517862 0.186793298 0.064526245
  vertex -0.189905375 0.208121583 0.0380999967
  vertex -0.235281304 0.155024707 0.0380999967
  endloop
 endfacet

 facet normal 0 0 0
  outer loop
  vertex 0.261742353 -0.116356172 0.334648788
  vertex 0.256049752 -0.125134751 0.0643694997
  vertex 0.276558042 -0.0744763464 0.334626585
  endloop
 endfacet

 facet normal 0 0 0
  outer loop
  vertex 0.261742353 -0.116356172 0.334648788
  vertex 0.276558042 -0.0744763464 0.334626585
  vertex 0.260916412 -0.0975646153 0.357649297
  endloop
 endfacet

 facet normal 0 0 0
  outer loop
  vertex 0.261742353 -0.116356172 0.334648788
  vertex 0.236368686 -0.161916375 0.334697008
  vertex 0.256049752 -0.125134751 0.0643694997
  endloop
 endfacet

 facet normal 0 0 0
  outer loop
  vertex 0.123520933 0.248031631 0.356769115
  vertex 0.154121816 0.232346773 0.357652068
  vertex 0.154399797 0.24159877 0.334831268
  endloop
 endfacet

 facet normal 0 0 0
  outer loop
  vertex 0.123520933 0.248031631 0.356769115
  vertex 0.154399797 0.24159877 0.334831268
  vertex 0.113141634 0.258544713 0.335026234
  endloop
 endfacet

 facet normal 0 0 0
  outer loop
  vertex 0.123520933 0.248031631 0.356769115
  vertex 0.113141634 0.258544713 0.335026234
  vertex 0.0921127945 0.253534168 0.357655674
  endloop
 endfacet

 facet normal 0 0 0
  outer loop
  vertex 0.123520933 0.248031631 0.356769115
  vertex 0.0921127945 0.253534168 0.357655674
  vertex 0.154121816 0.232346773 0.357652068
  endloop
 endfacet

 facet normal 0 0 0
  outer loop
  vertex 0.123400189 -0.248090267 0.356769949
  vertex 0.092066735 -0.253556758 0.357656181
  vertex 0.120290287 -0.256748021 0.335033
  endloop
 endfacet

 facet normal 0 0 0
  outer loop
  vertex 0.123400189 -0.248090267 0.356769949
  vertex 0.120290287 -0.256748021 0.335033
  vertex 0.158542082 -0.238957509 0.334846884
  endloop
 endfacet

 facet normal 0 0 0
  outer loop
  vertex 0.123400189 -0.248090267 0.356769949
  vertex 0.158542082 -0.238957509 0.334846884
  vertex 0.154128641 -0.23235701 0.357652366
  endloop
 endfacet

 facet normal 0 0 0
  outer loop
  vertex 0.123400189 -0.248090267 0.356769949
  vertex 0.154128641 -0.23235701 0.357652366
  vertex 0.092066735 -0.253556758 0.357656181
  endloop
 endfacet

 facet normal 0 0 0
  outer loop
  vertex -0.282607675 0.0335407779 0.0645107403
  vertex -0.286869496 -0.00267413259 0.151336089
  vertex -0.279494703 0.0679999441 0.326118946
  endloop
 endfacet

 facet normal 0 0 0
  outer loop
  vertex -0.282607675 0.0335407779 0.0645107403
  vertex -0.279494703 0.0679999441 0.326118946
  vertex -0.272923648 0.0703939795 0.0380999967
  endloop
 endfacet

 facet normal 0 0 0
  outer loop
  vertex -0.282607675 0.0335407779 0.0645107403
  vertex -0.272923648 0.0703939795 0.0380999967
  vertex -0.28189519 0.00164269027 0.0380999967
  endloop
 endfacet

 facet normal 0 0 0
  outer loop
  vertex -0.282607675 0.0335407779 0.0645107403
  vertex -0.28189519 0.00164269027 0.0380999967
  vertex -0.286869496 -0.00267413259 0.151336089
  endloop
 endfacet

 facet normal 0 0 0
  outer loop
  vertex -0.224354208 0.124247827 0.00339988503
  vertex -0.235227004 0.127043068 0.0133691859
  vertex -0.189905375 0.208121583 0.0380999967
  endloop
 endfacet

 facet normal 0 0 0
  outer loop
  vertex -0.224354208 0.124247827 0.00339988503
  vertex -0.189905375 0.208121583 0.0380999967
  vertex -0.142129555 0.242706135 0.0380999967
  endloop
 endfacet

 facet normal 0 0 0
  outer loop
  vertex -0.224354208 0.124247827 0.00339988503
  vertex -0.142129555 0.242706135 0.0380999967
  vertex -0.209835708 0.123895086 8.18449564e-07
  endloop
 endfacet

 facet normal 0 0 0
  outer loop
  vertex -0.224354208 0.124247827 0.00339988503
  vertex -0.209835708 0.123895086 8.18449564e-07
  vertex -0.210170954 -0.12387713 8.9458008e-05
  endloop
 endfacet

 facet normal 0 0 0
  outer loop
  vertex -0.224354208 0.124247827 0.00339988503
  vertex -0.210170954 -0.12387713 8.9458008e-05
  vertex -0.227915064 -0.122394815 0.00528953131
  endloop
 endfacet

 facet normal 0 0 0
  outer loop
  vertex -0.224354208 0.124247827 0.00339988503
  vertex -0.227915064 -0.122394815 0.00528953131
  vertex -0.28189519 0.00164269027 0.0380999967
  endloop
 endfacet

 facet normal 0 0 0
  outer loop
  vertex -0.224354208 0.124247827 0.00339988503
  vertex -0.28189519 0.00164269027 0.0380999967
  vertex -0.272923648 0.0703939795 0.0380999967
  endloop
 endfacet

 facet normal 0 0 0
  outer loop
  vertex -0.224354208 0.124247827 0.00339988503
  vertex -0.272923648 0.0703939795 0.0380999967
  vertex -0.235227004 0.127043068 0.0133691859
  endloop
 endfacet

 facet normal 0 0 0
  outer loop
  vertex -0.208486199 -0.189505085 0.0380999967
  vertex -0.236960679 -0.152449399 0.0380999967
  vertex -0.227915064 -0.122394815 0.00528953131
  endloop
 endfacet

 facet normal 0 0 0
  outer loop
  vertex -0.208486199 -0.189505085 0.0380999967
  vertex -0.227915064 -0.122394815 0.00528953131
  vertex -0.174569398 -0.221150681 0.0380999967
  endloop
 endfacet

 facet normal 0 0 0
  outer loop
  vertex -0.208486199 -0.189505085 0.0380999967
  vertex -0.174569398 -0.221150681 0.0380999967
  vertex -0.200377762 -0.201870516 0.0643923059
  endloop
 endfacet

 facet normal 0 0 0
  outer loop
  vertex -0.278314501 -0.0446927436 0.0380999967
  vertex -0.267178357 -0.0896997526 0.0380999967
  vertex -0.279302627 -0.0545219034 0.0645123869
  endloop
 endfacet

 facet normal 0 0 0
  outer loop
  vertex -0.278314501 -0.0446927436 0.0380999967
  vertex -0.279302627 -0.0545219034 0.0645123869
  vertex -0.28189519 0.00164269027 0.0380999967
  endloop
 endfacet

 facet normal 0 0 0
  outer loop
  vertex -0.278314501 -0.0446927436 0.0380999967
  vertex -0.28189519 0.00164269027 0.0380999967
  vertex -0.227915064 -0.122394815 0.00528953131
  endloop
 endfacet

 facet normal 0 0 0
  outer loop
  vertex -0.278314501 -0.0446927436 0.0380999967
  vertex -0.227915064 -0.122394815 0.00528953131
  vertex -0.267178357 -0.0896997526 0.0380999967
  endloop
 endfacet

 facet normal 0 0 0
  outer loop
  vertex -0.257528067 0.114425443 0.0380999967
  vertex -0.264426917 0.105023161 0.0645184219
  vertex -0.235281304 0.155024707 0.0380999967
  endloop
 endfacet

 facet normal 0 0 0
  outer loop
  vertex -0.257528067 0.114425443 0.0380999967
  vertex -0.235281304 0.155024707 0.0380999967
  vertex -0.235227004 0.127043068 0.0133691859
  endloop
 endfacet

 facet normal 0 0 0
  outer loop
  vertex -0.257528067 0.114425443 0.0380999967
  vertex -0.235227004 0.127043068 0.0133691859
  vertex -0.272923648 0.0703939795 0.0380999967
  endloop
 endfacet

 facet normal 0 0 0
  outer loop
  vertex -0.257528067 0.114425443 0.0380999967
  vertex -0.272923648 0.0703939795 0.0380999967
  vertex -0.264426917 0.105023161 0.0645184219
  endloop
 endfacet

 facet normal 0 0 0
  outer loop
  vertex 0.28095901 -0.0549893416 0.101682037
  vertex 0.28639999 6.75620279e-18 0.101860911
  vertex 0.285496742 -0.0227310061 0.334618419
  endloop
 endfacet

 facet normal 0 0 0
  outer loop
  vertex 0.28095901 -0.0549893416 0.101682037
  vertex 0.285496742 -0.0227310061 0.334618419
  vertex 0.276558042 -0.0744763464 0.334626585
  endloop
 endfacet

 facet normal 0 0 0
  outer loop
  vertex 0.28095901 -0.0549893416 0.101682037
  vertex 0.276558042 -0.0744763464 0.334626585
  vertex 0.256049752 -0.125134751 0.0643694997
  endloop
 endfacet

 facet normal 0 0 0
  outer loop
  vertex 0.28095901 -0.0549893416 0.101682037
  vertex 0.256049752 -0.125134751 0.0643694997
  vertex 0.274438947 -0.0671753511 0.0380999967
  endloop
 endfacet

 facet normal 0 0 0
  outer loop
  vertex 0.28095901 -0.0549893416 0.101682037
  vertex 0.274438947 -0.0671753511 0.0380999967
  vertex 0.282657683 0.00143922446 0.0380999967
  endloop
 endfacet

 facet normal 0 0 0
  outer loop
  vertex 0.28095901 -0.0549893416 0.101682037
  vertex 0.282657683 0.00143922446 0.0380999967
  vertex 0.28639999 6.75620279e-18 0.101860911
  endloop
 endfacet

 facet normal 0 0 0
  outer loop
  vertex -0.271077186 0.086650081 0.347296536
  vertex -0.252515644 0.137282029 0.33463341
  vertex -0.279494703 0.0679999441 0.326118946
  endloop
 endfacet

 facet normal 0 0 0
  outer loop
  vertex -0.271077186 0.086650081 0.347296536
  vertex -0.279494703 0.0679999441 0.326118946
  vertex -0.2682302 0.0752526596 0.358252496
  endloop
 endfacet

 facet normal 0 0 0
  outer loop
  vertex -0.271077186 0.086650081 0.347296536
  vertex -0.2682302 0.0752526596 0.358252496
  vertex -0.247099087 0.132095009 0.356759489
  endloop
 endfacet

 facet normal 0 0 0
  outer loop
  vertex -0.271077186 0.086650081 0.347296536
  vertex -0.247099087 0.132095009 0.356759489
  vertex -0.252515644 0.137282029 0.33463341
  endloop
 endfacet

 facet normal 0 0 0
  outer loop
  vertex -0.268782437 -0.0935274288 0.347296447
  vertex -0.252512455 -0.137289971 0.334635198
  vertex -0.246539876 -0.131795779 0.357648998
  endloop
 endfacet

 facet normal 0 0 0
  outer loop
  vertex -0.268782437 -0.0935274288 0.347296447
  vertex -0.246539876 -0.131795779 0.357648998
  vertex -0.268186182 -0.0755709335 0.358252496
  endloop
 endfacet

 facet normal 0 0 0
  outer loop
  vertex -0.268782437 -0.0935274288 0.347296447
  vertex -0.268186182 -0.0755709335 0.358252496
  vertex -0.279556364 -0.0648638383 0.332939267
  endloop
 endfacet

 facet normal 0 0 0
  outer loop
  vertex 0.243024498 -0.137508348 0.356760323
  vertex 0.236368686 -0.161916375 0.334697008
  vertex 0.261742353 -0.116356172 0.334648788
  endloop
 endfacet

 facet normal 0 0 0
  outer loop
  vertex 0.243024498 -0.137508348 0.356760323
  vertex 0.261742353 -0.116356172 0.334648788
  vertex 0.260916412 -0.0975646153 0.357649297
  endloop
 endfacet

 facet normal 0 0 0
  outer loop
  vertex 0.243024498 -0.137508348 0.356760323
  vertex 0.260916412 -0.0975646153 0.357649297
  vertex 0.217366979 -0.172891319 0.358252704
  endloop
 endfacet

 facet normal 0 0 0
  outer loop
  vertex 0.243024498 -0.137508348 0.356760323
  vertex 0.217366979 -0.172891319 0.358252704
  vertex 0.236368686 -0.161916375 0.334697008
  endloop
 endfacet

 facet normal 0 0 0
  outer loop
  vertex -0.18391642 0.219512299 0.137459427
  vertex -0.189905375 0.208121583 0.0380999967
  vertex -0.214517862 0.186793298 0.064526245
  endloop
 endfacet

 facet normal 0 0 0
  outer loop
  vertex -0.18391642 0.219512299 0.137459427
  vertex -0.214517862 0.186793298 0.064526245
  vertex -0.212343246 0.193860263 0.293800354
  endloop
 endfacet

 facet normal 0 0 0
  outer loop
  vertex -0.18391642 0.219512299 0.137459427
  vertex -0.212343246 0.193860263 0.293800354
  vertex -0.157610908 0.239402965 0.254043251
  endloop
 endfacet

 facet normal 0 0 0
  outer loop
  vertex -0.18391642 0.219512299 0.137459427
  vertex -0.157610908 0.239402965 0.254043251
  vertex -0.140016228 0.246732369 0.064521648
  endloop
 endfacet

 facet normal 0 0 0
  outer loop
  vertex -0.18391642 0.219512299 0.137459427
  vertex -0.140016228 0.246732369 0.064521648
  vertex -0.189905375 0.208121583 0.0380999967
  endloop
 endfacet

 facet normal 0 0 0
  outer loop
  vertex 0.244795248 0.132992014 0.357649624
  vertex 0.266460121 0.0811819509 0.357649088
  vertex 0.249907836 0.134163812 0.347288728
  endloop
 endfacet

 facet normal 0 0 0
  outer loop
  vertex 0.244795248 0.132992014 0.357649624
  vertex 0.249907836 0.134163812 0.347288728
  vertex 0.220288724 0.169134364 0.358252645
  endloop
 endfacet

 facet normal 0 0 0
  outer loop
  vertex 0.244795248 0.132992014 0.357649624
  vertex 0.220288724 0.169134364 0.358252645
  vertex 0.266460121 0.0811819509 0.357649088
  endloop
 endfacet

 facet normal 0 0 0
  outer loop
  vertex 0.238766909 0.156939521 0.100543924
  vertex 0.256459862 0.124301545 0.0643694401
  vertex 0.222229108 0.173661307 0.0380999967
  endloop
 endfacet

 facet normal 0 0 0
  outer loop
  vertex 0.238766909 0.156939521 0.100543924
  vertex 0.222229108 0.173661307 0.0380999967
  vertex 0.203682974 0.200016066 0.0997799933
  endloop
 endfacet

 facet normal 0 0 0
  outer loop
  vertex 0.238766909 0.156939521 0.100543924
  vertex 0.203682974 0.200016066 0.0997799933
  vertex 0.225227788 0.17712985 0.334708959
  endloop
 endfacet

 facet normal 0 0 0
  outer loop
  vertex 0.280240744 0.0434634499 0.347296447
  vertex 0.278541952 -0.000158789291 0.357649028
  vertex 0.285582304 0.0216288883 0.3346183
  endloop
 endfacet

 facet normal 0 0 0
  outer loop
  vertex 0.280240744 0.0434634499 0.347296447
  vertex 0.285582304 0.0216288883 0.3346183
  vertex 0.270344824 0.0946065858 0.334633321
  endloop
 endfacet

 facet normal 0 0 0
  outer loop
  vertex 0.280240744 0.0434634499 0.347296447
  vertex 0.270344824 0.0946065858 0.334633321
  vertex 0.266460121 0.0811819509 0.357649088
  endloop
 endfacet

 facet normal 0 0 0
  outer loop
  vertex 0.280240744 0.0434634499 0.347296447
  vertex 0.266460121 0.0811819509 0.357649088
  vertex 0.278541952 -0.000158789291 0.357649028
  endloop
 endfacet

 facet normal 0 0 0
  outer loop
  vertex 0.0077014477 -0.261269033 0.0643841848
  vertex 0.100536376 -0.258116275 0.0645172223
  vertex -0.000306269852 -0.263367265 0.137459427
  endloop
 endfacet

 facet normal 0 0 0
  outer loop
  vertex 0.0077014477 -0.261269033 0.0643841848
  vertex -0.000306269852 -0.263367265 0.137459427
  vertex -0.0835268721 -0.261523813 0.137459427
  endloop
 endfacet

 facet normal 0 0 0
  outer loop
  vertex 0.0077014477 -0.261269033 0.0643841848
  vertex -0.0835268721 -0.261523813 0.137459427
  vertex -0.0923649818 -0.256207883 0.0380999967
  endloop
 endfacet

 facet normal 0 0 0
  outer loop
  vertex 0.0077014477 -0.261269033 0.0643841848
  vertex -0.0923649818 -0.256207883 0.0380999967
  vertex 0.100200526 -0.255434662 0.0380999967
  endloop
 endfacet

 facet normal 0 0 0
  outer loop
  vertex 0.0077014477 -0.261269033 0.0643841848
  vertex 0.100200526 -0.255434662 0.0380999967
  vertex 0.100536376 -0.258116275 0.0645172223
  endloop
 endfacet

 facet normal 0 0 0
  outer loop
  vertex -0.0743003637 -0.262810916 0.260537356
  vertex -0.115376316 -0.25764057 0.248643965
  vertex -0.0835268721 -0.261523813 0.137459427
  endloop
 endfacet

 facet normal 0 0 0
  outer loop
  vertex -0.0743003637 -0.262810916 0.260537356
  vertex -0.0835268721 -0.261523813 0.137459427
  vertex -0.000306269852 -0.263367265 0.137459427
  endloop
 endfacet

 facet normal 0 0 0
  outer loop
  vertex -0.0743003637 -0.262810916 0.260537356
  vertex -0.000306269852 -0.263367265 0.137459427
  vertex 0.0270166118 -0.2637887 0.332476079
  endloop
 endfacet

 facet normal 0 0 0
  outer loop
  vertex -0.0743003637 -0.262810916 0.260537356
  vertex 0.0270166118 -0.2637887 0.332476079
  vertex -0.115376316 -0.25764057 0.248643965
  endloop
 endfacet

 facet normal 0 0 0
  outer loop
  vertex -0.239291981 0.157372132 0.137459427
  vertex -0.252515644 0.137282029 0.33463341
  vertex -0.233953983 0.165152758 0.339529693
  endloop
 endfacet

 facet normal 0 0 0
  outer loop
  vertex -0.239291981 0.157372132 0.137459427
  vertex -0.233953983 0.165152758 0.339529693
  vertex -0.212343246 0.193860263 0.293800354
  endloop
 endfacet

 facet normal 0 0 0
  outer loop
  vertex -0.239291981 0.157372132 0.137459427
  vertex -0.212343246 0.193860263 0.293800354
  vertex -0.214517862 0.186793298 0.064526245
  endloop
 endfacet

 facet normal 0 0 0
  outer loop
  vertex -0.239291981 0.157372132 0.137459427
  vertex -0.214517862 0.186793298 0.064526245
  vertex -0.235281304 0.155024707 0.0380999967
  endloop
 endfacet

 facet normal 0 0 0
  outer loop
  vertex -0.239291981 0.157372132 0.137459427
  vertex -0.235281304 0.155024707 0.0380999967
  vertex -0.264426917 0.105023161 0.0645184219
  endloop
 endfacet

 facet normal 0 0 0
  outer loop
  vertex -0.239291981 0.157372132 0.137459427
  vertex -0.264426917 0.105023161 0.0645184219
  vertex -0.252515644 0.137282029 0.33463341
  endloop
 endfacet

 facet normal 0 0 0
  outer loop
  vertex -0.239291981 -0.157372132 0.137459427
  vertex -0.236960679 -0.152449399 0.0380999967
  vertex -0.208486199 -0.189505085 0.0380999967
  endloop
 endfacet

 facet normal 0 0 0
  outer loop
  vertex -0.239291981 -0.157372132 0.137459427
  vertex -0.208486199 -0.189505085 0.0380999967
  vertex -0.200377762 -0.201870516 0.0643923059
  endloop
 endfacet

 facet normal 0 0 0
  outer loop
  vertex -0.239291981 -0.157372132 0.137459427
  vertex -0.200377762 -0.201870516 0.0643923059
  vertex -0.225239202 -0.178698853 0.312730193
  endloop
 endfacet

 facet normal 0 0 0
  outer loop
  vertex -0.239291981 -0.157372132 0.137459427
  vertex -0.225239202 -0.178698853 0.312730193
  vertex -0.252512455 -0.137289971 0.334635198
  endloop
 endfacet

 facet normal 0 0 0
  outer loop
  vertex -0.239291981 -0.157372132 0.137459427
  vertex -0.252512455 -0.137289971 0.334635198
  vertex -0.264716148 -0.104269691 0.0643886924
  endloop
 endfacet

 facet normal 0 0 0
  outer loop
  vertex -0.239291981 -0.157372132 0.137459427
  vertex -0.264716148 -0.104269691 0.0643886924
  vertex -0.236960679 -0.152449399 0.0380999967
  endloop
 endfacet

 facet normal 0 0 0
  outer loop
  vertex -0.230578557 -0.157933667 0.356831074
  vertex -0.21981211 -0.163260952 0.358516932
  vertex -0.246539876 -0.131795779 0.357648998
  endloop
 endfacet

 facet normal 0 0 0
  outer loop
  vertex -0.230578557 -0.157933667 0.356831074
  vertex -0.246539876 -0.131795779 0.357648998
  vertex -0.252512455 -0.137289971 0.334635198
  endloop
 endfacet

 facet normal 0 0 0
  outer loop
  vertex -0.230578557 -0.157933667 0.356831074
  vertex -0.252512455 -0.137289971 0.334635198
  vertex -0.22861819 -0.167024389 0.345702261
  endloop
 endfacet

 facet normal 0 0 0
  outer loop
  vertex -0.230578557 -0.157933667 0.356831074
  vertex -0.22861819 -0.167024389 0.345702261
  vertex -0.21981211 -0.163260952 0.358516932
  endloop
 endfacet

 facet normal 0 0 0
  outer loop
  vertex 0.0899091363 -0.262039751 0.313293695
  vertex 0.0270166118 -0.2637887 0.332476079
  vertex -0.000306269852 -0.263367265 0.137459427
  endloop
 endfacet

 facet normal 0 0 0
  outer loop
  vertex 0.0899091363 -0.262039751 0.313293695
  vertex -0.000306269852 -0.263367265 0.137459427
  vertex 0.100536376 -0.258116275 0.0645172223
  endloop
 endfacet

 facet normal 0 0 0
  outer loop
  vertex 0.0899091363 -0.262039751 0.313293695
  vertex 0.100536376 -0.258116275 0.0645172223
  vertex 0.120290287 -0.256748021 0.335033
  endloop
 endfacet

 facet normal 0 0 0
  outer loop
  vertex -0.110739104 -0.257528245 0.0977033898
  vertex -0.0923649818 -0.256207883 0.0380999967
  vertex -0.0835268721 -0.261523813 0.137459427
  endloop
 endfacet

 facet normal 0 0 0
  outer loop
  vertex -0.110739104 -0.257528245 0.0977033898
  vertex -0.0835268721 -0.261523813 0.137459427
  vertex -0.115376316 -0.25764057 0.248643965
  endloop
 endfacet

 facet normal 0 0 0
  outer loop
  vertex -0.110739104 -0.257528245 0.0977033898
  vertex -0.115376316 -0.25764057 0.248643965
  vertex -0.137984157 -0.247660905 0.0645215958
  endloop
 endfacet

 facet normal 0 0 0
  outer loop
  vertex -0.110739104 -0.257528245 0.0977033898
  vertex -0.137984157 -0.247660905 0.0645215958
  vertex -0.130528986 -0.247831389 0.0380999967
  endloop
 endfacet

 facet normal 0 0 0
  outer loop
  vertex -0.110739104 -0.257528245 0.0977033898
  vertex -0.130528986 -0.247831389 0.0380999967
  vertex -0.0923649818 -0.256207883 0.0380999967
  endloop
 endfacet

 facet normal 0 0 0
  outer loop
  vertex 0.184832886 0.219216824 0.316419542
  vertex 0.193098947 0.207979143 0.347271681
  vertex 0.225227788 0.17712985 0.334708959
  endloop
 endfacet

 facet normal 0 0 0
  outer loop
  vertex 0.184832886 0.219216824 0.316419542
  vertex 0.225227788 0.17712985 0.334708959
  vertex 0.203682974 0.200016066 0.0997799933
  endloop
 endfacet

 facet normal 0 0 0
  outer loop
  vertex 0.184832886 0.219216824 0.316419542
  vertex 0.203682974 0.200016066 0.0997799933
  vertex 0.172666326 0.222698212 0.0380999967
  endloop
 endfacet

 facet normal 0 0 0
  outer loop
  vertex 0.184832886 0.219216824 0.316419542
  vertex 0.172666326 0.222698212 0.0380999967
  vertex 0.144055709 0.244715586 0.0645317733
  endloop
 endfacet

 facet normal 0 0 0
  outer loop
  vertex 0.184832886 0.219216824 0.316419542
  vertex 0.144055709 0.244715586 0.0645317733
  vertex 0.154399797 0.24159877 0.334831268
  endloop
 endfacet

 facet normal 0 0 0
  outer loop
  vertex 0.184832886 0.219216824 0.316419542
  vertex 0.154399797 0.24159877 0.334831268
  vertex 0.193098947 0.207979143 0.347271681
  endloop
 endfacet

 facet normal 0 0 0
  outer loop
  vertex 0.186963767 0.206721365 0.357651383
  vertex 0.220288724 0.169134364 0.358252645
  vertex 0.193098947 0.207979143 0.347271681
  endloop
 endfacet

 facet normal 0 0 0
  outer loop
  vertex 0.186963767 0.206721365 0.357651383
  vertex 0.193098947 0.207979143 0.347271681
  vertex 0.154121816 0.232346773 0.357652068
  endloop
 endfacet

 facet normal 0 0 0
  outer loop
  vertex 0.186963767 0.206721365 0.357651383
  vertex 0.154121816 0.232346773 0.357652068
  vertex 0.220288724 0.169134364 0.358252645
  endloop
 endfacet

 facet normal 0 0 0
  outer loop
  vertex -0.111109115 0.258393228 0.137459427
  vertex -0.100202188 0.255441189 0.0380999967
  vertex -0.140016228 0.246732369 0.064521648
  endloop
 endfacet

 facet normal 0 0 0
  outer loop
  vertex -0.111109115 0.258393228 0.137459427
  vertex -0.140016228 0.246732369 0.064521648
  vertex -0.132131472 0.253266364 0.240292162
  endloop
 endfacet

 facet normal 0 0 0
  outer loop
  vertex -0.111109115 0.258393228 0.137459427
  vertex -0.132131472 0.253266364 0.240292162
  vertex -0.0936861113 0.261689156 0.249253854
  endloop
 endfacet

 facet normal 0 0 0
  outer loop
  vertex -0.111109115 0.258393228 0.137459427
  vertex -0.0936861113 0.261689156 0.249253854
  vertex -0.000305695867 0.262422293 0.0977033898
  endloop
 endfacet

 facet normal 0 0 0
  outer loop
  vertex -0.111109115 0.258393228 0.137459427
  vertex -0.000305695867 0.262422293 0.0977033898
  vertex -0.100202188 0.255441189 0.0380999967
  endloop
 endfacet

 facet normal 0 0 0
  outer loop
  vertex 0.0332888514 0.258354306 0.0380999967
  vertex -0.100202188 0.255441189 0.0380999967
  vertex -0.000305695867 0.262422293 0.0977033898
  endloop
 endfacet

 facet normal 0 0 0
  outer loop
  vertex 0.0332888514 0.258354306 0.0380999967
  vertex -0.000305695867 0.262422293 0.0977033898
  vertex 0.100536786 0.258116245 0.0645172223
  endloop
 endfacet

 facet normal 0 0 0
  outer loop
  vertex 0.0332888514 0.258354306 0.0380999967
  vertex 0.100536786 0.258116245 0.0645172223
  vertex 0.100200526 0.255434662 0.0380999967
  endloop
 endfacet

 facet normal 0 0 0
  outer loop
  vertex 0.0332888514 0.258354306 0.0380999967
  vertex 0.100200526 0.255434662 0.0380999967
  vertex 0.166164294 0.123895086 8.18449564e-07
  endloop
 endfacet

 facet normal 0 0 0
  outer loop
  vertex 0.0332888514 0.258354306 0.0380999967
  vertex 0.166164294 0.123895086 8.18449564e-07
  vertex -0.209835708 0.123895086 8.18449564e-07
  endloop
 endfacet

 facet normal 0 0 0
  outer loop
  vertex 0.0332888514 0.258354306 0.0380999967
  vertex -0.209835708 0.123895086 8.18449564e-07
  vertex -0.100202188 0.255441189 0.0380999967
  endloop
 endfacet

 facet normal 0 0 0
  outer loop
  vertex -0.269699067 -0.0993020833 0.220047936
  vertex -0.264716148 -0.104269691 0.0643886924
  vertex -0.252512455 -0.137289971 0.334635198
  endloop
 endfacet

 facet normal 0 0 0
  outer loop
  vertex -0.269699067 -0.0993020833 0.220047936
  vertex -0.252512455 -0.137289971 0.334635198
  vertex -0.268782437 -0.0935274288 0.347296447
  endloop
 endfacet

 facet normal 0 0 0
  outer loop
  vertex -0.269699067 -0.0993020833 0.220047936
  vertex -0.268782437 -0.0935274288 0.347296447
  vertex -0.279556364 -0.0648638383 0.332939267
  endloop
 endfacet

 facet normal 0 0 0
  outer loop
  vertex -0.269699067 -0.0993020833 0.220047936
  vertex -0.279556364 -0.0648638383 0.332939267
  vertex -0.279302627 -0.0545219034 0.0645123869
  endloop
 endfacet

 facet normal 0 0 0
  outer loop
  vertex -0.269699067 -0.0993020833 0.220047936
  vertex -0.279302627 -0.0545219034 0.0645123869
  vertex -0.264716148 -0.104269691 0.0643886924
  endloop
 endfacet

 facet normal 0 0 0
  outer loop
  vertex 0.249831468 0.140168846 0.334665179
  vertex 0.249907836 0.134163812 0.347288728
  vertex 0.270344824 0.0946065858 0.334633321
  endloop
 endfacet

 facet normal 0 0 0
  outer loop
  vertex 0.249831468 0.140168846 0.334665179
  vertex 0.270344824 0.0946065858 0.334633321
  vertex 0.256459862 0.124301545 0.0643694401
  endloop
 endfacet

 facet normal 0 0 0
  outer loop
  vertex 0.249831468 0.140168846 0.334665179
  vertex 0.256459862 0.124301545 0.0643694401
  vertex 0.238766909 0.156939521 0.100543924
  endloop
 endfacet

 facet normal 0 0 0
  outer loop
  vertex 0.249831468 0.140168846 0.334665179
  vertex 0.238766909 0.156939521 0.100543924
  vertex 0.225227788 0.17712985 0.334708959
  endloop
 endfacet

 facet normal 0 0 0
  outer loop
  vertex 0.249831468 0.140168846 0.334665179
  vertex 0.225227788 0.17712985 0.334708959
  vertex 0.249907836 0.134163812 0.347288728
  endloop
 endfacet

 facet normal 0 0 0
  outer loop
  vertex 0.0829740763 -0.262194008 0.335132211
  vertex 0.092066735 -0.253556758 0.357656181
  vertex 0.0220710244 -0.254718304 0.356782198
  endloop
 endfacet

 facet normal 0 0 0
  outer loop
  vertex 0.0829740763 -0.262194008 0.335132211
  vertex 0.0220710244 -0.254718304 0.356782198
  vertex 0.0270166118 -0.2637887 0.332476079
  endloop
 endfacet

 facet normal 0 0 0
  outer loop
  vertex 0.0829740763 -0.262194008 0.335132211
  vertex 0.0270166118 -0.2637887 0.332476079
  vertex 0.0899091363 -0.262039751 0.313293695
  endloop
 endfacet

 facet normal 0 0 0
  outer loop
  vertex 0.0829740763 -0.262194008 0.335132211
  vertex 0.0899091363 -0.262039751 0.313293695
  vertex 0.120290287 -0.256748021 0.335033
  endloop
 endfacet

 facet normal 0 0 0
  outer loop
  vertex 0.0829740763 -0.262194008 0.335132211
  vertex 0.120290287 -0.256748021 0.335033
  vertex 0.092066735 -0.253556758 0.357656181
  endloop
 endfacet

 facet normal 0 0 0
  outer loop
  vertex 0.18850188 -0.205324575 0.357651502
  vertex 0.154128641 -0.23235701 0.357652366
  vertex 0.190828636 -0.210089296 0.347267121
  endloop
 endfacet

 facet normal 0 0 0
  outer loop
  vertex 0.18850188 -0.205324575 0.357651502
  vertex 0.190828636 -0.210089296 0.347267121
  vertex 0.217366979 -0.172891319 0.358252704
  endloop
 endfacet

 facet normal 0 0 0
  outer loop
  vertex 0.18850188 -0.205324575 0.357651502
  vertex 0.217366979 -0.172891319 0.358252704
  vertex 0.154128641 -0.23235701 0.357652366
  endloop
 endfacet

endsolid AssimpScene
