solid AssimpScene
 facet normal 0 0 0
  outer loop
  vertex 0.0194732249 -0.149399996 0.0285000056
  vertex 0.0431471765 -0.0986310467 0.0285000056
  vertex 0.0431471765 0.0986310467 0.0285000056
  endloop
 endfacet

 facet normal 0 0 0
  outer loop
  vertex 0.0194732249 -0.149399996 0.0285000056
  vertex 0.0431471765 0.0986310467 0.0285000056
  vertex 0.0194732249 0.149399996 0.0285000056
  endloop
 endfacet

 facet normal 0 0 0
  outer loop
  vertex 0.0194732249 -0.149399996 0.0285000056
  vertex 0.0194732249 0.149399996 0.0285000056
  vertex -0.0332083628 0.149399996 0.0285000056
  endloop
 endfacet

 facet normal 0 0 0
  outer loop
  vertex 0.0194732249 -0.149399996 0.0285000056
  vertex -0.0332083628 0.149399996 0.0285000056
  vertex -0.0332083628 -0.149399996 0.0285000056
  endloop
 endfacet

 facet normal 0 0 0
  outer loop
  vertex -0.0332083628 -0.149399996 0.0285000056
  vertex -0.0332083628 0.149399996 0.0285000056
  vertex -0.0332083628 0.149399996 -0.298307955
  endloop
 endfacet

 facet normal 0 0 0
  outer loop
  vertex -0.0332083628 -0.149399996 0.0285000056
  vertex -0.0332083628 0.149399996 -0.298307955
  vertex -0.0332083628 -0.149399996 -0.298307955
  endloop
 endfacet

 facet normal 0 0 0
  outer loop
  vertex 0.0194732249 0.149399996 -0.298307955
  vertex -0.0332083628 0.149399996 -0.298307955
  vertex -0.0332083628 0.149399996 0.0285000056
  endloop
 endfacet

 facet normal 0 0 0
  outer loop
  vertex 0.0194732249 0.149399996 -0.298307955
  vertex -0.0332083628 0.149399996 0.0285000056
  vertex 0.0194732249 0.149399996 0.0285000056
  endloop
 endfacet

 facet normal 0 0 0
  outer loop
  vertex 0.0194732249 0.149399996 -0.298307955
  vertex 0.0194732249 0.149399996 0.0285000056
  vertex 0.0431471765 0.0986310467 0.0285000056
  endloop
 endfacet

 facet normal 0 0 0
  outer loop
  vertex 0.0194732249 0.149399996 -0.298307955
  vertex 0.0431471765 0.0986310467 0.0285000056
  vertex 0.0431471765 0.0986310467 -0.298307955
  endloop
 endfacet

 facet normal 0 0 0
  outer loop
  vertex 0.0194732249 -0.149399996 0.0285000056
  vertex -0.0332083628 -0.149399996 0.0285000056
  vertex -0.0332083628 -0.149399996 -0.298307955
  endloop
 endfacet

 facet normal 0 0 0
  outer loop
  vertex 0.0194732249 -0.149399996 0.0285000056
  vertex -0.0332083628 -0.149399996 -0.298307955
  vertex 0.0194732249 -0.149399996 -0.298307955
  endloop
 endfacet

 facet normal 0 0 0
  outer loop
  vertex 0.0431471765 -0.0986310467 -0.298307955
  vertex 0.0431471765 0.0986310467 -0.298307955
  vertex 0.0431471765 0.0986310467 0.0285000056
  endloop
 endfacet

 facet normal 0 0 0
  outer loop
  vertex 0.0431471765 -0.0986310467 -0.298307955
  vertex 0.0431471765 0.0986310467 0.0285000056
  vertex 0.0431471765 -0.0986310467 0.0285000056
  endloop
 endfacet

 facet normal 0 0 0
  outer loop
  vertex 0.0431471765 -0.0986310467 -0.298307955
  vertex 0.0431471765 -0.0986310467 0.0285000056
  vertex 0.0194732249 -0.149399996 0.0285000056
  endloop
 endfacet

 facet normal 0 0 0
  outer loop
  vertex 0.0431471765 -0.0986310467 -0.298307955
  vertex 0.0194732249 -0.149399996 0.0285000056
  vertex 0.0194732249 -0.149399996 -0.298307955
  endloop
 endfacet

 facet normal 0 0 0
  outer loop
  vertex 0.0431471765 -0.0986310467 -0.298307955
  vertex 0.0194732249 -0.149399996 -0.298307955
  vertex -0.0332083628 -0.149399996 -0.298307955
  endloop
 endfacet

 facet normal 0 0 0
  outer loop
  vertex 0.0431471765 -0.0986310467 -0.298307955
  vertex -0.0332083628 -0.149399996 -0.298307955
  vertex -0.0332083628 0.149399996 -0.298307955
  endloop
 endfacet

 facet normal 0 0 0
  outer loop
  vertex 0.0431471765 -0.0986310467 -0.298307955
  vertex -0.0332083628 0.149399996 -0.298307955
  vertex 0.0194732249 0.149399996 -0.298307955
  endloop
 endfacet

 facet normal 0 0 0
  outer loop
  vertex 0.0431471765 -0.0986310467 -0.298307955
  vertex 0.0194732249 0.149399996 -0.298307955
  vertex 0.0431471765 0.0986310467 -0.298307955
  endloop
 endfacet

endsolid AssimpScene
