solid AssimpScene
 facet normal 0 0 0
  outer loop
  vertex 0.166000009 -2.96976844e-18 -0.0485000014
  vertex 0.166000009 0.021043364 -0.0436969884
  vertex 0.166000009 0.0379188284 -0.0302392561
  endloop
 endfacet

 facet normal 0 0 0
  outer loop
  vertex 0.166000009 -2.96976844e-18 -0.0485000014
  vertex 0.166000009 0.0379188284 -0.0302392561
  vertex 0.166000009 0.0436969884 -0.0210433602
  endloop
 endfacet

 facet normal 0 0 0
  outer loop
  vertex 0.166000009 -2.96976844e-18 -0.0485000014
  vertex 0.166000009 0.0436969884 -0.0210433602
  vertex 0.166000009 0.0472840033 -0.0107922647
  endloop
 endfacet

 facet normal 0 0 0
  outer loop
  vertex 0.166000009 -2.96976844e-18 -0.0485000014
  vertex 0.166000009 0.0472840033 -0.0107922647
  vertex 0.166000009 0.0472840033 0.0107922647
  endloop
 endfacet

 facet normal 0 0 0
  outer loop
  vertex 0.166000009 -2.96976844e-18 -0.0485000014
  vertex 0.166000009 0.0472840033 0.0107922647
  vertex 0.166000009 0.0379188284 0.0302392561
  endloop
 endfacet

 facet normal 0 0 0
  outer loop
  vertex 0.166000009 -2.96976844e-18 -0.0485000014
  vertex 0.166000009 0.0379188284 0.0302392561
  vertex 0.166000009 0.0302392561 0.0379188247
  endloop
 endfacet

 facet normal 0 0 0
  outer loop
  vertex 0.166000009 -2.96976844e-18 -0.0485000014
  vertex 0.166000009 0.0302392561 0.0379188247
  vertex 0.166000009 0.0107922656 0.0472840033
  endloop
 endfacet

 facet normal 0 0 0
  outer loop
  vertex 0.166000009 -2.96976844e-18 -0.0485000014
  vertex 0.166000009 0.0107922656 0.0472840033
  vertex 0.166000009 -0.0107922656 0.0472840033
  endloop
 endfacet

 facet normal 0 0 0
  outer loop
  vertex 0.166000009 -2.96976844e-18 -0.0485000014
  vertex 0.166000009 -0.0107922656 0.0472840033
  vertex 0.166000009 -0.0302392561 0.0379188247
  endloop
 endfacet

 facet normal 0 0 0
  outer loop
  vertex 0.166000009 -2.96976844e-18 -0.0485000014
  vertex 0.166000009 -0.0302392561 0.0379188247
  vertex 0.166000009 -0.0436969884 0.0210433602
  endloop
 endfacet

 facet normal 0 0 0
  outer loop
  vertex 0.166000009 -2.96976844e-18 -0.0485000014
  vertex 0.166000009 -0.0436969884 0.0210433602
  vertex 0.166000009 -0.0485000014 0
  endloop
 endfacet

 facet normal 0 0 0
  outer loop
  vertex 0.166000009 -2.96976844e-18 -0.0485000014
  vertex 0.166000009 -0.0485000014 0
  vertex 0.166000009 -0.0436969884 -0.0210433602
  endloop
 endfacet

 facet normal 0 0 0
  outer loop
  vertex 0.166000009 -2.96976844e-18 -0.0485000014
  vertex 0.166000009 -0.0436969884 -0.0210433602
  vertex 0.166000009 -0.0302392561 -0.0379188247
  endloop
 endfacet

 facet normal 0 0 0
  outer loop
  vertex 0.166000009 -2.96976844e-18 -0.0485000014
  vertex 0.166000009 -0.0302392561 -0.0379188247
  vertex 0.166000009 -0.0107922656 -0.0472840033
  endloop
 endfacet

 facet normal 0 0 0
  outer loop
  vertex -0.0462794453 0.0696821213 -0.00383482408
  vertex -0.0416557342 0.0702880472 0.018271897
  vertex -0.0380801484 0.0702880472 -0.0248790011
  endloop
 endfacet

 facet normal 0 0 0
  outer loop
  vertex 0.00281522353 0.00200000009 -0.0519237369
  vertex -0.00281522353 0.0579999983 -0.0519237369
  vertex 0.163500011 0.0028152233 -0.0519237369
  endloop
 endfacet

 facet normal 0 0 0
  outer loop
  vertex -0.0516951755 0.00200000009 -0.00562218856
  vertex -0.0516951755 0.00200000009 0.00562218856
  vertex -0.0520000011 0.0579999983 -6.36816327e-18
  endloop
 endfacet

 facet normal 0 0 0
  outer loop
  vertex 0.163500011 -0.00841266382 0.0513149798
  vertex 0.166000009 -0.0107922656 0.0472840033
  vertex 0.163500011 0.0028152233 0.0519237369
  endloop
 endfacet

 facet normal 0 0 0
  outer loop
  vertex 0.163500011 -0.00841266382 0.0513149798
  vertex 0.163500011 0.0028152233 0.0519237369
  vertex 0.00281522353 0.00200000009 0.0519237369
  endloop
 endfacet

 facet normal 0 0 0
  outer loop
  vertex -0.0243572406 0.0579999983 -0.0459426269
  vertex -0.033664085 0.0579999983 -0.0396324247
  vertex -0.0253992099 0.0696821213 -0.0388763808
  endloop
 endfacet

 facet normal 0 0 0
  outer loop
  vertex -0.0371671394 0.0687678605 0.0289283432
  vertex -0.033664085 0.0579999983 0.0396324247
  vertex -0.0253992099 0.0696821213 0.0388763808
  endloop
 endfacet

 facet normal 0 0 0
  outer loop
  vertex 0.0182719007 0.0702880472 0.0416557342
  vertex 0.163500011 0.0507842675 0.0111784628
  vertex 0.0334658362 0.0702880472 0.0308074709
  endloop
 endfacet

 facet normal 0 0 0
  outer loop
  vertex -0.0464558974 0.0687678605 0.00775211724
  vertex -0.0416557342 0.0702880472 0.018271897
  vertex -0.0462794453 0.0696821213 -0.00383482408
  endloop
 endfacet

 facet normal 0 0 0
  outer loop
  vertex -0.0464558974 0.0687678605 0.00775211724
  vertex -0.0462794453 0.0696821213 -0.00383482408
  vertex -0.0520000011 0.0579999983 -6.36816327e-18
  endloop
 endfacet

 facet normal 0 0 0
  outer loop
  vertex 0.106707424 -0.046730049 0.0216196235
  vertex 0.163500011 -0.044556573 0.0268088002
  vertex 0.110589713 -0.0413968377 0.0314690582
  endloop
 endfacet

 facet normal 0 0 0
  outer loop
  vertex 0.106707424 -0.046730049 0.0216196235
  vertex 0.110589713 -0.0413968377 0.0314690582
  vertex -0.0192471854 0.00200000009 0.0483067855
  endloop
 endfacet

 facet normal 0 0 0
  outer loop
  vertex -0.0445463434 0.0687678605 -0.0152927767
  vertex -0.0462794453 0.0696821213 -0.00383482408
  vertex -0.0380801484 0.0702880472 -0.0248790011
  endloop
 endfacet

 facet normal 0 0 0
  outer loop
  vertex 0.166000009 0.0107922656 0.0472840033
  vertex 0.166000009 0.0302392561 0.0379188247
  vertex 0.163500011 0.0243572388 0.0459426269
  endloop
 endfacet

 facet normal 0 0 0
  outer loop
  vertex 0.166000009 0.0107922656 0.0472840033
  vertex 0.163500011 0.0028152233 0.0519237369
  vertex 0.166000009 -0.0107922656 0.0472840033
  endloop
 endfacet

 facet normal 0 0 0
  outer loop
  vertex 0.166000009 -0.0302392561 -0.0379188247
  vertex 0.163500011 -0.0192471836 -0.0483067855
  vertex 0.166000009 -0.0107922656 -0.0472840033
  endloop
 endfacet

 facet normal 0 0 0
  outer loop
  vertex 0.166000009 -0.0302392561 -0.0379188247
  vertex 0.166000009 -0.0436969884 -0.0210433602
  vertex 0.163500011 -0.044556573 -0.0268088002
  endloop
 endfacet

 facet normal 0 0 0
  outer loop
  vertex 0.166000009 -0.0302392561 -0.0379188247
  vertex 0.163500011 -0.044556573 -0.0268088002
  vertex 0.163500011 -0.0377517641 -0.0357603729
  endloop
 endfacet

 facet normal 0 0 0
  outer loop
  vertex 0.166000009 -0.0485000014 0
  vertex 0.163500011 -0.0516951755 0.00562218856
  vertex 0.163500011 -0.0516951755 -0.00562218856
  endloop
 endfacet

 facet normal 0 0 0
  outer loop
  vertex -0.0152927786 0.0687678605 -0.0445463359
  vertex -0.0243572406 0.0579999983 -0.0459426269
  vertex -0.0253992099 0.0696821213 -0.0388763808
  endloop
 endfacet

 facet normal 0 0 0
  outer loop
  vertex 0.106707424 -0.0409899466 -0.0311597455
  vertex 0.110589713 -0.033664085 -0.0396324247
  vertex 0.163500011 -0.0377517641 -0.0357603729
  endloop
 endfacet

 facet normal 0 0 0
  outer loop
  vertex 0.106707424 -0.0409899466 -0.0311597455
  vertex 0.110589713 -0.0471939221 -0.0218342338
  vertex 0.106707424 -0.0487936065 -0.0164404809
  endloop
 endfacet

 facet normal 0 0 0
  outer loop
  vertex 0.106707424 -0.0409899466 -0.0311597455
  vertex 0.106707424 -0.0487936065 -0.0164404809
  vertex -0.0291817319 0.00200000009 -0.0430398285
  endloop
 endfacet

 facet normal 0 0 0
  outer loop
  vertex 0.106707424 -0.0409899466 -0.0311597455
  vertex -0.0291817319 0.00200000009 -0.0430398285
  vertex -0.0192471854 0.00200000009 -0.0483067855
  endloop
 endfacet

 facet normal 0 0 0
  outer loop
  vertex -0.0346513093 0.0687678605 -0.0318987779
  vertex -0.0380801484 0.0702880472 -0.0248790011
  vertex -0.0253992099 0.0696821213 -0.0388763808
  endloop
 endfacet

 facet normal 0 0 0
  outer loop
  vertex -0.0346513093 0.0687678605 -0.0318987779
  vertex -0.0253992099 0.0696821213 -0.0388763808
  vertex -0.033664085 0.0579999983 -0.0396324247
  endloop
 endfacet

 facet normal 0 0 0
  outer loop
  vertex 0.163500011 -0.00841266382 -0.0513149798
  vertex 0.163500011 -0.0192471836 -0.0483067855
  vertex 0.110589713 -0.0192471836 -0.0483067855
  endloop
 endfacet

 facet normal 0 0 0
  outer loop
  vertex 0.163500011 -0.00841266382 -0.0513149798
  vertex 0.110589713 -0.0192471836 -0.0483067855
  vertex 0.00281522353 0.00200000009 -0.0519237369
  endloop
 endfacet

 facet normal 0 0 0
  outer loop
  vertex 0.163500011 -0.00841266382 -0.0513149798
  vertex 0.00281522353 0.00200000009 -0.0519237369
  vertex 0.163500011 0.0028152233 -0.0519237369
  endloop
 endfacet

 facet normal 0 0 0
  outer loop
  vertex 0.163500011 -0.00841266382 -0.0513149798
  vertex 0.166000009 -0.0107922656 -0.0472840033
  vertex 0.163500011 -0.0192471836 -0.0483067855
  endloop
 endfacet

 facet normal 0 0 0
  outer loop
  vertex -0.0243572406 0.0579999983 0.0459426269
  vertex -0.0192471854 0.00200000009 0.0483067855
  vertex -0.0139114745 0.0579999983 0.0501045957
  endloop
 endfacet

 facet normal 0 0 0
  outer loop
  vertex -0.0243572406 0.0579999983 0.0459426269
  vertex -0.0139114745 0.0579999983 0.0501045957
  vertex -0.0115619376 0.0687678605 0.0456570573
  endloop
 endfacet

 facet normal 0 0 0
  outer loop
  vertex -0.0243572406 0.0579999983 0.0459426269
  vertex -0.0115619376 0.0687678605 0.0456570573
  vertex -0.0253992099 0.0696821213 0.0388763808
  endloop
 endfacet

 facet normal 0 0 0
  outer loop
  vertex -0.0243572406 0.0579999983 0.0459426269
  vertex -0.0253992099 0.0696821213 0.0388763808
  vertex -0.033664085 0.0579999983 0.0396324247
  endloop
 endfacet

 facet normal 0 0 0
  outer loop
  vertex -0.00841266382 0.00200000009 0.0513149798
  vertex -0.0192471854 0.00200000009 0.0483067855
  vertex 0.110589713 -0.0413968377 0.0314690582
  endloop
 endfacet

 facet normal 0 0 0
  outer loop
  vertex -0.00841266382 0.00200000009 0.0513149798
  vertex -0.0139114745 0.0579999983 0.0501045957
  vertex -0.0192471854 0.00200000009 0.0483067855
  endloop
 endfacet

 facet normal 0 0 0
  outer loop
  vertex -0.00841266382 0.00200000009 -0.0513149798
  vertex -0.00281522353 0.0579999983 -0.0519237369
  vertex 0.00281522353 0.00200000009 -0.0519237369
  endloop
 endfacet

 facet normal 0 0 0
  outer loop
  vertex -0.00841266382 0.00200000009 -0.0513149798
  vertex 0.00281522353 0.00200000009 -0.0519237369
  vertex 0.110589713 -0.0192471836 -0.0483067855
  endloop
 endfacet

 facet normal 0 0 0
  outer loop
  vertex -0.00841266382 0.00200000009 -0.0513149798
  vertex 0.110589713 -0.0192471836 -0.0483067855
  vertex 0.110589713 -0.033664085 -0.0396324247
  endloop
 endfacet

 facet normal 0 0 0
  outer loop
  vertex -0.00841266382 0.00200000009 -0.0513149798
  vertex 0.110589713 -0.033664085 -0.0396324247
  vertex 0.106707424 -0.0409899466 -0.0311597455
  endloop
 endfacet

 facet normal 0 0 0
  outer loop
  vertex -0.00841266382 0.00200000009 -0.0513149798
  vertex 0.106707424 -0.0409899466 -0.0311597455
  vertex -0.0192471854 0.00200000009 -0.0483067855
  endloop
 endfacet

 facet normal 0 0 0
  outer loop
  vertex -0.0492779687 0.00200000009 -0.0166036785
  vertex -0.044556573 0.00200000009 -0.0268088002
  vertex 0.106707424 -0.0511870608 -0.00556692807
  endloop
 endfacet

 facet normal 0 0 0
  outer loop
  vertex -0.0492779687 0.00200000009 -0.0166036785
  vertex 0.106707424 -0.0511870608 -0.00556692807
  vertex -0.0516951755 0.00200000009 -0.00562218856
  endloop
 endfacet

 facet normal 0 0 0
  outer loop
  vertex -0.0492779687 0.00200000009 -0.0166036785
  vertex -0.0471939258 0.0579999983 -0.0218342338
  vertex -0.044556573 0.00200000009 -0.0268088002
  endloop
 endfacet

 facet normal 0 0 0
  outer loop
  vertex -0.0413968414 0.0579999983 -0.0314690582
  vertex -0.033664085 0.0579999983 -0.0396324247
  vertex -0.0377517678 0.00200000009 -0.0357603729
  endloop
 endfacet

 facet normal 0 0 0
  outer loop
  vertex -0.0413968414 0.0579999983 -0.0314690582
  vertex -0.0377517678 0.00200000009 -0.0357603729
  vertex -0.044556573 0.00200000009 -0.0268088002
  endloop
 endfacet

 facet normal 0 0 0
  outer loop
  vertex -0.0413968414 0.0579999983 -0.0314690582
  vertex -0.044556573 0.00200000009 -0.0268088002
  vertex -0.0471939258 0.0579999983 -0.0218342338
  endloop
 endfacet

 facet normal 0 0 0
  outer loop
  vertex -0.0413968414 0.0579999983 -0.0314690582
  vertex -0.0346513093 0.0687678605 -0.0318987779
  vertex -0.033664085 0.0579999983 -0.0396324247
  endloop
 endfacet

 facet normal 0 0 0
  outer loop
  vertex -0.0291817319 0.00200000009 -0.0430398285
  vertex -0.033664085 0.0579999983 -0.0396324247
  vertex -0.0243572406 0.0579999983 -0.0459426269
  endloop
 endfacet

 facet normal 0 0 0
  outer loop
  vertex -0.0291817319 0.00200000009 -0.0430398285
  vertex -0.0243572406 0.0579999983 -0.0459426269
  vertex -0.0192471854 0.00200000009 -0.0483067855
  endloop
 endfacet

 facet normal 0 0 0
  outer loop
  vertex -0.0291817319 0.00200000009 -0.0430398285
  vertex -0.0377517678 0.00200000009 -0.0357603729
  vertex -0.033664085 0.0579999983 -0.0396324247
  endloop
 endfacet

 facet normal 0 0 0
  outer loop
  vertex -0.0291817319 0.00200000009 0.0430398285
  vertex -0.0192471854 0.00200000009 0.0483067855
  vertex -0.0243572406 0.0579999983 0.0459426269
  endloop
 endfacet

 facet normal 0 0 0
  outer loop
  vertex -0.0291817319 0.00200000009 0.0430398285
  vertex -0.0243572406 0.0579999983 0.0459426269
  vertex -0.033664085 0.0579999983 0.0396324247
  endloop
 endfacet

 facet normal 0 0 0
  outer loop
  vertex -0.0291817319 0.00200000009 0.0430398285
  vertex -0.033664085 0.0579999983 0.0396324247
  vertex -0.0377517678 0.00200000009 0.0357603729
  endloop
 endfacet

 facet normal 0 0 0
  outer loop
  vertex -0.0291817319 0.00200000009 0.0430398285
  vertex -0.0377517678 0.00200000009 0.0357603729
  vertex 0.106707424 -0.046730049 0.0216196235
  endloop
 endfacet

 facet normal 0 0 0
  outer loop
  vertex -0.0291817319 0.00200000009 0.0430398285
  vertex 0.106707424 -0.046730049 0.0216196235
  vertex -0.0192471854 0.00200000009 0.0483067855
  endloop
 endfacet

 facet normal 0 0 0
  outer loop
  vertex -0.0507842675 0.0579999983 0.0111784628
  vertex -0.0516951755 0.00200000009 0.00562218856
  vertex -0.0492779687 0.00200000009 0.0166036785
  endloop
 endfacet

 facet normal 0 0 0
  outer loop
  vertex -0.0507842675 0.0579999983 0.0111784628
  vertex -0.0492779687 0.00200000009 0.0166036785
  vertex -0.0471939258 0.0579999983 0.0218342338
  endloop
 endfacet

 facet normal 0 0 0
  outer loop
  vertex -0.0507842675 0.0579999983 0.0111784628
  vertex -0.0464558974 0.0687678605 0.00775211724
  vertex -0.0520000011 0.0579999983 -6.36816327e-18
  endloop
 endfacet

 facet normal 0 0 0
  outer loop
  vertex -0.0507842675 0.0579999983 0.0111784628
  vertex -0.0520000011 0.0579999983 -6.36816327e-18
  vertex -0.0516951755 0.00200000009 0.00562218856
  endloop
 endfacet

 facet normal 0 0 0
  outer loop
  vertex -0.00281522353 0.0579999983 0.0519237369
  vertex -0.0139114745 0.0579999983 0.0501045957
  vertex -0.00841266382 0.00200000009 0.0513149798
  endloop
 endfacet

 facet normal 0 0 0
  outer loop
  vertex -0.00281522353 0.0579999983 0.0519237369
  vertex -0.00841266382 0.00200000009 0.0513149798
  vertex 0.00281522353 0.00200000009 0.0519237369
  endloop
 endfacet

 facet normal 0 0 0
  outer loop
  vertex -0.00281522353 0.0579999983 0.0519237369
  vertex 0.00281522353 0.00200000009 0.0519237369
  vertex 0.163500011 0.0028152233 0.0519237369
  endloop
 endfacet

 facet normal 0 0 0
  outer loop
  vertex -0.00281522353 0.0579999983 0.0519237369
  vertex 0.00841266382 0.0579999983 0.0513149798
  vertex 0 0.0696821213 0.0464380533
  endloop
 endfacet

 facet normal 0 0 0
  outer loop
  vertex -0.00281522353 0.0579999983 0.0519237369
  vertex 0 0.0696821213 0.0464380533
  vertex -0.0115619376 0.0687678605 0.0456570573
  endloop
 endfacet

 facet normal 0 0 0
  outer loop
  vertex -0.00281522353 0.0579999983 0.0519237369
  vertex -0.0115619376 0.0687678605 0.0456570573
  vertex -0.0139114745 0.0579999983 0.0501045957
  endloop
 endfacet

 facet normal 0 0 0
  outer loop
  vertex -0.0413968414 0.0579999983 0.0314690582
  vertex -0.033664085 0.0579999983 0.0396324247
  vertex -0.0371671394 0.0687678605 0.0289283432
  endloop
 endfacet

 facet normal 0 0 0
  outer loop
  vertex -0.0413968414 0.0579999983 0.0314690582
  vertex -0.0371671394 0.0687678605 0.0289283432
  vertex -0.0471939258 0.0579999983 0.0218342338
  endloop
 endfacet

 facet normal 0 0 0
  outer loop
  vertex -0.0413968414 0.0579999983 0.0314690582
  vertex -0.0377517678 0.00200000009 0.0357603729
  vertex -0.033664085 0.0579999983 0.0396324247
  endloop
 endfacet

 facet normal 0 0 0
  outer loop
  vertex -0.0507842675 0.0579999983 -0.0111784628
  vertex -0.0471939258 0.0579999983 -0.0218342338
  vertex -0.0492779687 0.00200000009 -0.0166036785
  endloop
 endfacet

 facet normal 0 0 0
  outer loop
  vertex -0.0507842675 0.0579999983 -0.0111784628
  vertex -0.0492779687 0.00200000009 -0.0166036785
  vertex -0.0516951755 0.00200000009 -0.00562218856
  endloop
 endfacet

 facet normal 0 0 0
  outer loop
  vertex -0.0507842675 0.0579999983 -0.0111784628
  vertex -0.0516951755 0.00200000009 -0.00562218856
  vertex -0.0520000011 0.0579999983 -6.36816327e-18
  endloop
 endfacet

 facet normal 0 0 0
  outer loop
  vertex -0.0507842675 0.0579999983 -0.0111784628
  vertex -0.0520000011 0.0579999983 -6.36816327e-18
  vertex -0.0462794453 0.0696821213 -0.00383482408
  endloop
 endfacet

 facet normal 0 0 0
  outer loop
  vertex -0.0507842675 0.0579999983 -0.0111784628
  vertex -0.0462794453 0.0696821213 -0.00383482408
  vertex -0.0445463434 0.0687678605 -0.0152927767
  endloop
 endfacet

 facet normal 0 0 0
  outer loop
  vertex -0.0507842675 0.0579999983 -0.0111784628
  vertex -0.0445463434 0.0687678605 -0.0152927767
  vertex -0.0471939258 0.0579999983 -0.0218342338
  endloop
 endfacet

 facet normal 0 0 0
  outer loop
  vertex -0.0139114745 0.0579999983 -0.0501045957
  vertex -0.00281522353 0.0579999983 -0.0519237369
  vertex -0.00841266382 0.00200000009 -0.0513149798
  endloop
 endfacet

 facet normal 0 0 0
  outer loop
  vertex -0.0139114745 0.0579999983 -0.0501045957
  vertex -0.00841266382 0.00200000009 -0.0513149798
  vertex -0.0192471854 0.00200000009 -0.0483067855
  endloop
 endfacet

 facet normal 0 0 0
  outer loop
  vertex -0.0139114745 0.0579999983 -0.0501045957
  vertex -0.0192471854 0.00200000009 -0.0483067855
  vertex -0.0243572406 0.0579999983 -0.0459426269
  endloop
 endfacet

 facet normal 0 0 0
  outer loop
  vertex -0.0139114745 0.0579999983 -0.0501045957
  vertex -0.0243572406 0.0579999983 -0.0459426269
  vertex -0.0152927786 0.0687678605 -0.0445463359
  endloop
 endfacet

 facet normal 0 0 0
  outer loop
  vertex -0.0139114745 0.0579999983 -0.0501045957
  vertex -0.0152927786 0.0687678605 -0.0445463359
  vertex -0.00383482431 0.0696821213 -0.0462794416
  endloop
 endfacet

 facet normal 0 0 0
  outer loop
  vertex -0.0139114745 0.0579999983 -0.0501045957
  vertex -0.00383482431 0.0696821213 -0.0462794416
  vertex -0.00281522353 0.0579999983 -0.0519237369
  endloop
 endfacet

 facet normal 0 0 0
  outer loop
  vertex -0.044556573 0.00200000009 0.0268088002
  vertex -0.0377517678 0.00200000009 0.0357603729
  vertex -0.0413968414 0.0579999983 0.0314690582
  endloop
 endfacet

 facet normal 0 0 0
  outer loop
  vertex -0.044556573 0.00200000009 0.0268088002
  vertex -0.0413968414 0.0579999983 0.0314690582
  vertex -0.0471939258 0.0579999983 0.0218342338
  endloop
 endfacet

 facet normal 0 0 0
  outer loop
  vertex -0.044556573 0.00200000009 0.0268088002
  vertex -0.0471939258 0.0579999983 0.0218342338
  vertex -0.0492779687 0.00200000009 0.0166036785
  endloop
 endfacet

 facet normal 0 0 0
  outer loop
  vertex 0.163500011 -0.0291817281 -0.0430398285
  vertex 0.110589713 -0.033664085 -0.0396324247
  vertex 0.110589713 -0.0192471836 -0.0483067855
  endloop
 endfacet

 facet normal 0 0 0
  outer loop
  vertex 0.163500011 -0.0291817281 -0.0430398285
  vertex 0.110589713 -0.0192471836 -0.0483067855
  vertex 0.163500011 -0.0192471836 -0.0483067855
  endloop
 endfacet

 facet normal 0 0 0
  outer loop
  vertex 0.163500011 -0.0291817281 -0.0430398285
  vertex 0.163500011 -0.0192471836 -0.0483067855
  vertex 0.166000009 -0.0302392561 -0.0379188247
  endloop
 endfacet

 facet normal 0 0 0
  outer loop
  vertex 0.163500011 -0.0291817281 -0.0430398285
  vertex 0.166000009 -0.0302392561 -0.0379188247
  vertex 0.163500011 -0.0377517641 -0.0357603729
  endloop
 endfacet

 facet normal 0 0 0
  outer loop
  vertex 0.163500011 -0.0291817281 -0.0430398285
  vertex 0.163500011 -0.0377517641 -0.0357603729
  vertex 0.110589713 -0.033664085 -0.0396324247
  endloop
 endfacet

 facet normal 0 0 0
  outer loop
  vertex 0.110589713 -0.033664085 0.0396324247
  vertex 0.163500011 -0.0291817281 0.0430398285
  vertex 0.110589713 -0.0243572388 0.0459426269
  endloop
 endfacet

 facet normal 0 0 0
  outer loop
  vertex 0.110589713 -0.033664085 0.0396324247
  vertex 0.110589713 -0.0243572388 0.0459426269
  vertex -0.00841266382 0.00200000009 0.0513149798
  endloop
 endfacet

 facet normal 0 0 0
  outer loop
  vertex 0.110589713 -0.033664085 0.0396324247
  vertex -0.00841266382 0.00200000009 0.0513149798
  vertex 0.110589713 -0.0413968377 0.0314690582
  endloop
 endfacet

 facet normal 0 0 0
  outer loop
  vertex 0.163500011 -0.0377517641 0.0357603729
  vertex 0.163500011 -0.0291817281 0.0430398285
  vertex 0.110589713 -0.033664085 0.0396324247
  endloop
 endfacet

 facet normal 0 0 0
  outer loop
  vertex 0.163500011 -0.0377517641 0.0357603729
  vertex 0.110589713 -0.033664085 0.0396324247
  vertex 0.110589713 -0.0413968377 0.0314690582
  endloop
 endfacet

 facet normal 0 0 0
  outer loop
  vertex 0.163500011 -0.0377517641 0.0357603729
  vertex 0.110589713 -0.0413968377 0.0314690582
  vertex 0.163500011 -0.044556573 0.0268088002
  endloop
 endfacet

 facet normal 0 0 0
  outer loop
  vertex 0.163500011 -0.0377517641 0.0357603729
  vertex 0.163500011 -0.044556573 0.0268088002
  vertex 0.166000009 -0.0436969884 0.0210433602
  endloop
 endfacet

 facet normal 0 0 0
  outer loop
  vertex 0.163500011 -0.0377517641 0.0357603729
  vertex 0.166000009 -0.0436969884 0.0210433602
  vertex 0.166000009 -0.0302392561 0.0379188247
  endloop
 endfacet

 facet normal 0 0 0
  outer loop
  vertex 0.163500011 -0.0377517641 0.0357603729
  vertex 0.166000009 -0.0302392561 0.0379188247
  vertex 0.163500011 -0.0291817281 0.0430398285
  endloop
 endfacet

 facet normal 0 0 0
  outer loop
  vertex 0.163500011 -0.049277965 0.0166036785
  vertex 0.110589713 -0.0507842675 0.0111784628
  vertex 0.163500011 -0.0516951755 0.00562218856
  endloop
 endfacet

 facet normal 0 0 0
  outer loop
  vertex 0.163500011 -0.049277965 0.0166036785
  vertex 0.163500011 -0.0516951755 0.00562218856
  vertex 0.166000009 -0.0485000014 0
  endloop
 endfacet

 facet normal 0 0 0
  outer loop
  vertex 0.163500011 -0.049277965 0.0166036785
  vertex 0.166000009 -0.0485000014 0
  vertex 0.166000009 -0.0436969884 0.0210433602
  endloop
 endfacet

 facet normal 0 0 0
  outer loop
  vertex 0.163500011 -0.049277965 0.0166036785
  vertex 0.166000009 -0.0436969884 0.0210433602
  vertex 0.163500011 -0.044556573 0.0268088002
  endloop
 endfacet

 facet normal 0 0 0
  outer loop
  vertex 0.163500011 -0.049277965 0.0166036785
  vertex 0.163500011 -0.044556573 0.0268088002
  vertex 0.106707424 -0.046730049 0.0216196235
  endloop
 endfacet

 facet normal 0 0 0
  outer loop
  vertex 0.163500011 -0.049277965 0.0166036785
  vertex 0.106707424 -0.046730049 0.0216196235
  vertex 0.110589713 -0.0507842675 0.0111784628
  endloop
 endfacet

 facet normal 0 0 0
  outer loop
  vertex 0.163500011 -0.0192471836 0.0483067855
  vertex 0.163500011 -0.0291817281 0.0430398285
  vertex 0.166000009 -0.0302392561 0.0379188247
  endloop
 endfacet

 facet normal 0 0 0
  outer loop
  vertex 0.163500011 -0.0192471836 0.0483067855
  vertex 0.166000009 -0.0302392561 0.0379188247
  vertex 0.166000009 -0.0107922656 0.0472840033
  endloop
 endfacet

 facet normal 0 0 0
  outer loop
  vertex 0.163500011 -0.0192471836 0.0483067855
  vertex 0.166000009 -0.0107922656 0.0472840033
  vertex 0.163500011 -0.00841266382 0.0513149798
  endloop
 endfacet

 facet normal 0 0 0
  outer loop
  vertex 0.163500011 -0.0192471836 0.0483067855
  vertex 0.110589713 -0.0243572388 0.0459426269
  vertex 0.163500011 -0.0291817281 0.0430398285
  endloop
 endfacet

 facet normal 0 0 0
  outer loop
  vertex 0.163500011 0.0139114736 -0.0501045957
  vertex 0.163500011 0.0243572388 -0.0459426269
  vertex 0.166000009 0.021043364 -0.0436969884
  endloop
 endfacet

 facet normal 0 0 0
  outer loop
  vertex 0.163500011 0.0139114736 -0.0501045957
  vertex 0.163500011 0.0028152233 -0.0519237369
  vertex -0.00281522353 0.0579999983 -0.0519237369
  endloop
 endfacet

 facet normal 0 0 0
  outer loop
  vertex 0.163500011 0.0139114736 0.0501045957
  vertex 0.163500011 0.0243572388 0.0459426269
  vertex 0.00841266382 0.0579999983 0.0513149798
  endloop
 endfacet

 facet normal 0 0 0
  outer loop
  vertex 0.163500011 0.0139114736 0.0501045957
  vertex 0.00841266382 0.0579999983 0.0513149798
  vertex -0.00281522353 0.0579999983 0.0519237369
  endloop
 endfacet

 facet normal 0 0 0
  outer loop
  vertex 0.163500011 0.0139114736 0.0501045957
  vertex -0.00281522353 0.0579999983 0.0519237369
  vertex 0.163500011 0.0028152233 0.0519237369
  endloop
 endfacet

 facet normal 0 0 0
  outer loop
  vertex 0.163500011 0.0139114736 0.0501045957
  vertex 0.163500011 0.0028152233 0.0519237369
  vertex 0.166000009 0.0107922656 0.0472840033
  endloop
 endfacet

 facet normal 0 0 0
  outer loop
  vertex 0.163500011 0.0139114736 0.0501045957
  vertex 0.166000009 0.0107922656 0.0472840033
  vertex 0.163500011 0.0243572388 0.0459426269
  endloop
 endfacet

 facet normal 0 0 0
  outer loop
  vertex 0.163500011 0.0520000011 0
  vertex 0.163500011 0.0507842675 0.0111784628
  vertex 0.166000009 0.0472840033 0.0107922647
  endloop
 endfacet

 facet normal 0 0 0
  outer loop
  vertex 0.163500011 0.0520000011 0
  vertex 0.163500011 0.0507842675 -0.0111784628
  vertex 0.0279386621 0.0702880472 -0.0358955897
  endloop
 endfacet

 facet normal 0 0 0
  outer loop
  vertex 0.163500011 0.0520000011 0
  vertex 0.0279386621 0.0702880472 -0.0358955897
  vertex 0.0442277491 0.0705000013 -0.0036648158
  endloop
 endfacet

 facet normal 0 0 0
  outer loop
  vertex 0.163500011 0.0520000011 0
  vertex 0.0442277491 0.0705000013 -0.0036648158
  vertex 0.0334658362 0.0702880472 0.0308074709
  endloop
 endfacet

 facet normal 0 0 0
  outer loop
  vertex 0.163500011 0.0520000011 0
  vertex 0.0334658362 0.0702880472 0.0308074709
  vertex 0.163500011 0.0507842675 0.0111784628
  endloop
 endfacet

 facet normal 0 0 0
  outer loop
  vertex 0.163500011 0.033664085 0.0396324247
  vertex 0.163500011 0.0243572388 0.0459426269
  vertex 0.166000009 0.0302392561 0.0379188247
  endloop
 endfacet

 facet normal 0 0 0
  outer loop
  vertex 0.163500011 0.033664085 -0.0396324247
  vertex 0.0150784124 0.0696821213 -0.0439219065
  vertex 0.163500011 0.0413968377 -0.0314690582
  endloop
 endfacet

 facet normal 0 0 0
  outer loop
  vertex 0.163500011 0.033664085 -0.0396324247
  vertex 0.166000009 0.021043364 -0.0436969884
  vertex 0.163500011 0.0243572388 -0.0459426269
  endloop
 endfacet

 facet normal 0 0 0
  outer loop
  vertex 0.163500011 0.0471939221 -0.0218342338
  vertex 0.163500011 0.0413968377 -0.0314690582
  vertex 0.0150784124 0.0696821213 -0.0439219065
  endloop
 endfacet

 facet normal 0 0 0
  outer loop
  vertex 0.163500011 0.0471939221 -0.0218342338
  vertex 0.0150784124 0.0696821213 -0.0439219065
  vertex 0.0279386621 0.0702880472 -0.0358955897
  endloop
 endfacet

 facet normal 0 0 0
  outer loop
  vertex 0.163500011 0.0471939221 -0.0218342338
  vertex 0.0279386621 0.0702880472 -0.0358955897
  vertex 0.163500011 0.0507842675 -0.0111784628
  endloop
 endfacet

 facet normal 0 0 0
  outer loop
  vertex 0.163500011 0.0471939221 0.0218342338
  vertex 0.163500011 0.0507842675 0.0111784628
  vertex 0.0182719007 0.0702880472 0.0416557342
  endloop
 endfacet

 facet normal 0 0 0
  outer loop
  vertex 0.163500011 0.0471939221 0.0218342338
  vertex 0.0182719007 0.0702880472 0.0416557342
  vertex 0.163500011 0.0413968377 0.0314690582
  endloop
 endfacet

 facet normal 0 0 0
  outer loop
  vertex 0.163500011 0.0471939221 0.0218342338
  vertex 0.166000009 0.0472840033 0.0107922647
  vertex 0.163500011 0.0507842675 0.0111784628
  endloop
 endfacet

 facet normal 0 0 0
  outer loop
  vertex -0.0377517678 0.00200000009 0.0357603729
  vertex -0.044556573 0.00200000009 0.0268088002
  vertex 0.106707424 -0.0511870608 0.00556692807
  endloop
 endfacet

 facet normal 0 0 0
  outer loop
  vertex -0.0377517678 0.00200000009 0.0357603729
  vertex 0.106707424 -0.0511870608 0.00556692807
  vertex 0.110589713 -0.0507842675 0.0111784628
  endloop
 endfacet

 facet normal 0 0 0
  outer loop
  vertex -0.0377517678 0.00200000009 0.0357603729
  vertex 0.110589713 -0.0507842675 0.0111784628
  vertex 0.106707424 -0.046730049 0.0216196235
  endloop
 endfacet

 facet normal 0 0 0
  outer loop
  vertex 0.106707424 -0.0511870608 0.00556692807
  vertex -0.044556573 0.00200000009 0.0268088002
  vertex -0.0492779687 0.00200000009 0.0166036785
  endloop
 endfacet

 facet normal 0 0 0
  outer loop
  vertex 0.106707424 -0.0511870608 0.00556692807
  vertex -0.0492779687 0.00200000009 0.0166036785
  vertex -0.0516951755 0.00200000009 0.00562218856
  endloop
 endfacet

 facet normal 0 0 0
  outer loop
  vertex 0.106707424 -0.0511870608 0.00556692807
  vertex -0.0516951755 0.00200000009 0.00562218856
  vertex -0.0516951755 0.00200000009 -0.00562218856
  endloop
 endfacet

 facet normal 0 0 0
  outer loop
  vertex 0.106707424 -0.0511870608 0.00556692807
  vertex -0.0516951755 0.00200000009 -0.00562218856
  vertex 0.106707424 -0.0511870608 -0.00556692807
  endloop
 endfacet

 facet normal 0 0 0
  outer loop
  vertex 0.110589713 -0.0139114736 0.0501045957
  vertex 0.110589713 -0.0243572388 0.0459426269
  vertex 0.163500011 -0.0192471836 0.0483067855
  endloop
 endfacet

 facet normal 0 0 0
  outer loop
  vertex 0.110589713 -0.0139114736 0.0501045957
  vertex 0.163500011 -0.0192471836 0.0483067855
  vertex 0.163500011 -0.00841266382 0.0513149798
  endloop
 endfacet

 facet normal 0 0 0
  outer loop
  vertex 0.110589713 -0.0139114736 0.0501045957
  vertex 0.163500011 -0.00841266382 0.0513149798
  vertex 0.00281522353 0.00200000009 0.0519237369
  endloop
 endfacet

 facet normal 0 0 0
  outer loop
  vertex 0.110589713 -0.0139114736 0.0501045957
  vertex 0.00281522353 0.00200000009 0.0519237369
  vertex -0.00841266382 0.00200000009 0.0513149798
  endloop
 endfacet

 facet normal 0 0 0
  outer loop
  vertex 0.110589713 -0.0139114736 0.0501045957
  vertex -0.00841266382 0.00200000009 0.0513149798
  vertex 0.110589713 -0.0243572388 0.0459426269
  endloop
 endfacet

 facet normal 0 0 0
  outer loop
  vertex 0.00388934277 0.0687678605 -0.0469373837
  vertex -0.00383482431 0.0696821213 -0.0462794416
  vertex 0.0150784124 0.0696821213 -0.0439219065
  endloop
 endfacet

 facet normal 0 0 0
  outer loop
  vertex 0.00388934277 0.0687678605 -0.0469373837
  vertex 0.0150784124 0.0696821213 -0.0439219065
  vertex 0.163500011 0.033664085 -0.0396324247
  endloop
 endfacet

 facet normal 0 0 0
  outer loop
  vertex 0.00388934277 0.0687678605 -0.0469373837
  vertex 0.163500011 0.033664085 -0.0396324247
  vertex 0.163500011 0.0243572388 -0.0459426269
  endloop
 endfacet

 facet normal 0 0 0
  outer loop
  vertex 0.00388934277 0.0687678605 -0.0469373837
  vertex 0.163500011 0.0243572388 -0.0459426269
  vertex 0.163500011 0.0139114736 -0.0501045957
  endloop
 endfacet

 facet normal 0 0 0
  outer loop
  vertex 0.00388934277 0.0687678605 -0.0469373837
  vertex 0.163500011 0.0139114736 -0.0501045957
  vertex -0.00281522353 0.0579999983 -0.0519237369
  endloop
 endfacet

 facet normal 0 0 0
  outer loop
  vertex 0.00388934277 0.0687678605 -0.0469373837
  vertex -0.00281522353 0.0579999983 -0.0519237369
  vertex -0.00383482431 0.0696821213 -0.0462794416
  endloop
 endfacet

 facet normal 0 0 0
  outer loop
  vertex 0.106707424 -0.0511870608 -0.00556692807
  vertex -0.044556573 0.00200000009 -0.0268088002
  vertex -0.0377517678 0.00200000009 -0.0357603729
  endloop
 endfacet

 facet normal 0 0 0
  outer loop
  vertex 0.106707424 -0.0511870608 -0.00556692807
  vertex -0.0377517678 0.00200000009 -0.0357603729
  vertex 0.106707424 -0.0487936065 -0.0164404809
  endloop
 endfacet

 facet normal 0 0 0
  outer loop
  vertex 0.106707424 -0.0487936065 -0.0164404809
  vertex -0.0377517678 0.00200000009 -0.0357603729
  vertex -0.0291817319 0.00200000009 -0.0430398285
  endloop
 endfacet

 facet normal 0 0 0
  outer loop
  vertex 0.166000009 0.0472840033 -0.0107922647
  vertex 0.163500011 0.0507842675 -0.0111784628
  vertex 0.163500011 0.0520000011 0
  endloop
 endfacet

 facet normal 0 0 0
  outer loop
  vertex 0.166000009 0.0472840033 -0.0107922647
  vertex 0.163500011 0.0520000011 0
  vertex 0.166000009 0.0472840033 0.0107922647
  endloop
 endfacet

 facet normal 0 0 0
  outer loop
  vertex 0.166000009 0.0472840033 -0.0107922647
  vertex 0.166000009 0.0436969884 -0.0210433602
  vertex 0.163500011 0.0471939221 -0.0218342338
  endloop
 endfacet

 facet normal 0 0 0
  outer loop
  vertex 0.166000009 0.0472840033 -0.0107922647
  vertex 0.163500011 0.0471939221 -0.0218342338
  vertex 0.163500011 0.0507842675 -0.0111784628
  endloop
 endfacet

 facet normal 0 0 0
  outer loop
  vertex 0.166000009 0.0379188284 0.0302392561
  vertex 0.166000009 0.0472840033 0.0107922647
  vertex 0.163500011 0.0471939221 0.0218342338
  endloop
 endfacet

 facet normal 0 0 0
  outer loop
  vertex 0.166000009 0.0379188284 0.0302392561
  vertex 0.163500011 0.0471939221 0.0218342338
  vertex 0.163500011 0.0413968377 0.0314690582
  endloop
 endfacet

 facet normal 0 0 0
  outer loop
  vertex 0.166000009 0.0379188284 0.0302392561
  vertex 0.163500011 0.0413968377 0.0314690582
  vertex 0.163500011 0.033664085 0.0396324247
  endloop
 endfacet

 facet normal 0 0 0
  outer loop
  vertex 0.166000009 0.0379188284 0.0302392561
  vertex 0.163500011 0.033664085 0.0396324247
  vertex 0.166000009 0.0302392561 0.0379188247
  endloop
 endfacet

 facet normal 0 0 0
  outer loop
  vertex 0.166000009 0.0379188284 -0.0302392561
  vertex 0.166000009 0.021043364 -0.0436969884
  vertex 0.163500011 0.033664085 -0.0396324247
  endloop
 endfacet

 facet normal 0 0 0
  outer loop
  vertex 0.166000009 0.0379188284 -0.0302392561
  vertex 0.163500011 0.033664085 -0.0396324247
  vertex 0.163500011 0.0413968377 -0.0314690582
  endloop
 endfacet

 facet normal 0 0 0
  outer loop
  vertex 0.166000009 0.0379188284 -0.0302392561
  vertex 0.163500011 0.0413968377 -0.0314690582
  vertex 0.163500011 0.0471939221 -0.0218342338
  endloop
 endfacet

 facet normal 0 0 0
  outer loop
  vertex 0.166000009 0.0379188284 -0.0302392561
  vertex 0.163500011 0.0471939221 -0.0218342338
  vertex 0.166000009 0.0436969884 -0.0210433602
  endloop
 endfacet

 facet normal 0 0 0
  outer loop
  vertex 0.0113998689 0.0696821213 0.0450170599
  vertex 0 0.0696821213 0.0464380533
  vertex 0.00841266382 0.0579999983 0.0513149798
  endloop
 endfacet

 facet normal 0 0 0
  outer loop
  vertex 0.0113998689 0.0696821213 0.0450170599
  vertex 0.00841266382 0.0579999983 0.0513149798
  vertex 0.163500011 0.0243572388 0.0459426269
  endloop
 endfacet

 facet normal 0 0 0
  outer loop
  vertex 0.0113998689 0.0696821213 0.0450170599
  vertex 0.163500011 0.0243572388 0.0459426269
  vertex 0.163500011 0.033664085 0.0396324247
  endloop
 endfacet

 facet normal 0 0 0
  outer loop
  vertex 0.0113998689 0.0696821213 0.0450170599
  vertex 0.163500011 0.033664085 0.0396324247
  vertex 0.163500011 0.0413968377 0.0314690582
  endloop
 endfacet

 facet normal 0 0 0
  outer loop
  vertex 0.0113998689 0.0696821213 0.0450170599
  vertex 0.163500011 0.0413968377 0.0314690582
  vertex 0.0182719007 0.0702880472 0.0416557342
  endloop
 endfacet

 facet normal 0 0 0
  outer loop
  vertex 0.0113998689 0.0696821213 0.0450170599
  vertex 0.0182719007 0.0702880472 0.0416557342
  vertex 0 0.0696821213 0.0464380533
  endloop
 endfacet

 facet normal 0 0 0
  outer loop
  vertex 0.166000009 -2.96976844e-18 -0.0485000014
  vertex 0.163500011 0.0028152233 -0.0519237369
  vertex 0.163500011 0.0139114736 -0.0501045957
  endloop
 endfacet

 facet normal 0 0 0
  outer loop
  vertex 0.166000009 -2.96976844e-18 -0.0485000014
  vertex 0.163500011 0.0139114736 -0.0501045957
  vertex 0.166000009 0.021043364 -0.0436969884
  endloop
 endfacet

 facet normal 0 0 0
  outer loop
  vertex 0.166000009 -2.96976844e-18 -0.0485000014
  vertex 0.166000009 -0.0107922656 -0.0472840033
  vertex 0.163500011 -0.00841266382 -0.0513149798
  endloop
 endfacet

 facet normal 0 0 0
  outer loop
  vertex 0.166000009 -2.96976844e-18 -0.0485000014
  vertex 0.163500011 -0.00841266382 -0.0513149798
  vertex 0.163500011 0.0028152233 -0.0519237369
  endloop
 endfacet

 facet normal 0 0 0
  outer loop
  vertex -0.0147695886 0.0702880472 0.0430223383
  vertex -0.0253992099 0.0696821213 0.0388763808
  vertex -0.0115619376 0.0687678605 0.0456570573
  endloop
 endfacet

 facet normal 0 0 0
  outer loop
  vertex -0.0147695886 0.0702880472 0.0430223383
  vertex -0.0115619376 0.0687678605 0.0456570573
  vertex 0 0.0696821213 0.0464380533
  endloop
 endfacet

 facet normal 0 0 0
  outer loop
  vertex -0.0147695886 0.0702880472 0.0430223383
  vertex 0 0.0696821213 0.0464380533
  vertex 0.0182719007 0.0702880472 0.0416557342
  endloop
 endfacet

 facet normal 0 0 0
  outer loop
  vertex -0.0334658362 0.0702880472 0.0308074709
  vertex -0.0416557342 0.0702880472 0.018271897
  vertex -0.0371671394 0.0687678605 0.0289283432
  endloop
 endfacet

 facet normal 0 0 0
  outer loop
  vertex -0.0334658362 0.0702880472 0.0308074709
  vertex -0.0371671394 0.0687678605 0.0289283432
  vertex -0.0253992099 0.0696821213 0.0388763808
  endloop
 endfacet

 facet normal 0 0 0
  outer loop
  vertex -0.0334658362 0.0702880472 0.0308074709
  vertex -0.0253992099 0.0696821213 0.0388763808
  vertex -0.0147695886 0.0702880472 0.0430223383
  endloop
 endfacet

 facet normal 0 0 0
  outer loop
  vertex 0.166000009 -0.0436969884 -0.0210433602
  vertex 0.166000009 -0.0485000014 0
  vertex 0.163500011 -0.0516951755 -0.00562218856
  endloop
 endfacet

 facet normal 0 0 0
  outer loop
  vertex 0.166000009 -0.0436969884 -0.0210433602
  vertex 0.163500011 -0.0516951755 -0.00562218856
  vertex 0.163500011 -0.049277965 -0.0166036785
  endloop
 endfacet

 facet normal 0 0 0
  outer loop
  vertex 0.163500011 -0.044556573 -0.0268088002
  vertex 0.166000009 -0.0436969884 -0.0210433602
  vertex 0.163500011 -0.049277965 -0.0166036785
  endloop
 endfacet

 facet normal 0 0 0
  outer loop
  vertex 0.163500011 -0.044556573 -0.0268088002
  vertex 0.163500011 -0.049277965 -0.0166036785
  vertex 0.110589713 -0.0471939221 -0.0218342338
  endloop
 endfacet

 facet normal 0 0 0
  outer loop
  vertex 0.163500011 -0.044556573 -0.0268088002
  vertex 0.110589713 -0.0471939221 -0.0218342338
  vertex 0.106707424 -0.0409899466 -0.0311597455
  endloop
 endfacet

 facet normal 0 0 0
  outer loop
  vertex 0.163500011 -0.044556573 -0.0268088002
  vertex 0.106707424 -0.0409899466 -0.0311597455
  vertex 0.163500011 -0.0377517641 -0.0357603729
  endloop
 endfacet

 facet normal 0 0 0
  outer loop
  vertex 0.163500011 -0.0516951755 0.00562218856
  vertex 0.110589713 -0.0507842675 0.0111784628
  vertex 0.106707424 -0.0511870608 0.00556692807
  endloop
 endfacet

 facet normal 0 0 0
  outer loop
  vertex 0.163500011 -0.0516951755 0.00562218856
  vertex 0.106707424 -0.0511870608 0.00556692807
  vertex 0.110589713 -0.0520000011 1.27363265e-17
  endloop
 endfacet

 facet normal 0 0 0
  outer loop
  vertex 0.110589713 -0.0520000011 1.27363265e-17
  vertex 0.106707424 -0.0511870608 0.00556692807
  vertex 0.106707424 -0.0511870608 -0.00556692807
  endloop
 endfacet

 facet normal 0 0 0
  outer loop
  vertex 0.110589713 -0.0520000011 1.27363265e-17
  vertex 0.163500011 -0.0516951755 -0.00562218856
  vertex 0.163500011 -0.0516951755 0.00562218856
  endloop
 endfacet

 facet normal 0 0 0
  outer loop
  vertex 0.110589713 -0.0507842675 -0.0111784628
  vertex 0.106707424 -0.0487936065 -0.0164404809
  vertex 0.110589713 -0.0471939221 -0.0218342338
  endloop
 endfacet

 facet normal 0 0 0
  outer loop
  vertex 0.110589713 -0.0507842675 -0.0111784628
  vertex 0.110589713 -0.0471939221 -0.0218342338
  vertex 0.163500011 -0.049277965 -0.0166036785
  endloop
 endfacet

 facet normal 0 0 0
  outer loop
  vertex 0.110589713 -0.0507842675 -0.0111784628
  vertex 0.163500011 -0.049277965 -0.0166036785
  vertex 0.163500011 -0.0516951755 -0.00562218856
  endloop
 endfacet

 facet normal 0 0 0
  outer loop
  vertex 0.163500011 -0.0516951755 -0.00562218856
  vertex 0.110589713 -0.0520000011 1.27363265e-17
  vertex 0.106707424 -0.0511870608 -0.00556692807
  endloop
 endfacet

 facet normal 0 0 0
  outer loop
  vertex 0.163500011 -0.0516951755 -0.00562218856
  vertex 0.106707424 -0.0511870608 -0.00556692807
  vertex 0.110589713 -0.0507842675 -0.0111784628
  endloop
 endfacet

 facet normal 0 0 0
  outer loop
  vertex 0.110589713 -0.0507842675 -0.0111784628
  vertex 0.106707424 -0.0511870608 -0.00556692807
  vertex 0.106707424 -0.0487936065 -0.0164404809
  endloop
 endfacet

 facet normal 0 0 0
  outer loop
  vertex -0.0144099444 0.0705000013 -0.0419747345
  vertex -0.00383482431 0.0696821213 -0.0462794416
  vertex -0.0152927786 0.0687678605 -0.0445463359
  endloop
 endfacet

 facet normal 0 0 0
  outer loop
  vertex -0.0144099444 0.0705000013 -0.0419747345
  vertex -0.0152927786 0.0687678605 -0.0445463359
  vertex -0.0253992099 0.0696821213 -0.0388763808
  endloop
 endfacet

 facet normal 0 0 0
  outer loop
  vertex -0.0144099444 0.0705000013 -0.0419747345
  vertex -0.0253992099 0.0696821213 -0.0388763808
  vertex -0.0380801484 0.0702880472 -0.0248790011
  endloop
 endfacet

 facet normal 0 0 0
  outer loop
  vertex -0.0147695886 0.0702880472 0.0430223383
  vertex 0.0182719007 0.0702880472 0.0416557342
  vertex 0.0334658362 0.0702880472 0.0308074709
  endloop
 endfacet

 facet normal 0 0 0
  outer loop
  vertex -0.0147695886 0.0702880472 0.0430223383
  vertex 0.0334658362 0.0702880472 0.0308074709
  vertex 0.0442277491 0.0705000013 -0.0036648158
  endloop
 endfacet

 facet normal 0 0 0
  outer loop
  vertex -0.0147695886 0.0702880472 0.0430223383
  vertex 0.0442277491 0.0705000013 -0.0036648158
  vertex 0.0279386621 0.0702880472 -0.0358955897
  endloop
 endfacet

 facet normal 0 0 0
  outer loop
  vertex -0.0147695886 0.0702880472 0.0430223383
  vertex 0.0279386621 0.0702880472 -0.0358955897
  vertex -0.0144099444 0.0705000013 -0.0419747345
  endloop
 endfacet

 facet normal 0 0 0
  outer loop
  vertex -0.0147695886 0.0702880472 0.0430223383
  vertex -0.0144099444 0.0705000013 -0.0419747345
  vertex -0.0380801484 0.0702880472 -0.0248790011
  endloop
 endfacet

 facet normal 0 0 0
  outer loop
  vertex -0.0147695886 0.0702880472 0.0430223383
  vertex -0.0380801484 0.0702880472 -0.0248790011
  vertex -0.0416557342 0.0702880472 0.018271897
  endloop
 endfacet

 facet normal 0 0 0
  outer loop
  vertex -0.0147695886 0.0702880472 0.0430223383
  vertex -0.0416557342 0.0702880472 0.018271897
  vertex -0.0334658362 0.0702880472 0.0308074709
  endloop
 endfacet

 facet normal 0 0 0
  outer loop
  vertex 0.0279386621 0.0702880472 -0.0358955897
  vertex 0.0150784124 0.0696821213 -0.0439219065
  vertex -0.00383482431 0.0696821213 -0.0462794416
  endloop
 endfacet

 facet normal 0 0 0
  outer loop
  vertex 0.0279386621 0.0702880472 -0.0358955897
  vertex -0.00383482431 0.0696821213 -0.0462794416
  vertex -0.0144099444 0.0705000013 -0.0419747345
  endloop
 endfacet

 facet normal 0 0 0
  outer loop
  vertex -0.0414216816 0.0687678605 -0.0224162899
  vertex -0.0471939258 0.0579999983 -0.0218342338
  vertex -0.0445463434 0.0687678605 -0.0152927767
  endloop
 endfacet

 facet normal 0 0 0
  outer loop
  vertex -0.0414216816 0.0687678605 -0.0224162899
  vertex -0.0445463434 0.0687678605 -0.0152927767
  vertex -0.0380801484 0.0702880472 -0.0248790011
  endloop
 endfacet

 facet normal 0 0 0
  outer loop
  vertex -0.0414216816 0.0687678605 -0.0224162899
  vertex -0.0380801484 0.0702880472 -0.0248790011
  vertex -0.0346513093 0.0687678605 -0.0318987779
  endloop
 endfacet

 facet normal 0 0 0
  outer loop
  vertex -0.0414216816 0.0687678605 -0.0224162899
  vertex -0.0346513093 0.0687678605 -0.0318987779
  vertex -0.0413968414 0.0579999983 -0.0314690582
  endloop
 endfacet

 facet normal 0 0 0
  outer loop
  vertex -0.0414216816 0.0687678605 -0.0224162899
  vertex -0.0413968414 0.0579999983 -0.0314690582
  vertex -0.0471939258 0.0579999983 -0.0218342338
  endloop
 endfacet

 facet normal 0 0 0
  outer loop
  vertex -0.0445463434 0.0687678605 0.0152927767
  vertex -0.0416557342 0.0702880472 0.018271897
  vertex -0.0464558974 0.0687678605 0.00775211724
  endloop
 endfacet

 facet normal 0 0 0
  outer loop
  vertex -0.0445463434 0.0687678605 0.0152927767
  vertex -0.0464558974 0.0687678605 0.00775211724
  vertex -0.0507842675 0.0579999983 0.0111784628
  endloop
 endfacet

 facet normal 0 0 0
  outer loop
  vertex -0.0445463434 0.0687678605 0.0152927767
  vertex -0.0507842675 0.0579999983 0.0111784628
  vertex -0.0471939258 0.0579999983 0.0218342338
  endloop
 endfacet

 facet normal 0 0 0
  outer loop
  vertex -0.0445463434 0.0687678605 0.0152927767
  vertex -0.0471939258 0.0579999983 0.0218342338
  vertex -0.0371671394 0.0687678605 0.0289283432
  endloop
 endfacet

 facet normal 0 0 0
  outer loop
  vertex -0.0445463434 0.0687678605 0.0152927767
  vertex -0.0371671394 0.0687678605 0.0289283432
  vertex -0.0416557342 0.0702880472 0.018271897
  endloop
 endfacet

endsolid AssimpScene
