solid AssimpScene
 facet normal 0 0 0
  outer loop
  vertex -0.0118208816 0.002759472 -0.0049081943
  vertex -0.00692336494 0.0104487361 -0.00292315334
  vertex 0.000365647691 0.00935759488 -0.00642271666
  endloop
 endfacet

 facet normal 0 0 0
  outer loop
  vertex -0.0118208816 0.002759472 -0.0049081943
  vertex 0.000365647691 0.00935759488 -0.00642271666
  vertex 0.00588972028 0.00483519118 -0.0103723668
  endloop
 endfacet

 facet normal 0 0 0
  outer loop
  vertex -0.0118208816 0.002759472 -0.0049081943
  vertex 0.00588972028 0.00483519118 -0.0103723668
  vertex -0.0039571682 -0.0044659595 -0.0114039425
  endloop
 endfacet

 facet normal 0 0 0
  outer loop
  vertex 0.0088059688 -0.0238733757 0.0144503135
  vertex 0.0149511993 -0.0204951428 0.0244569443
  vertex -0.00274155382 -0.0212063193 0.0199767519
  endloop
 endfacet

 facet normal 0 0 0
  outer loop
  vertex -0.0114302551 0.0129003888 0.00248921383
  vertex 0.00472395727 0.00206009555 0.0288051199
  vertex -0.00490697753 0.0165949576 0.00194830797
  endloop
 endfacet

 facet normal 0 0 0
  outer loop
  vertex 0.0183181819 -3.07381415e-05 0.022819683
  vertex 0.00832040515 0.0148244668 -0.00396486046
  vertex 0.0022288945 0.0172684658 -0.00031471884
  endloop
 endfacet

 facet normal 0 0 0
  outer loop
  vertex 0.0183181819 -3.07381415e-05 0.022819683
  vertex 0.0022288945 0.0172684658 -0.00031471884
  vertex 0.0112874536 0.0044079884 0.0228846725
  endloop
 endfacet

 facet normal 0 0 0
  outer loop
  vertex 0.0022288945 0.0172684658 -0.00031471884
  vertex 0.00832040515 0.0148244668 -0.00396486046
  vertex 0.000365647691 0.00935759488 -0.00642271666
  endloop
 endfacet

 facet normal 0 0 0
  outer loop
  vertex 0.0202895161 -0.00342566497 0.0157208629
  vertex 0.0213825405 -0.0127093615 0.0154127814
  vertex 0.012926599 0.003052257 -0.0112629337
  endloop
 endfacet

 facet normal 0 0 0
  outer loop
  vertex 0.0202895161 -0.00342566497 0.0157208629
  vertex 0.012926599 0.003052257 -0.0112629337
  vertex 0.0122516192 0.00965727586 -0.0077396268
  endloop
 endfacet

 facet normal 0 0 0
  outer loop
  vertex -0.00354929478 -0.000934975047 0.0256334469
  vertex 0.00472395727 0.00206009555 0.0288051199
  vertex -0.0114302551 0.0129003888 0.00248921383
  endloop
 endfacet

 facet normal 0 0 0
  outer loop
  vertex -0.0114302551 0.0129003888 0.00248921383
  vertex -0.0158880372 0.00711104134 0.000830569305
  vertex -0.00503956061 -0.00660681864 0.028057931
  endloop
 endfacet

 facet normal 0 0 0
  outer loop
  vertex -0.0114302551 0.0129003888 0.00248921383
  vertex -0.00503956061 -0.00660681864 0.028057931
  vertex -0.00354929478 -0.000934975047 0.0256334469
  endloop
 endfacet

 facet normal 0 0 0
  outer loop
  vertex 0.0102785556 -0.00358513882 -0.0135928281
  vertex 0.015805807 -0.0177779067 0.0102307275
  vertex 0.00599642564 -0.00741400709 -0.0144709907
  endloop
 endfacet

 facet normal 0 0 0
  outer loop
  vertex -0.0039571682 -0.0044659595 -0.0114039425
  vertex 0.00599642564 -0.00741400709 -0.0144709907
  vertex 0.00324663892 -0.00972194131 -0.014078713
  endloop
 endfacet

 facet normal 0 0 0
  outer loop
  vertex -0.0039571682 -0.0044659595 -0.0114039425
  vertex 0.00324663892 -0.00972194131 -0.014078713
  vertex -0.0020446796 -0.0114140576 -0.012992518
  endloop
 endfacet

 facet normal 0 0 0
  outer loop
  vertex 0.000744498568 -0.0220182296 0.0136084016
  vertex 0.0088059688 -0.0238733757 0.0144503135
  vertex -0.00274155382 -0.0212063193 0.0199767519
  endloop
 endfacet

 facet normal 0 0 0
  outer loop
  vertex 0.000744498568 -0.0220182296 0.0136084016
  vertex -0.00274155382 -0.0212063193 0.0199767519
  vertex -0.0120317778 -0.00932665914 -0.00854188669
  endloop
 endfacet

 facet normal 0 0 0
  outer loop
  vertex -0.0039571682 -0.0044659595 -0.0114039425
  vertex -0.0120317778 -0.00932665914 -0.00854188669
  vertex -0.0154107707 -0.00600978732 -0.0054458729
  endloop
 endfacet

 facet normal 0 0 0
  outer loop
  vertex -0.0039571682 -0.0044659595 -0.0114039425
  vertex -0.0154107707 -0.00600978732 -0.0054458729
  vertex -0.0118208816 0.002759472 -0.0049081943
  endloop
 endfacet

 facet normal 0 0 0
  outer loop
  vertex -0.0154107707 -0.00600978732 -0.0054458729
  vertex -0.0171633009 -0.00146965275 -0.00255503552
  vertex -0.0118208816 0.002759472 -0.0049081943
  endloop
 endfacet

 facet normal 0 0 0
  outer loop
  vertex -0.0120317778 -0.00932665914 -0.00854188669
  vertex -0.00274155382 -0.0212063193 0.0199767519
  vertex -0.00402190769 -0.0198616665 0.0211100262
  endloop
 endfacet

 facet normal 0 0 0
  outer loop
  vertex -0.0120317778 -0.00932665914 -0.00854188669
  vertex -0.00402190769 -0.0198616665 0.0211100262
  vertex -0.0154107707 -0.00600978732 -0.0054458729
  endloop
 endfacet

 facet normal 0 0 0
  outer loop
  vertex -0.0073468159 -0.0113139255 -0.0110130087
  vertex -0.0020446796 -0.0114140576 -0.012992518
  vertex 0.0088059688 -0.0238733757 0.0144503135
  endloop
 endfacet

 facet normal 0 0 0
  outer loop
  vertex -0.0073468159 -0.0113139255 -0.0110130087
  vertex 0.0088059688 -0.0238733757 0.0144503135
  vertex 0.000744498568 -0.0220182296 0.0136084016
  endloop
 endfacet

 facet normal 0 0 0
  outer loop
  vertex -0.0073468159 -0.0113139255 -0.0110130087
  vertex 0.000744498568 -0.0220182296 0.0136084016
  vertex -0.0120317778 -0.00932665914 -0.00854188669
  endloop
 endfacet

 facet normal 0 0 0
  outer loop
  vertex -0.0073468159 -0.0113139255 -0.0110130087
  vertex -0.0120317778 -0.00932665914 -0.00854188669
  vertex -0.0039571682 -0.0044659595 -0.0114039425
  endloop
 endfacet

 facet normal 0 0 0
  outer loop
  vertex -0.0073468159 -0.0113139255 -0.0110130087
  vertex -0.0039571682 -0.0044659595 -0.0114039425
  vertex -0.0020446796 -0.0114140576 -0.012992518
  endloop
 endfacet

 facet normal 0 0 0
  outer loop
  vertex 0.00588972028 0.00483519118 -0.0103723668
  vertex 0.00599642564 -0.00741400709 -0.0144709907
  vertex -0.0039571682 -0.0044659595 -0.0114039425
  endloop
 endfacet

 facet normal 0 0 0
  outer loop
  vertex 0.00588972028 0.00483519118 -0.0103723668
  vertex 0.000365647691 0.00935759488 -0.00642271666
  vertex 0.00832040515 0.0148244668 -0.00396486046
  endloop
 endfacet

 facet normal 0 0 0
  outer loop
  vertex 0.00588972028 0.00483519118 -0.0103723668
  vertex 0.00832040515 0.0148244668 -0.00396486046
  vertex 0.0122516192 0.00965727586 -0.0077396268
  endloop
 endfacet

 facet normal 0 0 0
  outer loop
  vertex 0.00588972028 0.00483519118 -0.0103723668
  vertex 0.0122516192 0.00965727586 -0.0077396268
  vertex 0.012926599 0.003052257 -0.0112629337
  endloop
 endfacet

 facet normal 0 0 0
  outer loop
  vertex 0.00588972028 0.00483519118 -0.0103723668
  vertex 0.012926599 0.003052257 -0.0112629337
  vertex 0.0102785556 -0.00358513882 -0.0135928281
  endloop
 endfacet

 facet normal 0 0 0
  outer loop
  vertex 0.00588972028 0.00483519118 -0.0103723668
  vertex 0.0102785556 -0.00358513882 -0.0135928281
  vertex 0.00599642564 -0.00741400709 -0.0144709907
  endloop
 endfacet

 facet normal 0 0 0
  outer loop
  vertex -0.00692336494 0.0104487361 -0.00292315334
  vertex -0.0118208816 0.002759472 -0.0049081943
  vertex -0.0158880372 0.00711104134 0.000830569305
  endloop
 endfacet

 facet normal 0 0 0
  outer loop
  vertex -0.00692336494 0.0104487361 -0.00292315334
  vertex -0.0158880372 0.00711104134 0.000830569305
  vertex -0.0114302551 0.0129003888 0.00248921383
  endloop
 endfacet

 facet normal 0 0 0
  outer loop
  vertex -0.00692336494 0.0104487361 -0.00292315334
  vertex -0.0114302551 0.0129003888 0.00248921383
  vertex -0.00490697753 0.0165949576 0.00194830797
  endloop
 endfacet

 facet normal 0 0 0
  outer loop
  vertex -0.00692336494 0.0104487361 -0.00292315334
  vertex -0.00490697753 0.0165949576 0.00194830797
  vertex 0.0022288945 0.0172684658 -0.00031471884
  endloop
 endfacet

 facet normal 0 0 0
  outer loop
  vertex -0.00692336494 0.0104487361 -0.00292315334
  vertex 0.0022288945 0.0172684658 -0.00031471884
  vertex 0.000365647691 0.00935759488 -0.00642271666
  endloop
 endfacet

 facet normal 0 0 0
  outer loop
  vertex 0.0108526722 -0.0232971534 0.0139913158
  vertex 0.0149511993 -0.0204951428 0.0244569443
  vertex 0.0088059688 -0.0238733757 0.0144503135
  endloop
 endfacet

 facet normal 0 0 0
  outer loop
  vertex -0.00503956061 -0.00660681864 0.028057931
  vertex 0.00472395727 0.00206009555 0.0288051199
  vertex -0.00354929478 -0.000934975047 0.0256334469
  endloop
 endfacet

 facet normal 0 0 0
  outer loop
  vertex -0.00503956061 -0.00660681864 0.028057931
  vertex -0.00580590963 -0.0085276952 0.0273836534
  vertex 0.0149511993 -0.0204951428 0.0244569443
  endloop
 endfacet

 facet normal 0 0 0
  outer loop
  vertex -0.00503956061 -0.00660681864 0.028057931
  vertex 0.0149511993 -0.0204951428 0.0244569443
  vertex 0.0186503958 -0.0112230042 0.0277116988
  endloop
 endfacet

 facet normal 0 0 0
  outer loop
  vertex -0.00503956061 -0.00660681864 0.028057931
  vertex 0.0186503958 -0.0112230042 0.0277116988
  vertex 0.00472395727 0.00206009555 0.0288051199
  endloop
 endfacet

 facet normal 0 0 0
  outer loop
  vertex -0.00402190769 -0.0198616665 0.0211100262
  vertex -0.00580590963 -0.0085276952 0.0273836534
  vertex -0.00744792353 -0.0134143876 0.020859722
  endloop
 endfacet

 facet normal 0 0 0
  outer loop
  vertex -0.00402190769 -0.0198616665 0.0211100262
  vertex -0.00744792353 -0.0134143876 0.020859722
  vertex -0.0171633009 -0.00146965275 -0.00255503552
  endloop
 endfacet

 facet normal 0 0 0
  outer loop
  vertex -0.00402190769 -0.0198616665 0.0211100262
  vertex -0.0171633009 -0.00146965275 -0.00255503552
  vertex -0.0154107707 -0.00600978732 -0.0054458729
  endloop
 endfacet

 facet normal 0 0 0
  outer loop
  vertex -0.00402190769 -0.0198616665 0.0211100262
  vertex -0.00274155382 -0.0212063193 0.0199767519
  vertex 0.0149511993 -0.0204951428 0.0244569443
  endloop
 endfacet

 facet normal 0 0 0
  outer loop
  vertex -0.00402190769 -0.0198616665 0.0211100262
  vertex 0.0149511993 -0.0204951428 0.0244569443
  vertex -0.00580590963 -0.0085276952 0.0273836534
  endloop
 endfacet

 facet normal 0 0 0
  outer loop
  vertex 0.00677066064 0.00263631926 0.0283461232
  vertex 0.0183181819 -3.07381415e-05 0.022819683
  vertex 0.0112874536 0.0044079884 0.0228846725
  endloop
 endfacet

 facet normal 0 0 0
  outer loop
  vertex 0.00677066064 0.00263631926 0.0283461232
  vertex 0.0112874536 0.0044079884 0.0228846725
  vertex 0.0022288945 0.0172684658 -0.00031471884
  endloop
 endfacet

 facet normal 0 0 0
  outer loop
  vertex 0.00677066064 0.00263631926 0.0283461232
  vertex 0.0022288945 0.0172684658 -0.00031471884
  vertex -0.00490697753 0.0165949576 0.00194830797
  endloop
 endfacet

 facet normal 0 0 0
  outer loop
  vertex 0.00677066064 0.00263631926 0.0283461232
  vertex -0.00490697753 0.0165949576 0.00194830797
  vertex 0.00472395727 0.00206009555 0.0288051199
  endloop
 endfacet

 facet normal 0 0 0
  outer loop
  vertex 0.00677066064 0.00263631926 0.0283461232
  vertex 0.00472395727 0.00206009555 0.0288051199
  vertex 0.0186503958 -0.0112230042 0.0277116988
  endloop
 endfacet

 facet normal 0 0 0
  outer loop
  vertex 0.00677066064 0.00263631926 0.0283461232
  vertex 0.0186503958 -0.0112230042 0.0277116988
  vertex 0.0183181819 -3.07381415e-05 0.022819683
  endloop
 endfacet

 facet normal 0 0 0
  outer loop
  vertex 0.0206161905 -0.0146302395 0.0147385057
  vertex 0.0149511993 -0.0204951428 0.0244569443
  vertex 0.0108526722 -0.0232971534 0.0139913158
  endloop
 endfacet

 facet normal 0 0 0
  outer loop
  vertex 0.0206161905 -0.0146302395 0.0147385057
  vertex 0.0108526722 -0.0232971534 0.0139913158
  vertex 0.015805807 -0.0177779067 0.0102307275
  endloop
 endfacet

 facet normal 0 0 0
  outer loop
  vertex 0.0206161905 -0.0146302395 0.0147385057
  vertex 0.015805807 -0.0177779067 0.0102307275
  vertex 0.0102785556 -0.00358513882 -0.0135928281
  endloop
 endfacet

 facet normal 0 0 0
  outer loop
  vertex 0.0206161905 -0.0146302395 0.0147385057
  vertex 0.0102785556 -0.00358513882 -0.0135928281
  vertex 0.012926599 0.003052257 -0.0112629337
  endloop
 endfacet

 facet normal 0 0 0
  outer loop
  vertex 0.0206161905 -0.0146302395 0.0147385057
  vertex 0.012926599 0.003052257 -0.0112629337
  vertex 0.0213825405 -0.0127093615 0.0154127814
  endloop
 endfacet

 facet normal 0 0 0
  outer loop
  vertex 0.0206161905 -0.0146302395 0.0147385057
  vertex 0.0213825405 -0.0127093615 0.0154127814
  vertex 0.0186503958 -0.0112230042 0.0277116988
  endloop
 endfacet

 facet normal 0 0 0
  outer loop
  vertex 0.0206161905 -0.0146302395 0.0147385057
  vertex 0.0186503958 -0.0112230042 0.0277116988
  vertex 0.0149511993 -0.0204951428 0.0244569443
  endloop
 endfacet

 facet normal 0 0 0
  outer loop
  vertex 0.0195985362 -0.00137539103 0.0216864087
  vertex 0.0186503958 -0.0112230042 0.0277116988
  vertex 0.0213825405 -0.0127093615 0.0154127814
  endloop
 endfacet

 facet normal 0 0 0
  outer loop
  vertex 0.0195985362 -0.00137539103 0.0216864087
  vertex 0.0213825405 -0.0127093615 0.0154127814
  vertex 0.0202895161 -0.00342566497 0.0157208629
  endloop
 endfacet

 facet normal 0 0 0
  outer loop
  vertex 0.0195985362 -0.00137539103 0.0216864087
  vertex 0.0202895161 -0.00342566497 0.0157208629
  vertex 0.0122516192 0.00965727586 -0.0077396268
  endloop
 endfacet

 facet normal 0 0 0
  outer loop
  vertex 0.0195985362 -0.00137539103 0.0216864087
  vertex 0.0122516192 0.00965727586 -0.0077396268
  vertex 0.00832040515 0.0148244668 -0.00396486046
  endloop
 endfacet

 facet normal 0 0 0
  outer loop
  vertex 0.0195985362 -0.00137539103 0.0216864087
  vertex 0.00832040515 0.0148244668 -0.00396486046
  vertex 0.0183181819 -3.07381415e-05 0.022819683
  endloop
 endfacet

 facet normal 0 0 0
  outer loop
  vertex 0.0195985362 -0.00137539103 0.0216864087
  vertex 0.0183181819 -3.07381415e-05 0.022819683
  vertex 0.0186503958 -0.0112230042 0.0277116988
  endloop
 endfacet

 facet normal 0 0 0
  outer loop
  vertex 0.00324663892 -0.00972194131 -0.014078713
  vertex 0.00599642564 -0.00741400709 -0.0144709907
  vertex 0.015805807 -0.0177779067 0.0102307275
  endloop
 endfacet

 facet normal 0 0 0
  outer loop
  vertex 0.00324663892 -0.00972194131 -0.014078713
  vertex 0.015805807 -0.0177779067 0.0102307275
  vertex 0.0108526722 -0.0232971534 0.0139913158
  endloop
 endfacet

 facet normal 0 0 0
  outer loop
  vertex 0.00324663892 -0.00972194131 -0.014078713
  vertex 0.0108526722 -0.0232971534 0.0139913158
  vertex 0.0088059688 -0.0238733757 0.0144503135
  endloop
 endfacet

 facet normal 0 0 0
  outer loop
  vertex 0.00324663892 -0.00972194131 -0.014078713
  vertex 0.0088059688 -0.0238733757 0.0144503135
  vertex -0.0020446796 -0.0114140576 -0.012992518
  endloop
 endfacet

 facet normal 0 0 0
  outer loop
  vertex -0.0170343909 0.00361808389 -7.72444037e-05
  vertex -0.0158880372 0.00711104134 0.000830569305
  vertex -0.0118208816 0.002759472 -0.0049081943
  endloop
 endfacet

 facet normal 0 0 0
  outer loop
  vertex -0.0170343909 0.00361808389 -7.72444037e-05
  vertex -0.0118208816 0.002759472 -0.0049081943
  vertex -0.0171633009 -0.00146965275 -0.00255503552
  endloop
 endfacet

 facet normal 0 0 0
  outer loop
  vertex -0.0170343909 0.00361808389 -7.72444037e-05
  vertex -0.0171633009 -0.00146965275 -0.00255503552
  vertex -0.00744792353 -0.0134143876 0.020859722
  endloop
 endfacet

 facet normal 0 0 0
  outer loop
  vertex -0.0170343909 0.00361808389 -7.72444037e-05
  vertex -0.00744792353 -0.0134143876 0.020859722
  vertex -0.00580590963 -0.0085276952 0.0273836534
  endloop
 endfacet

 facet normal 0 0 0
  outer loop
  vertex -0.0170343909 0.00361808389 -7.72444037e-05
  vertex -0.00580590963 -0.0085276952 0.0273836534
  vertex -0.00503956061 -0.00660681864 0.028057931
  endloop
 endfacet

 facet normal 0 0 0
  outer loop
  vertex -0.0170343909 0.00361808389 -7.72444037e-05
  vertex -0.00503956061 -0.00660681864 0.028057931
  vertex -0.0158880372 0.00711104134 0.000830569305
  endloop
 endfacet

endsolid AssimpScene
