solid AssimpScene
 facet normal 0 0 0
  outer loop
  vertex -0.0320000015 -0.00429412583 -0.0518223941
  vertex -0.0320000015 -0.0127652464 -0.0504088141
  vertex -0.0320000015 -0.0208881628 -0.0476202145
  endloop
 endfacet

 facet normal 0 0 0
  outer loop
  vertex -0.0320000015 -0.00429412583 -0.0518223941
  vertex -0.0320000015 -0.0208881628 -0.0476202145
  vertex -0.0320000015 -0.0352186449 -0.0382576399
  endloop
 endfacet

 facet normal 0 0 0
  outer loop
  vertex -0.0320000015 -0.00429412583 -0.0518223941
  vertex -0.0320000015 -0.0352186449 -0.0382576399
  vertex -0.0320000015 -0.045732636 -0.0247492623
  endloop
 endfacet

 facet normal 0 0 0
  outer loop
  vertex -0.0320000015 -0.00429412583 -0.0518223941
  vertex -0.0320000015 -0.045732636 -0.0247492623
  vertex -0.0320000015 -0.0512907915 -0.00855891779
  endloop
 endfacet

 facet normal 0 0 0
  outer loop
  vertex -0.0320000015 -0.00429412583 -0.0518223941
  vertex -0.0320000015 -0.0512907915 -0.00855891779
  vertex -0.0320000015 -0.0520000048 -1.91044906e-17
  endloop
 endfacet

 facet normal 0 0 0
  outer loop
  vertex -0.0320000015 -0.00429412583 -0.0518223941
  vertex -0.0320000015 -0.0520000048 -1.91044906e-17
  vertex -0.0320000015 -0.0491825007 0.0168843716
  endloop
 endfacet

 facet normal 0 0 0
  outer loop
  vertex -0.0320000015 -0.00429412583 -0.0518223941
  vertex -0.0320000015 -0.0491825007 0.0168843716
  vertex -0.0320000015 -0.045732636 0.0247492623
  endloop
 endfacet

 facet normal 0 0 0
  outer loop
  vertex -0.0320000015 -0.00429412583 -0.0518223941
  vertex -0.0320000015 -0.045732636 0.0247492623
  vertex -0.0320000015 -0.0352186449 0.0382576399
  endloop
 endfacet

 facet normal 0 0 0
  outer loop
  vertex -0.0320000015 -0.00429412583 -0.0518223941
  vertex -0.0320000015 -0.0352186449 0.0382576399
  vertex -0.0320000015 -0.0284413043 0.0435326584
  endloop
 endfacet

 facet normal 0 0 0
  outer loop
  vertex -0.0320000015 -0.00429412583 -0.0518223941
  vertex -0.0320000015 -0.0284413043 0.0435326584
  vertex -0.0320000015 -0.0127652464 0.0504088141
  endloop
 endfacet

 facet normal 0 0 0
  outer loop
  vertex -0.0320000015 -0.00429412583 -0.0518223941
  vertex -0.0320000015 -0.0127652464 0.0504088141
  vertex -0.0320000015 -0.00429412583 0.0518223941
  endloop
 endfacet

 facet normal 0 0 0
  outer loop
  vertex -0.0320000015 -0.00429412583 -0.0518223941
  vertex -0.0320000015 -0.00429412583 0.0518223941
  vertex -0.0320000015 0.00429412583 0.0518223941
  endloop
 endfacet

 facet normal 0 0 0
  outer loop
  vertex -0.0320000015 -0.00429412583 -0.0518223941
  vertex -0.0320000015 0.00429412583 0.0518223941
  vertex -0.0320000015 0.0127652464 0.0504088141
  endloop
 endfacet

 facet normal 0 0 0
  outer loop
  vertex -0.0320000015 -0.00429412583 -0.0518223941
  vertex -0.0320000015 0.0127652464 0.0504088141
  vertex -0.0320000015 0.0208881628 0.0476202145
  endloop
 endfacet

 facet normal 0 0 0
  outer loop
  vertex -0.0320000015 -0.00429412583 -0.0518223941
  vertex -0.0320000015 0.0208881628 0.0476202145
  vertex -0.0320000015 0.0284413043 0.0435326584
  endloop
 endfacet

 facet normal 0 0 0
  outer loop
  vertex -0.0320000015 -0.00429412583 -0.0518223941
  vertex -0.0320000015 0.0284413043 0.0435326584
  vertex -0.0320000015 0.0352186449 0.0382576399
  endloop
 endfacet

 facet normal 0 0 0
  outer loop
  vertex -0.0320000015 -0.00429412583 -0.0518223941
  vertex -0.0320000015 0.0352186449 0.0382576399
  vertex -0.0320000015 0.0410353094 0.0319390558
  endloop
 endfacet

 facet normal 0 0 0
  outer loop
  vertex -0.0320000015 -0.00429412583 -0.0518223941
  vertex -0.0320000015 0.0410353094 0.0319390558
  vertex -0.0320000015 0.045732636 0.0247492623
  endloop
 endfacet

 facet normal 0 0 0
  outer loop
  vertex -0.0320000015 -0.00429412583 -0.0518223941
  vertex -0.0320000015 0.045732636 0.0247492623
  vertex -0.0320000015 0.0491825007 0.0168843716
  endloop
 endfacet

 facet normal 0 0 0
  outer loop
  vertex -0.0320000015 -0.00429412583 -0.0518223941
  vertex -0.0320000015 0.0491825007 0.0168843716
  vertex -0.0320000015 0.0512907915 0.00855891779
  endloop
 endfacet

 facet normal 0 0 0
  outer loop
  vertex -0.0320000015 -0.00429412583 -0.0518223941
  vertex -0.0320000015 0.0512907915 0.00855891779
  vertex -0.0320000015 0.0520000048 0
  endloop
 endfacet

 facet normal 0 0 0
  outer loop
  vertex -0.0320000015 -0.00429412583 -0.0518223941
  vertex -0.0320000015 0.0520000048 0
  vertex -0.0320000015 0.0512907915 -0.00855891779
  endloop
 endfacet

 facet normal 0 0 0
  outer loop
  vertex -0.0320000015 -0.00429412583 -0.0518223941
  vertex -0.0320000015 0.0512907915 -0.00855891779
  vertex -0.0320000015 0.0491825007 -0.0168843716
  endloop
 endfacet

 facet normal 0 0 0
  outer loop
  vertex -0.0320000015 -0.00429412583 -0.0518223941
  vertex -0.0320000015 0.0491825007 -0.0168843716
  vertex -0.0320000015 0.045732636 -0.0247492623
  endloop
 endfacet

 facet normal 0 0 0
  outer loop
  vertex -0.0320000015 -0.00429412583 -0.0518223941
  vertex -0.0320000015 0.045732636 -0.0247492623
  vertex -0.0320000015 0.0410353094 -0.0319390558
  endloop
 endfacet

 facet normal 0 0 0
  outer loop
  vertex -0.0320000015 -0.00429412583 -0.0518223941
  vertex -0.0320000015 0.0410353094 -0.0319390558
  vertex -0.0320000015 0.0352186449 -0.0382576399
  endloop
 endfacet

 facet normal 0 0 0
  outer loop
  vertex -0.0320000015 -0.00429412583 -0.0518223941
  vertex -0.0320000015 0.0352186449 -0.0382576399
  vertex -0.0320000015 0.0284413043 -0.0435326584
  endloop
 endfacet

 facet normal 0 0 0
  outer loop
  vertex -0.0320000015 -0.00429412583 -0.0518223941
  vertex -0.0320000015 0.0284413043 -0.0435326584
  vertex -0.0320000015 0.0208881628 -0.0476202145
  endloop
 endfacet

 facet normal 0 0 0
  outer loop
  vertex -0.0320000015 -0.00429412583 -0.0518223941
  vertex -0.0320000015 0.0208881628 -0.0476202145
  vertex -0.0320000015 0.0127652464 -0.0504088141
  endloop
 endfacet

 facet normal 0 0 0
  outer loop
  vertex -0.0320000015 -0.00429412583 -0.0518223941
  vertex -0.0320000015 0.0127652464 -0.0504088141
  vertex -0.0320000015 0.00429412583 -0.0518223941
  endloop
 endfacet

 facet normal 0 0 0
  outer loop
  vertex -0.0320000015 -0.0208881628 -0.0476202145
  vertex 0.118737347 -0.0861821175 -0.0460791104
  vertex -0.0320000015 -0.0352186449 -0.0382576399
  endloop
 endfacet

 facet normal 0 0 0
  outer loop
  vertex -0.0320000015 -0.0491825007 0.0168843716
  vertex -0.0320000015 -0.0520000048 -1.91044906e-17
  vertex 0.0302171223 -0.0717288926 0.0276010707
  endloop
 endfacet

 facet normal 0 0 0
  outer loop
  vertex -0.0320000015 -0.045732636 -0.0247492623
  vertex -0.0320000015 -0.0352186449 -0.0382576399
  vertex 0.0302177295 -0.0717291087 -0.0276010707
  endloop
 endfacet

 facet normal 0 0 0
  outer loop
  vertex 0.117679089 -0.0745000094 -0.0515507013
  vertex 0.118737347 -0.0861821175 -0.0460791104
  vertex -0.0320000015 -0.0208881628 -0.0476202145
  endloop
 endfacet

 facet normal 0 0 0
  outer loop
  vertex 0.00911772344 0.04904994 0.0111674974
  vertex 0.175717875 -0.0535000004 0.00538321538
  vertex 0.00911772344 0.0501651727 -0.00375029026
  endloop
 endfacet

 facet normal 0 0 0
  outer loop
  vertex 0.169533327 -0.0540000051 -0.0259999987
  vertex 0.173954934 -0.0540000051 -0.0160688832
  vertex 0.171861425 -0.0745000094 -0.0214684699
  endloop
 endfacet

 facet normal 0 0 0
  outer loop
  vertex 0.00911772344 0.0435971692 0.0250977315
  vertex 0.16314353 -0.0540000051 0.0347947888
  vertex 0.169533327 -0.0540000051 0.0259999987
  endloop
 endfacet

 facet normal 0 0 0
  outer loop
  vertex 0.00911772344 0.0435971692 0.0250977315
  vertex 0.169533327 -0.0540000051 0.0259999987
  vertex 0.00911772344 0.04904994 0.0111674974
  endloop
 endfacet

 facet normal 0 0 0
  outer loop
  vertex 0.00911772344 0.0435971692 0.0250977315
  vertex 0.00575678283 0.0351512954 0.037734136
  vertex 0.155064836 -0.0540000051 0.0420688801
  endloop
 endfacet

 facet normal 0 0 0
  outer loop
  vertex 0.0319120698 -0.0739258155 0.000531486527
  vertex 0.0302171223 -0.0717288926 0.0276010707
  vertex -0.0320000015 -0.0520000048 -1.91044906e-17
  endloop
 endfacet

 facet normal 0 0 0
  outer loop
  vertex 0.0319120698 -0.0739258155 0.000531486527
  vertex -0.0320000015 -0.0520000048 -1.91044906e-17
  vertex -0.0320000015 -0.0512907915 -0.00855891779
  endloop
 endfacet

 facet normal 0 0 0
  outer loop
  vertex 0.0319120698 -0.0739258155 0.000531486527
  vertex -0.0320000015 -0.0512907915 -0.00855891779
  vertex 0.0302177295 -0.0717291087 -0.0276010707
  endloop
 endfacet

 facet normal 0 0 0
  outer loop
  vertex 0.0319120698 -0.0739258155 0.000531486527
  vertex 0.0302177295 -0.0717291087 -0.0276010707
  vertex 0.0836268738 -0.0867880508 -0.0199612137
  endloop
 endfacet

 facet normal 0 0 0
  outer loop
  vertex 0.0319120698 -0.0739258155 0.000531486527
  vertex 0.0836268738 -0.0867880508 -0.0199612137
  vertex 0.0790511519 -0.0867880508 -0.00186139601
  endloop
 endfacet

 facet normal 0 0 0
  outer loop
  vertex 0.104538791 -0.0867880508 0.0408731252
  vertex 0.0302171223 -0.0717288926 0.0276010707
  vertex 0.0898015052 -0.0867880508 0.0294121914
  endloop
 endfacet

 facet normal 0 0 0
  outer loop
  vertex 0.104538791 -0.0867880508 0.0408731252
  vertex 0.118774556 -0.0861821175 0.0460837483
  vertex -0.0320000015 -0.0352186449 0.0382576399
  endloop
 endfacet

 facet normal 0 0 0
  outer loop
  vertex 0.104538791 -0.0867880508 0.0408731252
  vertex -0.0320000015 -0.0352186449 0.0382576399
  vertex 0.0302171223 -0.0717288926 0.0276010707
  endloop
 endfacet

 facet normal 0 0 0
  outer loop
  vertex 0.00219149422 0.0354443043 -0.0380486734
  vertex 0.00575678283 0.0291499998 -0.0425412245
  vertex 0.00219149422 0.0226882249 -0.046789363
  endloop
 endfacet

 facet normal 0 0 0
  outer loop
  vertex 0.00219149422 0.0354443043 -0.0380486734
  vertex 0.00219149422 0.0226882249 -0.046789363
  vertex -0.0320000015 0.0284413043 -0.0435326584
  endloop
 endfacet

 facet normal 0 0 0
  outer loop
  vertex -0.0320000015 -0.0127652464 -0.0504088141
  vertex 0.117679089 -0.0745000094 -0.0515507013
  vertex -0.0320000015 -0.0208881628 -0.0476202145
  endloop
 endfacet

 facet normal 0 0 0
  outer loop
  vertex 0.13030684 -0.0852678567 -0.0467389114
  vertex 0.139570519 -0.0745000094 -0.0497682579
  vertex 0.141363129 -0.0861821175 -0.0432680883
  endloop
 endfacet

 facet normal 0 0 0
  outer loop
  vertex 0.13034457 -0.0852678567 0.0467342064
  vertex 0.141398072 -0.0861821175 0.0432544537
  vertex 0.139570519 -0.0745000094 0.0497682579
  endloop
 endfacet

 facet normal 0 0 0
  outer loop
  vertex 0.00575678283 0.0225006659 0.0464025661
  vertex 0.00219149422 0.0154790739 0.0496427044
  vertex 0.13531141 -0.0540000051 0.0508636758
  endloop
 endfacet

 facet normal 0 0 0
  outer loop
  vertex -0.0320000015 -0.0284413043 0.0435326584
  vertex 0.118774556 -0.0861821175 0.0460837483
  vertex 0.117679089 -0.0745000094 0.0515507013
  endloop
 endfacet

 facet normal 0 0 0
  outer loop
  vertex -0.0320000015 -0.0284413043 0.0435326584
  vertex 0.117679089 -0.0745000094 0.0515507013
  vertex -0.0320000015 -0.0127652464 0.0504088141
  endloop
 endfacet

 facet normal 0 0 0
  outer loop
  vertex -0.0320000015 -0.0284413043 0.0435326584
  vertex -0.0320000015 -0.0352186449 0.0382576399
  vertex 0.118774556 -0.0861821175 0.0460837483
  endloop
 endfacet

 facet normal 0 0 0
  outer loop
  vertex 0.173954934 -0.0540000051 0.0160688832
  vertex 0.175717875 -0.0535000004 0.00538321538
  vertex 0.00911772344 0.04904994 0.0111674974
  endloop
 endfacet

 facet normal 0 0 0
  outer loop
  vertex 0.173954934 -0.0540000051 0.0160688832
  vertex 0.00911772344 0.04904994 0.0111674974
  vertex 0.169533327 -0.0540000051 0.0259999987
  endloop
 endfacet

 facet normal 0 0 0
  outer loop
  vertex 0.173954934 -0.0540000051 0.0160688832
  vertex 0.169533327 -0.0540000051 0.0259999987
  vertex 0.171861425 -0.0745000094 0.0214684699
  endloop
 endfacet

 facet normal 0 0 0
  outer loop
  vertex 0.176215142 -0.0540000051 -0.00543548027
  vertex 0.173954934 -0.0540000051 -0.0160688832
  vertex 0.00911772344 0.0501651727 -0.00375029026
  endloop
 endfacet

 facet normal 0 0 0
  outer loop
  vertex 0.176215142 -0.0540000051 -0.00543548027
  vertex 0.00911772344 0.0501651727 -0.00375029026
  vertex 0.175717875 -0.0535000004 0.00538321538
  endloop
 endfacet

 facet normal 0 0 0
  outer loop
  vertex 0.176215142 -0.0540000051 -0.00543548027
  vertex 0.175717875 -0.0535000004 0.00538321538
  vertex 0.176499993 -0.0745000094 5.17884245e-14
  endloop
 endfacet

 facet normal 0 0 0
  outer loop
  vertex 0.104087725 -0.0861821175 -0.0417112932
  vertex 0.092322886 -0.0867880508 -0.0321511403
  vertex 0.0302177295 -0.0717291087 -0.0276010707
  endloop
 endfacet

 facet normal 0 0 0
  outer loop
  vertex 0.104087725 -0.0861821175 -0.0417112932
  vertex 0.0302177295 -0.0717291087 -0.0276010707
  vertex -0.0320000015 -0.0352186449 -0.0382576399
  endloop
 endfacet

 facet normal 0 0 0
  outer loop
  vertex 0.104087725 -0.0861821175 -0.0417112932
  vertex -0.0320000015 -0.0352186449 -0.0382576399
  vertex 0.118737347 -0.0861821175 -0.0460791104
  endloop
 endfacet

 facet normal 0 0 0
  outer loop
  vertex 0.00911772344 0.0501651727 -0.00375029026
  vertex 0.173954934 -0.0540000051 -0.0160688832
  vertex 0.169533327 -0.0540000051 -0.0259999987
  endloop
 endfacet

 facet normal 0 0 0
  outer loop
  vertex 0.00911772344 0.0501651727 -0.00375029026
  vertex 0.169533327 -0.0540000051 -0.0259999987
  vertex 0.00911772344 0.0468442589 -0.0183364358
  endloop
 endfacet

 facet normal 0 0 0
  outer loop
  vertex -0.0320000015 -0.045732636 0.0247492623
  vertex -0.0320000015 -0.0491825007 0.0168843716
  vertex 0.0302171223 -0.0717288926 0.0276010707
  endloop
 endfacet

 facet normal 0 0 0
  outer loop
  vertex -0.0320000015 -0.045732636 0.0247492623
  vertex 0.0302171223 -0.0717288926 0.0276010707
  vertex -0.0320000015 -0.0352186449 0.0382576399
  endloop
 endfacet

 facet normal 0 0 0
  outer loop
  vertex -0.0320000015 -0.0512907915 -0.00855891779
  vertex -0.0320000015 -0.045732636 -0.0247492623
  vertex 0.0302177295 -0.0717291087 -0.0276010707
  endloop
 endfacet

 facet normal 0 0 0
  outer loop
  vertex 0.171238914 -0.0852678567 0.00580683583
  vertex 0.167768076 -0.0861821175 0.0168631356
  vertex 0.169947326 -0.0867880508 -0.00189809664
  endloop
 endfacet

 facet normal 0 0 0
  outer loop
  vertex 0.156677112 -0.0867880508 0.0321511403
  vertex 0.169947326 -0.0867880508 -0.00189809664
  vertex 0.167768076 -0.0861821175 0.0168631356
  endloop
 endfacet

 facet normal 0 0 0
  outer loop
  vertex 0.156651139 -0.0867880508 -0.032177113
  vertex 0.167754456 -0.0861821175 -0.0168980677
  vertex 0.169947326 -0.0867880508 -0.00189809664
  endloop
 endfacet

 facet normal 0 0 0
  outer loop
  vertex 0.139570519 -0.0745000094 0.0497682579
  vertex 0.141398072 -0.0861821175 0.0432544537
  vertex 0.148625225 -0.0852678567 0.0404502004
  endloop
 endfacet

 facet normal 0 0 0
  outer loop
  vertex 0.139570519 -0.0745000094 0.0497682579
  vertex 0.148625225 -0.0852678567 0.0404502004
  vertex 0.149741217 -0.0745000094 0.045462966
  endloop
 endfacet

 facet normal 0 0 0
  outer loop
  vertex 0.149741217 -0.0745000094 0.045462966
  vertex 0.158773258 -0.0745000094 0.0391068235
  vertex 0.155064836 -0.0540000051 0.0420688801
  endloop
 endfacet

 facet normal 0 0 0
  outer loop
  vertex 0.166259229 -0.0745000094 0.0309865531
  vertex 0.158773258 -0.0745000094 0.0391068235
  vertex 0.157816932 -0.0852678567 0.0332900435
  endloop
 endfacet

 facet normal 0 0 0
  outer loop
  vertex 0.166259229 -0.0745000094 0.0309865531
  vertex 0.171861425 -0.0745000094 0.0214684699
  vertex 0.169533327 -0.0540000051 0.0259999987
  endloop
 endfacet

 facet normal 0 0 0
  outer loop
  vertex 0.166259229 -0.0745000094 -0.0309865531
  vertex 0.169533327 -0.0540000051 -0.0259999987
  vertex 0.171861425 -0.0745000094 -0.0214684699
  endloop
 endfacet

 facet normal 0 0 0
  outer loop
  vertex 0.166259229 -0.0745000094 -0.0309865531
  vertex 0.15779005 -0.0852678567 -0.0333169363
  vertex 0.158773258 -0.0745000094 -0.0391068235
  endloop
 endfacet

 facet normal 0 0 0
  outer loop
  vertex 0.175327137 -0.0745000094 -0.0109819341
  vertex 0.171861425 -0.0745000094 -0.0214684699
  vertex 0.173954934 -0.0540000051 -0.0160688832
  endloop
 endfacet

 facet normal 0 0 0
  outer loop
  vertex 0.175327137 -0.0745000094 -0.0109819341
  vertex 0.173954934 -0.0540000051 -0.0160688832
  vertex 0.176215142 -0.0540000051 -0.00543548027
  endloop
 endfacet

 facet normal 0 0 0
  outer loop
  vertex 0.175327137 -0.0745000094 -0.0109819341
  vertex 0.176215142 -0.0540000051 -0.00543548027
  vertex 0.176499993 -0.0745000094 5.17884245e-14
  endloop
 endfacet

 facet normal 0 0 0
  outer loop
  vertex 0.175327137 -0.0745000094 0.0109819341
  vertex 0.176499993 -0.0745000094 5.17884245e-14
  vertex 0.175717875 -0.0535000004 0.00538321538
  endloop
 endfacet

 facet normal 0 0 0
  outer loop
  vertex 0.175327137 -0.0745000094 0.0109819341
  vertex 0.175717875 -0.0535000004 0.00538321538
  vertex 0.173954934 -0.0540000051 0.0160688832
  endloop
 endfacet

 facet normal 0 0 0
  outer loop
  vertex 0.175327137 -0.0745000094 0.0109819341
  vertex 0.173954934 -0.0540000051 0.0160688832
  vertex 0.171861425 -0.0745000094 0.0214684699
  endloop
 endfacet

 facet normal 0 0 0
  outer loop
  vertex 0.175327137 -0.0745000094 0.0109819341
  vertex 0.171861425 -0.0745000094 0.0214684699
  vertex 0.167768076 -0.0861821175 0.0168631356
  endloop
 endfacet

 facet normal 0 0 0
  outer loop
  vertex 0.175327137 -0.0745000094 0.0109819341
  vertex 0.167768076 -0.0861821175 0.0168631356
  vertex 0.171238914 -0.0852678567 0.00580683583
  endloop
 endfacet

 facet normal 0 0 0
  outer loop
  vertex 0.175327137 -0.0745000094 0.0109819341
  vertex 0.171238914 -0.0852678567 0.00580683583
  vertex 0.176499993 -0.0745000094 5.17884245e-14
  endloop
 endfacet

 facet normal 0 0 0
  outer loop
  vertex 0.149741217 -0.0745000094 -0.045462966
  vertex 0.139570519 -0.0745000094 -0.0497682579
  vertex 0.145650312 -0.0540000051 -0.0475043617
  endloop
 endfacet

 facet normal 0 0 0
  outer loop
  vertex 0.149741217 -0.0745000094 -0.045462966
  vertex 0.145650312 -0.0540000051 -0.0475043617
  vertex 0.155064836 -0.0540000051 -0.0420688801
  endloop
 endfacet

 facet normal 0 0 0
  outer loop
  vertex 0.149741217 -0.0745000094 -0.045462966
  vertex 0.155064836 -0.0540000051 -0.0420688801
  vertex 0.158773258 -0.0745000094 -0.0391068235
  endloop
 endfacet

 facet normal 0 0 0
  outer loop
  vertex 0.149741217 -0.0745000094 -0.045462966
  vertex 0.148592561 -0.0852678567 -0.0404696651
  vertex 0.141363129 -0.0861821175 -0.0432680883
  endloop
 endfacet

 facet normal 0 0 0
  outer loop
  vertex 0.149741217 -0.0745000094 -0.045462966
  vertex 0.141363129 -0.0861821175 -0.0432680883
  vertex 0.139570519 -0.0745000094 -0.0497682579
  endloop
 endfacet

 facet normal 0 0 0
  outer loop
  vertex 0.128719985 -0.0745000094 -0.051828485
  vertex 0.139570519 -0.0745000094 -0.0497682579
  vertex 0.13030684 -0.0852678567 -0.0467389114
  endloop
 endfacet

 facet normal 0 0 0
  outer loop
  vertex 0.128719985 -0.0745000094 -0.051828485
  vertex 0.13030684 -0.0852678567 -0.0467389114
  vertex 0.118737347 -0.0861821175 -0.0460791104
  endloop
 endfacet

 facet normal 0 0 0
  outer loop
  vertex 0.128719985 -0.0745000094 -0.051828485
  vertex 0.118737347 -0.0861821175 -0.0460791104
  vertex 0.117679089 -0.0745000094 -0.0515507013
  endloop
 endfacet

 facet normal 0 0 0
  outer loop
  vertex 0.117679089 -0.0745000094 0.0515507013
  vertex 0.118774556 -0.0861821175 0.0460837483
  vertex 0.13034457 -0.0852678567 0.0467342064
  endloop
 endfacet

 facet normal 0 0 0
  outer loop
  vertex 0.117679089 -0.0745000094 0.0515507013
  vertex 0.13034457 -0.0852678567 0.0467342064
  vertex 0.128719985 -0.0745000094 0.051828485
  endloop
 endfacet

 facet normal 0 0 0
  outer loop
  vertex 0.128719985 -0.0745000094 0.051828485
  vertex 0.13034457 -0.0852678567 0.0467342064
  vertex 0.139570519 -0.0745000094 0.0497682579
  endloop
 endfacet

 facet normal 0 0 0
  outer loop
  vertex 0.128719985 -0.0745000094 0.051828485
  vertex 0.139570519 -0.0745000094 0.0497682579
  vertex 0.13531141 -0.0540000051 0.0508636758
  endloop
 endfacet

 facet normal 0 0 0
  outer loop
  vertex 0.128719985 -0.0745000094 0.051828485
  vertex 0.13531141 -0.0540000051 0.0508636758
  vertex 0.124499999 -0.0540000051 0.0519999973
  endloop
 endfacet

 facet normal 0 0 0
  outer loop
  vertex 0.16314353 -0.0540000051 0.0347947888
  vertex 0.155064836 -0.0540000051 0.0420688801
  vertex 0.158773258 -0.0745000094 0.0391068235
  endloop
 endfacet

 facet normal 0 0 0
  outer loop
  vertex 0.16314353 -0.0540000051 0.0347947888
  vertex 0.158773258 -0.0745000094 0.0391068235
  vertex 0.166259229 -0.0745000094 0.0309865531
  endloop
 endfacet

 facet normal 0 0 0
  outer loop
  vertex 0.16314353 -0.0540000051 0.0347947888
  vertex 0.166259229 -0.0745000094 0.0309865531
  vertex 0.169533327 -0.0540000051 0.0259999987
  endloop
 endfacet

 facet normal 0 0 0
  outer loop
  vertex 0.16314353 -0.0540000051 0.0347947888
  vertex 0.00911772344 0.0435971692 0.0250977315
  vertex 0.155064836 -0.0540000051 0.0420688801
  endloop
 endfacet

 facet normal 0 0 0
  outer loop
  vertex 0.16314353 -0.0540000051 -0.0347947888
  vertex 0.169533327 -0.0540000051 -0.0259999987
  vertex 0.166259229 -0.0745000094 -0.0309865531
  endloop
 endfacet

 facet normal 0 0 0
  outer loop
  vertex 0.16314353 -0.0540000051 -0.0347947888
  vertex 0.166259229 -0.0745000094 -0.0309865531
  vertex 0.158773258 -0.0745000094 -0.0391068235
  endloop
 endfacet

 facet normal 0 0 0
  outer loop
  vertex 0.16314353 -0.0540000051 -0.0347947888
  vertex 0.158773258 -0.0745000094 -0.0391068235
  vertex 0.155064836 -0.0540000051 -0.0420688801
  endloop
 endfacet

 facet normal 0 0 0
  outer loop
  vertex 0.16314353 -0.0540000051 -0.0347947888
  vertex 0.155064836 -0.0540000051 -0.0420688801
  vertex 0.00911772344 0.0393808596 -0.03130107
  endloop
 endfacet

 facet normal 0 0 0
  outer loop
  vertex 0.16314353 -0.0540000051 -0.0347947888
  vertex 0.00911772344 0.0393808596 -0.03130107
  vertex 0.00575678283 0.0446934588 -0.0257288348
  endloop
 endfacet

 facet normal 0 0 0
  outer loop
  vertex 0.16314353 -0.0540000051 -0.0347947888
  vertex 0.00575678283 0.0446934588 -0.0257288348
  vertex 0.00911772344 0.0468442589 -0.0183364358
  endloop
 endfacet

 facet normal 0 0 0
  outer loop
  vertex 0.16314353 -0.0540000051 -0.0347947888
  vertex 0.00911772344 0.0468442589 -0.0183364358
  vertex 0.169533327 -0.0540000051 -0.0259999987
  endloop
 endfacet

 facet normal 0 0 0
  outer loop
  vertex 0.145650312 -0.0540000051 0.0475043617
  vertex 0.13531141 -0.0540000051 0.0508636758
  vertex 0.139570519 -0.0745000094 0.0497682579
  endloop
 endfacet

 facet normal 0 0 0
  outer loop
  vertex 0.145650312 -0.0540000051 0.0475043617
  vertex 0.139570519 -0.0745000094 0.0497682579
  vertex 0.149741217 -0.0745000094 0.045462966
  endloop
 endfacet

 facet normal 0 0 0
  outer loop
  vertex 0.145650312 -0.0540000051 0.0475043617
  vertex 0.149741217 -0.0745000094 0.045462966
  vertex 0.155064836 -0.0540000051 0.0420688801
  endloop
 endfacet

 facet normal 0 0 0
  outer loop
  vertex 0.145650312 -0.0540000051 0.0475043617
  vertex 0.155064836 -0.0540000051 0.0420688801
  vertex 0.00575678283 0.0351512954 0.037734136
  endloop
 endfacet

 facet normal 0 0 0
  outer loop
  vertex 0.145650312 -0.0540000051 0.0475043617
  vertex 0.00575678283 0.0351512954 0.037734136
  vertex 0.00219149422 0.0293929838 0.0428958349
  endloop
 endfacet

 facet normal 0 0 0
  outer loop
  vertex 0.145650312 -0.0540000051 0.0475043617
  vertex 0.00219149422 0.0293929838 0.0428958349
  vertex 0.00575678283 0.0225006659 0.0464025661
  endloop
 endfacet

 facet normal 0 0 0
  outer loop
  vertex 0.145650312 -0.0540000051 0.0475043617
  vertex 0.00575678283 0.0225006659 0.0464025661
  vertex 0.13531141 -0.0540000051 0.0508636758
  endloop
 endfacet

 facet normal 0 0 0
  outer loop
  vertex 0.13531141 -0.0540000051 -0.0508636758
  vertex 0.00575678283 0.0291499998 -0.0425412245
  vertex 0.145650312 -0.0540000051 -0.0475043617
  endloop
 endfacet

 facet normal 0 0 0
  outer loop
  vertex 0.13531141 -0.0540000051 -0.0508636758
  vertex 0.145650312 -0.0540000051 -0.0475043617
  vertex 0.139570519 -0.0745000094 -0.0497682579
  endloop
 endfacet

 facet normal 0 0 0
  outer loop
  vertex 0.13531141 -0.0540000051 -0.0508636758
  vertex 0.139570519 -0.0745000094 -0.0497682579
  vertex 0.128719985 -0.0745000094 -0.051828485
  endloop
 endfacet

 facet normal 0 0 0
  outer loop
  vertex 0.13531141 -0.0540000051 -0.0508636758
  vertex 0.128719985 -0.0745000094 -0.051828485
  vertex 0.124499999 -0.0540000051 -0.0519999973
  endloop
 endfacet

 facet normal 0 0 0
  outer loop
  vertex 0.00911772344 0.0393808596 -0.03130107
  vertex 0.155064836 -0.0540000051 -0.0420688801
  vertex 0.145650312 -0.0540000051 -0.0475043617
  endloop
 endfacet

 facet normal 0 0 0
  outer loop
  vertex 0.00911772344 0.0393808596 -0.03130107
  vertex 0.145650312 -0.0540000051 -0.0475043617
  vertex 0.00575678283 0.0291499998 -0.0425412245
  endloop
 endfacet

 facet normal 0 0 0
  outer loop
  vertex 0.00911772344 0.0393808596 -0.03130107
  vertex 0.00575678283 0.0291499998 -0.0425412245
  vertex 0.00219149422 0.0354443043 -0.0380486734
  endloop
 endfacet

 facet normal 0 0 0
  outer loop
  vertex 0.00219149422 0.00792580284 0.0513924286
  vertex 0.124499999 -0.0540000051 0.0519999973
  vertex 0.13531141 -0.0540000051 0.0508636758
  endloop
 endfacet

 facet normal 0 0 0
  outer loop
  vertex 0.00219149422 0.00792580284 0.0513924286
  vertex 0.13531141 -0.0540000051 0.0508636758
  vertex 0.00219149422 0.0154790739 0.0496427044
  endloop
 endfacet

 facet normal 0 0 0
  outer loop
  vertex 0.00219149422 0.00792580284 0.0513924286
  vertex 0.00219149422 0.0154790739 0.0496427044
  vertex -0.0320000015 0.0127652464 0.0504088141
  endloop
 endfacet

 facet normal 0 0 0
  outer loop
  vertex 0.00219149422 0.00792580284 0.0513924286
  vertex -0.0320000015 0.0127652464 0.0504088141
  vertex -0.0320000015 0.00429412583 0.0518223941
  endloop
 endfacet

 facet normal 0 0 0
  outer loop
  vertex 0.00219149422 0.00792580284 0.0513924286
  vertex -0.0320000015 0.00429412583 0.0518223941
  vertex -0.0320000015 -0.00429412583 0.0518223941
  endloop
 endfacet

 facet normal 0 0 0
  outer loop
  vertex 0.00219149422 0.00792580284 0.0513924286
  vertex -0.0320000015 -0.00429412583 0.0518223941
  vertex 0.128719985 -0.0745000094 0.051828485
  endloop
 endfacet

 facet normal 0 0 0
  outer loop
  vertex 0.00219149422 0.00792580284 0.0513924286
  vertex 0.128719985 -0.0745000094 0.051828485
  vertex 0.124499999 -0.0540000051 0.0519999973
  endloop
 endfacet

 facet normal 0 0 0
  outer loop
  vertex 0.00219149422 0.0154790739 -0.0496427044
  vertex 0.13531141 -0.0540000051 -0.0508636758
  vertex 0.124499999 -0.0540000051 -0.0519999973
  endloop
 endfacet

 facet normal 0 0 0
  outer loop
  vertex 0.00219149422 0.0154790739 -0.0496427044
  vertex 0.124499999 -0.0540000051 -0.0519999973
  vertex 0.00219149422 0.00792580284 -0.0513924286
  endloop
 endfacet

 facet normal 0 0 0
  outer loop
  vertex 0.00219149422 0.00792580284 -0.0513924286
  vertex 0.124499999 -0.0540000051 -0.0519999973
  vertex 0.128719985 -0.0745000094 -0.051828485
  endloop
 endfacet

 facet normal 0 0 0
  outer loop
  vertex 0.00219149422 0.00792580284 -0.0513924286
  vertex 0.128719985 -0.0745000094 -0.051828485
  vertex -0.0320000015 -0.00429412583 -0.0518223941
  endloop
 endfacet

 facet normal 0 0 0
  outer loop
  vertex 0.00219149422 0.00792580284 -0.0513924286
  vertex -0.0320000015 -0.00429412583 -0.0518223941
  vertex -0.0320000015 0.00429412583 -0.0518223941
  endloop
 endfacet

 facet normal 0 0 0
  outer loop
  vertex 0.17059195 -0.0852678567 -0.00968389399
  vertex 0.167754456 -0.0861821175 -0.0168980677
  vertex 0.171861425 -0.0745000094 -0.0214684699
  endloop
 endfacet

 facet normal 0 0 0
  outer loop
  vertex 0.17059195 -0.0852678567 -0.00968389399
  vertex 0.171861425 -0.0745000094 -0.0214684699
  vertex 0.175327137 -0.0745000094 -0.0109819341
  endloop
 endfacet

 facet normal 0 0 0
  outer loop
  vertex 0.17059195 -0.0852678567 -0.00968389399
  vertex 0.175327137 -0.0745000094 -0.0109819341
  vertex 0.176499993 -0.0745000094 5.17884245e-14
  endloop
 endfacet

 facet normal 0 0 0
  outer loop
  vertex 0.17059195 -0.0852678567 -0.00968389399
  vertex 0.176499993 -0.0745000094 5.17884245e-14
  vertex 0.171238914 -0.0852678567 0.00580683583
  endloop
 endfacet

 facet normal 0 0 0
  outer loop
  vertex 0.17059195 -0.0852678567 -0.00968389399
  vertex 0.171238914 -0.0852678567 0.00580683583
  vertex 0.169947326 -0.0867880508 -0.00189809664
  endloop
 endfacet

 facet normal 0 0 0
  outer loop
  vertex 0.17059195 -0.0852678567 -0.00968389399
  vertex 0.169947326 -0.0867880508 -0.00189809664
  vertex 0.167754456 -0.0861821175 -0.0168980677
  endloop
 endfacet

 facet normal 0 0 0
  outer loop
  vertex 0.164969668 -0.0852678567 0.024092555
  vertex 0.167768076 -0.0861821175 0.0168631356
  vertex 0.171861425 -0.0745000094 0.0214684699
  endloop
 endfacet

 facet normal 0 0 0
  outer loop
  vertex 0.164969668 -0.0852678567 0.024092555
  vertex 0.171861425 -0.0745000094 0.0214684699
  vertex 0.166259229 -0.0745000094 0.0309865531
  endloop
 endfacet

 facet normal 0 0 0
  outer loop
  vertex 0.164969668 -0.0852678567 0.024092555
  vertex 0.166259229 -0.0745000094 0.0309865531
  vertex 0.157816932 -0.0852678567 0.0332900435
  endloop
 endfacet

 facet normal 0 0 0
  outer loop
  vertex 0.164969668 -0.0852678567 0.024092555
  vertex 0.157816932 -0.0852678567 0.0332900435
  vertex 0.156677112 -0.0867880508 0.0321511403
  endloop
 endfacet

 facet normal 0 0 0
  outer loop
  vertex 0.164969668 -0.0852678567 0.024092555
  vertex 0.156677112 -0.0867880508 0.0321511403
  vertex 0.167768076 -0.0861821175 0.0168631356
  endloop
 endfacet

 facet normal 0 0 0
  outer loop
  vertex 0.164950207 -0.0852678567 -0.0241252258
  vertex 0.15779005 -0.0852678567 -0.0333169363
  vertex 0.166259229 -0.0745000094 -0.0309865531
  endloop
 endfacet

 facet normal 0 0 0
  outer loop
  vertex 0.164950207 -0.0852678567 -0.0241252258
  vertex 0.166259229 -0.0745000094 -0.0309865531
  vertex 0.171861425 -0.0745000094 -0.0214684699
  endloop
 endfacet

 facet normal 0 0 0
  outer loop
  vertex 0.164950207 -0.0852678567 -0.0241252258
  vertex 0.171861425 -0.0745000094 -0.0214684699
  vertex 0.167754456 -0.0861821175 -0.0168980677
  endloop
 endfacet

 facet normal 0 0 0
  outer loop
  vertex 0.164950207 -0.0852678567 -0.0241252258
  vertex 0.167754456 -0.0861821175 -0.0168980677
  vertex 0.156651139 -0.0867880508 -0.032177113
  endloop
 endfacet

 facet normal 0 0 0
  outer loop
  vertex 0.164950207 -0.0852678567 -0.0241252258
  vertex 0.156651139 -0.0867880508 -0.032177113
  vertex 0.15779005 -0.0852678567 -0.0333169363
  endloop
 endfacet

 facet normal 0 0 0
  outer loop
  vertex 0.148625225 -0.0852678567 0.0404502004
  vertex 0.157816932 -0.0852678567 0.0332900435
  vertex 0.158773258 -0.0745000094 0.0391068235
  endloop
 endfacet

 facet normal 0 0 0
  outer loop
  vertex 0.148625225 -0.0852678567 0.0404502004
  vertex 0.158773258 -0.0745000094 0.0391068235
  vertex 0.149741217 -0.0745000094 0.045462966
  endloop
 endfacet

 facet normal 0 0 0
  outer loop
  vertex 0.148625225 -0.0852678567 0.0404502004
  vertex 0.141398072 -0.0861821175 0.0432544537
  vertex 0.156677112 -0.0867880508 0.0321511403
  endloop
 endfacet

 facet normal 0 0 0
  outer loop
  vertex 0.148625225 -0.0852678567 0.0404502004
  vertex 0.156677112 -0.0867880508 0.0321511403
  vertex 0.157816932 -0.0852678567 0.0332900435
  endloop
 endfacet

 facet normal 0 0 0
  outer loop
  vertex 0.148592561 -0.0852678567 -0.0404696651
  vertex 0.149741217 -0.0745000094 -0.045462966
  vertex 0.158773258 -0.0745000094 -0.0391068235
  endloop
 endfacet

 facet normal 0 0 0
  outer loop
  vertex 0.148592561 -0.0852678567 -0.0404696651
  vertex 0.158773258 -0.0745000094 -0.0391068235
  vertex 0.15779005 -0.0852678567 -0.0333169363
  endloop
 endfacet

 facet normal 0 0 0
  outer loop
  vertex 0.148592561 -0.0852678567 -0.0404696651
  vertex 0.15779005 -0.0852678567 -0.0333169363
  vertex 0.156651139 -0.0867880508 -0.032177113
  endloop
 endfacet

 facet normal 0 0 0
  outer loop
  vertex 0.148592561 -0.0852678567 -0.0404696651
  vertex 0.156651139 -0.0867880508 -0.032177113
  vertex 0.141363129 -0.0861821175 -0.0432680883
  endloop
 endfacet

 facet normal 0 0 0
  outer loop
  vertex 0.0836268738 -0.0867880508 -0.0199612137
  vertex 0.0302177295 -0.0717291087 -0.0276010707
  vertex 0.092322886 -0.0867880508 -0.0321511403
  endloop
 endfacet

 facet normal 0 0 0
  outer loop
  vertex 0.0821314454 -0.0867880508 0.0165519752
  vertex 0.0898015052 -0.0867880508 0.0294121914
  vertex 0.0302171223 -0.0717288926 0.0276010707
  endloop
 endfacet

 facet normal 0 0 0
  outer loop
  vertex 0.0302171223 -0.0717288926 0.0276010707
  vertex 0.0319120698 -0.0739258155 0.000531486527
  vertex 0.0790511519 -0.0867880508 -0.00186139601
  endloop
 endfacet

 facet normal 0 0 0
  outer loop
  vertex 0.0302171223 -0.0717288926 0.0276010707
  vertex 0.0790511519 -0.0867880508 -0.00186139601
  vertex 0.0821314454 -0.0867880508 0.0165519752
  endloop
 endfacet

 facet normal 0 0 0
  outer loop
  vertex 0.129971609 -0.0869999975 -0.0440407321
  vertex 0.141363129 -0.0861821175 -0.0432680883
  vertex 0.156651139 -0.0867880508 -0.032177113
  endloop
 endfacet

 facet normal 0 0 0
  outer loop
  vertex 0.092322886 -0.0867880508 -0.0321511403
  vertex 0.104087725 -0.0861821175 -0.0417112932
  vertex 0.118737347 -0.0861821175 -0.0460791104
  endloop
 endfacet

 facet normal 0 0 0
  outer loop
  vertex 0.092322886 -0.0867880508 -0.0321511403
  vertex 0.118737347 -0.0861821175 -0.0460791104
  vertex 0.129971609 -0.0869999975 -0.0440407321
  endloop
 endfacet

 facet normal 0 0 0
  outer loop
  vertex 0.129971609 -0.0869999975 -0.0440407321
  vertex 0.118737347 -0.0861821175 -0.0460791104
  vertex 0.13030684 -0.0852678567 -0.0467389114
  endloop
 endfacet

 facet normal 0 0 0
  outer loop
  vertex 0.129971609 -0.0869999975 -0.0440407321
  vertex 0.13030684 -0.0852678567 -0.0467389114
  vertex 0.141363129 -0.0861821175 -0.0432680883
  endloop
 endfacet

 facet normal 0 0 0
  outer loop
  vertex 0.130007178 -0.0869999975 0.044036299
  vertex 0.118774556 -0.0861821175 0.0460837483
  vertex 0.104538791 -0.0867880508 0.0408731252
  endloop
 endfacet

 facet normal 0 0 0
  outer loop
  vertex 0.104538791 -0.0867880508 0.0408731252
  vertex 0.0898015052 -0.0867880508 0.0294121914
  vertex 0.0821314454 -0.0867880508 0.0165519752
  endloop
 endfacet

 facet normal 0 0 0
  outer loop
  vertex 0.104538791 -0.0867880508 0.0408731252
  vertex 0.0821314454 -0.0867880508 0.0165519752
  vertex 0.0790511519 -0.0867880508 -0.00186139601
  endloop
 endfacet

 facet normal 0 0 0
  outer loop
  vertex 0.104538791 -0.0867880508 0.0408731252
  vertex 0.0790511519 -0.0867880508 -0.00186139601
  vertex 0.0836268738 -0.0867880508 -0.0199612137
  endloop
 endfacet

 facet normal 0 0 0
  outer loop
  vertex 0.104538791 -0.0867880508 0.0408731252
  vertex 0.0836268738 -0.0867880508 -0.0199612137
  vertex 0.092322886 -0.0867880508 -0.0321511403
  endloop
 endfacet

 facet normal 0 0 0
  outer loop
  vertex 0.104538791 -0.0867880508 0.0408731252
  vertex 0.092322886 -0.0867880508 -0.0321511403
  vertex 0.129971609 -0.0869999975 -0.0440407321
  endloop
 endfacet

 facet normal 0 0 0
  outer loop
  vertex 0.104538791 -0.0867880508 0.0408731252
  vertex 0.129971609 -0.0869999975 -0.0440407321
  vertex 0.156651139 -0.0867880508 -0.032177113
  endloop
 endfacet

 facet normal 0 0 0
  outer loop
  vertex 0.104538791 -0.0867880508 0.0408731252
  vertex 0.156651139 -0.0867880508 -0.032177113
  vertex 0.169947326 -0.0867880508 -0.00189809664
  endloop
 endfacet

 facet normal 0 0 0
  outer loop
  vertex 0.104538791 -0.0867880508 0.0408731252
  vertex 0.169947326 -0.0867880508 -0.00189809664
  vertex 0.156677112 -0.0867880508 0.0321511403
  endloop
 endfacet

 facet normal 0 0 0
  outer loop
  vertex 0.104538791 -0.0867880508 0.0408731252
  vertex 0.156677112 -0.0867880508 0.0321511403
  vertex 0.130007178 -0.0869999975 0.044036299
  endloop
 endfacet

 facet normal 0 0 0
  outer loop
  vertex 0.130007178 -0.0869999975 0.044036299
  vertex 0.156677112 -0.0867880508 0.0321511403
  vertex 0.141398072 -0.0861821175 0.0432544537
  endloop
 endfacet

 facet normal 0 0 0
  outer loop
  vertex 0.130007178 -0.0869999975 0.044036299
  vertex 0.141398072 -0.0861821175 0.0432544537
  vertex 0.13034457 -0.0852678567 0.0467342064
  endloop
 endfacet

 facet normal 0 0 0
  outer loop
  vertex 0.130007178 -0.0869999975 0.044036299
  vertex 0.13034457 -0.0852678567 0.0467342064
  vertex 0.118774556 -0.0861821175 0.0460837483
  endloop
 endfacet

 facet normal 0 0 0
  outer loop
  vertex 0.00219149422 0.0484224968 -0.0189542118
  vertex 0.00219149422 0.0507024862 -0.0115437424
  vertex 0.00911772344 0.0468442589 -0.0183364358
  endloop
 endfacet

 facet normal 0 0 0
  outer loop
  vertex 0.00219149422 0.0484224968 -0.0189542118
  vertex 0.00911772344 0.0468442589 -0.0183364358
  vertex 0.00575678283 0.0446934588 -0.0257288348
  endloop
 endfacet

 facet normal 0 0 0
  outer loop
  vertex 0.00219149422 0.0226882249 -0.046789363
  vertex 0.00575678283 0.0291499998 -0.0425412245
  vertex 0.13531141 -0.0540000051 -0.0508636758
  endloop
 endfacet

 facet normal 0 0 0
  outer loop
  vertex 0.00219149422 0.0226882249 -0.046789363
  vertex 0.13531141 -0.0540000051 -0.0508636758
  vertex 0.00219149422 0.0154790739 -0.0496427044
  endloop
 endfacet

 facet normal 0 0 0
  outer loop
  vertex 0.00219149422 0.0226882249 -0.046789363
  vertex -0.0320000015 0.0208881628 -0.0476202145
  vertex -0.0320000015 0.0284413043 -0.0435326584
  endloop
 endfacet

 facet normal 0 0 0
  outer loop
  vertex 0.00219149422 0.0407076478 -0.0323556364
  vertex 0.00575678283 0.0446934588 -0.0257288348
  vertex 0.00911772344 0.0393808596 -0.03130107
  endloop
 endfacet

 facet normal 0 0 0
  outer loop
  vertex 0.00219149422 0.0407076478 -0.0323556364
  vertex 0.00911772344 0.0393808596 -0.03130107
  vertex 0.00219149422 0.0354443043 -0.0380486734
  endloop
 endfacet

 facet normal 0 0 0
  outer loop
  vertex 0.00575678283 0.051426623 -0.00384459458
  vertex 0.00219149422 0.0518552959 0.00387664163
  vertex 0.00575678283 0.0502833463 0.0114483126
  endloop
 endfacet

 facet normal 0 0 0
  outer loop
  vertex 0.00575678283 0.051426623 -0.00384459458
  vertex 0.00575678283 0.0502833463 0.0114483126
  vertex 0.00911772344 0.04904994 0.0111674974
  endloop
 endfacet

 facet normal 0 0 0
  outer loop
  vertex 0.00575678283 0.051426623 -0.00384459458
  vertex 0.00911772344 0.04904994 0.0111674974
  vertex 0.00911772344 0.0501651727 -0.00375029026
  endloop
 endfacet

 facet normal 0 0 0
  outer loop
  vertex 0.00575678283 0.051426623 -0.00384459458
  vertex 0.00911772344 0.0501651727 -0.00375029026
  vertex 0.00911772344 0.0468442589 -0.0183364358
  endloop
 endfacet

 facet normal 0 0 0
  outer loop
  vertex 0.00575678283 0.051426623 -0.00384459458
  vertex 0.00911772344 0.0468442589 -0.0183364358
  vertex 0.00219149422 0.0507024862 -0.0115437424
  endloop
 endfacet

 facet normal 0 0 0
  outer loop
  vertex 0.00575678283 0.0446934588 0.0257288348
  vertex 0.00219149422 0.0407076478 0.0323556364
  vertex 0.00575678283 0.0351512954 0.037734136
  endloop
 endfacet

 facet normal 0 0 0
  outer loop
  vertex 0.00575678283 0.0446934588 0.0257288348
  vertex 0.00575678283 0.0351512954 0.037734136
  vertex 0.00911772344 0.0435971692 0.0250977315
  endloop
 endfacet

 facet normal 0 0 0
  outer loop
  vertex 0.00575678283 0.0446934588 0.0257288348
  vertex 0.00911772344 0.0435971692 0.0250977315
  vertex 0.00911772344 0.04904994 0.0111674974
  endloop
 endfacet

 facet normal 0 0 0
  outer loop
  vertex 0.00575678283 0.0446934588 0.0257288348
  vertex 0.00911772344 0.04904994 0.0111674974
  vertex 0.00575678283 0.0502833463 0.0114483126
  endloop
 endfacet

 facet normal 0 0 0
  outer loop
  vertex 0.00575678283 0.0446934588 0.0257288348
  vertex 0.00575678283 0.0502833463 0.0114483126
  vertex 0.00219149422 0.0484224968 0.0189542118
  endloop
 endfacet

 facet normal 0 0 0
  outer loop
  vertex -0.0320000015 0.0352186449 0.0382576399
  vertex -0.0320000015 0.0284413043 0.0435326584
  vertex 0.00219149422 0.0293929838 0.0428958349
  endloop
 endfacet

 facet normal 0 0 0
  outer loop
  vertex -0.0320000015 0.0352186449 0.0382576399
  vertex 0.00219149422 0.0293929838 0.0428958349
  vertex 0.00575678283 0.0351512954 0.037734136
  endloop
 endfacet

 facet normal 0 0 0
  outer loop
  vertex -0.0320000015 0.0352186449 0.0382576399
  vertex 0.00575678283 0.0351512954 0.037734136
  vertex 0.00219149422 0.0407076478 0.0323556364
  endloop
 endfacet

 facet normal 0 0 0
  outer loop
  vertex -0.0320000015 0.0352186449 0.0382576399
  vertex 0.00219149422 0.0407076478 0.0323556364
  vertex -0.0320000015 0.0410353094 0.0319390558
  endloop
 endfacet

 facet normal 0 0 0
  outer loop
  vertex -0.0320000015 0.045732636 0.0247492623
  vertex 0.00219149422 0.0484224968 0.0189542118
  vertex -0.0320000015 0.0491825007 0.0168843716
  endloop
 endfacet

 facet normal 0 0 0
  outer loop
  vertex -0.0320000015 0.045732636 0.0247492623
  vertex -0.0320000015 0.0410353094 0.0319390558
  vertex 0.00219149422 0.0407076478 0.0323556364
  endloop
 endfacet

 facet normal 0 0 0
  outer loop
  vertex 0.00219149422 0.0407076478 0.0323556364
  vertex 0.00575678283 0.0446934588 0.0257288348
  vertex 0.00219149422 0.0484224968 0.0189542118
  endloop
 endfacet

 facet normal 0 0 0
  outer loop
  vertex 0.00219149422 0.0407076478 0.0323556364
  vertex 0.00219149422 0.0484224968 0.0189542118
  vertex -0.0320000015 0.045732636 0.0247492623
  endloop
 endfacet

 facet normal 0 0 0
  outer loop
  vertex -0.0320000015 0.045732636 -0.0247492623
  vertex -0.0320000015 0.0491825007 -0.0168843716
  vertex 0.00219149422 0.0484224968 -0.0189542118
  endloop
 endfacet

 facet normal 0 0 0
  outer loop
  vertex -0.0320000015 0.045732636 -0.0247492623
  vertex 0.00219149422 0.0484224968 -0.0189542118
  vertex 0.00575678283 0.0446934588 -0.0257288348
  endloop
 endfacet

 facet normal 0 0 0
  outer loop
  vertex 0.00575678283 0.0446934588 -0.0257288348
  vertex 0.00219149422 0.0407076478 -0.0323556364
  vertex -0.0320000015 0.0410353094 -0.0319390558
  endloop
 endfacet

 facet normal 0 0 0
  outer loop
  vertex 0.00575678283 0.0446934588 -0.0257288348
  vertex -0.0320000015 0.0410353094 -0.0319390558
  vertex -0.0320000015 0.045732636 -0.0247492623
  endloop
 endfacet

 facet normal 0 0 0
  outer loop
  vertex -0.0320000015 0.0208881628 0.0476202145
  vertex -0.0320000015 0.0127652464 0.0504088141
  vertex 0.00219149422 0.0154790739 0.0496427044
  endloop
 endfacet

 facet normal 0 0 0
  outer loop
  vertex -0.0320000015 0.0208881628 0.0476202145
  vertex 0.00219149422 0.0154790739 0.0496427044
  vertex 0.00575678283 0.0225006659 0.0464025661
  endloop
 endfacet

 facet normal 0 0 0
  outer loop
  vertex 0.00575678283 0.0225006659 0.0464025661
  vertex 0.00219149422 0.0293929838 0.0428958349
  vertex -0.0320000015 0.0284413043 0.0435326584
  endloop
 endfacet

 facet normal 0 0 0
  outer loop
  vertex 0.00575678283 0.0225006659 0.0464025661
  vertex -0.0320000015 0.0284413043 0.0435326584
  vertex -0.0320000015 0.0208881628 0.0476202145
  endloop
 endfacet

 facet normal 0 0 0
  outer loop
  vertex 0.00575678283 0.0502833463 0.0114483126
  vertex 0.00219149422 0.0518552959 0.00387664163
  vertex -0.0320000015 0.0512907915 0.00855891779
  endloop
 endfacet

 facet normal 0 0 0
  outer loop
  vertex 0.00575678283 0.0502833463 0.0114483126
  vertex -0.0320000015 0.0512907915 0.00855891779
  vertex -0.0320000015 0.0491825007 0.0168843716
  endloop
 endfacet

 facet normal 0 0 0
  outer loop
  vertex 0.00575678283 0.0502833463 0.0114483126
  vertex -0.0320000015 0.0491825007 0.0168843716
  vertex 0.00219149422 0.0484224968 0.0189542118
  endloop
 endfacet

 facet normal 0 0 0
  outer loop
  vertex -0.0320000015 0.0512907915 0.00855891779
  vertex 0.00219149422 0.0518552959 0.00387664163
  vertex -0.0320000015 0.0520000048 0
  endloop
 endfacet

 facet normal 0 0 0
  outer loop
  vertex -0.0320000015 0.0520000048 0
  vertex 0.00219149422 0.0518552959 0.00387664163
  vertex 0.00575678283 0.051426623 -0.00384459458
  endloop
 endfacet

 facet normal 0 0 0
  outer loop
  vertex -0.0320000015 0.0520000048 0
  vertex 0.00575678283 0.051426623 -0.00384459458
  vertex 0.00219149422 0.0507024862 -0.0115437424
  endloop
 endfacet

 facet normal 0 0 0
  outer loop
  vertex -0.0320000015 0.0520000048 0
  vertex 0.00219149422 0.0507024862 -0.0115437424
  vertex -0.0320000015 0.0512907915 -0.00855891779
  endloop
 endfacet

 facet normal 0 0 0
  outer loop
  vertex -0.0320000015 0.0512907915 -0.00855891779
  vertex 0.00219149422 0.0507024862 -0.0115437424
  vertex 0.00219149422 0.0484224968 -0.0189542118
  endloop
 endfacet

 facet normal 0 0 0
  outer loop
  vertex -0.0320000015 0.0512907915 -0.00855891779
  vertex 0.00219149422 0.0484224968 -0.0189542118
  vertex -0.0320000015 0.0491825007 -0.0168843716
  endloop
 endfacet

 facet normal 0 0 0
  outer loop
  vertex -0.0320000015 0.0127652464 -0.0504088141
  vertex -0.0320000015 0.0208881628 -0.0476202145
  vertex 0.00219149422 0.0226882249 -0.046789363
  endloop
 endfacet

 facet normal 0 0 0
  outer loop
  vertex -0.0320000015 0.0127652464 -0.0504088141
  vertex 0.00219149422 0.0226882249 -0.046789363
  vertex 0.00219149422 0.0154790739 -0.0496427044
  endloop
 endfacet

 facet normal 0 0 0
  outer loop
  vertex -0.0320000015 0.0127652464 -0.0504088141
  vertex 0.00219149422 0.0154790739 -0.0496427044
  vertex 0.00219149422 0.00792580284 -0.0513924286
  endloop
 endfacet

 facet normal 0 0 0
  outer loop
  vertex -0.0320000015 0.0127652464 -0.0504088141
  vertex 0.00219149422 0.00792580284 -0.0513924286
  vertex -0.0320000015 0.00429412583 -0.0518223941
  endloop
 endfacet

 facet normal 0 0 0
  outer loop
  vertex -0.0320000015 0.0352186449 -0.0382576399
  vertex 0.00219149422 0.0354443043 -0.0380486734
  vertex -0.0320000015 0.0284413043 -0.0435326584
  endloop
 endfacet

 facet normal 0 0 0
  outer loop
  vertex -0.0320000015 0.0410353094 -0.0319390558
  vertex 0.00219149422 0.0407076478 -0.0323556364
  vertex 0.00219149422 0.0354443043 -0.0380486734
  endloop
 endfacet

 facet normal 0 0 0
  outer loop
  vertex -0.0320000015 0.0410353094 -0.0319390558
  vertex 0.00219149422 0.0354443043 -0.0380486734
  vertex -0.0320000015 0.0352186449 -0.0382576399
  endloop
 endfacet

 facet normal 0 0 0
  outer loop
  vertex -0.0320000015 -0.00429412583 0.0518223941
  vertex -0.0320000015 -0.0127652464 0.0504088141
  vertex 0.117679089 -0.0745000094 0.0515507013
  endloop
 endfacet

 facet normal 0 0 0
  outer loop
  vertex -0.0320000015 -0.00429412583 0.0518223941
  vertex 0.117679089 -0.0745000094 0.0515507013
  vertex 0.128719985 -0.0745000094 0.051828485
  endloop
 endfacet

 facet normal 0 0 0
  outer loop
  vertex -0.0320000015 -0.00429412583 -0.0518223941
  vertex 0.117679089 -0.0745000094 -0.0515507013
  vertex -0.0320000015 -0.0127652464 -0.0504088141
  endloop
 endfacet

 facet normal 0 0 0
  outer loop
  vertex -0.0320000015 -0.00429412583 -0.0518223941
  vertex 0.128719985 -0.0745000094 -0.051828485
  vertex 0.117679089 -0.0745000094 -0.0515507013
  endloop
 endfacet

endsolid AssimpScene
