solid AssimpScene
 facet normal 0 0 0
  outer loop
  vertex -0.0468678549 -0.0131571703 -0.0353018939
  vertex -0.0481853783 6.6571748e-18 -0.0362942815
  vertex -0.0383122712 6.6571748e-18 -0.0465969481
  endloop
 endfacet

 facet normal 0 0 0
  outer loop
  vertex -0.0468678549 -0.0131571703 -0.0353018939
  vertex -0.0383122712 6.6571748e-18 -0.0465969481
  vertex -0.0372647047 -0.0131571703 -0.0453228578
  endloop
 endfacet

 facet normal 0 0 0
  outer loop
  vertex 0.0480475947 -0.0254999995 0.0242697243
  vertex 0.0327821672 -0.0287500024 0.0390682667
  vertex 0.0279293191 -0.0405000001 0.0161249992
  endloop
 endfacet

 facet normal 0 0 0
  outer loop
  vertex 0.0205527786 0.0254999995 0.0497511178
  vertex 0.0147778057 0.0405000001 0.0286649428
  vertex -4.33680869e-19 0.0287500024 0.050999999
  endloop
 endfacet

 facet normal 0 0 0
  outer loop
  vertex 0.009085875 -0.0405000001 0.030943647
  vertex -0.0044328901 -0.0254999995 0.0536464378
  vertex -0.0147778057 -0.0405000001 0.0286649428
  endloop
 endfacet

 facet normal 0 0 0
  outer loop
  vertex 0.009085875 -0.0405000001 0.030943647
  vertex -0.0147778057 -0.0405000001 0.0286649428
  vertex -0.00174645823 -0.0447500013 0.00821643975
  endloop
 endfacet

 facet normal 0 0 0
  outer loop
  vertex 0.009085875 -0.0405000001 0.030943647
  vertex -0.00174645823 -0.0447500013 0.00821643975
  vertex 0.0279293191 -0.0405000001 0.0161249992
  endloop
 endfacet

 facet normal 0 0 0
  outer loop
  vertex 0.009085875 -0.0405000001 0.030943647
  vertex 0.0279293191 -0.0405000001 0.0161249992
  vertex 0.0327821672 -0.0287500024 0.0390682667
  endloop
 endfacet

 facet normal 0 0 0
  outer loop
  vertex -0.030476274 -0.0405000001 0.0105479416
  vertex -0.0293356311 -0.0405000001 -0.0133971339
  vertex -0.00174645823 -0.0447500013 0.00821643975
  endloop
 endfacet

 facet normal 0 0 0
  outer loop
  vertex -0.030476274 -0.0405000001 0.0105479416
  vertex -0.00174645823 -0.0447500013 0.00821643975
  vertex -0.0147778057 -0.0405000001 0.0286649428
  endloop
 endfacet

 facet normal 0 0 0
  outer loop
  vertex -0.030476274 -0.0405000001 0.0105479416
  vertex -0.0147778057 -0.0405000001 0.0286649428
  vertex -0.0383795425 -0.0254999995 0.0377438888
  endloop
 endfacet

 facet normal 0 0 0
  outer loop
  vertex -0.030476274 -0.0405000001 0.0105479416
  vertex -0.050999999 -0.0287500024 3.12284938e-18
  vertex -0.0293356311 -0.0405000001 -0.0133971339
  endloop
 endfacet

 facet normal 0 0 0
  outer loop
  vertex 0.0174356662 0.0405000001 -0.0271304268
  vertex 0.0313409232 0.0405000001 -0.00760322623
  vertex 0.0390682667 0.0287500024 -0.0327821672
  endloop
 endfacet

 facet normal 0 0 0
  outer loop
  vertex 0.0174356662 0.0405000001 -0.0271304268
  vertex 0.00760315312 0.0254999995 -0.0532896109
  vertex -0.00610335264 0.0405000001 -0.031667199
  endloop
 endfacet

 facet normal 0 0 0
  outer loop
  vertex -0.009085875 0.0405000001 0.030943647
  vertex -4.33680869e-19 0.0287500024 0.050999999
  vertex 0.0147778057 0.0405000001 0.0286649428
  endloop
 endfacet

 facet normal 0 0 0
  outer loop
  vertex -0.009085875 0.0405000001 0.030943647
  vertex 0.0147778057 0.0405000001 0.0286649428
  vertex -4.33680869e-19 0.0447500013 0.0083999997
  endloop
 endfacet

 facet normal 0 0 0
  outer loop
  vertex -0.009085875 0.0405000001 0.030943647
  vertex -4.33680869e-19 0.0447500013 0.0083999997
  vertex -0.0279293191 0.0405000001 0.0161249992
  endloop
 endfacet

 facet normal 0 0 0
  outer loop
  vertex 0.0145242997 -0.0254999995 0.0518327616
  vertex -0.0044328901 -0.0254999995 0.0536464378
  vertex 0.009085875 -0.0405000001 0.030943647
  endloop
 endfacet

 facet normal 0 0 0
  outer loop
  vertex 0.0279293191 0.0405000001 0.0161249992
  vertex 0.0313409232 0.0405000001 -0.00760322623
  vertex -4.33680869e-19 0.0447500013 0.0083999997
  endloop
 endfacet

 facet normal 0 0 0
  outer loop
  vertex 0.0279293191 0.0405000001 0.0161249992
  vertex -4.33680869e-19 0.0447500013 0.0083999997
  vertex 0.0147778057 0.0405000001 0.0286649428
  endloop
 endfacet

 facet normal 0 0 0
  outer loop
  vertex 0.0199074242 -0.0254999995 -0.0500128493
  vertex 0.00610335264 -0.0405000001 -0.031667199
  vertex 0.00124705606 -0.0254999995 -0.0538148247
  endloop
 endfacet

 facet normal 0 0 0
  outer loop
  vertex 0.0441672951 -0.0287500024 -0.0254999995
  vertex 0.050999999 -0.0287500024 -9.36854836e-18
  vertex 0.0293356311 -0.0405000001 -0.0133971339
  endloop
 endfacet

 facet normal 0 0 0
  outer loop
  vertex 0.0441672951 -0.0287500024 -0.0254999995
  vertex 0.0293356311 -0.0405000001 -0.0133971339
  vertex 0.0327821672 -0.0287500024 -0.0390682667
  endloop
 endfacet

 facet normal 0 0 0
  outer loop
  vertex -0.0479243249 -0.0287500024 -0.0174430273
  vertex -0.0327821672 -0.0287500024 -0.0390682667
  vertex -0.0293356311 -0.0405000001 -0.0133971339
  endloop
 endfacet

 facet normal 0 0 0
  outer loop
  vertex -0.0479243249 -0.0287500024 -0.0174430273
  vertex -0.0293356311 -0.0405000001 -0.0133971339
  vertex -0.050999999 -0.0287500024 3.12284938e-18
  endloop
 endfacet

 facet normal 0 0 0
  outer loop
  vertex -0.0479243249 0.0287500024 -0.0174430273
  vertex -0.050999999 0.0287500024 3.12284938e-18
  vertex -0.0293356311 0.0405000001 -0.0133971339
  endloop
 endfacet

 facet normal 0 0 0
  outer loop
  vertex -0.0479243249 0.0287500024 -0.0174430273
  vertex -0.0293356311 0.0405000001 -0.0133971339
  vertex -0.0327821672 0.0287500024 -0.0390682667
  endloop
 endfacet

 facet normal 0 0 0
  outer loop
  vertex -0.0175693948 -0.0254999995 -0.0508813001
  vertex -0.0327821672 -0.0287500024 -0.0390682667
  vertex -0.0372647047 -0.0131571703 -0.0453228578
  endloop
 endfacet

 facet normal 0 0 0
  outer loop
  vertex -0.0175693948 -0.0254999995 -0.0508813001
  vertex -0.0372647047 -0.0131571703 -0.0453228578
  vertex -0.0191511754 -0.0131571703 -0.0554621704
  endloop
 endfacet

 facet normal 0 0 0
  outer loop
  vertex -0.0372647047 0.0131571703 -0.0453228578
  vertex -0.0327821672 0.0287500024 -0.0390682667
  vertex -0.0175693948 0.0254999995 -0.0508813001
  endloop
 endfacet

 facet normal 0 0 0
  outer loop
  vertex -0.0372647047 0.0131571703 -0.0453228578
  vertex -0.0175693948 0.0254999995 -0.0508813001
  vertex -0.0261149835 0.00663007936 -0.0539197437
  endloop
 endfacet

 facet normal 0 0 0
  outer loop
  vertex 0.0585443974 6.6571748e-18 -0.0145485103
  vertex 0.0498148538 6.6571748e-18 -0.0340233147
  vertex 0.0529646501 0.019479882 -0.0200643856
  endloop
 endfacet

 facet normal 0 0 0
  outer loop
  vertex 0.0585443974 6.6571748e-18 -0.0145485103
  vertex 0.0502198189 -0.019479882 -0.0261878539
  vertex 0.0498148538 6.6571748e-18 -0.0340233147
  endloop
 endfacet

 facet normal 0 0 0
  outer loop
  vertex -0.0119861141 -0.0405000001 -0.0299398657
  vertex -0.0293356311 -0.0405000001 -0.0133971339
  vertex -0.0327821672 -0.0287500024 -0.0390682667
  endloop
 endfacet

 facet normal 0 0 0
  outer loop
  vertex -0.0174430273 0.0287500024 0.0479243249
  vertex -0.0177919082 0.019479882 0.0537706427
  vertex -4.33680869e-19 0.0287500024 0.050999999
  endloop
 endfacet

 facet normal 0 0 0
  outer loop
  vertex -0.0174430273 0.0287500024 0.0479243249
  vertex -4.33680869e-19 0.0287500024 0.050999999
  vertex -0.009085875 0.0405000001 0.030943647
  endloop
 endfacet

 facet normal 0 0 0
  outer loop
  vertex -0.0174430273 0.0287500024 0.0479243249
  vertex -0.009085875 0.0405000001 0.030943647
  vertex -0.0279293191 0.0405000001 0.0161249992
  endloop
 endfacet

 facet normal 0 0 0
  outer loop
  vertex -0.0174430273 0.0287500024 0.0479243249
  vertex -0.0279293191 0.0405000001 0.0161249992
  vertex -0.0383795425 0.0254999995 0.0377438888
  endloop
 endfacet

 facet normal 0 0 0
  outer loop
  vertex 0.045635324 0.00663007936 0.0388168544
  vertex 0.0499060117 -0.00663007936 0.03314697
  vertex 0.0551346205 0.0131571703 0.0200746935
  endloop
 endfacet

 facet normal 0 0 0
  outer loop
  vertex 0.045635324 0.00663007936 0.0388168544
  vertex 0.0551346205 0.0131571703 0.0200746935
  vertex 0.0410027429 0.0254999995 0.034876436
  endloop
 endfacet

 facet normal 0 0 0
  outer loop
  vertex 0.0479243249 0.0287500024 0.0174430273
  vertex 0.05382815 0.0254999995 -0.000348203699
  vertex 0.0313409232 0.0405000001 -0.00760322623
  endloop
 endfacet

 facet normal 0 0 0
  outer loop
  vertex 0.0479243249 0.0287500024 0.0174430273
  vertex 0.0313409232 0.0405000001 -0.00760322623
  vertex 0.0279293191 0.0405000001 0.0161249992
  endloop
 endfacet

 facet normal 0 0 0
  outer loop
  vertex 0.0479243249 0.0287500024 0.0174430273
  vertex 0.0410027429 0.0254999995 0.034876436
  vertex 0.0551346205 0.0131571703 0.0200746935
  endloop
 endfacet

 facet normal 0 0 0
  outer loop
  vertex 0.0479243249 0.0287500024 0.0174430273
  vertex 0.0551346205 0.0131571703 0.0200746935
  vertex 0.05382815 0.0254999995 -0.000348203699
  endloop
 endfacet

 facet normal 0 0 0
  outer loop
  vertex 0.0441986732 0.0131571703 -0.038591411
  vertex 0.0390682667 0.0287500024 -0.0327821672
  vertex 0.0529646501 0.019479882 -0.0200643856
  endloop
 endfacet

 facet normal 0 0 0
  outer loop
  vertex 0.0441986732 0.0131571703 -0.038591411
  vertex 0.0529646501 0.019479882 -0.0200643856
  vertex 0.0498148538 6.6571748e-18 -0.0340233147
  endloop
 endfacet

 facet normal 0 0 0
  outer loop
  vertex -0.0479243249 -0.0287500024 0.0174430273
  vertex -0.054060258 -0.019479882 0.0168914869
  vertex -0.050999999 -0.0287500024 3.12284938e-18
  endloop
 endfacet

 facet normal 0 0 0
  outer loop
  vertex -0.0479243249 -0.0287500024 0.0174430273
  vertex -0.050999999 -0.0287500024 3.12284938e-18
  vertex -0.030476274 -0.0405000001 0.0105479416
  endloop
 endfacet

 facet normal 0 0 0
  outer loop
  vertex -0.0479243249 -0.0287500024 0.0174430273
  vertex -0.030476274 -0.0405000001 0.0105479416
  vertex -0.0383795425 -0.0254999995 0.0377438888
  endloop
 endfacet

 facet normal 0 0 0
  outer loop
  vertex -0.0479243249 0.0287500024 0.0174430273
  vertex -0.050999999 0.0287500024 3.12284938e-18
  vertex -0.054060258 0.019479882 0.0168914869
  endloop
 endfacet

 facet normal 0 0 0
  outer loop
  vertex 0.0393241197 -0.0131571703 -0.0435480587
  vertex 0.0498148538 6.6571748e-18 -0.0340233147
  vertex 0.0502198189 -0.019479882 -0.0261878539
  endloop
 endfacet

 facet normal 0 0 0
  outer loop
  vertex 0.0393241197 -0.0131571703 -0.0435480587
  vertex 0.0327821672 -0.0287500024 -0.0390682667
  vertex 0.0199074242 -0.0254999995 -0.0500128493
  endloop
 endfacet

 facet normal 0 0 0
  outer loop
  vertex 0.0393241197 -0.0131571703 -0.0435480587
  vertex 0.0199074242 -0.0254999995 -0.0500128493
  vertex 0.0285845865 -0.00663007936 -0.0526521876
  endloop
 endfacet

 facet normal 0 0 0
  outer loop
  vertex 0.0398842134 -0.0131571703 0.0430356748
  vertex 0.0499060117 -0.00663007936 0.03314697
  vertex 0.045635324 0.00663007936 0.0388168544
  endloop
 endfacet

 facet normal 0 0 0
  outer loop
  vertex 0.0398842134 -0.0131571703 0.0430356748
  vertex 0.045635324 0.00663007936 0.0388168544
  vertex 0.0292633604 0.00663007936 0.0522779822
  endloop
 endfacet

 facet normal 0 0 0
  outer loop
  vertex 0.0398842134 -0.0131571703 0.0430356748
  vertex 0.0292633604 0.00663007936 0.0522779822
  vertex 0.0224031545 -0.0131571703 0.0542302355
  endloop
 endfacet

 facet normal 0 0 0
  outer loop
  vertex -0.0254999995 -0.0287500024 0.0441672951
  vertex -0.0383795425 -0.0254999995 0.0377438888
  vertex -0.0147778057 -0.0405000001 0.0286649428
  endloop
 endfacet

 facet normal 0 0 0
  outer loop
  vertex -0.0254999995 -0.0287500024 0.0441672951
  vertex -0.0147778057 -0.0405000001 0.0286649428
  vertex -0.0044328901 -0.0254999995 0.0536464378
  endloop
 endfacet

 facet normal 0 0 0
  outer loop
  vertex -0.0254999995 -0.0287500024 0.0441672951
  vertex -0.0044328901 -0.0254999995 0.0536464378
  vertex -0.0240266528 -0.019479882 0.0512889251
  endloop
 endfacet

 facet normal 0 0 0
  outer loop
  vertex -0.0254999995 -0.0287500024 0.0441672951
  vertex -0.0240266528 -0.019479882 0.0512889251
  vertex -0.0383795425 -0.0254999995 0.0377438888
  endloop
 endfacet

 facet normal 0 0 0
  outer loop
  vertex 0.00872454979 0.019479882 0.0559617393
  vertex 0.0292633604 0.00663007936 0.0522779822
  vertex 0.0205527786 0.0254999995 0.0497511178
  endloop
 endfacet

 facet normal 0 0 0
  outer loop
  vertex 0.00872454979 0.019479882 0.0559617393
  vertex 0.0205527786 0.0254999995 0.0497511178
  vertex -4.33680869e-19 0.0287500024 0.050999999
  endloop
 endfacet

 facet normal 0 0 0
  outer loop
  vertex 0.00872454979 0.019479882 0.0559617393
  vertex -4.33680869e-19 0.0287500024 0.050999999
  vertex -0.0177919082 0.019479882 0.0537706427
  endloop
 endfacet

 facet normal 0 0 0
  outer loop
  vertex 0.0551346205 -0.0131571703 0.0200746935
  vertex 0.0499060117 -0.00663007936 0.03314697
  vertex 0.0480475947 -0.0254999995 0.0242697243
  endloop
 endfacet

 facet normal 0 0 0
  outer loop
  vertex 0.0154176075 0.00663007936 -0.0578932539
  vertex 0.00760315312 0.0254999995 -0.0532896109
  vertex 0.0270228442 0.019479882 -0.0497754924
  endloop
 endfacet

 facet normal 0 0 0
  outer loop
  vertex -0.0427157544 -0.00663007936 0.0420082808
  vertex -0.0383795425 -0.0254999995 0.0377438888
  vertex -0.0240266528 -0.019479882 0.0512889251
  endloop
 endfacet

 facet normal 0 0 0
  outer loop
  vertex -0.0427157544 -0.00663007936 0.0420082808
  vertex -0.0240266528 -0.019479882 0.0512889251
  vertex -0.0255908482 6.6571748e-18 0.0546279624
  endloop
 endfacet

 facet normal 0 0 0
  outer loop
  vertex -0.0427157544 -0.00663007936 0.0420082808
  vertex -0.0255908482 6.6571748e-18 0.0546279624
  vertex -0.0374474823 0.00663007936 0.0467655584
  endloop
 endfacet

 facet normal 0 0 0
  outer loop
  vertex -0.0427157544 -0.00663007936 0.0420082808
  vertex -0.0374474823 0.00663007936 0.0467655584
  vertex -0.0517429262 6.6571748e-18 0.0310124978
  endloop
 endfacet

 facet normal 0 0 0
  outer loop
  vertex -0.0565587915 -0.019479882 -0.00298945792
  vertex -0.0519783907 -0.019479882 -0.0224962402
  vertex -0.0479243249 -0.0287500024 -0.0174430273
  endloop
 endfacet

 facet normal 0 0 0
  outer loop
  vertex -0.0565587915 -0.019479882 -0.00298945792
  vertex -0.0479243249 -0.0287500024 -0.0174430273
  vertex -0.050999999 -0.0287500024 3.12284938e-18
  endloop
 endfacet

 facet normal 0 0 0
  outer loop
  vertex -0.0565587915 -0.019479882 -0.00298945792
  vertex -0.050999999 -0.0287500024 3.12284938e-18
  vertex -0.054060258 -0.019479882 0.0168914869
  endloop
 endfacet

 facet normal 0 0 0
  outer loop
  vertex -0.0565587915 0.019479882 -0.00298945792
  vertex -0.050999999 0.0287500024 3.12284938e-18
  vertex -0.0479243249 0.0287500024 -0.0174430273
  endloop
 endfacet

 facet normal 0 0 0
  outer loop
  vertex -0.0565587915 0.019479882 -0.00298945792
  vertex -0.0479243249 0.0287500024 -0.0174430273
  vertex -0.0519783907 0.019479882 -0.0224962402
  endloop
 endfacet

 facet normal 0 0 0
  outer loop
  vertex -0.0565587915 0.019479882 -0.00298945792
  vertex -0.054060258 0.019479882 0.0168914869
  vertex -0.050999999 0.0287500024 3.12284938e-18
  endloop
 endfacet

 facet normal 0 0 0
  outer loop
  vertex 0.0254999995 0.0287500024 -0.0441672951
  vertex 0.0270228442 0.019479882 -0.0497754924
  vertex 0.00760315312 0.0254999995 -0.0532896109
  endloop
 endfacet

 facet normal 0 0 0
  outer loop
  vertex 0.0254999995 0.0287500024 -0.0441672951
  vertex 0.00760315312 0.0254999995 -0.0532896109
  vertex 0.0174356662 0.0405000001 -0.0271304268
  endloop
 endfacet

 facet normal 0 0 0
  outer loop
  vertex 0.0254999995 0.0287500024 -0.0441672951
  vertex 0.0174356662 0.0405000001 -0.0271304268
  vertex 0.0390682667 0.0287500024 -0.0327821672
  endloop
 endfacet

 facet normal 0 0 0
  outer loop
  vertex -0.00558809284 0.0131571703 -0.0584088415
  vertex -0.0261149835 0.00663007936 -0.0539197437
  vertex -0.0175693948 0.0254999995 -0.0508813001
  endloop
 endfacet

 facet normal 0 0 0
  outer loop
  vertex -0.00558809284 0.0131571703 -0.0584088415
  vertex 0.00760315312 0.0254999995 -0.0532896109
  vertex 0.0154176075 0.00663007936 -0.0578932539
  endloop
 endfacet

 facet normal 0 0 0
  outer loop
  vertex -0.00558809284 0.0131571703 -0.0584088415
  vertex 0.0154176075 0.00663007936 -0.0578932539
  vertex 0.00139754172 6.6571748e-18 -0.060308814
  endloop
 endfacet

 facet normal 0 0 0
  outer loop
  vertex -0.0593034402 6.6571748e-18 0.0110547505
  vertex -0.0602409132 6.6571748e-18 -0.00318407896
  vertex -0.0565587915 -0.019479882 -0.00298945792
  endloop
 endfacet

 facet normal 0 0 0
  outer loop
  vertex -0.0593034402 6.6571748e-18 0.0110547505
  vertex -0.0565587915 -0.019479882 -0.00298945792
  vertex -0.054060258 -0.019479882 0.0168914869
  endloop
 endfacet

 facet normal 0 0 0
  outer loop
  vertex -0.0593034402 6.6571748e-18 0.0110547505
  vertex -0.054060258 0.019479882 0.0168914869
  vertex -0.0565587915 0.019479882 -0.00298945792
  endloop
 endfacet

 facet normal 0 0 0
  outer loop
  vertex -0.0593034402 6.6571748e-18 0.0110547505
  vertex -0.0565587915 0.019479882 -0.00298945792
  vertex -0.0602409132 6.6571748e-18 -0.00318407896
  endloop
 endfacet

 facet normal 0 0 0
  outer loop
  vertex 0.0150996661 -0.0131571703 -0.0566993803
  vertex 0.0285845865 -0.00663007936 -0.0526521876
  vertex 0.0199074242 -0.0254999995 -0.0500128493
  endloop
 endfacet

 facet normal 0 0 0
  outer loop
  vertex 0.0150996661 -0.0131571703 -0.0566993803
  vertex 0.0199074242 -0.0254999995 -0.0500128493
  vertex 0.00124705606 -0.0254999995 -0.0538148247
  endloop
 endfacet

 facet normal 0 0 0
  outer loop
  vertex 0.0150996661 -0.0131571703 -0.0566993803
  vertex 0.00139754172 6.6571748e-18 -0.060308814
  vertex 0.0154176075 0.00663007936 -0.0578932539
  endloop
 endfacet

 facet normal 0 0 0
  outer loop
  vertex 0.0150996661 -0.0131571703 -0.0566993803
  vertex 0.0154176075 0.00663007936 -0.0578932539
  vertex 0.0285845865 -0.00663007936 -0.0526521876
  endloop
 endfacet

 facet normal 0 0 0
  outer loop
  vertex -0.0117142415 -0.0131571703 0.0574943163
  vertex -0.0255908482 6.6571748e-18 0.0546279624
  vertex -0.0240266528 -0.019479882 0.0512889251
  endloop
 endfacet

 facet normal 0 0 0
  outer loop
  vertex -0.0117142415 -0.0131571703 0.0574943163
  vertex -0.0240266528 -0.019479882 0.0512889251
  vertex -0.0044328901 -0.0254999995 0.0536464378
  endloop
 endfacet

 facet normal 0 0 0
  outer loop
  vertex 0.0599097759 0.00663007936 -0.000387544744
  vertex 0.05382815 0.0254999995 -0.000348203699
  vertex 0.0551346205 0.0131571703 0.0200746935
  endloop
 endfacet

 facet normal 0 0 0
  outer loop
  vertex 0.0599097759 0.00663007936 -0.000387544744
  vertex 0.0599097759 -0.00663007936 -0.000387544744
  vertex 0.0585443974 6.6571748e-18 -0.0145485103
  endloop
 endfacet

 facet normal 0 0 0
  outer loop
  vertex 0.0599097759 0.00663007936 -0.000387544744
  vertex 0.0585443974 6.6571748e-18 -0.0145485103
  vertex 0.0529646501 0.019479882 -0.0200643856
  endloop
 endfacet

 facet normal 0 0 0
  outer loop
  vertex 0.0599097759 0.00663007936 -0.000387544744
  vertex 0.0529646501 0.019479882 -0.0200643856
  vertex 0.05382815 0.0254999995 -0.000348203699
  endloop
 endfacet

 facet normal 0 0 0
  outer loop
  vertex 0.0561956987 -0.019479882 -0.00706238579
  vertex 0.0502198189 -0.019479882 -0.0261878539
  vertex 0.0585443974 6.6571748e-18 -0.0145485103
  endloop
 endfacet

 facet normal 0 0 0
  outer loop
  vertex 0.0561956987 -0.019479882 -0.00706238579
  vertex 0.0585443974 6.6571748e-18 -0.0145485103
  vertex 0.0599097759 -0.00663007936 -0.000387544744
  endloop
 endfacet

 facet normal 0 0 0
  outer loop
  vertex 0.0479243249 0.0287500024 -0.0174430273
  vertex 0.0390682667 0.0287500024 -0.0327821672
  vertex 0.0313409232 0.0405000001 -0.00760322623
  endloop
 endfacet

 facet normal 0 0 0
  outer loop
  vertex 0.0479243249 0.0287500024 -0.0174430273
  vertex 0.0313409232 0.0405000001 -0.00760322623
  vertex 0.05382815 0.0254999995 -0.000348203699
  endloop
 endfacet

 facet normal 0 0 0
  outer loop
  vertex 0.0479243249 0.0287500024 -0.0174430273
  vertex 0.05382815 0.0254999995 -0.000348203699
  vertex 0.0529646501 0.019479882 -0.0200643856
  endloop
 endfacet

 facet normal 0 0 0
  outer loop
  vertex 0.0479243249 0.0287500024 -0.0174430273
  vertex 0.0529646501 0.019479882 -0.0200643856
  vertex 0.0390682667 0.0287500024 -0.0327821672
  endloop
 endfacet

 facet normal 0 0 0
  outer loop
  vertex -0.0503281355 0.0131571703 0.0301645268
  vertex -0.054060258 0.019479882 0.0168914869
  vertex -0.0593034402 6.6571748e-18 0.0110547505
  endloop
 endfacet

 facet normal 0 0 0
  outer loop
  vertex -0.0503281355 0.0131571703 0.0301645268
  vertex -0.0593034402 6.6571748e-18 0.0110547505
  vertex -0.0517429262 6.6571748e-18 0.0310124978
  endloop
 endfacet

 facet normal 0 0 0
  outer loop
  vertex -0.0503281355 0.0131571703 0.0301645268
  vertex -0.0517429262 6.6571748e-18 0.0310124978
  vertex -0.0374474823 0.00663007936 0.0467655584
  endloop
 endfacet

 facet normal 0 0 0
  outer loop
  vertex -0.0503281355 0.0131571703 0.0301645268
  vertex -0.0374474823 0.00663007936 0.0467655584
  vertex -0.0383795425 0.0254999995 0.0377438888
  endloop
 endfacet

 facet normal 0 0 0
  outer loop
  vertex -0.0119608976 0.00663007936 0.0587049238
  vertex 0.00217764475 6.6571748e-18 0.0602856837
  vertex 0.00872454979 0.019479882 0.0559617393
  endloop
 endfacet

 facet normal 0 0 0
  outer loop
  vertex -0.0119608976 0.00663007936 0.0587049238
  vertex 0.00872454979 0.019479882 0.0559617393
  vertex -0.0177919082 0.019479882 0.0537706427
  endloop
 endfacet

 facet normal 0 0 0
  outer loop
  vertex -0.0119608976 0.00663007936 0.0587049238
  vertex -0.0177919082 0.019479882 0.0537706427
  vertex -0.0255908482 6.6571748e-18 0.0546279624
  endloop
 endfacet

 facet normal 0 0 0
  outer loop
  vertex -0.0119608976 0.00663007936 0.0587049238
  vertex -0.0255908482 6.6571748e-18 0.0546279624
  vertex -0.0117142415 -0.0131571703 0.0574943163
  endloop
 endfacet

 facet normal 0 0 0
  outer loop
  vertex -0.0119608976 0.00663007936 0.0587049238
  vertex -0.0117142415 -0.0131571703 0.0574943163
  vertex 0.00217764475 6.6571748e-18 0.0602856837
  endloop
 endfacet

 facet normal 0 0 0
  outer loop
  vertex 0.0587277114 6.6571748e-18 0.0137898987
  vertex 0.0599097759 -0.00663007936 -0.000387544744
  vertex 0.0599097759 0.00663007936 -0.000387544744
  endloop
 endfacet

 facet normal 0 0 0
  outer loop
  vertex 0.0587277114 6.6571748e-18 0.0137898987
  vertex 0.0599097759 0.00663007936 -0.000387544744
  vertex 0.0551346205 0.0131571703 0.0200746935
  endloop
 endfacet

 facet normal 0 0 0
  outer loop
  vertex 0.0587277114 6.6571748e-18 0.0137898987
  vertex 0.0551346205 0.0131571703 0.0200746935
  vertex 0.0499060117 -0.00663007936 0.03314697
  endloop
 endfacet

 facet normal 0 0 0
  outer loop
  vertex 0.0587277114 6.6571748e-18 0.0137898987
  vertex 0.0499060117 -0.00663007936 0.03314697
  vertex 0.0551346205 -0.0131571703 0.0200746935
  endloop
 endfacet

 facet normal 0 0 0
  outer loop
  vertex 0.0587277114 6.6571748e-18 0.0137898987
  vertex 0.0551346205 -0.0131571703 0.0200746935
  vertex 0.0599097759 -0.00663007936 -0.000387544744
  endloop
 endfacet

 facet normal 0 0 0
  outer loop
  vertex 0.0346112959 0.00663007936 -0.0489018373
  vertex 0.0270228442 0.019479882 -0.0497754924
  vertex 0.0441986732 0.0131571703 -0.038591411
  endloop
 endfacet

 facet normal 0 0 0
  outer loop
  vertex 0.0346112959 0.00663007936 -0.0489018373
  vertex 0.0441986732 0.0131571703 -0.038591411
  vertex 0.0498148538 6.6571748e-18 -0.0340233147
  endloop
 endfacet

 facet normal 0 0 0
  outer loop
  vertex 0.0346112959 0.00663007936 -0.0489018373
  vertex 0.0498148538 6.6571748e-18 -0.0340233147
  vertex 0.0393241197 -0.0131571703 -0.0435480587
  endloop
 endfacet

 facet normal 0 0 0
  outer loop
  vertex 0.0346112959 0.00663007936 -0.0489018373
  vertex 0.0393241197 -0.0131571703 -0.0435480587
  vertex 0.0285845865 -0.00663007936 -0.0526521876
  endloop
 endfacet

 facet normal 0 0 0
  outer loop
  vertex 0.0346112959 0.00663007936 -0.0489018373
  vertex 0.0285845865 -0.00663007936 -0.0526521876
  vertex 0.0154176075 0.00663007936 -0.0578932539
  endloop
 endfacet

 facet normal 0 0 0
  outer loop
  vertex 0.0346112959 0.00663007936 -0.0489018373
  vertex 0.0154176075 0.00663007936 -0.0578932539
  vertex 0.0270228442 0.019479882 -0.0497754924
  endloop
 endfacet

 facet normal 0 0 0
  outer loop
  vertex 0.00903845485 -0.0131571703 0.0579752177
  vertex 0.00217764475 6.6571748e-18 0.0602856837
  vertex -0.0117142415 -0.0131571703 0.0574943163
  endloop
 endfacet

 facet normal 0 0 0
  outer loop
  vertex 0.00903845485 -0.0131571703 0.0579752177
  vertex -0.0117142415 -0.0131571703 0.0574943163
  vertex -0.0044328901 -0.0254999995 0.0536464378
  endloop
 endfacet

 facet normal 0 0 0
  outer loop
  vertex 0.00903845485 -0.0131571703 0.0579752177
  vertex -0.0044328901 -0.0254999995 0.0536464378
  vertex 0.0145242997 -0.0254999995 0.0518327616
  endloop
 endfacet

 facet normal 0 0 0
  outer loop
  vertex 0.00903845485 -0.0131571703 0.0579752177
  vertex 0.0145242997 -0.0254999995 0.0518327616
  vertex 0.0224031545 -0.0131571703 0.0542302355
  endloop
 endfacet

 facet normal 0 0 0
  outer loop
  vertex -0.0503281355 -0.0131571703 0.0301645268
  vertex -0.0383795425 -0.0254999995 0.0377438888
  vertex -0.0427157544 -0.00663007936 0.0420082808
  endloop
 endfacet

 facet normal 0 0 0
  outer loop
  vertex -0.0503281355 -0.0131571703 0.0301645268
  vertex -0.0427157544 -0.00663007936 0.0420082808
  vertex -0.0517429262 6.6571748e-18 0.0310124978
  endloop
 endfacet

 facet normal 0 0 0
  outer loop
  vertex -0.0503281355 -0.0131571703 0.0301645268
  vertex -0.0517429262 6.6571748e-18 0.0310124978
  vertex -0.0593034402 6.6571748e-18 0.0110547505
  endloop
 endfacet

 facet normal 0 0 0
  outer loop
  vertex -0.0503281355 -0.0131571703 0.0301645268
  vertex -0.0593034402 6.6571748e-18 0.0110547505
  vertex -0.054060258 -0.019479882 0.0168914869
  endloop
 endfacet

 facet normal 0 0 0
  outer loop
  vertex -0.0429968312 -0.0254999995 -0.0323861577
  vertex -0.0372647047 -0.0131571703 -0.0453228578
  vertex -0.0327821672 -0.0287500024 -0.0390682667
  endloop
 endfacet

 facet normal 0 0 0
  outer loop
  vertex -0.0429968312 -0.0254999995 -0.0323861577
  vertex -0.0327821672 -0.0287500024 -0.0390682667
  vertex -0.0479243249 -0.0287500024 -0.0174430273
  endloop
 endfacet

 facet normal 0 0 0
  outer loop
  vertex -0.0429968312 -0.0254999995 -0.0323861577
  vertex -0.0479243249 -0.0287500024 -0.0174430273
  vertex -0.0519783907 -0.019479882 -0.0224962402
  endloop
 endfacet

 facet normal 0 0 0
  outer loop
  vertex -0.0429968312 0.0254999995 -0.0323861577
  vertex -0.0327821672 0.0287500024 -0.0390682667
  vertex -0.0372647047 0.0131571703 -0.0453228578
  endloop
 endfacet

 facet normal 0 0 0
  outer loop
  vertex -0.0429968312 0.0254999995 -0.0323861577
  vertex -0.0519783907 0.019479882 -0.0224962402
  vertex -0.0479243249 0.0287500024 -0.0174430273
  endloop
 endfacet

 facet normal 0 0 0
  outer loop
  vertex -0.0429968312 0.0254999995 -0.0323861577
  vertex -0.0479243249 0.0287500024 -0.0174430273
  vertex -0.0327821672 0.0287500024 -0.0390682667
  endloop
 endfacet

 facet normal 0 0 0
  outer loop
  vertex -0.0128072556 6.6571748e-18 -0.0589498095
  vertex -0.0191511754 -0.0131571703 -0.0554621704
  vertex -0.0261149835 0.00663007936 -0.0539197437
  endloop
 endfacet

 facet normal 0 0 0
  outer loop
  vertex -0.0128072556 6.6571748e-18 -0.0589498095
  vertex -0.0261149835 0.00663007936 -0.0539197437
  vertex -0.00558809284 0.0131571703 -0.0584088415
  endloop
 endfacet

 facet normal 0 0 0
  outer loop
  vertex -0.0128072556 6.6571748e-18 -0.0589498095
  vertex -0.00558809284 0.0131571703 -0.0584088415
  vertex 0.00139754172 6.6571748e-18 -0.060308814
  endloop
 endfacet

 facet normal 0 0 0
  outer loop
  vertex 0.0162769854 6.6571748e-18 0.058087565
  vertex 0.00217764475 6.6571748e-18 0.0602856837
  vertex 0.00903845485 -0.0131571703 0.0579752177
  endloop
 endfacet

 facet normal 0 0 0
  outer loop
  vertex 0.0162769854 6.6571748e-18 0.058087565
  vertex 0.00903845485 -0.0131571703 0.0579752177
  vertex 0.0224031545 -0.0131571703 0.0542302355
  endloop
 endfacet

 facet normal 0 0 0
  outer loop
  vertex 0.0162769854 6.6571748e-18 0.058087565
  vertex 0.0224031545 -0.0131571703 0.0542302355
  vertex 0.0292633604 0.00663007936 0.0522779822
  endloop
 endfacet

 facet normal 0 0 0
  outer loop
  vertex 0.0162769854 6.6571748e-18 0.058087565
  vertex 0.0292633604 0.00663007936 0.0522779822
  vertex 0.00872454979 0.019479882 0.0559617393
  endloop
 endfacet

 facet normal 0 0 0
  outer loop
  vertex 0.0162769854 6.6571748e-18 0.058087565
  vertex 0.00872454979 0.019479882 0.0559617393
  vertex 0.00217764475 6.6571748e-18 0.0602856837
  endloop
 endfacet

 facet normal 0 0 0
  outer loop
  vertex 0.0333156213 0.019479882 0.0458028726
  vertex 0.0205527786 0.0254999995 0.0497511178
  vertex 0.0292633604 0.00663007936 0.0522779822
  endloop
 endfacet

 facet normal 0 0 0
  outer loop
  vertex 0.0333156213 0.019479882 0.0458028726
  vertex 0.0292633604 0.00663007936 0.0522779822
  vertex 0.045635324 0.00663007936 0.0388168544
  endloop
 endfacet

 facet normal 0 0 0
  outer loop
  vertex 0.0333156213 0.019479882 0.0458028726
  vertex 0.045635324 0.00663007936 0.0388168544
  vertex 0.0410027429 0.0254999995 0.034876436
  endloop
 endfacet

 facet normal 0 0 0
  outer loop
  vertex -0.00558809284 -0.0131571703 -0.0584088415
  vertex 0.00124705606 -0.0254999995 -0.0538148247
  vertex -0.0175693948 -0.0254999995 -0.0508813001
  endloop
 endfacet

 facet normal 0 0 0
  outer loop
  vertex -0.00558809284 -0.0131571703 -0.0584088415
  vertex -0.0175693948 -0.0254999995 -0.0508813001
  vertex -0.0191511754 -0.0131571703 -0.0554621704
  endloop
 endfacet

 facet normal 0 0 0
  outer loop
  vertex -0.00558809284 -0.0131571703 -0.0584088415
  vertex -0.0191511754 -0.0131571703 -0.0554621704
  vertex -0.0128072556 6.6571748e-18 -0.0589498095
  endloop
 endfacet

 facet normal 0 0 0
  outer loop
  vertex -0.00558809284 -0.0131571703 -0.0584088415
  vertex -0.0128072556 6.6571748e-18 -0.0589498095
  vertex 0.00139754172 6.6571748e-18 -0.060308814
  endloop
 endfacet

 facet normal 0 0 0
  outer loop
  vertex -0.00558809284 -0.0131571703 -0.0584088415
  vertex 0.00139754172 6.6571748e-18 -0.060308814
  vertex 0.0150996661 -0.0131571703 -0.0566993803
  endloop
 endfacet

 facet normal 0 0 0
  outer loop
  vertex -0.00558809284 -0.0131571703 -0.0584088415
  vertex 0.0150996661 -0.0131571703 -0.0566993803
  vertex 0.00124705606 -0.0254999995 -0.0538148247
  endloop
 endfacet

 facet normal 0 0 0
  outer loop
  vertex 0.00624241633 -0.0447500013 -0.00562069705
  vertex 0.0279293191 -0.0405000001 0.0161249992
  vertex -0.00174645823 -0.0447500013 0.00821643975
  endloop
 endfacet

 facet normal 0 0 0
  outer loop
  vertex 0.00624241633 -0.0447500013 -0.00562069705
  vertex -0.00174645823 -0.0447500013 0.00821643975
  vertex -0.0293356311 -0.0405000001 -0.0133971339
  endloop
 endfacet

 facet normal 0 0 0
  outer loop
  vertex 0.00624241633 -0.0447500013 -0.00562069705
  vertex -0.0293356311 -0.0405000001 -0.0133971339
  vertex -0.0119861141 -0.0405000001 -0.0299398657
  endloop
 endfacet

 facet normal 0 0 0
  outer loop
  vertex 0.00624241633 -0.0447500013 -0.00562069705
  vertex -0.0119861141 -0.0405000001 -0.0299398657
  vertex 0.00610335264 -0.0405000001 -0.031667199
  endloop
 endfacet

 facet normal 0 0 0
  outer loop
  vertex 0.00174645823 0.0447500013 -0.00821643975
  vertex -4.33680869e-19 0.0447500013 0.0083999997
  vertex 0.0313409232 0.0405000001 -0.00760322623
  endloop
 endfacet

 facet normal 0 0 0
  outer loop
  vertex 0.00174645823 0.0447500013 -0.00821643975
  vertex 0.0313409232 0.0405000001 -0.00760322623
  vertex 0.0174356662 0.0405000001 -0.0271304268
  endloop
 endfacet

 facet normal 0 0 0
  outer loop
  vertex 0.00174645823 0.0447500013 -0.00821643975
  vertex 0.0174356662 0.0405000001 -0.0271304268
  vertex -0.00610335264 0.0405000001 -0.031667199
  endloop
 endfacet

 facet normal 0 0 0
  outer loop
  vertex 0.0524039827 -0.0254999995 0.0123050185
  vertex 0.050999999 -0.0287500024 -9.36854836e-18
  vertex 0.0561956987 -0.019479882 -0.00706238579
  endloop
 endfacet

 facet normal 0 0 0
  outer loop
  vertex 0.0524039827 -0.0254999995 0.0123050185
  vertex 0.0561956987 -0.019479882 -0.00706238579
  vertex 0.0599097759 -0.00663007936 -0.000387544744
  endloop
 endfacet

 facet normal 0 0 0
  outer loop
  vertex 0.0524039827 -0.0254999995 0.0123050185
  vertex 0.0599097759 -0.00663007936 -0.000387544744
  vertex 0.0551346205 -0.0131571703 0.0200746935
  endloop
 endfacet

 facet normal 0 0 0
  outer loop
  vertex 0.0524039827 -0.0254999995 0.0123050185
  vertex 0.0551346205 -0.0131571703 0.0200746935
  vertex 0.0480475947 -0.0254999995 0.0242697243
  endloop
 endfacet

 facet normal 0 0 0
  outer loop
  vertex 0.0524039827 -0.0254999995 0.0123050185
  vertex 0.0480475947 -0.0254999995 0.0242697243
  vertex 0.0279293191 -0.0405000001 0.0161249992
  endloop
 endfacet

 facet normal 0 0 0
  outer loop
  vertex 0.0327821672 0.0287500024 0.0390682667
  vertex 0.0147778057 0.0405000001 0.0286649428
  vertex 0.0205527786 0.0254999995 0.0497511178
  endloop
 endfacet

 facet normal 0 0 0
  outer loop
  vertex 0.0327821672 0.0287500024 0.0390682667
  vertex 0.0205527786 0.0254999995 0.0497511178
  vertex 0.0333156213 0.019479882 0.0458028726
  endloop
 endfacet

 facet normal 0 0 0
  outer loop
  vertex 0.0327821672 0.0287500024 0.0390682667
  vertex 0.0333156213 0.019479882 0.0458028726
  vertex 0.0410027429 0.0254999995 0.034876436
  endloop
 endfacet

 facet normal 0 0 0
  outer loop
  vertex 0.0327821672 0.0287500024 0.0390682667
  vertex 0.0410027429 0.0254999995 0.034876436
  vertex 0.0479243249 0.0287500024 0.0174430273
  endloop
 endfacet

 facet normal 0 0 0
  outer loop
  vertex 0.0327821672 0.0287500024 0.0390682667
  vertex 0.0479243249 0.0287500024 0.0174430273
  vertex 0.0279293191 0.0405000001 0.0161249992
  endloop
 endfacet

 facet normal 0 0 0
  outer loop
  vertex 0.0327821672 0.0287500024 0.0390682667
  vertex 0.0279293191 0.0405000001 0.0161249992
  vertex 0.0147778057 0.0405000001 0.0286649428
  endloop
 endfacet

 facet normal 0 0 0
  outer loop
  vertex 0.0522404052 -0.0254999995 -0.0129819429
  vertex 0.0441672951 -0.0287500024 -0.0254999995
  vertex 0.0502198189 -0.019479882 -0.0261878539
  endloop
 endfacet

 facet normal 0 0 0
  outer loop
  vertex 0.0522404052 -0.0254999995 -0.0129819429
  vertex 0.0502198189 -0.019479882 -0.0261878539
  vertex 0.0561956987 -0.019479882 -0.00706238579
  endloop
 endfacet

 facet normal 0 0 0
  outer loop
  vertex 0.0522404052 -0.0254999995 -0.0129819429
  vertex 0.0561956987 -0.019479882 -0.00706238579
  vertex 0.050999999 -0.0287500024 -9.36854836e-18
  endloop
 endfacet

 facet normal 0 0 0
  outer loop
  vertex 0.0522404052 -0.0254999995 -0.0129819429
  vertex 0.050999999 -0.0287500024 -9.36854836e-18
  vertex 0.0441672951 -0.0287500024 -0.0254999995
  endloop
 endfacet

 facet normal 0 0 0
  outer loop
  vertex -0.00885605719 0.0287500024 -0.0502251945
  vertex 0.00760315312 0.0254999995 -0.0532896109
  vertex -0.00558809284 0.0131571703 -0.0584088415
  endloop
 endfacet

 facet normal 0 0 0
  outer loop
  vertex -0.00885605719 0.0287500024 -0.0502251945
  vertex -0.00558809284 0.0131571703 -0.0584088415
  vertex -0.0175693948 0.0254999995 -0.0508813001
  endloop
 endfacet

 facet normal 0 0 0
  outer loop
  vertex -0.00885605719 0.0287500024 -0.0502251945
  vertex -0.0175693948 0.0254999995 -0.0508813001
  vertex -0.0327821672 0.0287500024 -0.0390682667
  endloop
 endfacet

 facet normal 0 0 0
  outer loop
  vertex -0.00885605719 0.0287500024 -0.0502251945
  vertex -0.00610335264 0.0405000001 -0.031667199
  vertex 0.00760315312 0.0254999995 -0.0532896109
  endloop
 endfacet

 facet normal 0 0 0
  outer loop
  vertex -0.029924117 0.019479882 0.0480872244
  vertex -0.0383795425 0.0254999995 0.0377438888
  vertex -0.0374474823 0.00663007936 0.0467655584
  endloop
 endfacet

 facet normal 0 0 0
  outer loop
  vertex -0.029924117 0.019479882 0.0480872244
  vertex -0.0374474823 0.00663007936 0.0467655584
  vertex -0.0255908482 6.6571748e-18 0.0546279624
  endloop
 endfacet

 facet normal 0 0 0
  outer loop
  vertex -0.029924117 0.019479882 0.0480872244
  vertex -0.0255908482 6.6571748e-18 0.0546279624
  vertex -0.0177919082 0.019479882 0.0537706427
  endloop
 endfacet

 facet normal 0 0 0
  outer loop
  vertex -0.029924117 0.019479882 0.0480872244
  vertex -0.0177919082 0.019479882 0.0537706427
  vertex -0.0174430273 0.0287500024 0.0479243249
  endloop
 endfacet

 facet normal 0 0 0
  outer loop
  vertex -0.029924117 0.019479882 0.0480872244
  vertex -0.0174430273 0.0287500024 0.0479243249
  vertex -0.0383795425 0.0254999995 0.0377438888
  endloop
 endfacet

 facet normal 0 0 0
  outer loop
  vertex 0.0262927432 -0.0254999995 0.046971079
  vertex 0.0224031545 -0.0131571703 0.0542302355
  vertex 0.0145242997 -0.0254999995 0.0518327616
  endloop
 endfacet

 facet normal 0 0 0
  outer loop
  vertex 0.0262927432 -0.0254999995 0.046971079
  vertex 0.0145242997 -0.0254999995 0.0518327616
  vertex 0.009085875 -0.0405000001 0.030943647
  endloop
 endfacet

 facet normal 0 0 0
  outer loop
  vertex 0.0262927432 -0.0254999995 0.046971079
  vertex 0.009085875 -0.0405000001 0.030943647
  vertex 0.0327821672 -0.0287500024 0.0390682667
  endloop
 endfacet

 facet normal 0 0 0
  outer loop
  vertex 0.0262927432 -0.0254999995 0.046971079
  vertex 0.0398842134 -0.0131571703 0.0430356748
  vertex 0.0224031545 -0.0131571703 0.0542302355
  endloop
 endfacet

 facet normal 0 0 0
  outer loop
  vertex -0.0383122712 6.6571748e-18 -0.0465969481
  vertex -0.0372647047 0.0131571703 -0.0453228578
  vertex -0.0261149835 0.00663007936 -0.0539197437
  endloop
 endfacet

 facet normal 0 0 0
  outer loop
  vertex -0.0383122712 6.6571748e-18 -0.0465969481
  vertex -0.0261149835 0.00663007936 -0.0539197437
  vertex -0.0191511754 -0.0131571703 -0.0554621704
  endloop
 endfacet

 facet normal 0 0 0
  outer loop
  vertex -0.0383122712 6.6571748e-18 -0.0465969481
  vertex -0.0191511754 -0.0131571703 -0.0554621704
  vertex -0.0372647047 -0.0131571703 -0.0453228578
  endloop
 endfacet

 facet normal 0 0 0
  outer loop
  vertex -0.0468678549 -0.0131571703 -0.0353018939
  vertex -0.0372647047 -0.0131571703 -0.0453228578
  vertex -0.0429968312 -0.0254999995 -0.0323861577
  endloop
 endfacet

 facet normal 0 0 0
  outer loop
  vertex -0.0468678549 -0.0131571703 -0.0353018939
  vertex -0.0429968312 -0.0254999995 -0.0323861577
  vertex -0.0519783907 -0.019479882 -0.0224962402
  endloop
 endfacet

 facet normal 0 0 0
  outer loop
  vertex -0.0468678549 -0.0131571703 -0.0353018939
  vertex -0.0519783907 -0.019479882 -0.0224962402
  vertex -0.0553623103 6.6571748e-18 -0.0239608008
  endloop
 endfacet

 facet normal 0 0 0
  outer loop
  vertex -0.0468678549 -0.0131571703 -0.0353018939
  vertex -0.0553623103 6.6571748e-18 -0.0239608008
  vertex -0.0481853783 6.6571748e-18 -0.0362942815
  endloop
 endfacet

 facet normal 0 0 0
  outer loop
  vertex -0.0468678549 0.0131571703 -0.0353018939
  vertex -0.0481853783 6.6571748e-18 -0.0362942815
  vertex -0.0553623103 6.6571748e-18 -0.0239608008
  endloop
 endfacet

 facet normal 0 0 0
  outer loop
  vertex -0.0468678549 0.0131571703 -0.0353018939
  vertex -0.0553623103 6.6571748e-18 -0.0239608008
  vertex -0.0519783907 0.019479882 -0.0224962402
  endloop
 endfacet

 facet normal 0 0 0
  outer loop
  vertex -0.0468678549 0.0131571703 -0.0353018939
  vertex -0.0519783907 0.019479882 -0.0224962402
  vertex -0.0429968312 0.0254999995 -0.0323861577
  endloop
 endfacet

 facet normal 0 0 0
  outer loop
  vertex -0.0468678549 0.0131571703 -0.0353018939
  vertex -0.0429968312 0.0254999995 -0.0323861577
  vertex -0.0372647047 0.0131571703 -0.0453228578
  endloop
 endfacet

 facet normal 0 0 0
  outer loop
  vertex -0.0468678549 0.0131571703 -0.0353018939
  vertex -0.0372647047 0.0131571703 -0.0453228578
  vertex -0.0383122712 6.6571748e-18 -0.0465969481
  endloop
 endfacet

 facet normal 0 0 0
  outer loop
  vertex -0.0468678549 0.0131571703 -0.0353018939
  vertex -0.0383122712 6.6571748e-18 -0.0465969481
  vertex -0.0481853783 6.6571748e-18 -0.0362942815
  endloop
 endfacet

 facet normal 0 0 0
  outer loop
  vertex -0.0590335876 -0.00663007936 -0.0102160238
  vertex -0.0553623103 6.6571748e-18 -0.0239608008
  vertex -0.0519783907 -0.019479882 -0.0224962402
  endloop
 endfacet

 facet normal 0 0 0
  outer loop
  vertex -0.0590335876 -0.00663007936 -0.0102160238
  vertex -0.0519783907 -0.019479882 -0.0224962402
  vertex -0.0565587915 -0.019479882 -0.00298945792
  endloop
 endfacet

 facet normal 0 0 0
  outer loop
  vertex -0.0590335876 -0.00663007936 -0.0102160238
  vertex -0.0565587915 -0.019479882 -0.00298945792
  vertex -0.0602409132 6.6571748e-18 -0.00318407896
  endloop
 endfacet

 facet normal 0 0 0
  outer loop
  vertex -0.0590335876 0.00663007936 -0.0102160238
  vertex -0.0519783907 0.019479882 -0.0224962402
  vertex -0.0553623103 6.6571748e-18 -0.0239608008
  endloop
 endfacet

 facet normal 0 0 0
  outer loop
  vertex -0.0590335876 0.00663007936 -0.0102160238
  vertex -0.0553623103 6.6571748e-18 -0.0239608008
  vertex -0.0590335876 -0.00663007936 -0.0102160238
  endloop
 endfacet

 facet normal 0 0 0
  outer loop
  vertex -0.0590335876 0.00663007936 -0.0102160238
  vertex -0.0590335876 -0.00663007936 -0.0102160238
  vertex -0.0602409132 6.6571748e-18 -0.00318407896
  endloop
 endfacet

 facet normal 0 0 0
  outer loop
  vertex -0.0590335876 0.00663007936 -0.0102160238
  vertex -0.0602409132 6.6571748e-18 -0.00318407896
  vertex -0.0565587915 0.019479882 -0.00298945792
  endloop
 endfacet

 facet normal 0 0 0
  outer loop
  vertex -0.0590335876 0.00663007936 -0.0102160238
  vertex -0.0565587915 0.019479882 -0.00298945792
  vertex -0.0519783907 0.019479882 -0.0224962402
  endloop
 endfacet

 facet normal 0 0 0
  outer loop
  vertex 0.0405481122 -0.0254999995 -0.0354039744
  vertex 0.0327821672 -0.0287500024 -0.0390682667
  vertex 0.0393241197 -0.0131571703 -0.0435480587
  endloop
 endfacet

 facet normal 0 0 0
  outer loop
  vertex 0.0405481122 -0.0254999995 -0.0354039744
  vertex 0.0393241197 -0.0131571703 -0.0435480587
  vertex 0.0502198189 -0.019479882 -0.0261878539
  endloop
 endfacet

 facet normal 0 0 0
  outer loop
  vertex 0.0405481122 -0.0254999995 -0.0354039744
  vertex 0.0502198189 -0.019479882 -0.0261878539
  vertex 0.0441672951 -0.0287500024 -0.0254999995
  endloop
 endfacet

 facet normal 0 0 0
  outer loop
  vertex 0.0405481122 -0.0254999995 -0.0354039744
  vertex 0.0441672951 -0.0287500024 -0.0254999995
  vertex 0.0327821672 -0.0287500024 -0.0390682667
  endloop
 endfacet

 facet normal 0 0 0
  outer loop
  vertex -0.0319217406 0.0405000001 0.00458965357
  vertex -0.0279293191 0.0405000001 0.0161249992
  vertex -4.33680869e-19 0.0447500013 0.0083999997
  endloop
 endfacet

 facet normal 0 0 0
  outer loop
  vertex -0.0319217406 0.0405000001 0.00458965357
  vertex -4.33680869e-19 0.0447500013 0.0083999997
  vertex 0.00174645823 0.0447500013 -0.00821643975
  endloop
 endfacet

 facet normal 0 0 0
  outer loop
  vertex -0.0319217406 0.0405000001 0.00458965357
  vertex 0.00174645823 0.0447500013 -0.00821643975
  vertex -0.0293356311 0.0405000001 -0.0133971339
  endloop
 endfacet

 facet normal 0 0 0
  outer loop
  vertex -0.0319217406 0.0405000001 0.00458965357
  vertex -0.0293356311 0.0405000001 -0.0133971339
  vertex -0.050999999 0.0287500024 3.12284938e-18
  endloop
 endfacet

 facet normal 0 0 0
  outer loop
  vertex -0.0319217406 0.0405000001 0.00458965357
  vertex -0.050999999 0.0287500024 3.12284938e-18
  vertex -0.0479243249 0.0287500024 0.0174430273
  endloop
 endfacet

 facet normal 0 0 0
  outer loop
  vertex -0.0319217406 0.0405000001 0.00458965357
  vertex -0.0479243249 0.0287500024 0.0174430273
  vertex -0.0279293191 0.0405000001 0.0161249992
  endloop
 endfacet

 facet normal 0 0 0
  outer loop
  vertex 0.0319217406 -0.0405000001 0.00458965357
  vertex 0.0279293191 -0.0405000001 0.0161249992
  vertex 0.00624241633 -0.0447500013 -0.00562069705
  endloop
 endfacet

 facet normal 0 0 0
  outer loop
  vertex 0.0319217406 -0.0405000001 0.00458965357
  vertex 0.00624241633 -0.0447500013 -0.00562069705
  vertex 0.0293356311 -0.0405000001 -0.0133971339
  endloop
 endfacet

 facet normal 0 0 0
  outer loop
  vertex 0.0319217406 -0.0405000001 0.00458965357
  vertex 0.0293356311 -0.0405000001 -0.0133971339
  vertex 0.050999999 -0.0287500024 -9.36854836e-18
  endloop
 endfacet

 facet normal 0 0 0
  outer loop
  vertex 0.0319217406 -0.0405000001 0.00458965357
  vertex 0.050999999 -0.0287500024 -9.36854836e-18
  vertex 0.0524039827 -0.0254999995 0.0123050185
  endloop
 endfacet

 facet normal 0 0 0
  outer loop
  vertex 0.0319217406 -0.0405000001 0.00458965357
  vertex 0.0524039827 -0.0254999995 0.0123050185
  vertex 0.0279293191 -0.0405000001 0.0161249992
  endloop
 endfacet

 facet normal 0 0 0
  outer loop
  vertex -0.0174356662 0.0405000001 -0.0271304268
  vertex -0.0327821672 0.0287500024 -0.0390682667
  vertex -0.0293356311 0.0405000001 -0.0133971339
  endloop
 endfacet

 facet normal 0 0 0
  outer loop
  vertex -0.0174356662 0.0405000001 -0.0271304268
  vertex -0.0293356311 0.0405000001 -0.0133971339
  vertex 0.00174645823 0.0447500013 -0.00821643975
  endloop
 endfacet

 facet normal 0 0 0
  outer loop
  vertex -0.0174356662 0.0405000001 -0.0271304268
  vertex 0.00174645823 0.0447500013 -0.00821643975
  vertex -0.00610335264 0.0405000001 -0.031667199
  endloop
 endfacet

 facet normal 0 0 0
  outer loop
  vertex -0.0174356662 0.0405000001 -0.0271304268
  vertex -0.00610335264 0.0405000001 -0.031667199
  vertex -0.00885605719 0.0287500024 -0.0502251945
  endloop
 endfacet

 facet normal 0 0 0
  outer loop
  vertex -0.0174356662 0.0405000001 -0.0271304268
  vertex -0.00885605719 0.0287500024 -0.0502251945
  vertex -0.0327821672 0.0287500024 -0.0390682667
  endloop
 endfacet

 facet normal 0 0 0
  outer loop
  vertex 0.0174356662 -0.0405000001 -0.0271304268
  vertex 0.0327821672 -0.0287500024 -0.0390682667
  vertex 0.0293356311 -0.0405000001 -0.0133971339
  endloop
 endfacet

 facet normal 0 0 0
  outer loop
  vertex 0.0174356662 -0.0405000001 -0.0271304268
  vertex 0.0293356311 -0.0405000001 -0.0133971339
  vertex 0.00624241633 -0.0447500013 -0.00562069705
  endloop
 endfacet

 facet normal 0 0 0
  outer loop
  vertex 0.0174356662 -0.0405000001 -0.0271304268
  vertex 0.00624241633 -0.0447500013 -0.00562069705
  vertex 0.00610335264 -0.0405000001 -0.031667199
  endloop
 endfacet

 facet normal 0 0 0
  outer loop
  vertex 0.0174356662 -0.0405000001 -0.0271304268
  vertex 0.00610335264 -0.0405000001 -0.031667199
  vertex 0.0199074242 -0.0254999995 -0.0500128493
  endloop
 endfacet

 facet normal 0 0 0
  outer loop
  vertex 0.0174356662 -0.0405000001 -0.0271304268
  vertex 0.0199074242 -0.0254999995 -0.0500128493
  vertex 0.0327821672 -0.0287500024 -0.0390682667
  endloop
 endfacet

 facet normal 0 0 0
  outer loop
  vertex -0.0461713113 -0.0254999995 0.0276731066
  vertex -0.054060258 -0.019479882 0.0168914869
  vertex -0.0479243249 -0.0287500024 0.0174430273
  endloop
 endfacet

 facet normal 0 0 0
  outer loop
  vertex -0.0461713113 -0.0254999995 0.0276731066
  vertex -0.0479243249 -0.0287500024 0.0174430273
  vertex -0.0383795425 -0.0254999995 0.0377438888
  endloop
 endfacet

 facet normal 0 0 0
  outer loop
  vertex -0.0461713113 -0.0254999995 0.0276731066
  vertex -0.0383795425 -0.0254999995 0.0377438888
  vertex -0.0503281355 -0.0131571703 0.0301645268
  endloop
 endfacet

 facet normal 0 0 0
  outer loop
  vertex -0.0461713113 -0.0254999995 0.0276731066
  vertex -0.0503281355 -0.0131571703 0.0301645268
  vertex -0.054060258 -0.019479882 0.0168914869
  endloop
 endfacet

 facet normal 0 0 0
  outer loop
  vertex -0.0461713113 0.0254999995 0.0276731066
  vertex -0.0383795425 0.0254999995 0.0377438888
  vertex -0.0279293191 0.0405000001 0.0161249992
  endloop
 endfacet

 facet normal 0 0 0
  outer loop
  vertex -0.0461713113 0.0254999995 0.0276731066
  vertex -0.0279293191 0.0405000001 0.0161249992
  vertex -0.0479243249 0.0287500024 0.0174430273
  endloop
 endfacet

 facet normal 0 0 0
  outer loop
  vertex -0.0461713113 0.0254999995 0.0276731066
  vertex -0.0479243249 0.0287500024 0.0174430273
  vertex -0.054060258 0.019479882 0.0168914869
  endloop
 endfacet

 facet normal 0 0 0
  outer loop
  vertex -0.0461713113 0.0254999995 0.0276731066
  vertex -0.054060258 0.019479882 0.0168914869
  vertex -0.0503281355 0.0131571703 0.0301645268
  endloop
 endfacet

 facet normal 0 0 0
  outer loop
  vertex -0.0461713113 0.0254999995 0.0276731066
  vertex -0.0503281355 0.0131571703 0.0301645268
  vertex -0.0383795425 0.0254999995 0.0377438888
  endloop
 endfacet

 facet normal 0 0 0
  outer loop
  vertex 0.0410027429 -0.0254999995 0.034876436
  vertex 0.0480475947 -0.0254999995 0.0242697243
  vertex 0.0499060117 -0.00663007936 0.03314697
  endloop
 endfacet

 facet normal 0 0 0
  outer loop
  vertex 0.0410027429 -0.0254999995 0.034876436
  vertex 0.0499060117 -0.00663007936 0.03314697
  vertex 0.0398842134 -0.0131571703 0.0430356748
  endloop
 endfacet

 facet normal 0 0 0
  outer loop
  vertex 0.0410027429 -0.0254999995 0.034876436
  vertex 0.0398842134 -0.0131571703 0.0430356748
  vertex 0.0262927432 -0.0254999995 0.046971079
  endloop
 endfacet

 facet normal 0 0 0
  outer loop
  vertex 0.0410027429 -0.0254999995 0.034876436
  vertex 0.0262927432 -0.0254999995 0.046971079
  vertex 0.0327821672 -0.0287500024 0.0390682667
  endloop
 endfacet

 facet normal 0 0 0
  outer loop
  vertex 0.0410027429 -0.0254999995 0.034876436
  vertex 0.0327821672 -0.0287500024 0.0390682667
  vertex 0.0480475947 -0.0254999995 0.0242697243
  endloop
 endfacet

 facet normal 0 0 0
  outer loop
  vertex 0.0360761657 0.0254999995 -0.0399512276
  vertex 0.0390682667 0.0287500024 -0.0327821672
  vertex 0.0441986732 0.0131571703 -0.038591411
  endloop
 endfacet

 facet normal 0 0 0
  outer loop
  vertex 0.0360761657 0.0254999995 -0.0399512276
  vertex 0.0441986732 0.0131571703 -0.038591411
  vertex 0.0270228442 0.019479882 -0.0497754924
  endloop
 endfacet

 facet normal 0 0 0
  outer loop
  vertex 0.0360761657 0.0254999995 -0.0399512276
  vertex 0.0270228442 0.019479882 -0.0497754924
  vertex 0.0254999995 0.0287500024 -0.0441672951
  endloop
 endfacet

 facet normal 0 0 0
  outer loop
  vertex 0.0360761657 0.0254999995 -0.0399512276
  vertex 0.0254999995 0.0287500024 -0.0441672951
  vertex 0.0390682667 0.0287500024 -0.0327821672
  endloop
 endfacet

 facet normal 0 0 0
  outer loop
  vertex -0.00885605719 -0.0287500024 -0.0502251945
  vertex 0.00124705606 -0.0254999995 -0.0538148247
  vertex 0.00610335264 -0.0405000001 -0.031667199
  endloop
 endfacet

 facet normal 0 0 0
  outer loop
  vertex -0.00885605719 -0.0287500024 -0.0502251945
  vertex 0.00610335264 -0.0405000001 -0.031667199
  vertex -0.0119861141 -0.0405000001 -0.0299398657
  endloop
 endfacet

 facet normal 0 0 0
  outer loop
  vertex -0.00885605719 -0.0287500024 -0.0502251945
  vertex -0.0119861141 -0.0405000001 -0.0299398657
  vertex -0.0327821672 -0.0287500024 -0.0390682667
  endloop
 endfacet

 facet normal 0 0 0
  outer loop
  vertex -0.00885605719 -0.0287500024 -0.0502251945
  vertex -0.0327821672 -0.0287500024 -0.0390682667
  vertex -0.0175693948 -0.0254999995 -0.0508813001
  endloop
 endfacet

 facet normal 0 0 0
  outer loop
  vertex -0.00885605719 -0.0287500024 -0.0502251945
  vertex -0.0175693948 -0.0254999995 -0.0508813001
  vertex 0.00124705606 -0.0254999995 -0.0538148247
  endloop
 endfacet

endsolid AssimpScene
