solid AssimpScene
 facet normal 0 0 0
  outer loop
  vertex -0.0472767465 0.0108000217 0.0499883182
  vertex -0.0466164351 -0.0107134376 0.048861444
  vertex -0.0466164351 -0.0136945127 0.0501687154
  endloop
 endfacet

 facet normal 0 0 0
  outer loop
  vertex -0.0472767465 0.0108000217 0.0499883182
  vertex -0.0466164351 -0.0136945127 0.0501687154
  vertex -0.0466164351 -0.0152440555 0.0530313477
  endloop
 endfacet

 facet normal 0 0 0
  outer loop
  vertex -0.0472767465 0.0108000217 0.0499883182
  vertex -0.0466164351 -0.0152440555 0.0530313477
  vertex -0.0466164351 -0.0136952372 0.0575443506
  endloop
 endfacet

 facet normal 0 0 0
  outer loop
  vertex -0.0472767465 0.0108000217 0.0499883182
  vertex -0.0466164351 -0.0136952372 0.0575443506
  vertex -0.0472767465 0.0107129421 0.0577347688
  endloop
 endfacet

 facet normal 0 0 0
  outer loop
  vertex -0.0472767465 0.0108000217 0.0499883182
  vertex -0.0472767465 0.0107129421 0.0577347688
  vertex -0.0472767465 0.0138706835 0.0554265156
  endloop
 endfacet

 facet normal 0 0 0
  outer loop
  vertex -0.0472767465 0.0108000217 0.0499883182
  vertex -0.0472767465 0.0138706835 0.0554265156
  vertex -0.0472914316 0.0132943457 0.0526659489
  endloop
 endfacet

 facet normal 0 0 0
  outer loop
  vertex -0.0313981213 -0.0187967308 0.0611977875
  vertex -0.0466164351 -0.0136952372 0.0575443506
  vertex -0.0466164351 -0.0152440555 0.0530313477
  endloop
 endfacet

 facet normal 0 0 0
  outer loop
  vertex -0.0313981213 -0.0187967308 0.0611977875
  vertex -0.0466164351 -0.0152440555 0.0530313477
  vertex -0.0319523029 -0.0183909051 0.0476100147
  endloop
 endfacet

 facet normal 0 0 0
  outer loop
  vertex -0.0313981213 -0.0187967308 0.0611977875
  vertex -0.0319523029 -0.0183909051 0.0476100147
  vertex -0.0182657745 -0.018734619 0.0613372959
  endloop
 endfacet

 facet normal 0 0 0
  outer loop
  vertex -0.0314781107 0.0186085943 0.0614489578
  vertex -0.018320296 0.0184165388 0.0616006777
  vertex -0.0314371958 0.0188360307 0.0481494926
  endloop
 endfacet

 facet normal 0 0 0
  outer loop
  vertex -0.0314781107 0.0186085943 0.0614489578
  vertex -0.0314371958 0.0188360307 0.0481494926
  vertex -0.045191437 0.0173289757 0.0548586138
  endloop
 endfacet

 facet normal 0 0 0
  outer loop
  vertex -0.0314781107 0.0186085943 0.0614489578
  vertex -0.045191437 0.0123143382 0.0606651269
  vertex -0.0313981213 -0.0187967308 0.0611977875
  endloop
 endfacet

 facet normal 0 0 0
  outer loop
  vertex 0.0280010905 0.0121999364 0.034891285
  vertex 0.0280906148 0.0118038692 0.0364912823
  vertex -0.0182657745 -0.018734619 0.0613372959
  endloop
 endfacet

 facet normal 0 0 0
  outer loop
  vertex 0.0280010905 0.0121999364 0.034891285
  vertex -0.0182657745 -0.018734619 0.0613372959
  vertex -0.0319523029 -0.0183909051 0.0476100147
  endloop
 endfacet

 facet normal 0 0 0
  outer loop
  vertex 0.0280010905 0.0121999364 0.034891285
  vertex -0.045191437 0.0122988978 0.0470440537
  vertex -0.0314371958 0.0188360307 0.0481494926
  endloop
 endfacet

 facet normal 0 0 0
  outer loop
  vertex 0.0280010905 0.0121999364 0.034891285
  vertex -0.0314371958 0.0188360307 0.0481494926
  vertex -0.018320296 0.0184165388 0.0616006777
  endloop
 endfacet

 facet normal 0 0 0
  outer loop
  vertex 0.0280010905 0.0121999364 0.034891285
  vertex -0.018320296 0.0184165388 0.0616006777
  vertex 0.0280906148 0.0118038692 0.0364912823
  endloop
 endfacet

 facet normal 0 0 0
  outer loop
  vertex -0.045191437 0.0156629458 0.0492040366
  vertex -0.0472914316 0.0132943457 0.0526659489
  vertex -0.045191437 0.0173289757 0.0548586138
  endloop
 endfacet

 facet normal 0 0 0
  outer loop
  vertex -0.045191437 0.0156629458 0.0492040366
  vertex -0.045191437 0.0173289757 0.0548586138
  vertex -0.0314371958 0.0188360307 0.0481494926
  endloop
 endfacet

 facet normal 0 0 0
  outer loop
  vertex -0.045191437 0.0156629458 0.0492040366
  vertex -0.0314371958 0.0188360307 0.0481494926
  vertex -0.045191437 0.0122988978 0.0470440537
  endloop
 endfacet

 facet normal 0 0 0
  outer loop
  vertex -0.016141301 -1.19304457e-06 0.06165215
  vertex 0.0280906148 0.0118038692 0.0364912823
  vertex -0.018320296 0.0184165388 0.0616006777
  endloop
 endfacet

 facet normal 0 0 0
  outer loop
  vertex -0.0313981213 -0.0187967308 0.0611977875
  vertex -0.0182657745 -0.018734619 0.0613372959
  vertex -0.016141301 -1.19304457e-06 0.06165215
  endloop
 endfacet

 facet normal 0 0 0
  outer loop
  vertex -0.0313981213 -0.0187967308 0.0611977875
  vertex -0.016141301 -1.19304457e-06 0.06165215
  vertex -0.018320296 0.0184165388 0.0616006777
  endloop
 endfacet

 facet normal 0 0 0
  outer loop
  vertex -0.0313981213 -0.0187967308 0.0611977875
  vertex -0.018320296 0.0184165388 0.0616006777
  vertex -0.0314781107 0.0186085943 0.0614489578
  endloop
 endfacet

 facet normal 0 0 0
  outer loop
  vertex -0.016141301 -1.19304457e-06 0.06165215
  vertex -0.0182657745 -0.018734619 0.0613372959
  vertex 0.0280906148 0.0118038692 0.0364912823
  endloop
 endfacet

 facet normal 0 0 0
  outer loop
  vertex -0.0437914357 -0.0103005953 0.0599068664
  vertex -0.0313981213 -0.0187967308 0.0611977875
  vertex -0.045191437 0.0123143382 0.0606651269
  endloop
 endfacet

 facet normal 0 0 0
  outer loop
  vertex -0.045191437 0.0156734809 0.058497522
  vertex -0.045191437 0.0123143382 0.0606651269
  vertex -0.0314781107 0.0186085943 0.0614489578
  endloop
 endfacet

 facet normal 0 0 0
  outer loop
  vertex -0.045191437 0.0156734809 0.058497522
  vertex -0.0314781107 0.0186085943 0.0614489578
  vertex -0.045191437 0.0173289757 0.0548586138
  endloop
 endfacet

 facet normal 0 0 0
  outer loop
  vertex -0.0466164351 -0.0136945127 0.0501687154
  vertex -0.0319523029 -0.0183909051 0.0476100147
  vertex -0.0466164351 -0.0152440555 0.0530313477
  endloop
 endfacet

 facet normal 0 0 0
  outer loop
  vertex -0.0466164351 -0.0136945127 0.0501687154
  vertex -0.0466164351 -0.0107134376 0.048861444
  vertex -0.0319523029 -0.0183909051 0.0476100147
  endloop
 endfacet

 facet normal 0 0 0
  outer loop
  vertex -0.0472767465 0.0108000217 0.0499883182
  vertex -0.0472914316 0.0132943457 0.0526659489
  vertex -0.045191437 0.0156629458 0.0492040366
  endloop
 endfacet

 facet normal 0 0 0
  outer loop
  vertex -0.0472767465 0.0108000217 0.0499883182
  vertex -0.045191437 0.0156629458 0.0492040366
  vertex -0.045191437 0.0122988978 0.0470440537
  endloop
 endfacet

 facet normal 0 0 0
  outer loop
  vertex -0.0472767465 0.0108000217 0.0499883182
  vertex -0.045191437 0.0122988978 0.0470440537
  vertex -0.0466164351 -0.0107134376 0.048861444
  endloop
 endfacet

 facet normal 0 0 0
  outer loop
  vertex -0.0466164351 -0.010714421 0.0588522032
  vertex -0.0466164351 -0.0136952372 0.0575443506
  vertex -0.0313981213 -0.0187967308 0.0611977875
  endloop
 endfacet

 facet normal 0 0 0
  outer loop
  vertex -0.0466164351 -0.010714421 0.0588522032
  vertex -0.0313981213 -0.0187967308 0.0611977875
  vertex -0.0437914357 -0.0103005953 0.0599068664
  endloop
 endfacet

 facet normal 0 0 0
  outer loop
  vertex -0.0466164351 -0.010714421 0.0588522032
  vertex -0.0437914357 -0.0103005953 0.0599068664
  vertex -0.045191437 0.0123143382 0.0606651269
  endloop
 endfacet

 facet normal 0 0 0
  outer loop
  vertex -0.0466164351 -0.010714421 0.0588522032
  vertex -0.045191437 0.0123143382 0.0606651269
  vertex -0.0472767465 0.0107129421 0.0577347688
  endloop
 endfacet

 facet normal 0 0 0
  outer loop
  vertex -0.0466164351 -0.010714421 0.0588522032
  vertex -0.0472767465 0.0107129421 0.0577347688
  vertex -0.0466164351 -0.0136952372 0.0575443506
  endloop
 endfacet

 facet normal 0 0 0
  outer loop
  vertex -0.0321760103 -0.0103653856 0.0459333248
  vertex -0.0466164351 -0.0107134376 0.048861444
  vertex -0.045191437 0.0122988978 0.0470440537
  endloop
 endfacet

 facet normal 0 0 0
  outer loop
  vertex -0.0321760103 -0.0103653856 0.0459333248
  vertex -0.045191437 0.0122988978 0.0470440537
  vertex 0.0280010905 0.0121999364 0.034891285
  endloop
 endfacet

 facet normal 0 0 0
  outer loop
  vertex -0.0321760103 -0.0103653856 0.0459333248
  vertex 0.0280010905 0.0121999364 0.034891285
  vertex -0.0319523029 -0.0183909051 0.0476100147
  endloop
 endfacet

 facet normal 0 0 0
  outer loop
  vertex -0.0321760103 -0.0103653856 0.0459333248
  vertex -0.0319523029 -0.0183909051 0.0476100147
  vertex -0.0466164351 -0.0107134376 0.048861444
  endloop
 endfacet

 facet normal 0 0 0
  outer loop
  vertex -0.0472767465 0.0138706835 0.0554265156
  vertex -0.0472767465 0.0107129421 0.0577347688
  vertex -0.045191437 0.0123143382 0.0606651269
  endloop
 endfacet

 facet normal 0 0 0
  outer loop
  vertex -0.0472767465 0.0138706835 0.0554265156
  vertex -0.045191437 0.0123143382 0.0606651269
  vertex -0.045191437 0.0156734809 0.058497522
  endloop
 endfacet

 facet normal 0 0 0
  outer loop
  vertex -0.0472767465 0.0138706835 0.0554265156
  vertex -0.045191437 0.0156734809 0.058497522
  vertex -0.045191437 0.0173289757 0.0548586138
  endloop
 endfacet

 facet normal 0 0 0
  outer loop
  vertex -0.0472767465 0.0138706835 0.0554265156
  vertex -0.045191437 0.0173289757 0.0548586138
  vertex -0.0472914316 0.0132943457 0.0526659489
  endloop
 endfacet

endsolid AssimpScene
