solid AssimpScene
 facet normal 0 0 0
  outer loop
  vertex -0.029000001 -0.104850002 0.0131499991
  vertex -0.029000001 -0.10311795 0.0121499989
  vertex -0.029000001 -0.102850005 -0.0111499988
  endloop
 endfacet

 facet normal 0 0 0
  outer loop
  vertex -0.029000001 -0.104850002 0.0131499991
  vertex -0.029000001 -0.102850005 -0.0111499988
  vertex -0.029000001 -0.10385 -0.0128820501
  endloop
 endfacet

 facet normal 0 0 0
  outer loop
  vertex -0.029000001 -0.104850002 0.0131499991
  vertex -0.029000001 -0.10385 -0.0128820501
  vertex -0.029000001 -0.115149997 -0.0131499991
  endloop
 endfacet

 facet normal 0 0 0
  outer loop
  vertex -0.029000001 -0.104850002 0.0131499991
  vertex -0.029000001 -0.115149997 -0.0131499991
  vertex -0.029000001 -0.116882049 -0.0121499989
  endloop
 endfacet

 facet normal 0 0 0
  outer loop
  vertex -0.029000001 -0.104850002 0.0131499991
  vertex -0.029000001 -0.116882049 -0.0121499989
  vertex -0.029000001 -0.117150001 0.0111499988
  endloop
 endfacet

 facet normal 0 0 0
  outer loop
  vertex -0.029000001 -0.104850002 0.0131499991
  vertex -0.029000001 -0.117150001 0.0111499988
  vertex -0.029000001 -0.115149997 0.0131499991
  endloop
 endfacet

 facet normal 0 0 0
  outer loop
  vertex 0.0292928945 -0.116997764 0.0118571064
  vertex -0.029000001 -0.117150001 0.0111499988
  vertex -0.029000001 -0.116882049 -0.0121499989
  endloop
 endfacet

 facet normal 0 0 0
  outer loop
  vertex 0.0292928945 -0.116997764 0.0118571064
  vertex -0.029000001 -0.116882049 -0.0121499989
  vertex 0.0292928945 -0.116997764 -0.0118571064
  endloop
 endfacet

 facet normal 0 0 0
  outer loop
  vertex -0.029000001 -0.115149997 0.0131499991
  vertex -0.029000001 -0.117150001 0.0111499988
  vertex 0.0292928945 -0.116997764 0.0118571064
  endloop
 endfacet

 facet normal 0 0 0
  outer loop
  vertex 0.0310000014 -0.115149997 0.0111499988
  vertex 0.0292928945 -0.116997764 0.0118571064
  vertex 0.0292928945 -0.116997764 -0.0118571064
  endloop
 endfacet

 facet normal 0 0 0
  outer loop
  vertex 0.0310000014 -0.115149997 0.0111499988
  vertex 0.0292928945 -0.116997764 -0.0118571064
  vertex 0.0310000014 -0.115149997 -0.0111499988
  endloop
 endfacet

 facet normal 0 0 0
  outer loop
  vertex 0.0310000014 -0.104850002 -0.0111499988
  vertex 0.0310000014 -0.104850002 0.0111499988
  vertex 0.0310000014 -0.115149997 0.0111499988
  endloop
 endfacet

 facet normal 0 0 0
  outer loop
  vertex 0.0310000014 -0.104850002 -0.0111499988
  vertex 0.0310000014 -0.115149997 0.0111499988
  vertex 0.0310000014 -0.115149997 -0.0111499988
  endloop
 endfacet

 facet normal 0 0 0
  outer loop
  vertex 0.029000001 -0.104850002 -0.0131499991
  vertex -0.029000001 -0.10385 -0.0128820501
  vertex 0.0292928945 -0.103002243 -0.0118571064
  endloop
 endfacet

 facet normal 0 0 0
  outer loop
  vertex 0.029000001 -0.104850002 -0.0131499991
  vertex 0.0292928945 -0.103002243 -0.0118571064
  vertex 0.0310000014 -0.104850002 -0.0111499988
  endloop
 endfacet

 facet normal 0 0 0
  outer loop
  vertex 0.029000001 -0.115149997 -0.0131499991
  vertex 0.029000001 -0.104850002 -0.0131499991
  vertex 0.0310000014 -0.104850002 -0.0111499988
  endloop
 endfacet

 facet normal 0 0 0
  outer loop
  vertex 0.029000001 -0.115149997 -0.0131499991
  vertex 0.0310000014 -0.104850002 -0.0111499988
  vertex 0.0310000014 -0.115149997 -0.0111499988
  endloop
 endfacet

 facet normal 0 0 0
  outer loop
  vertex 0.029000001 -0.115149997 -0.0131499991
  vertex 0.0310000014 -0.115149997 -0.0111499988
  vertex 0.0292928945 -0.116997764 -0.0118571064
  endloop
 endfacet

 facet normal 0 0 0
  outer loop
  vertex 0.029000001 -0.115149997 -0.0131499991
  vertex 0.0292928945 -0.116997764 -0.0118571064
  vertex -0.029000001 -0.116882049 -0.0121499989
  endloop
 endfacet

 facet normal 0 0 0
  outer loop
  vertex 0.029000001 -0.115149997 0.0131499991
  vertex -0.029000001 -0.115149997 0.0131499991
  vertex 0.0292928945 -0.116997764 0.0118571064
  endloop
 endfacet

 facet normal 0 0 0
  outer loop
  vertex 0.029000001 -0.115149997 0.0131499991
  vertex 0.0292928945 -0.116997764 0.0118571064
  vertex 0.0310000014 -0.115149997 0.0111499988
  endloop
 endfacet

 facet normal 0 0 0
  outer loop
  vertex -0.029000001 -0.10311795 0.0121499989
  vertex 0.029000001 -0.102850005 0.0111499988
  vertex 0.0292928945 -0.103002243 -0.0118571064
  endloop
 endfacet

 facet normal 0 0 0
  outer loop
  vertex -0.029000001 -0.10311795 0.0121499989
  vertex 0.0292928945 -0.103002243 -0.0118571064
  vertex -0.029000001 -0.102850005 -0.0111499988
  endloop
 endfacet

 facet normal 0 0 0
  outer loop
  vertex -0.029000001 -0.102850005 -0.0111499988
  vertex 0.0292928945 -0.103002243 -0.0118571064
  vertex -0.029000001 -0.10385 -0.0128820501
  endloop
 endfacet

 facet normal 0 0 0
  outer loop
  vertex -0.029000001 -0.10385 -0.0128820501
  vertex 0.029000001 -0.104850002 -0.0131499991
  vertex 0.029000001 -0.115149997 -0.0131499991
  endloop
 endfacet

 facet normal 0 0 0
  outer loop
  vertex -0.029000001 -0.10385 -0.0128820501
  vertex 0.029000001 -0.115149997 -0.0131499991
  vertex -0.029000001 -0.115149997 -0.0131499991
  endloop
 endfacet

 facet normal 0 0 0
  outer loop
  vertex -0.029000001 -0.115149997 -0.0131499991
  vertex 0.029000001 -0.115149997 -0.0131499991
  vertex -0.029000001 -0.116882049 -0.0121499989
  endloop
 endfacet

 facet normal 0 0 0
  outer loop
  vertex -0.029000001 -0.104850002 0.0131499991
  vertex -0.029000001 -0.115149997 0.0131499991
  vertex 0.029000001 -0.115149997 0.0131499991
  endloop
 endfacet

 facet normal 0 0 0
  outer loop
  vertex -0.029000001 -0.104850002 0.0131499991
  vertex 0.029000001 -0.115149997 0.0131499991
  vertex 0.029000001 -0.104850002 0.0131499991
  endloop
 endfacet

 facet normal 0 0 0
  outer loop
  vertex -0.029000001 -0.104850002 0.0131499991
  vertex 0.029000001 -0.104850002 0.0131499991
  vertex -0.029000001 -0.10311795 0.0121499989
  endloop
 endfacet

 facet normal 0 0 0
  outer loop
  vertex 0.0300000031 -0.103435792 0.0121499989
  vertex 0.0310000014 -0.104850002 0.0111499988
  vertex 0.0310000014 -0.104850002 -0.0111499988
  endloop
 endfacet

 facet normal 0 0 0
  outer loop
  vertex 0.0300000031 -0.103435792 0.0121499989
  vertex 0.0310000014 -0.104850002 -0.0111499988
  vertex 0.0292928945 -0.103002243 -0.0118571064
  endloop
 endfacet

 facet normal 0 0 0
  outer loop
  vertex 0.0300000031 -0.103435792 0.0121499989
  vertex 0.0292928945 -0.103002243 -0.0118571064
  vertex 0.029000001 -0.102850005 0.0111499988
  endloop
 endfacet

 facet normal 0 0 0
  outer loop
  vertex 0.0300000031 -0.103435792 0.0121499989
  vertex 0.029000001 -0.102850005 0.0111499988
  vertex -0.029000001 -0.10311795 0.0121499989
  endloop
 endfacet

 facet normal 0 0 0
  outer loop
  vertex 0.0300000031 -0.103435792 0.0121499989
  vertex -0.029000001 -0.10311795 0.0121499989
  vertex 0.029000001 -0.104850002 0.0131499991
  endloop
 endfacet

 facet normal 0 0 0
  outer loop
  vertex 0.0300000031 -0.103435792 0.0121499989
  vertex 0.029000001 -0.104850002 0.0131499991
  vertex 0.029000001 -0.115149997 0.0131499991
  endloop
 endfacet

 facet normal 0 0 0
  outer loop
  vertex 0.0300000031 -0.103435792 0.0121499989
  vertex 0.029000001 -0.115149997 0.0131499991
  vertex 0.0310000014 -0.115149997 0.0111499988
  endloop
 endfacet

 facet normal 0 0 0
  outer loop
  vertex 0.0300000031 -0.103435792 0.0121499989
  vertex 0.0310000014 -0.115149997 0.0111499988
  vertex 0.0310000014 -0.104850002 0.0111499988
  endloop
 endfacet

endsolid AssimpScene
