solid AssimpScene
 facet normal 0 0 0
  outer loop
  vertex 0.172000006 0.0446354002 -0.0162459575
  vertex 0.172000006 0.0471788235 0.00551441405
  vertex 0.172000006 0.0446354002 0.0162459575
  endloop
 endfacet

 facet normal 0 0 0
  outer loop
  vertex 0.172000006 0.0446354002 -0.0162459575
  vertex 0.172000006 0.0446354002 0.0162459575
  vertex 0.172000006 0.0325964764 0.0345502533
  endloop
 endfacet

 facet normal 0 0 0
  outer loop
  vertex 0.172000006 0.0446354002 -0.0162459575
  vertex 0.172000006 0.0325964764 0.0345502533
  vertex 0.172000006 0.0136231538 0.045504503
  endloop
 endfacet

 facet normal 0 0 0
  outer loop
  vertex 0.172000006 0.0446354002 -0.0162459575
  vertex 0.172000006 0.0136231538 0.045504503
  vertex 0.172000006 -0.00824828818 0.0467783697
  endloop
 endfacet

 facet normal 0 0 0
  outer loop
  vertex 0.172000006 0.0446354002 -0.0162459575
  vertex 0.172000006 -0.00824828818 0.0467783697
  vertex 0.172000006 -0.0283650327 0.0381008498
  endloop
 endfacet

 facet normal 0 0 0
  outer loop
  vertex 0.172000006 0.0446354002 -0.0162459575
  vertex 0.172000006 -0.0283650327 0.0381008498
  vertex 0.172000006 -0.036387112 0.0305324141
  endloop
 endfacet

 facet normal 0 0 0
  outer loop
  vertex 0.172000006 0.0446354002 -0.0162459575
  vertex 0.172000006 -0.036387112 0.0305324141
  vertex 0.172000006 -0.0424475521 0.0213179607
  endloop
 endfacet

 facet normal 0 0 0
  outer loop
  vertex 0.172000006 0.0446354002 -0.0162459575
  vertex 0.172000006 -0.0424475521 0.0213179607
  vertex 0.172000006 -0.0474999994 1.90958367e-17
  endloop
 endfacet

 facet normal 0 0 0
  outer loop
  vertex 0.172000006 0.0446354002 -0.0162459575
  vertex 0.172000006 -0.0474999994 1.90958367e-17
  vertex 0.172000006 -0.0424475521 -0.0213179607
  endloop
 endfacet

 facet normal 0 0 0
  outer loop
  vertex 0.172000006 0.0446354002 -0.0162459575
  vertex 0.172000006 -0.0424475521 -0.0213179607
  vertex 0.172000006 -0.0283650327 -0.0381008498
  endloop
 endfacet

 facet normal 0 0 0
  outer loop
  vertex 0.172000006 0.0446354002 -0.0162459575
  vertex 0.172000006 -0.0283650327 -0.0381008498
  vertex 0.172000006 -0.00824828818 -0.0467783697
  endloop
 endfacet

 facet normal 0 0 0
  outer loop
  vertex 0.172000006 0.0446354002 -0.0162459575
  vertex 0.172000006 -0.00824828818 -0.0467783697
  vertex 0.172000006 0.0136231538 -0.045504503
  endloop
 endfacet

 facet normal 0 0 0
  outer loop
  vertex 0.172000006 0.0446354002 -0.0162459575
  vertex 0.172000006 0.0136231538 -0.045504503
  vertex 0.172000006 0.0237499997 -0.0411362089
  endloop
 endfacet

 facet normal 0 0 0
  outer loop
  vertex 0.172000006 0.0446354002 -0.0162459575
  vertex 0.172000006 0.0237499997 -0.0411362089
  vertex 0.172000006 0.0396856703 -0.0261016786
  endloop
 endfacet

 facet normal 0 0 0
  outer loop
  vertex -0.00627170783 -0.000500000024 0.0596713126
  vertex 0.169499993 -9.55224532e-18 0.0520000048
  vertex 0.00627170783 0.0579999983 0.0596713126
  endloop
 endfacet

 facet normal 0 0 0
  outer loop
  vertex -0.0299999993 -0.000500000024 0.0519615225
  vertex -0.0299999993 0.0579999983 0.0519615225
  vertex -0.0401478373 0.0579999983 0.0445886925
  endloop
 endfacet

 facet normal 0 0 0
  outer loop
  vertex -0.0299999993 -0.000500000024 0.0519615225
  vertex -0.0401478373 0.0579999983 0.0445886925
  vertex -0.0398132727 -0.00100000005 0.0442171171
  endloop
 endfacet

 facet normal 0 0 0
  outer loop
  vertex -0.0299999993 -0.000500000024 0.0519615225
  vertex -0.0398132727 -0.00100000005 0.0442171171
  vertex 0.114330918 -0.0501979552 0.0114573566
  endloop
 endfacet

 facet normal 0 0 0
  outer loop
  vertex -0.0299999993 -0.000500000024 0.0519615225
  vertex 0.114330918 -0.0501979552 0.0114573566
  vertex 0.118213207 -0.0490819328 0.0171745121
  endloop
 endfacet

 facet normal 0 0 0
  outer loop
  vertex -0.0599999987 -0.000500000024 -2.33146844e-17
  vertex -0.0586888567 -0.000500000024 -0.0124747027
  vertex 0.114330918 -0.0514888875 2.53044227e-17
  endloop
 endfacet

 facet normal 0 0 0
  outer loop
  vertex -0.0599999987 -0.000500000024 -2.33146844e-17
  vertex -0.0599999987 0.0579999983 -1.40092185e-17
  vertex -0.0586888567 0.0579999983 -0.0124747027
  endloop
 endfacet

 facet normal 0 0 0
  outer loop
  vertex -0.0599999987 -0.000500000024 -2.33146844e-17
  vertex -0.0586888567 0.0579999983 -0.0124747027
  vertex -0.0586888567 -0.000500000024 -0.0124747027
  endloop
 endfacet

 facet normal 0 0 0
  outer loop
  vertex 0.169499993 0.0468503796 0.0225619543
  vertex 0.0214854609 0.0702880472 0.0489819236
  vertex 0.169499993 0.0406552367 0.0324214697
  endloop
 endfacet

 facet normal 0 0 0
  outer loop
  vertex 0.118213207 -0.0324214697 -0.0406552367
  vertex 0.169499993 -0.0406552367 -0.0324214697
  vertex 0.118213207 -0.0440296568 -0.0276656672
  endloop
 endfacet

 facet normal 0 0 0
  outer loop
  vertex 0.118213207 -0.0324214697 -0.0406552367
  vertex 0.118213207 -0.0440296568 -0.0276656672
  vertex -0.00627170783 -0.000500000024 -0.0596713126
  endloop
 endfacet

 facet normal 0 0 0
  outer loop
  vertex -0.00627170783 -0.000500000024 -0.0596713126
  vertex 0.169499993 -0.0225619543 -0.0468503833
  vertex 0.169499993 -0.0324214697 -0.0406552367
  endloop
 endfacet

 facet normal 0 0 0
  outer loop
  vertex -0.00627170783 -0.000500000024 -0.0596713126
  vertex 0.169499993 -0.0324214697 -0.0406552367
  vertex 0.118213207 -0.0324214697 -0.0406552367
  endloop
 endfacet

 facet normal 0 0 0
  outer loop
  vertex 0.118213207 -0.0506962501 -0.0115710897
  vertex 0.114330918 -0.0514888875 2.53044227e-17
  vertex -0.0548127256 -0.000500000024 -0.0244041998
  endloop
 endfacet

 facet normal 0 0 0
  outer loop
  vertex 0.118213207 -0.0506962501 -0.0115710897
  vertex -0.0548127256 -0.000500000024 -0.0244041998
  vertex -0.0485410206 -0.000500000024 -0.0352671146
  endloop
 endfacet

 facet normal 0 0 0
  outer loop
  vertex 0.0522004254 0.0705000013 -0.00432545133
  vertex 0.169499993 0.0520000011 1.88182795e-17
  vertex 0.169499993 0.0506962501 -0.0115710897
  endloop
 endfacet

 facet normal 0 0 0
  outer loop
  vertex 0.0522004254 0.0705000013 -0.00432545133
  vertex 0.169499993 0.0506962501 -0.0115710897
  vertex 0.0422087163 0.0702880472 -0.0328523628
  endloop
 endfacet

 facet normal 0 0 0
  outer loop
  vertex -0.0461264104 0.0687678605 0.0301358867
  vertex -0.036869891 0.0696821213 0.0400513783
  vertex -0.0479675904 0.0705000013 0.0210405383
  endloop
 endfacet

 facet normal 0 0 0
  outer loop
  vertex 0.169499993 3.18408163e-18 -0.0520000048
  vertex -0.00627170783 -0.000500000024 -0.0596713126
  vertex -0.00627170783 0.0579999983 -0.0596713126
  endloop
 endfacet

 facet normal 0 0 0
  outer loop
  vertex 0.169499993 3.18408163e-18 -0.0520000048
  vertex -0.00627170783 0.0579999983 -0.0596713126
  vertex 0.00627170783 0.0579999983 -0.0596713126
  endloop
 endfacet

 facet normal 0 0 0
  outer loop
  vertex 0.043850217 0.0705000013 0.0286487788
  vertex 0.169499993 0.0520000011 1.88182795e-17
  vertex 0.0522004254 0.0705000013 -0.00432545133
  endloop
 endfacet

 facet normal 0 0 0
  outer loop
  vertex -0.0401478373 -0.000500000024 -0.0445886925
  vertex -0.0401478373 0.0579999983 -0.0445886925
  vertex -0.0299999993 0.0579999983 -0.0519615225
  endloop
 endfacet

 facet normal 0 0 0
  outer loop
  vertex -0.0401478373 -0.000500000024 -0.0445886925
  vertex -0.0299999993 0.0579999983 -0.0519615225
  vertex -0.0297500025 -0.00100000005 -0.0515285097
  endloop
 endfacet

 facet normal 0 0 0
  outer loop
  vertex -0.0401478373 -0.000500000024 -0.0445886925
  vertex -0.0297500025 -0.00100000005 -0.0515285097
  vertex 0.114330918 -0.0463898852 -0.0223401915
  endloop
 endfacet

 facet normal 0 0 0
  outer loop
  vertex -0.0401478373 -0.000500000024 -0.0445886925
  vertex 0.114330918 -0.0463898852 -0.0223401915
  vertex 0.118213207 -0.0506962501 -0.0115710897
  endloop
 endfacet

 facet normal 0 0 0
  outer loop
  vertex -0.0401478373 -0.000500000024 -0.0445886925
  vertex 0.118213207 -0.0506962501 -0.0115710897
  vertex -0.0485410206 -0.000500000024 -0.0352671146
  endloop
 endfacet

 facet normal 0 0 0
  outer loop
  vertex -0.0398132727 -0.00100000005 0.0442171171
  vertex -0.0401478373 0.0579999983 0.0445886925
  vertex -0.0485410206 0.0579999983 0.0352671146
  endloop
 endfacet

 facet normal 0 0 0
  outer loop
  vertex -0.0398132727 -0.00100000005 0.0442171171
  vertex -0.0485410206 0.0579999983 0.0352671146
  vertex -0.0485410206 -0.000500000024 0.0352671146
  endloop
 endfacet

 facet normal 0 0 0
  outer loop
  vertex -0.0297500025 -0.00100000005 -0.0515285097
  vertex -0.0299999993 0.0579999983 -0.0519615225
  vertex -0.0185410194 0.0579999983 -0.0570633933
  endloop
 endfacet

 facet normal 0 0 0
  outer loop
  vertex -0.0297500025 -0.00100000005 -0.0515285097
  vertex -0.0185410194 0.0579999983 -0.0570633933
  vertex -0.0185410194 -0.000500000024 -0.0570633933
  endloop
 endfacet

 facet normal 0 0 0
  outer loop
  vertex -0.0185410194 -0.000500000024 -0.0570633933
  vertex -0.00627170783 -0.000500000024 -0.0596713126
  vertex 0.118213207 -0.0440296568 -0.0276656672
  endloop
 endfacet

 facet normal 0 0 0
  outer loop
  vertex -0.0178903732 0.0687678605 -0.0521128774
  vertex -0.0254569724 0.0702880472 -0.0470403656
  vertex -0.00449545868 0.0696821213 -0.0542521216
  endloop
 endfacet

 facet normal 0 0 0
  outer loop
  vertex -0.00449545868 0.0696821213 -0.0542521216
  vertex -0.00627170783 0.0579999983 -0.0596713126
  vertex -0.0185410194 0.0579999983 -0.0570633933
  endloop
 endfacet

 facet normal 0 0 0
  outer loop
  vertex -0.00449545868 0.0696821213 -0.0542521216
  vertex -0.0185410194 0.0579999983 -0.0570633933
  vertex -0.0178903732 0.0687678605 -0.0521128774
  endloop
 endfacet

 facet normal 0 0 0
  outer loop
  vertex -0.0521128774 0.0687678605 0.0178903732
  vertex -0.0548127256 0.0579999983 0.0244041998
  vertex -0.0461264104 0.0687678605 0.0301358867
  endloop
 endfacet

 facet normal 0 0 0
  outer loop
  vertex -0.0521128774 0.0687678605 0.0178903732
  vertex -0.0461264104 0.0687678605 0.0301358867
  vertex -0.0479675904 0.0705000013 0.0210405383
  endloop
 endfacet

 facet normal 0 0 0
  outer loop
  vertex -0.0521128774 0.0687678605 0.0178903732
  vertex -0.0479675904 0.0705000013 0.0210405383
  vertex -0.0542521216 0.0696821213 0.00449545914
  endloop
 endfacet

 facet normal 0 0 0
  outer loop
  vertex 0.172000006 -0.0424475521 -0.0213179607
  vertex 0.169499993 -0.0406552367 -0.0324214697
  vertex 0.172000006 -0.0283650327 -0.0381008498
  endloop
 endfacet

 facet normal 0 0 0
  outer loop
  vertex 0.172000006 -0.0424475521 -0.0213179607
  vertex 0.172000006 -0.0474999994 1.90958367e-17
  vertex 0.169499993 -0.0506962501 -0.0115710897
  endloop
 endfacet

 facet normal 0 0 0
  outer loop
  vertex 0.172000006 -0.00824828818 -0.0467783697
  vertex 0.172000006 -0.0283650327 -0.0381008498
  vertex 0.169499993 -0.0225619543 -0.0468503833
  endloop
 endfacet

 facet normal 0 0 0
  outer loop
  vertex 0.172000006 -0.00824828818 -0.0467783697
  vertex 0.169499993 3.18408163e-18 -0.0520000048
  vertex 0.172000006 0.0136231538 -0.045504503
  endloop
 endfacet

 facet normal 0 0 0
  outer loop
  vertex 0.172000006 0.0136231538 0.045504503
  vertex 0.172000006 0.0325964764 0.0345502533
  vertex 0.169499993 0.0324214697 0.0406552367
  endloop
 endfacet

 facet normal 0 0 0
  outer loop
  vertex 0.172000006 0.0136231538 0.045504503
  vertex 0.169499993 0.0324214697 0.0406552367
  vertex 0.169499993 0.0225619543 0.0468503833
  endloop
 endfacet

 facet normal 0 0 0
  outer loop
  vertex 0.172000006 0.0136231538 0.045504503
  vertex 0.169499993 -9.55224532e-18 0.0520000048
  vertex 0.172000006 -0.00824828818 0.0467783697
  endloop
 endfacet

 facet normal 0 0 0
  outer loop
  vertex 0.114330918 -0.0435968898 0.0273937415
  vertex -0.0185410194 -0.000500000024 0.0570633933
  vertex -0.0299999993 -0.000500000024 0.0519615225
  endloop
 endfacet

 facet normal 0 0 0
  outer loop
  vertex 0.114330918 -0.0435968898 0.0273937415
  vertex -0.0299999993 -0.000500000024 0.0519615225
  vertex 0.118213207 -0.0490819328 0.0171745121
  endloop
 endfacet

 facet normal 0 0 0
  outer loop
  vertex 0.114330918 -0.0435968898 0.0273937415
  vertex 0.169499993 -0.0406552367 0.0324214697
  vertex 0.118213207 -0.036769554 0.0367695577
  endloop
 endfacet

 facet normal 0 0 0
  outer loop
  vertex 0.118213207 -0.036769554 0.0367695577
  vertex -0.00627170783 -0.000500000024 0.0596713126
  vertex -0.0185410194 -0.000500000024 0.0570633933
  endloop
 endfacet

 facet normal 0 0 0
  outer loop
  vertex 0.118213207 -0.036769554 0.0367695577
  vertex -0.0185410194 -0.000500000024 0.0570633933
  vertex 0.114330918 -0.0435968898 0.0273937415
  endloop
 endfacet

 facet normal 0 0 0
  outer loop
  vertex -0.0586888567 -0.000500000024 0.0124747027
  vertex -0.0599999987 -0.000500000024 -2.33146844e-17
  vertex 0.114330918 -0.0514888875 2.53044227e-17
  endloop
 endfacet

 facet normal 0 0 0
  outer loop
  vertex -0.0586888567 -0.000500000024 0.0124747027
  vertex 0.114330918 -0.0514888875 2.53044227e-17
  vertex 0.114330918 -0.0501979552 0.0114573566
  endloop
 endfacet

 facet normal 0 0 0
  outer loop
  vertex -0.0586888567 -0.000500000024 0.0124747027
  vertex 0.114330918 -0.0501979552 0.0114573566
  vertex -0.0548127256 -0.000500000024 0.0244041998
  endloop
 endfacet

 facet normal 0 0 0
  outer loop
  vertex -0.0548127256 0.0579999983 -0.0244041998
  vertex -0.0586888567 0.0579999983 -0.0124747027
  vertex -0.0543467849 0.0687678605 -0.00906887557
  endloop
 endfacet

 facet normal 0 0 0
  outer loop
  vertex -0.0548127256 0.0579999983 -0.0244041998
  vertex -0.0543467849 0.0687678605 -0.00906887557
  vertex -0.0514884479 0.0696821213 -0.017676007
  endloop
 endfacet

 facet normal 0 0 0
  outer loop
  vertex -0.0299999993 0.0579999983 0.0519615225
  vertex -0.0299999993 -0.000500000024 0.0519615225
  vertex -0.0185410194 -0.000500000024 0.0570633933
  endloop
 endfacet

 facet normal 0 0 0
  outer loop
  vertex -0.0299999993 0.0579999983 0.0519615225
  vertex -0.0185410194 -0.000500000024 0.0570633933
  vertex -0.0185410194 0.0579999983 0.0570633933
  endloop
 endfacet

 facet normal 0 0 0
  outer loop
  vertex -0.0185410194 0.0579999983 -0.0570633933
  vertex -0.00627170783 0.0579999983 -0.0596713126
  vertex -0.00627170783 -0.000500000024 -0.0596713126
  endloop
 endfacet

 facet normal 0 0 0
  outer loop
  vertex -0.0185410194 0.0579999983 -0.0570633933
  vertex -0.00627170783 -0.000500000024 -0.0596713126
  vertex -0.0185410194 -0.000500000024 -0.0570633933
  endloop
 endfacet

 facet normal 0 0 0
  outer loop
  vertex -0.0185410194 0.0579999983 -0.0570633933
  vertex -0.0299999993 0.0579999983 -0.0519615225
  vertex -0.0178903732 0.0687678605 -0.0521128774
  endloop
 endfacet

 facet normal 0 0 0
  outer loop
  vertex -0.0586888567 0.0579999983 0.0124747027
  vertex -0.0599999987 0.0579999983 -1.40092185e-17
  vertex -0.0599999987 -0.000500000024 -2.33146844e-17
  endloop
 endfacet

 facet normal 0 0 0
  outer loop
  vertex -0.0586888567 0.0579999983 0.0124747027
  vertex -0.0599999987 -0.000500000024 -2.33146844e-17
  vertex -0.0586888567 -0.000500000024 0.0124747027
  endloop
 endfacet

 facet normal 0 0 0
  outer loop
  vertex -0.0586888567 0.0579999983 0.0124747027
  vertex -0.0586888567 -0.000500000024 0.0124747027
  vertex -0.0548127256 -0.000500000024 0.0244041998
  endloop
 endfacet

 facet normal 0 0 0
  outer loop
  vertex -0.0586888567 0.0579999983 0.0124747027
  vertex -0.0548127256 -0.000500000024 0.0244041998
  vertex -0.0548127256 0.0579999983 0.0244041998
  endloop
 endfacet

 facet normal 0 0 0
  outer loop
  vertex -0.0586888567 0.0579999983 0.0124747027
  vertex -0.0548127256 0.0579999983 0.0244041998
  vertex -0.0521128774 0.0687678605 0.0178903732
  endloop
 endfacet

 facet normal 0 0 0
  outer loop
  vertex -0.0586888567 0.0579999983 0.0124747027
  vertex -0.0521128774 0.0687678605 0.0178903732
  vertex -0.0542521216 0.0696821213 0.00449545914
  endloop
 endfacet

 facet normal 0 0 0
  outer loop
  vertex -0.0586888567 0.0579999983 0.0124747027
  vertex -0.0542521216 0.0696821213 0.00449545914
  vertex -0.0599999987 0.0579999983 -1.40092185e-17
  endloop
 endfacet

 facet normal 0 0 0
  outer loop
  vertex -0.00627170783 0.0579999983 0.0596713126
  vertex -0.0185410194 0.0579999983 0.0570633933
  vertex -0.0185410194 -0.000500000024 0.0570633933
  endloop
 endfacet

 facet normal 0 0 0
  outer loop
  vertex -0.00627170783 0.0579999983 0.0596713126
  vertex -0.0185410194 -0.000500000024 0.0570633933
  vertex -0.00627170783 -0.000500000024 0.0596713126
  endloop
 endfacet

 facet normal 0 0 0
  outer loop
  vertex -0.00627170783 0.0579999983 0.0596713126
  vertex -0.00627170783 -0.000500000024 0.0596713126
  vertex 0.00627170783 0.0579999983 0.0596713126
  endloop
 endfacet

 facet normal 0 0 0
  outer loop
  vertex -0.0401478373 0.0579999983 -0.0445886925
  vertex -0.0401478373 -0.000500000024 -0.0445886925
  vertex -0.0485410206 -0.000500000024 -0.0352671146
  endloop
 endfacet

 facet normal 0 0 0
  outer loop
  vertex -0.0401478373 0.0579999983 -0.0445886925
  vertex -0.0485410206 -0.000500000024 -0.0352671146
  vertex -0.0485410206 0.0579999983 -0.0352671146
  endloop
 endfacet

 facet normal 0 0 0
  outer loop
  vertex -0.0401478373 0.0579999983 -0.0445886925
  vertex -0.0485410206 0.0579999983 -0.0352671146
  vertex -0.0461264104 0.0687678605 -0.0301358867
  endloop
 endfacet

 facet normal 0 0 0
  outer loop
  vertex -0.0401478373 0.0579999983 -0.0445886925
  vertex -0.0461264104 0.0687678605 -0.0301358867
  vertex -0.0400513783 0.0696821213 -0.036869891
  endloop
 endfacet

 facet normal 0 0 0
  outer loop
  vertex -0.0485410206 0.0579999983 0.0352671146
  vertex -0.0548127256 0.0579999983 0.0244041998
  vertex -0.0548127256 -0.000500000024 0.0244041998
  endloop
 endfacet

 facet normal 0 0 0
  outer loop
  vertex -0.0485410206 0.0579999983 0.0352671146
  vertex -0.0548127256 -0.000500000024 0.0244041998
  vertex -0.0485410206 -0.000500000024 0.0352671146
  endloop
 endfacet

 facet normal 0 0 0
  outer loop
  vertex -0.0485410206 0.0579999983 0.0352671146
  vertex -0.0401478373 0.0579999983 0.0445886925
  vertex -0.036869891 0.0696821213 0.0400513783
  endloop
 endfacet

 facet normal 0 0 0
  outer loop
  vertex -0.0485410206 0.0579999983 0.0352671146
  vertex -0.036869891 0.0696821213 0.0400513783
  vertex -0.0461264104 0.0687678605 0.0301358867
  endloop
 endfacet

 facet normal 0 0 0
  outer loop
  vertex -0.0485410206 0.0579999983 0.0352671146
  vertex -0.0461264104 0.0687678605 0.0301358867
  vertex -0.0548127256 0.0579999983 0.0244041998
  endloop
 endfacet

 facet normal 0 0 0
  outer loop
  vertex -0.0548127256 -0.000500000024 -0.0244041998
  vertex -0.0586888567 -0.000500000024 -0.0124747027
  vertex -0.0586888567 0.0579999983 -0.0124747027
  endloop
 endfacet

 facet normal 0 0 0
  outer loop
  vertex -0.0548127256 -0.000500000024 -0.0244041998
  vertex -0.0586888567 0.0579999983 -0.0124747027
  vertex -0.0548127256 0.0579999983 -0.0244041998
  endloop
 endfacet

 facet normal 0 0 0
  outer loop
  vertex -0.0548127256 -0.000500000024 -0.0244041998
  vertex -0.0548127256 0.0579999983 -0.0244041998
  vertex -0.0485410206 0.0579999983 -0.0352671146
  endloop
 endfacet

 facet normal 0 0 0
  outer loop
  vertex -0.0548127256 -0.000500000024 -0.0244041998
  vertex -0.0485410206 0.0579999983 -0.0352671146
  vertex -0.0485410206 -0.000500000024 -0.0352671146
  endloop
 endfacet

 facet normal 0 0 0
  outer loop
  vertex -0.0548127256 -0.000500000024 -0.0244041998
  vertex 0.114330918 -0.0514888875 2.53044227e-17
  vertex -0.0586888567 -0.000500000024 -0.0124747027
  endloop
 endfacet

 facet normal 0 0 0
  outer loop
  vertex 0.114330918 -0.0514888875 2.53044227e-17
  vertex 0.118213207 -0.0506962501 -0.0115710897
  vertex 0.169499993 -0.0506962501 -0.0115710897
  endloop
 endfacet

 facet normal 0 0 0
  outer loop
  vertex 0.114330918 -0.0514888875 2.53044227e-17
  vertex 0.169499993 -0.0506962501 -0.0115710897
  vertex 0.169499993 -0.0520000011 1.24501171e-17
  endloop
 endfacet

 facet normal 0 0 0
  outer loop
  vertex 0.169499993 -0.0520000011 1.24501171e-17
  vertex 0.169499993 -0.0506962501 -0.0115710897
  vertex 0.172000006 -0.0474999994 1.90958367e-17
  endloop
 endfacet

 facet normal 0 0 0
  outer loop
  vertex 0.169499993 -0.0520000011 1.24501171e-17
  vertex 0.172000006 -0.0474999994 1.90958367e-17
  vertex 0.169499993 -0.0506962501 0.0115710897
  endloop
 endfacet

 facet normal 0 0 0
  outer loop
  vertex 0.169499993 -0.0468503796 0.0225619543
  vertex 0.169499993 -0.0406552367 0.0324214697
  vertex 0.114330918 -0.0435968898 0.0273937415
  endloop
 endfacet

 facet normal 0 0 0
  outer loop
  vertex 0.169499993 -0.0468503796 0.0225619543
  vertex 0.114330918 -0.0435968898 0.0273937415
  vertex 0.118213207 -0.0490819328 0.0171745121
  endloop
 endfacet

 facet normal 0 0 0
  outer loop
  vertex 0.169499993 -0.0468503796 0.0225619543
  vertex 0.118213207 -0.0490819328 0.0171745121
  vertex 0.169499993 -0.0506962501 0.0115710897
  endloop
 endfacet

 facet normal 0 0 0
  outer loop
  vertex 0.169499993 -0.0468503796 -0.0225619543
  vertex 0.169499993 -0.0406552367 -0.0324214697
  vertex 0.172000006 -0.0424475521 -0.0213179607
  endloop
 endfacet

 facet normal 0 0 0
  outer loop
  vertex 0.169499993 -0.0468503796 -0.0225619543
  vertex 0.172000006 -0.0424475521 -0.0213179607
  vertex 0.169499993 -0.0506962501 -0.0115710897
  endloop
 endfacet

 facet normal 0 0 0
  outer loop
  vertex 0.169499993 -0.0468503796 -0.0225619543
  vertex 0.169499993 -0.0506962501 -0.0115710897
  vertex 0.118213207 -0.0506962501 -0.0115710897
  endloop
 endfacet

 facet normal 0 0 0
  outer loop
  vertex 0.169499993 -0.0468503796 -0.0225619543
  vertex 0.118213207 -0.0440296568 -0.0276656672
  vertex 0.169499993 -0.0406552367 -0.0324214697
  endloop
 endfacet

 facet normal 0 0 0
  outer loop
  vertex 0.169499993 -0.0406552367 0.0324214697
  vertex 0.172000006 -0.036387112 0.0305324141
  vertex 0.172000006 -0.0283650327 0.0381008498
  endloop
 endfacet

 facet normal 0 0 0
  outer loop
  vertex 0.169499993 -0.0406552367 0.0324214697
  vertex 0.172000006 -0.0283650327 0.0381008498
  vertex 0.169499993 -0.0324214697 0.0406552367
  endloop
 endfacet

 facet normal 0 0 0
  outer loop
  vertex 0.169499993 -0.0324214697 0.0406552367
  vertex 0.118213207 -0.036769554 0.0367695577
  vertex 0.169499993 -0.0406552367 0.0324214697
  endloop
 endfacet

 facet normal 0 0 0
  outer loop
  vertex 0.169499993 -0.0324214697 -0.0406552367
  vertex 0.169499993 -0.0406552367 -0.0324214697
  vertex 0.118213207 -0.0324214697 -0.0406552367
  endloop
 endfacet

 facet normal 0 0 0
  outer loop
  vertex 0.169499993 -0.0324214697 -0.0406552367
  vertex 0.169499993 -0.0225619543 -0.0468503833
  vertex 0.172000006 -0.0283650327 -0.0381008498
  endloop
 endfacet

 facet normal 0 0 0
  outer loop
  vertex 0.169499993 -0.0324214697 -0.0406552367
  vertex 0.172000006 -0.0283650327 -0.0381008498
  vertex 0.169499993 -0.0406552367 -0.0324214697
  endloop
 endfacet

 facet normal 0 0 0
  outer loop
  vertex 0.169499993 -0.0115710888 -0.0506962538
  vertex 0.169499993 3.18408163e-18 -0.0520000048
  vertex 0.172000006 -0.00824828818 -0.0467783697
  endloop
 endfacet

 facet normal 0 0 0
  outer loop
  vertex 0.169499993 -0.0115710888 -0.0506962538
  vertex 0.172000006 -0.00824828818 -0.0467783697
  vertex 0.169499993 -0.0225619543 -0.0468503833
  endloop
 endfacet

 facet normal 0 0 0
  outer loop
  vertex 0.169499993 -0.0115710888 -0.0506962538
  vertex 0.169499993 -0.0225619543 -0.0468503833
  vertex -0.00627170783 -0.000500000024 -0.0596713126
  endloop
 endfacet

 facet normal 0 0 0
  outer loop
  vertex 0.169499993 -0.0115710888 -0.0506962538
  vertex -0.00627170783 -0.000500000024 -0.0596713126
  vertex 0.169499993 3.18408163e-18 -0.0520000048
  endloop
 endfacet

 facet normal 0 0 0
  outer loop
  vertex 0.169499993 -0.0115710888 0.0506962538
  vertex -0.00627170783 -0.000500000024 0.0596713126
  vertex 0.169499993 -0.0225619543 0.0468503833
  endloop
 endfacet

 facet normal 0 0 0
  outer loop
  vertex 0.169499993 -0.0115710888 0.0506962538
  vertex 0.169499993 -0.0225619543 0.0468503833
  vertex 0.172000006 -0.00824828818 0.0467783697
  endloop
 endfacet

 facet normal 0 0 0
  outer loop
  vertex 0.169499993 -0.0115710888 0.0506962538
  vertex 0.172000006 -0.00824828818 0.0467783697
  vertex 0.169499993 -9.55224532e-18 0.0520000048
  endloop
 endfacet

 facet normal 0 0 0
  outer loop
  vertex 0.169499993 -0.0115710888 0.0506962538
  vertex 0.169499993 -9.55224532e-18 0.0520000048
  vertex -0.00627170783 -0.000500000024 0.0596713126
  endloop
 endfacet

 facet normal 0 0 0
  outer loop
  vertex 0.169499993 0.0115710888 0.0506962538
  vertex 0.169499993 -9.55224532e-18 0.0520000048
  vertex 0.172000006 0.0136231538 0.045504503
  endloop
 endfacet

 facet normal 0 0 0
  outer loop
  vertex 0.169499993 0.0115710888 0.0506962538
  vertex 0.172000006 0.0136231538 0.045504503
  vertex 0.169499993 0.0225619543 0.0468503833
  endloop
 endfacet

 facet normal 0 0 0
  outer loop
  vertex 0.169499993 0.0115710888 0.0506962538
  vertex 0.169499993 0.0225619543 0.0468503833
  vertex 0.00627170783 0.0579999983 0.0596713126
  endloop
 endfacet

 facet normal 0 0 0
  outer loop
  vertex 0.169499993 0.0115710888 0.0506962538
  vertex 0.00627170783 0.0579999983 0.0596713126
  vertex 0.169499993 -9.55224532e-18 0.0520000048
  endloop
 endfacet

 facet normal 0 0 0
  outer loop
  vertex 0.169499993 0.0115710888 -0.0506962538
  vertex 0.169499993 3.18408163e-18 -0.0520000048
  vertex 0.00627170783 0.0579999983 -0.0596713126
  endloop
 endfacet

 facet normal 0 0 0
  outer loop
  vertex 0.169499993 0.0115710888 -0.0506962538
  vertex 0.00627170783 0.0579999983 -0.0596713126
  vertex 0.169499993 0.0225619543 -0.0468503833
  endloop
 endfacet

 facet normal 0 0 0
  outer loop
  vertex 0.169499993 0.0115710888 -0.0506962538
  vertex 0.169499993 0.0225619543 -0.0468503833
  vertex 0.172000006 0.0136231538 -0.045504503
  endloop
 endfacet

 facet normal 0 0 0
  outer loop
  vertex 0.169499993 0.0115710888 -0.0506962538
  vertex 0.172000006 0.0136231538 -0.045504503
  vertex 0.169499993 3.18408163e-18 -0.0520000048
  endloop
 endfacet

 facet normal 0 0 0
  outer loop
  vertex 0.169499993 0.0506962501 0.0115710897
  vertex 0.169499993 0.0520000011 1.88182795e-17
  vertex 0.043850217 0.0705000013 0.0286487788
  endloop
 endfacet

 facet normal 0 0 0
  outer loop
  vertex 0.169499993 0.0506962501 0.0115710897
  vertex 0.043850217 0.0705000013 0.0286487788
  vertex 0.0214854609 0.0702880472 0.0489819236
  endloop
 endfacet

 facet normal 0 0 0
  outer loop
  vertex 0.169499993 0.0506962501 0.0115710897
  vertex 0.0214854609 0.0702880472 0.0489819236
  vertex 0.169499993 0.0468503796 0.0225619543
  endloop
 endfacet

 facet normal 0 0 0
  outer loop
  vertex 0.169499993 0.0506962501 0.0115710897
  vertex 0.172000006 0.0471788235 0.00551441405
  vertex 0.169499993 0.0520000011 1.88182795e-17
  endloop
 endfacet

 facet normal 0 0 0
  outer loop
  vertex 0.169499993 0.0324214697 0.0406552367
  vertex 0.172000006 0.0325964764 0.0345502533
  vertex 0.169499993 0.0406552367 0.0324214697
  endloop
 endfacet

 facet normal 0 0 0
  outer loop
  vertex 0.169499993 0.0324214697 -0.0406552367
  vertex 0.017676007 0.0696821213 -0.0514884479
  vertex 0.169499993 0.0406552367 -0.0324214697
  endloop
 endfacet

 facet normal 0 0 0
  outer loop
  vertex 0.169499993 0.0468503796 -0.0225619543
  vertex 0.172000006 0.0396856703 -0.0261016786
  vertex 0.169499993 0.0406552367 -0.0324214697
  endloop
 endfacet

 facet normal 0 0 0
  outer loop
  vertex 0.169499993 0.0468503796 -0.0225619543
  vertex 0.169499993 0.0406552367 -0.0324214697
  vertex 0.017676007 0.0696821213 -0.0514884479
  endloop
 endfacet

 facet normal 0 0 0
  outer loop
  vertex -0.0461264104 0.0687678605 -0.0301358867
  vertex -0.0485410206 0.0579999983 -0.0352671146
  vertex -0.0548127256 0.0579999983 -0.0244041998
  endloop
 endfacet

 facet normal 0 0 0
  outer loop
  vertex -0.0461264104 0.0687678605 -0.0301358867
  vertex -0.0548127256 0.0579999983 -0.0244041998
  vertex -0.0514884479 0.0696821213 -0.017676007
  endloop
 endfacet

 facet normal 0 0 0
  outer loop
  vertex -0.0543467849 0.0687678605 -0.00906887557
  vertex -0.0586888567 0.0579999983 -0.0124747027
  vertex -0.0599999987 0.0579999983 -1.40092185e-17
  endloop
 endfacet

 facet normal 0 0 0
  outer loop
  vertex -0.0543467849 0.0687678605 -0.00906887557
  vertex -0.0599999987 0.0579999983 -1.40092185e-17
  vertex -0.0542521216 0.0696821213 0.00449545914
  endloop
 endfacet

 facet normal 0 0 0
  outer loop
  vertex -0.0543467849 0.0687678605 -0.00906887557
  vertex -0.0542521216 0.0696821213 0.00449545914
  vertex -0.0514884479 0.0696821213 -0.017676007
  endloop
 endfacet

 facet normal 0 0 0
  outer loop
  vertex 0.00906887464 0.0687678605 -0.0543467887
  vertex 0.017676007 0.0696821213 -0.0514884479
  vertex 0.169499993 0.0324214697 -0.0406552367
  endloop
 endfacet

 facet normal 0 0 0
  outer loop
  vertex 0.00906887464 0.0687678605 -0.0543467887
  vertex 0.169499993 0.0324214697 -0.0406552367
  vertex 0.169499993 0.0225619543 -0.0468503833
  endloop
 endfacet

 facet normal 0 0 0
  outer loop
  vertex 0.00906887464 0.0687678605 -0.0543467887
  vertex 0.169499993 0.0225619543 -0.0468503833
  vertex 0.00627170783 0.0579999983 -0.0596713126
  endloop
 endfacet

 facet normal 0 0 0
  outer loop
  vertex 0.00906887464 0.0687678605 -0.0543467887
  vertex 0.00627170783 0.0579999983 -0.0596713126
  vertex -0.00627170783 0.0579999983 -0.0596713126
  endloop
 endfacet

 facet normal 0 0 0
  outer loop
  vertex 0.00906887464 0.0687678605 -0.0543467887
  vertex -0.00627170783 0.0579999983 -0.0596713126
  vertex -0.00449545868 0.0696821213 -0.0542521216
  endloop
 endfacet

 facet normal 0 0 0
  outer loop
  vertex -0.00906887464 0.0687678605 0.0543467887
  vertex -0.017676007 0.0696821213 0.0514884479
  vertex -0.0185410194 0.0579999983 0.0570633933
  endloop
 endfacet

 facet normal 0 0 0
  outer loop
  vertex -0.00906887464 0.0687678605 0.0543467887
  vertex -0.0185410194 0.0579999983 0.0570633933
  vertex -0.00627170783 0.0579999983 0.0596713126
  endloop
 endfacet

 facet normal 0 0 0
  outer loop
  vertex -0.00906887464 0.0687678605 0.0543467887
  vertex -0.00627170783 0.0579999983 0.0596713126
  vertex 0.00627170783 0.0579999983 0.0596713126
  endloop
 endfacet

 facet normal 0 0 0
  outer loop
  vertex -0.00906887464 0.0687678605 0.0543467887
  vertex 0.00627170783 0.0579999983 0.0596713126
  vertex 0.00449545868 0.0696821213 0.0542521216
  endloop
 endfacet

 facet normal 0 0 0
  outer loop
  vertex -0.00906887464 0.0687678605 0.0543467887
  vertex 0.00449545868 0.0696821213 0.0542521216
  vertex -0.017676007 0.0696821213 0.0514884479
  endloop
 endfacet

 facet normal 0 0 0
  outer loop
  vertex -0.036869891 0.0696821213 0.0400513783
  vertex -0.0401478373 0.0579999983 0.0445886925
  vertex -0.0299999993 0.0579999983 0.0519615225
  endloop
 endfacet

 facet normal 0 0 0
  outer loop
  vertex -0.036869891 0.0696821213 0.0400513783
  vertex -0.0299999993 0.0579999983 0.0519615225
  vertex -0.02622387 0.0687678605 0.0484574698
  endloop
 endfacet

 facet normal 0 0 0
  outer loop
  vertex -0.0299999993 0.0579999983 0.0519615225
  vertex -0.0185410194 0.0579999983 0.0570633933
  vertex -0.017676007 0.0696821213 0.0514884479
  endloop
 endfacet

 facet normal 0 0 0
  outer loop
  vertex -0.0299999993 0.0579999983 0.0519615225
  vertex -0.017676007 0.0696821213 0.0514884479
  vertex -0.02622387 0.0687678605 0.0484574698
  endloop
 endfacet

 facet normal 0 0 0
  outer loop
  vertex -0.0338420458 0.0687678605 -0.0434802659
  vertex -0.0299999993 0.0579999983 -0.0519615225
  vertex -0.0401478373 0.0579999983 -0.0445886925
  endloop
 endfacet

 facet normal 0 0 0
  outer loop
  vertex -0.0338420458 0.0687678605 -0.0434802659
  vertex -0.0401478373 0.0579999983 -0.0445886925
  vertex -0.0400513783 0.0696821213 -0.036869891
  endloop
 endfacet

 facet normal 0 0 0
  outer loop
  vertex -0.0338420458 0.0687678605 -0.0434802659
  vertex -0.0400513783 0.0696821213 -0.036869891
  vertex -0.0254569724 0.0702880472 -0.0470403656
  endloop
 endfacet

 facet normal 0 0 0
  outer loop
  vertex -0.0338420458 0.0687678605 -0.0434802659
  vertex -0.0254569724 0.0702880472 -0.0470403656
  vertex -0.0178903732 0.0687678605 -0.0521128774
  endloop
 endfacet

 facet normal 0 0 0
  outer loop
  vertex -0.0338420458 0.0687678605 -0.0434802659
  vertex -0.0178903732 0.0687678605 -0.0521128774
  vertex -0.0299999993 0.0579999983 -0.0519615225
  endloop
 endfacet

 facet normal 0 0 0
  outer loop
  vertex 0.114330918 -0.0501979552 0.0114573566
  vertex -0.0398132727 -0.00100000005 0.0442171171
  vertex -0.0485410206 -0.000500000024 0.0352671146
  endloop
 endfacet

 facet normal 0 0 0
  outer loop
  vertex 0.114330918 -0.0501979552 0.0114573566
  vertex -0.0485410206 -0.000500000024 0.0352671146
  vertex -0.0548127256 -0.000500000024 0.0244041998
  endloop
 endfacet

 facet normal 0 0 0
  outer loop
  vertex 0.114330918 -0.0463898852 -0.0223401915
  vertex 0.118213207 -0.0440296568 -0.0276656672
  vertex 0.169499993 -0.0468503796 -0.0225619543
  endloop
 endfacet

 facet normal 0 0 0
  outer loop
  vertex 0.114330918 -0.0463898852 -0.0223401915
  vertex 0.169499993 -0.0468503796 -0.0225619543
  vertex 0.118213207 -0.0506962501 -0.0115710897
  endloop
 endfacet

 facet normal 0 0 0
  outer loop
  vertex 0.114330918 -0.0463898852 -0.0223401915
  vertex -0.0297500025 -0.00100000005 -0.0515285097
  vertex -0.0185410194 -0.000500000024 -0.0570633933
  endloop
 endfacet

 facet normal 0 0 0
  outer loop
  vertex 0.114330918 -0.0463898852 -0.0223401915
  vertex -0.0185410194 -0.000500000024 -0.0570633933
  vertex 0.118213207 -0.0440296568 -0.0276656672
  endloop
 endfacet

 facet normal 0 0 0
  outer loop
  vertex 0.0292545874 0.0702880472 -0.0447774827
  vertex 0.0422087163 0.0702880472 -0.0328523628
  vertex 0.169499993 0.0506962501 -0.0115710897
  endloop
 endfacet

 facet normal 0 0 0
  outer loop
  vertex 0.0292545874 0.0702880472 -0.0447774827
  vertex 0.169499993 0.0506962501 -0.0115710897
  vertex 0.169499993 0.0468503796 -0.0225619543
  endloop
 endfacet

 facet normal 0 0 0
  outer loop
  vertex 0.0292545874 0.0702880472 -0.0447774827
  vertex 0.169499993 0.0468503796 -0.0225619543
  vertex 0.017676007 0.0696821213 -0.0514884479
  endloop
 endfacet

 facet normal 0 0 0
  outer loop
  vertex 0.172000006 -0.0424475521 0.0213179607
  vertex 0.172000006 -0.036387112 0.0305324141
  vertex 0.169499993 -0.0406552367 0.0324214697
  endloop
 endfacet

 facet normal 0 0 0
  outer loop
  vertex 0.172000006 -0.0424475521 0.0213179607
  vertex 0.169499993 -0.0406552367 0.0324214697
  vertex 0.169499993 -0.0468503796 0.0225619543
  endloop
 endfacet

 facet normal 0 0 0
  outer loop
  vertex 0.172000006 -0.0424475521 0.0213179607
  vertex 0.169499993 -0.0468503796 0.0225619543
  vertex 0.169499993 -0.0506962501 0.0115710897
  endloop
 endfacet

 facet normal 0 0 0
  outer loop
  vertex 0.172000006 -0.0424475521 0.0213179607
  vertex 0.169499993 -0.0506962501 0.0115710897
  vertex 0.172000006 -0.0474999994 1.90958367e-17
  endloop
 endfacet

 facet normal 0 0 0
  outer loop
  vertex 0.172000006 -0.0283650327 0.0381008498
  vertex 0.169499993 -0.0225619543 0.0468503833
  vertex 0.169499993 -0.0324214697 0.0406552367
  endloop
 endfacet

 facet normal 0 0 0
  outer loop
  vertex 0.172000006 -0.0283650327 0.0381008498
  vertex 0.172000006 -0.00824828818 0.0467783697
  vertex 0.169499993 -0.0225619543 0.0468503833
  endloop
 endfacet

 facet normal 0 0 0
  outer loop
  vertex 0.172000006 0.0237499997 -0.0411362089
  vertex 0.172000006 0.0136231538 -0.045504503
  vertex 0.169499993 0.0225619543 -0.0468503833
  endloop
 endfacet

 facet normal 0 0 0
  outer loop
  vertex 0.172000006 0.0237499997 -0.0411362089
  vertex 0.169499993 0.0225619543 -0.0468503833
  vertex 0.169499993 0.0324214697 -0.0406552367
  endloop
 endfacet

 facet normal 0 0 0
  outer loop
  vertex 0.172000006 0.0237499997 -0.0411362089
  vertex 0.169499993 0.0324214697 -0.0406552367
  vertex 0.169499993 0.0406552367 -0.0324214697
  endloop
 endfacet

 facet normal 0 0 0
  outer loop
  vertex 0.172000006 0.0237499997 -0.0411362089
  vertex 0.169499993 0.0406552367 -0.0324214697
  vertex 0.172000006 0.0396856703 -0.0261016786
  endloop
 endfacet

 facet normal 0 0 0
  outer loop
  vertex 0.172000006 0.0446354002 0.0162459575
  vertex 0.169499993 0.0468503796 0.0225619543
  vertex 0.169499993 0.0406552367 0.0324214697
  endloop
 endfacet

 facet normal 0 0 0
  outer loop
  vertex 0.172000006 0.0446354002 0.0162459575
  vertex 0.169499993 0.0406552367 0.0324214697
  vertex 0.172000006 0.0325964764 0.0345502533
  endloop
 endfacet

 facet normal 0 0 0
  outer loop
  vertex 0.172000006 0.0446354002 0.0162459575
  vertex 0.172000006 0.0471788235 0.00551441405
  vertex 0.169499993 0.0506962501 0.0115710897
  endloop
 endfacet

 facet normal 0 0 0
  outer loop
  vertex 0.172000006 0.0446354002 0.0162459575
  vertex 0.169499993 0.0506962501 0.0115710897
  vertex 0.169499993 0.0468503796 0.0225619543
  endloop
 endfacet

 facet normal 0 0 0
  outer loop
  vertex 0.172000006 0.0446354002 -0.0162459575
  vertex 0.172000006 0.0396856703 -0.0261016786
  vertex 0.169499993 0.0468503796 -0.0225619543
  endloop
 endfacet

 facet normal 0 0 0
  outer loop
  vertex 0.172000006 0.0446354002 -0.0162459575
  vertex 0.169499993 0.0468503796 -0.0225619543
  vertex 0.169499993 0.0506962501 -0.0115710897
  endloop
 endfacet

 facet normal 0 0 0
  outer loop
  vertex 0.172000006 0.0446354002 -0.0162459575
  vertex 0.169499993 0.0506962501 -0.0115710897
  vertex 0.169499993 0.0520000011 1.88182795e-17
  endloop
 endfacet

 facet normal 0 0 0
  outer loop
  vertex 0.172000006 0.0446354002 -0.0162459575
  vertex 0.169499993 0.0520000011 1.88182795e-17
  vertex 0.172000006 0.0471788235 0.00551441405
  endloop
 endfacet

 facet normal 0 0 0
  outer loop
  vertex 0.118213207 -0.0276656672 0.0440296605
  vertex 0.118213207 -0.036769554 0.0367695577
  vertex 0.169499993 -0.0324214697 0.0406552367
  endloop
 endfacet

 facet normal 0 0 0
  outer loop
  vertex 0.118213207 -0.0276656672 0.0440296605
  vertex 0.169499993 -0.0324214697 0.0406552367
  vertex 0.169499993 -0.0225619543 0.0468503833
  endloop
 endfacet

 facet normal 0 0 0
  outer loop
  vertex 0.118213207 -0.0276656672 0.0440296605
  vertex 0.169499993 -0.0225619543 0.0468503833
  vertex -0.00627170783 -0.000500000024 0.0596713126
  endloop
 endfacet

 facet normal 0 0 0
  outer loop
  vertex 0.118213207 -0.0276656672 0.0440296605
  vertex -0.00627170783 -0.000500000024 0.0596713126
  vertex 0.118213207 -0.036769554 0.0367695577
  endloop
 endfacet

 facet normal 0 0 0
  outer loop
  vertex 0.169499993 -0.0506962501 0.0115710897
  vertex 0.118213207 -0.0490819328 0.0171745121
  vertex 0.114330918 -0.0501979552 0.0114573566
  endloop
 endfacet

 facet normal 0 0 0
  outer loop
  vertex 0.169499993 -0.0506962501 0.0115710897
  vertex 0.114330918 -0.0501979552 0.0114573566
  vertex 0.118213207 -0.0516730361 0.0058221533
  endloop
 endfacet

 facet normal 0 0 0
  outer loop
  vertex 0.118213207 -0.0516730361 0.0058221533
  vertex 0.114330918 -0.0501979552 0.0114573566
  vertex 0.114330918 -0.0514888875 2.53044227e-17
  endloop
 endfacet

 facet normal 0 0 0
  outer loop
  vertex 0.118213207 -0.0516730361 0.0058221533
  vertex 0.114330918 -0.0514888875 2.53044227e-17
  vertex 0.169499993 -0.0520000011 1.24501171e-17
  endloop
 endfacet

 facet normal 0 0 0
  outer loop
  vertex 0.118213207 -0.0516730361 0.0058221533
  vertex 0.169499993 -0.0520000011 1.24501171e-17
  vertex 0.169499993 -0.0506962501 0.0115710897
  endloop
 endfacet

 facet normal 0 0 0
  outer loop
  vertex -0.0286487769 0.0705000013 0.043850217
  vertex -0.0479675904 0.0705000013 0.0210405383
  vertex -0.036869891 0.0696821213 0.0400513783
  endloop
 endfacet

 facet normal 0 0 0
  outer loop
  vertex -0.0286487769 0.0705000013 0.043850217
  vertex -0.036869891 0.0696821213 0.0400513783
  vertex -0.02622387 0.0687678605 0.0484574698
  endloop
 endfacet

 facet normal 0 0 0
  outer loop
  vertex -0.0286487769 0.0705000013 0.043850217
  vertex -0.02622387 0.0687678605 0.0484574698
  vertex -0.017676007 0.0696821213 0.0514884479
  endloop
 endfacet

 facet normal 0 0 0
  outer loop
  vertex -0.0286487769 0.0705000013 0.043850217
  vertex -0.017676007 0.0696821213 0.0514884479
  vertex 0.00449545868 0.0696821213 0.0542521216
  endloop
 endfacet

 facet normal 0 0 0
  outer loop
  vertex -0.0286487769 0.0705000013 0.043850217
  vertex 0.00449545868 0.0696821213 0.0542521216
  vertex 0.0214854609 0.0702880472 0.0489819236
  endloop
 endfacet

 facet normal 0 0 0
  outer loop
  vertex -0.043850217 0.0705000013 -0.0286487788
  vertex -0.0254569724 0.0702880472 -0.0470403656
  vertex -0.0400513783 0.0696821213 -0.036869891
  endloop
 endfacet

 facet normal 0 0 0
  outer loop
  vertex -0.043850217 0.0705000013 -0.0286487788
  vertex -0.0400513783 0.0696821213 -0.036869891
  vertex -0.0461264104 0.0687678605 -0.0301358867
  endloop
 endfacet

 facet normal 0 0 0
  outer loop
  vertex -0.043850217 0.0705000013 -0.0286487788
  vertex -0.0461264104 0.0687678605 -0.0301358867
  vertex -0.0514884479 0.0696821213 -0.017676007
  endloop
 endfacet

 facet normal 0 0 0
  outer loop
  vertex -0.043850217 0.0705000013 -0.0286487788
  vertex -0.0514884479 0.0696821213 -0.017676007
  vertex -0.0542521216 0.0696821213 0.00449545914
  endloop
 endfacet

 facet normal 0 0 0
  outer loop
  vertex -0.043850217 0.0705000013 -0.0286487788
  vertex -0.0542521216 0.0696821213 0.00449545914
  vertex -0.0479675904 0.0705000013 0.0210405383
  endloop
 endfacet

 facet normal 0 0 0
  outer loop
  vertex 0.0133637516 0.0696821213 0.0527722687
  vertex 0.00449545868 0.0696821213 0.0542521216
  vertex 0.00627170783 0.0579999983 0.0596713126
  endloop
 endfacet

 facet normal 0 0 0
  outer loop
  vertex 0.0133637516 0.0696821213 0.0527722687
  vertex 0.00627170783 0.0579999983 0.0596713126
  vertex 0.169499993 0.0225619543 0.0468503833
  endloop
 endfacet

 facet normal 0 0 0
  outer loop
  vertex 0.0133637516 0.0696821213 0.0527722687
  vertex 0.169499993 0.0225619543 0.0468503833
  vertex 0.169499993 0.0324214697 0.0406552367
  endloop
 endfacet

 facet normal 0 0 0
  outer loop
  vertex 0.0133637516 0.0696821213 0.0527722687
  vertex 0.169499993 0.0324214697 0.0406552367
  vertex 0.169499993 0.0406552367 0.0324214697
  endloop
 endfacet

 facet normal 0 0 0
  outer loop
  vertex 0.0133637516 0.0696821213 0.0527722687
  vertex 0.169499993 0.0406552367 0.0324214697
  vertex 0.0214854609 0.0702880472 0.0489819236
  endloop
 endfacet

 facet normal 0 0 0
  outer loop
  vertex 0.0133637516 0.0696821213 0.0527722687
  vertex 0.0214854609 0.0702880472 0.0489819236
  vertex 0.00449545868 0.0696821213 0.0542521216
  endloop
 endfacet

 facet normal 0 0 0
  outer loop
  vertex 0.00757414568 0.0705000013 -0.0517954789
  vertex -0.00449545868 0.0696821213 -0.0542521216
  vertex -0.0254569724 0.0702880472 -0.0470403656
  endloop
 endfacet

 facet normal 0 0 0
  outer loop
  vertex -0.0479675904 0.0705000013 0.0210405383
  vertex -0.0286487769 0.0705000013 0.043850217
  vertex 0.0214854609 0.0702880472 0.0489819236
  endloop
 endfacet

 facet normal 0 0 0
  outer loop
  vertex -0.0479675904 0.0705000013 0.0210405383
  vertex 0.0214854609 0.0702880472 0.0489819236
  vertex 0.043850217 0.0705000013 0.0286487788
  endloop
 endfacet

 facet normal 0 0 0
  outer loop
  vertex -0.0479675904 0.0705000013 0.0210405383
  vertex 0.043850217 0.0705000013 0.0286487788
  vertex 0.0522004254 0.0705000013 -0.00432545133
  endloop
 endfacet

 facet normal 0 0 0
  outer loop
  vertex -0.0479675904 0.0705000013 0.0210405383
  vertex 0.0522004254 0.0705000013 -0.00432545133
  vertex 0.0422087163 0.0702880472 -0.0328523628
  endloop
 endfacet

 facet normal 0 0 0
  outer loop
  vertex -0.0479675904 0.0705000013 0.0210405383
  vertex 0.0422087163 0.0702880472 -0.0328523628
  vertex 0.0292545874 0.0702880472 -0.0447774827
  endloop
 endfacet

 facet normal 0 0 0
  outer loop
  vertex -0.0479675904 0.0705000013 0.0210405383
  vertex 0.0292545874 0.0702880472 -0.0447774827
  vertex 0.00757414568 0.0705000013 -0.0517954789
  endloop
 endfacet

 facet normal 0 0 0
  outer loop
  vertex -0.0479675904 0.0705000013 0.0210405383
  vertex 0.00757414568 0.0705000013 -0.0517954789
  vertex -0.0254569724 0.0702880472 -0.0470403656
  endloop
 endfacet

 facet normal 0 0 0
  outer loop
  vertex -0.0479675904 0.0705000013 0.0210405383
  vertex -0.0254569724 0.0702880472 -0.0470403656
  vertex -0.043850217 0.0705000013 -0.0286487788
  endloop
 endfacet

 facet normal 0 0 0
  outer loop
  vertex 0.00757414568 0.0705000013 -0.0517954789
  vertex 0.0292545874 0.0702880472 -0.0447774827
  vertex 0.017676007 0.0696821213 -0.0514884479
  endloop
 endfacet

 facet normal 0 0 0
  outer loop
  vertex 0.00757414568 0.0705000013 -0.0517954789
  vertex 0.017676007 0.0696821213 -0.0514884479
  vertex 0.00906887464 0.0687678605 -0.0543467887
  endloop
 endfacet

 facet normal 0 0 0
  outer loop
  vertex 0.00757414568 0.0705000013 -0.0517954789
  vertex 0.00906887464 0.0687678605 -0.0543467887
  vertex -0.00449545868 0.0696821213 -0.0542521216
  endloop
 endfacet

endsolid AssimpScene
