solid AssimpScene
 facet normal 0 0 0
  outer loop
  vertex 0.11649999 0.019726729 0.0443069562
  vertex 0.11649999 0.0100837173 0.0474401601
  vertex 0.11649999 -0.0100837173 0.0474401601
  endloop
 endfacet

 facet normal 0 0 0
  outer loop
  vertex 0.11649999 0.019726729 0.0443069562
  vertex 0.11649999 -0.0100837173 0.0474401601
  vertex 0.11649999 -0.0285075847 0.0392373204
  endloop
 endfacet

 facet normal 0 0 0
  outer loop
  vertex 0.11649999 0.019726729 0.0443069562
  vertex 0.11649999 -0.0285075847 0.0392373204
  vertex 0.11649999 -0.0420022309 0.0242500007
  endloop
 endfacet

 facet normal 0 0 0
  outer loop
  vertex 0.11649999 0.019726729 0.0443069562
  vertex 0.11649999 -0.0420022309 0.0242500007
  vertex 0.11649999 -0.0482343137 0.00506963069
  endloop
 endfacet

 facet normal 0 0 0
  outer loop
  vertex 0.11649999 0.019726729 0.0443069562
  vertex 0.11649999 -0.0482343137 0.00506963069
  vertex 0.11649999 -0.0461262427 -0.0149873234
  endloop
 endfacet

 facet normal 0 0 0
  outer loop
  vertex 0.11649999 0.019726729 0.0443069562
  vertex 0.11649999 -0.0461262427 -0.0149873234
  vertex 0.11649999 -0.0420022309 -0.0242500007
  endloop
 endfacet

 facet normal 0 0 0
  outer loop
  vertex 0.11649999 0.019726729 0.0443069562
  vertex 0.11649999 -0.0420022309 -0.0242500007
  vertex 0.11649999 -0.0285075847 -0.0392373204
  endloop
 endfacet

 facet normal 0 0 0
  outer loop
  vertex 0.11649999 0.019726729 0.0443069562
  vertex 0.11649999 -0.0285075847 -0.0392373204
  vertex 0.11649999 -0.0100837173 -0.0474401601
  endloop
 endfacet

 facet normal 0 0 0
  outer loop
  vertex 0.11649999 0.019726729 0.0443069562
  vertex 0.11649999 -0.0100837173 -0.0474401601
  vertex 0.11649999 0.0100837173 -0.0474401601
  endloop
 endfacet

 facet normal 0 0 0
  outer loop
  vertex 0.11649999 0.019726729 0.0443069562
  vertex 0.11649999 0.0100837173 -0.0474401601
  vertex 0.11649999 0.019726729 -0.0443069562
  endloop
 endfacet

 facet normal 0 0 0
  outer loop
  vertex 0.11649999 0.019726729 0.0443069562
  vertex 0.11649999 0.019726729 -0.0443069562
  vertex 0.11649999 0.0285075847 -0.0392373204
  endloop
 endfacet

 facet normal 0 0 0
  outer loop
  vertex 0.11649999 0.019726729 0.0443069562
  vertex 0.11649999 0.0285075847 -0.0392373204
  vertex 0.11649999 0.0420022309 -0.0242500007
  endloop
 endfacet

 facet normal 0 0 0
  outer loop
  vertex 0.11649999 0.019726729 0.0443069562
  vertex 0.11649999 0.0420022309 -0.0242500007
  vertex 0.11649999 0.0461262427 -0.0149873234
  endloop
 endfacet

 facet normal 0 0 0
  outer loop
  vertex 0.11649999 0.019726729 0.0443069562
  vertex 0.11649999 0.0461262427 -0.0149873234
  vertex 0.11649999 0.0482343137 0.00506963069
  endloop
 endfacet

 facet normal 0 0 0
  outer loop
  vertex 0.11649999 0.019726729 0.0443069562
  vertex 0.11649999 0.0482343137 0.00506963069
  vertex 0.11649999 0.0461262427 0.0149873234
  endloop
 endfacet

 facet normal 0 0 0
  outer loop
  vertex 0.11649999 0.019726729 0.0443069562
  vertex 0.11649999 0.0461262427 0.0149873234
  vertex 0.11649999 0.0360425226 0.0324528329
  endloop
 endfacet

 facet normal 0 0 0
  outer loop
  vertex -0.045804698 0.0661821216 0.00764345238
  vertex -0.0358955935 0.0667880401 0.0279386584
  vertex -0.0430223383 0.0667880401 -0.0147695877
  endloop
 endfacet

 facet normal 0 0 0
  outer loop
  vertex -0.0186539534 0.0661821216 0.0425267294
  vertex -1.11022296e-16 0.0667880401 0.0454869419
  vertex -0.0358955935 0.0667880401 0.0279386584
  endloop
 endfacet

 facet normal 0 0 0
  outer loop
  vertex 0.0115584144 -0.0520000011 -0.0506991409
  vertex 0.114 -0.0376892239 -0.035826277
  vertex 0.0197177902 -0.0540000014 -0.045947887
  endloop
 endfacet

 facet normal 0 0 0
  outer loop
  vertex 0.114 -0.044129502 -0.027506128
  vertex 0.0197177902 -0.0540000014 -0.045947887
  vertex 0.114 -0.0376892239 -0.035826277
  endloop
 endfacet

 facet normal 0 0 0
  outer loop
  vertex 0.114 -0.044129502 -0.027506128
  vertex 0.114 -0.0376892239 -0.035826277
  vertex 0.11649999 -0.0420022309 -0.0242500007
  endloop
 endfacet

 facet normal 0 0 0
  outer loop
  vertex 0.114 0.0297059473 -0.0426796935
  vertex 0.011399867 0.0661821216 -0.0450170599
  vertex 0.114 0.0376892239 -0.035826277
  endloop
 endfacet

 facet normal 0 0 0
  outer loop
  vertex -0.0282184705 -0.0520000011 0.0436774306
  vertex -0.0319825187 0.0544999987 0.0410014391
  vertex -0.0363124497 -0.0520000011 0.0372210406
  endloop
 endfacet

 facet normal 0 0 0
  outer loop
  vertex 0.114 0.0519332588 0.00263375673
  vertex 0.11649999 0.0482343137 0.00506963069
  vertex 0.114 0.0514003523 -0.00787424482
  endloop
 endfacet

 facet normal 0 0 0
  outer loop
  vertex 0.114 0.0411203392 0.0318295062
  vertex 0.114 0.0466858372 0.0229004957
  vertex 0.0248789992 0.0667880401 0.0380801484
  endloop
 endfacet

 facet normal 0 0 0
  outer loop
  vertex 0.114 0.044129502 -0.027506128
  vertex 0.11649999 0.0420022309 -0.0242500007
  vertex 0.114 0.0376892239 -0.035826277
  endloop
 endfacet

 facet normal 0 0 0
  outer loop
  vertex 0.11649999 -0.0100837173 -0.0474401601
  vertex 0.114 -0.0205065049 -0.0477858037
  vertex 0.114 -0.0104675228 -0.0509355552
  endloop
 endfacet

 facet normal 0 0 0
  outer loop
  vertex -0.0325686224 -0.0540000014 0.0379379056
  vertex -0.0282184705 -0.0520000011 0.0436774306
  vertex -0.0363124497 -0.0520000011 0.0372210406
  endloop
 endfacet

 facet normal 0 0 0
  outer loop
  vertex 0.011399867 0.0661821216 0.0450170599
  vertex 0.114 0.0411203392 0.0318295062
  vertex 0.0248789992 0.0667880401 0.0380801484
  endloop
 endfacet

 facet normal 0 0 0
  outer loop
  vertex 0.011399867 0.0661821216 0.0450170599
  vertex 0.0248789992 0.0667880401 0.0380801484
  vertex -1.11022296e-16 0.0667880401 0.0454869419
  endloop
 endfacet

 facet normal 0 0 0
  outer loop
  vertex -0.0469373837 0.0652678534 -0.00388934277
  vertex -0.0517353788 0.0544999987 0.00523933256
  vertex -0.045804698 0.0661821216 0.00764345238
  endloop
 endfacet

 facet normal 0 0 0
  outer loop
  vertex -0.0469373837 0.0652678534 -0.00388934277
  vertex -0.045804698 0.0661821216 0.00764345238
  vertex -0.0430223383 0.0667880401 -0.0147695877
  endloop
 endfacet

 facet normal 0 0 0
  outer loop
  vertex 0.044095058 0.0667880401 -0.0111663854
  vertex 0.0406414047 0.0670000017 0.0178269707
  vertex 0.114 0.0519332588 0.00263375673
  endloop
 endfacet

 facet normal 0 0 0
  outer loop
  vertex 0.044095058 0.0667880401 -0.0111663854
  vertex 0.114 0.0519332588 0.00263375673
  vertex 0.114 0.0514003523 -0.00787424482
  endloop
 endfacet

 facet normal 0 0 0
  outer loop
  vertex 0.044095058 0.0667880401 -0.0111663854
  vertex 0.114 0.0514003523 -0.00787424482
  vertex 0.0300572999 0.0670000017 -0.0326509327
  endloop
 endfacet

 facet normal 0 0 0
  outer loop
  vertex 0.114 -0.0155668827 0.0496152416
  vertex 0.114 -6.36816327e-18 0.0519999973
  vertex 0.00128484517 -0.0520000011 0.0519841239
  endloop
 endfacet

 facet normal 0 0 0
  outer loop
  vertex 0.114 0.0155668827 0.0496152416
  vertex 0.00751226023 0.0544999987 0.0514545031
  vertex 0.114 -6.36816327e-18 0.0519999973
  endloop
 endfacet

 facet normal 0 0 0
  outer loop
  vertex 0.114 0.0155668827 0.0496152416
  vertex 0.114 -6.36816327e-18 0.0519999973
  vertex 0.11649999 0.0100837173 0.0474401601
  endloop
 endfacet

 facet normal 0 0 0
  outer loop
  vertex -0.0431313179 0.0652678534 0.0189191531
  vertex -0.0358955935 0.0667880401 0.0279386584
  vertex -0.045804698 0.0661821216 0.00764345238
  endloop
 endfacet

 facet normal 0 0 0
  outer loop
  vertex -0.0289283432 0.0652678534 0.0371671356
  vertex -0.0186539534 0.0661821216 0.0425267294
  vertex -0.0358955935 0.0667880401 0.0279386584
  endloop
 endfacet

 facet normal 0 0 0
  outer loop
  vertex 0.11649999 -0.0285075847 -0.0392373204
  vertex 0.114 -0.0205065049 -0.0477858037
  vertex 0.11649999 -0.0100837173 -0.0474401601
  endloop
 endfacet

 facet normal 0 0 0
  outer loop
  vertex 0.11649999 -0.0285075847 -0.0392373204
  vertex 0.11649999 -0.0420022309 -0.0242500007
  vertex 0.114 -0.0376892239 -0.035826277
  endloop
 endfacet

 facet normal 0 0 0
  outer loop
  vertex 0 -0.0540000014 -0.0500000007
  vertex -0.0197177902 -0.0540000014 -0.045947887
  vertex -0.00903966185 -0.0520000011 -0.0512082465
  endloop
 endfacet

 facet normal 0 0 0
  outer loop
  vertex 0 -0.0540000014 -0.0500000007
  vertex 0.0115584144 -0.0520000011 -0.0506991409
  vertex 0.0197177902 -0.0540000014 -0.045947887
  endloop
 endfacet

 facet normal 0 0 0
  outer loop
  vertex -0.0424322076 -0.0540000014 -0.0264482014
  vertex -0.0494234115 -0.0540000014 -0.00757138897
  vertex -0.0479178838 -0.0520000011 -0.020195948
  endloop
 endfacet

 facet normal 0 0 0
  outer loop
  vertex -0.0424322076 -0.0540000014 -0.0264482014
  vertex -0.0479178838 -0.0520000011 -0.020195948
  vertex -0.0429668576 -0.0520000011 -0.0292890631
  endloop
 endfacet

 facet normal 0 0 0
  outer loop
  vertex -0.0484038517 -0.0540000014 0.0125326263
  vertex -0.0519999973 -0.0520000011 -3.66330335e-17
  vertex -0.0494234115 -0.0540000014 -0.00757138897
  endloop
 endfacet

 facet normal 0 0 0
  outer loop
  vertex -0.00505841617 -0.0540000014 0.0497434661
  vertex 0.0149681559 -0.0540000014 0.0477069616
  vertex 0.00128484517 -0.0520000011 0.0519841239
  endloop
 endfacet

 facet normal 0 0 0
  outer loop
  vertex -0.00505841617 -0.0540000014 0.0497434661
  vertex 0.00128484517 -0.0520000011 0.0519841239
  vertex -0.00903966185 -0.0520000011 0.0512082465
  endloop
 endfacet

 facet normal 0 0 0
  outer loop
  vertex 0.11649999 -0.0420022309 0.0242500007
  vertex 0.114 -0.0503400154 0.0130339311
  vertex 0.11649999 -0.0482343137 0.00506963069
  endloop
 endfacet

 facet normal 0 0 0
  outer loop
  vertex 0.11649999 -0.0420022309 0.0242500007
  vertex 0.11649999 -0.0285075847 0.0392373204
  vertex 0.114 -0.0338713676 0.0394554213
  endloop
 endfacet

 facet normal 0 0 0
  outer loop
  vertex 0.11649999 -0.0420022309 0.0242500007
  vertex 0.114 -0.0338713676 0.0394554213
  vertex 0.114 -0.0411203392 0.0318295062
  endloop
 endfacet

 facet normal 0 0 0
  outer loop
  vertex 0.11649999 -0.0100837173 0.0474401601
  vertex 0.11649999 0.0100837173 0.0474401601
  vertex 0.114 -6.36816327e-18 0.0519999973
  endloop
 endfacet

 facet normal 0 0 0
  outer loop
  vertex 0.11649999 -0.0100837173 0.0474401601
  vertex 0.114 -6.36816327e-18 0.0519999973
  vertex 0.114 -0.0155668827 0.0496152416
  endloop
 endfacet

 facet normal 0 0 0
  outer loop
  vertex 0.11649999 -0.0100837173 0.0474401601
  vertex 0.114 -0.0155668827 0.0496152416
  vertex 0.114 -0.0252357032 0.0454660207
  endloop
 endfacet

 facet normal 0 0 0
  outer loop
  vertex 0.11649999 -0.0100837173 0.0474401601
  vertex 0.114 -0.0252357032 0.0454660207
  vertex 0.11649999 -0.0285075847 0.0392373204
  endloop
 endfacet

 facet normal 0 0 0
  outer loop
  vertex -0.00775211677 0.0652678534 0.0464558937
  vertex -1.11022296e-16 0.0667880401 0.0454869419
  vertex -0.0186539534 0.0661821216 0.0425267294
  endloop
 endfacet

 facet normal 0 0 0
  outer loop
  vertex -0.00775211677 0.0652678534 0.0464558937
  vertex -0.0186539534 0.0661821216 0.0425267294
  vertex -0.0133046983 0.0544999987 0.0502691232
  endloop
 endfacet

 facet normal 0 0 0
  outer loop
  vertex 0.114 0 -0.0519999973
  vertex 0.11649999 -0.0100837173 -0.0474401601
  vertex 0.114 -0.0104675228 -0.0509355552
  endloop
 endfacet

 facet normal 0 0 0
  outer loop
  vertex 0.114 0 -0.0519999973
  vertex -0.0029562416 0.0544999987 -0.0519158989
  vertex 0.00751226023 0.0544999987 -0.0514545031
  endloop
 endfacet

 facet normal 0 0 0
  outer loop
  vertex 0.114 0 -0.0519999973
  vertex 0.00751226023 0.0544999987 -0.0514545031
  vertex 0.114 0.0104675228 -0.0509355552
  endloop
 endfacet

 facet normal 0 0 0
  outer loop
  vertex 0.114 -0.0519332588 0.00263375673
  vertex 0.114 -0.0503400154 0.0130339311
  vertex 0.0149681559 -0.0540000014 0.0477069616
  endloop
 endfacet

 facet normal 0 0 0
  outer loop
  vertex 0.114 -0.0519332588 0.00263375673
  vertex 0.0149681559 -0.0540000014 0.0477069616
  vertex 0.0197177902 -0.0540000014 -0.045947887
  endloop
 endfacet

 facet normal 0 0 0
  outer loop
  vertex 0.114 -0.0519332588 0.00263375673
  vertex 0.0197177902 -0.0540000014 -0.045947887
  vertex 0.114 -0.0514003523 -0.00787424482
  endloop
 endfacet

 facet normal 0 0 0
  outer loop
  vertex 0.114 -0.0519332588 0.00263375673
  vertex 0.114 -0.0514003523 -0.00787424482
  vertex 0.11649999 -0.0482343137 0.00506963069
  endloop
 endfacet

 facet normal 0 0 0
  outer loop
  vertex 0.114 -0.0519332588 0.00263375673
  vertex 0.11649999 -0.0482343137 0.00506963069
  vertex 0.114 -0.0503400154 0.0130339311
  endloop
 endfacet

 facet normal 0 0 0
  outer loop
  vertex -0.0231128857 0.0544999987 0.0465810522
  vertex -0.0319825187 0.0544999987 0.0410014391
  vertex -0.0282184705 -0.0520000011 0.0436774306
  endloop
 endfacet

 facet normal 0 0 0
  outer loop
  vertex -0.0231128857 0.0544999987 0.0465810522
  vertex -0.0133046983 0.0544999987 0.0502691232
  vertex -0.0186539534 0.0661821216 0.0425267294
  endloop
 endfacet

 facet normal 0 0 0
  outer loop
  vertex -0.0186539534 0.0661821216 0.0425267294
  vertex -0.0289283432 0.0652678534 0.0371671356
  vertex -0.0319825187 0.0544999987 0.0410014391
  endloop
 endfacet

 facet normal 0 0 0
  outer loop
  vertex -0.0186539534 0.0661821216 0.0425267294
  vertex -0.0319825187 0.0544999987 0.0410014391
  vertex -0.0231128857 0.0544999987 0.0465810522
  endloop
 endfacet

 facet normal 0 0 0
  outer loop
  vertex -0.0517353788 0.0544999987 -0.00523933256
  vertex -0.0517353788 0.0544999987 0.00523933256
  vertex -0.0469373837 0.0652678534 -0.00388934277
  endloop
 endfacet

 facet normal 0 0 0
  outer loop
  vertex -0.0517353788 0.0544999987 -0.00523933256
  vertex -0.0469373837 0.0652678534 -0.00388934277
  vertex -0.0496345349 0.0544999987 -0.0155052422
  endloop
 endfacet

 facet normal 0 0 0
  outer loop
  vertex -0.0517353788 0.0544999987 -0.00523933256
  vertex -0.0519999973 -0.0520000011 -3.66330335e-17
  vertex -0.0517353788 0.0544999987 0.00523933256
  endloop
 endfacet

 facet normal 0 0 0
  outer loop
  vertex -0.0455181673 0.0544999987 -0.0251415242
  vertex -0.0429668576 -0.0520000011 -0.0292890631
  vertex -0.0479178838 -0.0520000011 -0.020195948
  endloop
 endfacet

 facet normal 0 0 0
  outer loop
  vertex -0.0455181673 0.0544999987 -0.0251415242
  vertex -0.0479178838 -0.0520000011 -0.020195948
  vertex -0.0496345349 0.0544999987 -0.0155052422
  endloop
 endfacet

 facet normal 0 0 0
  outer loop
  vertex -0.0455181673 0.0544999987 -0.0251415242
  vertex -0.0371671394 0.0652678534 -0.0289283432
  vertex -0.0395534225 0.0544999987 -0.0337568745
  endloop
 endfacet

 facet normal 0 0 0
  outer loop
  vertex -0.0455181673 0.0544999987 -0.0251415242
  vertex -0.0395534225 0.0544999987 -0.0337568745
  vertex -0.0429668576 -0.0520000011 -0.0292890631
  endloop
 endfacet

 facet normal 0 0 0
  outer loop
  vertex -0.0395534225 0.0544999987 0.0337568745
  vertex -0.0319825187 0.0544999987 0.0410014391
  vertex -0.0289283432 0.0652678534 0.0371671356
  endloop
 endfacet

 facet normal 0 0 0
  outer loop
  vertex -0.0395534225 0.0544999987 0.0337568745
  vertex -0.0363124497 -0.0520000011 0.0372210406
  vertex -0.0319825187 0.0544999987 0.0410014391
  endloop
 endfacet

 facet normal 0 0 0
  outer loop
  vertex -0.0496345349 0.0544999987 0.0155052422
  vertex -0.0479178838 -0.0520000011 0.020195948
  vertex -0.0455181673 0.0544999987 0.0251415242
  endloop
 endfacet

 facet normal 0 0 0
  outer loop
  vertex -0.0496345349 0.0544999987 0.0155052422
  vertex -0.0455181673 0.0544999987 0.0251415242
  vertex -0.0431313179 0.0652678534 0.0189191531
  endloop
 endfacet

 facet normal 0 0 0
  outer loop
  vertex -0.0496345349 0.0544999987 0.0155052422
  vertex -0.0431313179 0.0652678534 0.0189191531
  vertex -0.045804698 0.0661821216 0.00764345238
  endloop
 endfacet

 facet normal 0 0 0
  outer loop
  vertex -0.0496345349 0.0544999987 0.0155052422
  vertex -0.045804698 0.0661821216 0.00764345238
  vertex -0.0517353788 0.0544999987 0.00523933256
  endloop
 endfacet

 facet normal 0 0 0
  outer loop
  vertex -0.0029562416 0.0544999987 0.0519158989
  vertex -0.0133046983 0.0544999987 0.0502691232
  vertex -0.00903966185 -0.0520000011 0.0512082465
  endloop
 endfacet

 facet normal 0 0 0
  outer loop
  vertex -0.0029562416 0.0544999987 0.0519158989
  vertex -0.00903966185 -0.0520000011 0.0512082465
  vertex 0.00128484517 -0.0520000011 0.0519841239
  endloop
 endfacet

 facet normal 0 0 0
  outer loop
  vertex -0.0029562416 0.0544999987 0.0519158989
  vertex 0.00128484517 -0.0520000011 0.0519841239
  vertex 0.114 -6.36816327e-18 0.0519999973
  endloop
 endfacet

 facet normal 0 0 0
  outer loop
  vertex -0.0029562416 0.0544999987 0.0519158989
  vertex 0.114 -6.36816327e-18 0.0519999973
  vertex 0.00751226023 0.0544999987 0.0514545031
  endloop
 endfacet

 facet normal 0 0 0
  outer loop
  vertex -0.0029562416 0.0544999987 0.0519158989
  vertex -0.00775211677 0.0652678534 0.0464558937
  vertex -0.0133046983 0.0544999987 0.0502691232
  endloop
 endfacet

 facet normal 0 0 0
  outer loop
  vertex -0.0319825187 0.0544999987 -0.0410014391
  vertex -0.0231128857 0.0544999987 -0.0465810522
  vertex -0.0282184705 -0.0520000011 -0.0436774306
  endloop
 endfacet

 facet normal 0 0 0
  outer loop
  vertex -0.0319825187 0.0544999987 -0.0410014391
  vertex -0.0395534225 0.0544999987 -0.0337568745
  vertex -0.0371671394 0.0652678534 -0.0289283432
  endloop
 endfacet

 facet normal 0 0 0
  outer loop
  vertex -0.0319825187 0.0544999987 -0.0410014391
  vertex -0.0371671394 0.0652678534 -0.0289283432
  vertex -0.0253992062 0.0661821216 -0.0388763808
  endloop
 endfacet

 facet normal 0 0 0
  outer loop
  vertex -0.0319825187 0.0544999987 -0.0410014391
  vertex -0.0253992062 0.0661821216 -0.0388763808
  vertex -0.0231128857 0.0544999987 -0.0465810522
  endloop
 endfacet

 facet normal 0 0 0
  outer loop
  vertex -0.0133046983 0.0544999987 -0.0502691232
  vertex -0.00797684398 0.059629526 -0.0490834899
  vertex -0.0029562416 0.0544999987 -0.0519158989
  endloop
 endfacet

 facet normal 0 0 0
  outer loop
  vertex -0.0133046983 0.0544999987 -0.0502691232
  vertex -0.0029562416 0.0544999987 -0.0519158989
  vertex -0.00903966185 -0.0520000011 -0.0512082465
  endloop
 endfacet

 facet normal 0 0 0
  outer loop
  vertex 0.114 -0.0487631112 -0.0180598721
  vertex 0.0197177902 -0.0540000014 -0.045947887
  vertex 0.114 -0.044129502 -0.027506128
  endloop
 endfacet

 facet normal 0 0 0
  outer loop
  vertex 0.114 -0.0487631112 -0.0180598721
  vertex 0.114 -0.0514003523 -0.00787424482
  vertex 0.0197177902 -0.0540000014 -0.045947887
  endloop
 endfacet

 facet normal 0 0 0
  outer loop
  vertex 0.114 0.0205065049 -0.0477858037
  vertex 0.114 0.0104675228 -0.0509355552
  vertex 0.00751226023 0.0544999987 -0.0514545031
  endloop
 endfacet

 facet normal 0 0 0
  outer loop
  vertex 0.00751226023 0.0544999987 -0.0514545031
  vertex -1.11022296e-16 0.0652678534 -0.0470982529
  vertex 0.011399867 0.0661821216 -0.0450170599
  endloop
 endfacet

 facet normal 0 0 0
  outer loop
  vertex 0.00751226023 0.0544999987 -0.0514545031
  vertex 0.011399867 0.0661821216 -0.0450170599
  vertex 0.114 0.0297059473 -0.0426796935
  endloop
 endfacet

 facet normal 0 0 0
  outer loop
  vertex 0.00751226023 0.0544999987 -0.0514545031
  vertex 0.114 0.0297059473 -0.0426796935
  vertex 0.114 0.0205065049 -0.0477858037
  endloop
 endfacet

 facet normal 0 0 0
  outer loop
  vertex 0.114 0.0205065049 -0.0477858037
  vertex 0.114 0.0297059473 -0.0426796935
  vertex 0.11649999 0.0285075847 -0.0392373204
  endloop
 endfacet

 facet normal 0 0 0
  outer loop
  vertex 0.114 0.0205065049 -0.0477858037
  vertex 0.11649999 0.0285075847 -0.0392373204
  vertex 0.11649999 0.019726729 -0.0443069562
  endloop
 endfacet

 facet normal 0 0 0
  outer loop
  vertex 0.114 -0.0466858372 0.0229004957
  vertex 0.114 -0.0503400154 0.0130339311
  vertex 0.11649999 -0.0420022309 0.0242500007
  endloop
 endfacet

 facet normal 0 0 0
  outer loop
  vertex 0.114 -0.0466858372 0.0229004957
  vertex 0.11649999 -0.0420022309 0.0242500007
  vertex 0.114 -0.0411203392 0.0318295062
  endloop
 endfacet

 facet normal 0 0 0
  outer loop
  vertex 0.114 -0.0466858372 0.0229004957
  vertex 0.114 -0.0411203392 0.0318295062
  vertex 0.0149681559 -0.0540000014 0.0477069616
  endloop
 endfacet

 facet normal 0 0 0
  outer loop
  vertex 0.114 -0.0466858372 0.0229004957
  vertex 0.0149681559 -0.0540000014 0.0477069616
  vertex 0.114 -0.0503400154 0.0130339311
  endloop
 endfacet

 facet normal 0 0 0
  outer loop
  vertex 0.114 -0.0297059473 -0.0426796935
  vertex 0.114 -0.0376892239 -0.035826277
  vertex 0.0115584144 -0.0520000011 -0.0506991409
  endloop
 endfacet

 facet normal 0 0 0
  outer loop
  vertex 0.114 -0.0297059473 -0.0426796935
  vertex 0.0115584144 -0.0520000011 -0.0506991409
  vertex 0.114 -0.0205065049 -0.0477858037
  endloop
 endfacet

 facet normal 0 0 0
  outer loop
  vertex 0.114 -0.0297059473 -0.0426796935
  vertex 0.114 -0.0205065049 -0.0477858037
  vertex 0.11649999 -0.0285075847 -0.0392373204
  endloop
 endfacet

 facet normal 0 0 0
  outer loop
  vertex 0.114 -0.0297059473 -0.0426796935
  vertex 0.11649999 -0.0285075847 -0.0392373204
  vertex 0.114 -0.0376892239 -0.035826277
  endloop
 endfacet

 facet normal 0 0 0
  outer loop
  vertex 0.114 -0.0338713676 0.0394554213
  vertex 0.0115584144 -0.0520000011 0.0506991409
  vertex 0.0149681559 -0.0540000014 0.0477069616
  endloop
 endfacet

 facet normal 0 0 0
  outer loop
  vertex 0.114 -0.0338713676 0.0394554213
  vertex 0.0149681559 -0.0540000014 0.0477069616
  vertex 0.114 -0.0411203392 0.0318295062
  endloop
 endfacet

 facet normal 0 0 0
  outer loop
  vertex 0.114 -0.0338713676 0.0394554213
  vertex 0.11649999 -0.0285075847 0.0392373204
  vertex 0.114 -0.0252357032 0.0454660207
  endloop
 endfacet

 facet normal 0 0 0
  outer loop
  vertex 0.114 0.0338713676 0.0394554213
  vertex 0.114 0.0411203392 0.0318295062
  vertex 0.011399867 0.0661821216 0.0450170599
  endloop
 endfacet

 facet normal 0 0 0
  outer loop
  vertex 0.114 0.0338713676 0.0394554213
  vertex 0.011399867 0.0661821216 0.0450170599
  vertex 0.114 0.0252357032 0.0454660207
  endloop
 endfacet

 facet normal 0 0 0
  outer loop
  vertex 0.114 0.0338713676 0.0394554213
  vertex 0.11649999 0.0360425226 0.0324528329
  vertex 0.114 0.0411203392 0.0318295062
  endloop
 endfacet

 facet normal 0 0 0
  outer loop
  vertex -0.0429668576 -0.0520000011 0.0292890631
  vertex -0.0455181673 0.0544999987 0.0251415242
  vertex -0.0479178838 -0.0520000011 0.020195948
  endloop
 endfacet

 facet normal 0 0 0
  outer loop
  vertex -0.0429668576 -0.0520000011 0.0292890631
  vertex -0.0325686224 -0.0540000014 0.0379379056
  vertex -0.0363124497 -0.0520000011 0.0372210406
  endloop
 endfacet

 facet normal 0 0 0
  outer loop
  vertex -0.0429668576 -0.0520000011 0.0292890631
  vertex -0.0363124497 -0.0520000011 0.0372210406
  vertex -0.0395534225 0.0544999987 0.0337568745
  endloop
 endfacet

 facet normal 0 0 0
  outer loop
  vertex -0.0429668576 -0.0520000011 0.0292890631
  vertex -0.0395534225 0.0544999987 0.0337568745
  vertex -0.0455181673 0.0544999987 0.0251415242
  endloop
 endfacet

 facet normal 0 0 0
  outer loop
  vertex -0.0363124497 -0.0520000011 -0.0372210406
  vertex -0.0395534225 0.0544999987 -0.0337568745
  vertex -0.0319825187 0.0544999987 -0.0410014391
  endloop
 endfacet

 facet normal 0 0 0
  outer loop
  vertex -0.0363124497 -0.0520000011 -0.0372210406
  vertex -0.0319825187 0.0544999987 -0.0410014391
  vertex -0.0282184705 -0.0520000011 -0.0436774306
  endloop
 endfacet

 facet normal 0 0 0
  outer loop
  vertex -0.0363124497 -0.0520000011 -0.0372210406
  vertex -0.0429668576 -0.0520000011 -0.0292890631
  vertex -0.0395534225 0.0544999987 -0.0337568745
  endloop
 endfacet

 facet normal 0 0 0
  outer loop
  vertex -0.0509692505 -0.0520000011 0.0103021832
  vertex -0.0519999973 -0.0520000011 -3.66330335e-17
  vertex -0.0484038517 -0.0540000014 0.0125326263
  endloop
 endfacet

 facet normal 0 0 0
  outer loop
  vertex -0.0509692505 -0.0520000011 0.0103021832
  vertex -0.0484038517 -0.0540000014 0.0125326263
  vertex -0.0479178838 -0.0520000011 0.020195948
  endloop
 endfacet

 facet normal 0 0 0
  outer loop
  vertex -0.0509692505 -0.0520000011 0.0103021832
  vertex -0.0479178838 -0.0520000011 0.020195948
  vertex -0.0496345349 0.0544999987 0.0155052422
  endloop
 endfacet

 facet normal 0 0 0
  outer loop
  vertex -0.0509692505 -0.0520000011 0.0103021832
  vertex -0.0496345349 0.0544999987 0.0155052422
  vertex -0.0517353788 0.0544999987 0.00523933256
  endloop
 endfacet

 facet normal 0 0 0
  outer loop
  vertex -0.0509692505 -0.0520000011 0.0103021832
  vertex -0.0517353788 0.0544999987 0.00523933256
  vertex -0.0519999973 -0.0520000011 -3.66330335e-17
  endloop
 endfacet

 facet normal 0 0 0
  outer loop
  vertex -0.0509692505 -0.0520000011 -0.0103021832
  vertex -0.0519999973 -0.0520000011 -3.66330335e-17
  vertex -0.0517353788 0.0544999987 -0.00523933256
  endloop
 endfacet

 facet normal 0 0 0
  outer loop
  vertex -0.0509692505 -0.0520000011 -0.0103021832
  vertex -0.0517353788 0.0544999987 -0.00523933256
  vertex -0.0496345349 0.0544999987 -0.0155052422
  endloop
 endfacet

 facet normal 0 0 0
  outer loop
  vertex -0.0509692505 -0.0520000011 -0.0103021832
  vertex -0.0496345349 0.0544999987 -0.0155052422
  vertex -0.0479178838 -0.0520000011 -0.020195948
  endloop
 endfacet

 facet normal 0 0 0
  outer loop
  vertex -0.0509692505 -0.0520000011 -0.0103021832
  vertex -0.0479178838 -0.0520000011 -0.020195948
  vertex -0.0494234115 -0.0540000014 -0.00757138897
  endloop
 endfacet

 facet normal 0 0 0
  outer loop
  vertex -0.0509692505 -0.0520000011 -0.0103021832
  vertex -0.0494234115 -0.0540000014 -0.00757138897
  vertex -0.0519999973 -0.0520000011 -3.66330335e-17
  endloop
 endfacet

 facet normal 0 0 0
  outer loop
  vertex -0.0190057997 -0.0520000011 -0.0484022647
  vertex -0.00903966185 -0.0520000011 -0.0512082465
  vertex -0.0197177902 -0.0540000014 -0.045947887
  endloop
 endfacet

 facet normal 0 0 0
  outer loop
  vertex -0.0190057997 -0.0520000011 -0.0484022647
  vertex -0.0197177902 -0.0540000014 -0.045947887
  vertex -0.0282184705 -0.0520000011 -0.0436774306
  endloop
 endfacet

 facet normal 0 0 0
  outer loop
  vertex -0.0190057997 -0.0520000011 -0.0484022647
  vertex -0.0282184705 -0.0520000011 -0.0436774306
  vertex -0.0231128857 0.0544999987 -0.0465810522
  endloop
 endfacet

 facet normal 0 0 0
  outer loop
  vertex -0.0190057997 -0.0520000011 -0.0484022647
  vertex -0.0231128857 0.0544999987 -0.0465810522
  vertex -0.0133046983 0.0544999987 -0.0502691232
  endloop
 endfacet

 facet normal 0 0 0
  outer loop
  vertex -0.0190057997 -0.0520000011 -0.0484022647
  vertex -0.0133046983 0.0544999987 -0.0502691232
  vertex -0.00903966185 -0.0520000011 -0.0512082465
  endloop
 endfacet

 facet normal 0 0 0
  outer loop
  vertex -0.0190057997 -0.0520000011 0.0484022647
  vertex -0.00903966185 -0.0520000011 0.0512082465
  vertex -0.0133046983 0.0544999987 0.0502691232
  endloop
 endfacet

 facet normal 0 0 0
  outer loop
  vertex -0.0190057997 -0.0520000011 0.0484022647
  vertex -0.0133046983 0.0544999987 0.0502691232
  vertex -0.0231128857 0.0544999987 0.0465810522
  endloop
 endfacet

 facet normal 0 0 0
  outer loop
  vertex -0.0190057997 -0.0520000011 0.0484022647
  vertex -0.0231128857 0.0544999987 0.0465810522
  vertex -0.0282184705 -0.0520000011 0.0436774306
  endloop
 endfacet

 facet normal 0 0 0
  outer loop
  vertex -0.0190057997 -0.0520000011 0.0484022647
  vertex -0.00505841617 -0.0540000014 0.0497434661
  vertex -0.00903966185 -0.0520000011 0.0512082465
  endloop
 endfacet

 facet normal 0 0 0
  outer loop
  vertex 0.114 0.0503400154 0.0130339311
  vertex 0.11649999 0.0482343137 0.00506963069
  vertex 0.114 0.0519332588 0.00263375673
  endloop
 endfacet

 facet normal 0 0 0
  outer loop
  vertex 0.114 0.0503400154 0.0130339311
  vertex 0.114 0.0519332588 0.00263375673
  vertex 0.0406414047 0.0670000017 0.0178269707
  endloop
 endfacet

 facet normal 0 0 0
  outer loop
  vertex 0.114 0.0503400154 0.0130339311
  vertex 0.0406414047 0.0670000017 0.0178269707
  vertex 0.0248789992 0.0667880401 0.0380801484
  endloop
 endfacet

 facet normal 0 0 0
  outer loop
  vertex 0.114 0.0503400154 0.0130339311
  vertex 0.0248789992 0.0667880401 0.0380801484
  vertex 0.114 0.0466858372 0.0229004957
  endloop
 endfacet

 facet normal 0 0 0
  outer loop
  vertex 0.00128484517 -0.0520000011 -0.0519841239
  vertex -0.00903966185 -0.0520000011 -0.0512082465
  vertex -0.0029562416 0.0544999987 -0.0519158989
  endloop
 endfacet

 facet normal 0 0 0
  outer loop
  vertex 0.00128484517 -0.0520000011 -0.0519841239
  vertex -0.0029562416 0.0544999987 -0.0519158989
  vertex 0.114 0 -0.0519999973
  endloop
 endfacet

 facet normal 0 0 0
  outer loop
  vertex 0.00128484517 -0.0520000011 -0.0519841239
  vertex 0.114 0 -0.0519999973
  vertex 0.114 -0.0104675228 -0.0509355552
  endloop
 endfacet

 facet normal 0 0 0
  outer loop
  vertex 0.114 -0.0104675228 -0.0509355552
  vertex 0.114 -0.0205065049 -0.0477858037
  vertex 0.0115584144 -0.0520000011 -0.0506991409
  endloop
 endfacet

 facet normal 0 0 0
  outer loop
  vertex 0.114 -0.0104675228 -0.0509355552
  vertex 0.0115584144 -0.0520000011 -0.0506991409
  vertex 0.00128484517 -0.0520000011 -0.0519841239
  endloop
 endfacet

 facet normal 0 0 0
  outer loop
  vertex 0.00128484517 -0.0520000011 -0.0519841239
  vertex 0.0115584144 -0.0520000011 -0.0506991409
  vertex 0 -0.0540000014 -0.0500000007
  endloop
 endfacet

 facet normal 0 0 0
  outer loop
  vertex 0.00128484517 -0.0520000011 -0.0519841239
  vertex 0 -0.0540000014 -0.0500000007
  vertex -0.00903966185 -0.0520000011 -0.0512082465
  endloop
 endfacet

 facet normal 0 0 0
  outer loop
  vertex 0.114 0.0487631112 -0.0180598721
  vertex 0.0300572999 0.0670000017 -0.0326509327
  vertex 0.114 0.0514003523 -0.00787424482
  endloop
 endfacet

 facet normal 0 0 0
  outer loop
  vertex -0.0029562416 0.0544999987 -0.0519158989
  vertex -0.00797684398 0.059629526 -0.0490834899
  vertex -0.00764345191 0.0661821216 -0.045804698
  endloop
 endfacet

 facet normal 0 0 0
  outer loop
  vertex -0.0029562416 0.0544999987 -0.0519158989
  vertex -0.00764345191 0.0661821216 -0.045804698
  vertex -1.11022296e-16 0.0652678534 -0.0470982529
  endloop
 endfacet

 facet normal 0 0 0
  outer loop
  vertex -1.11022296e-16 0.0652678534 -0.0470982529
  vertex -0.00764345191 0.0661821216 -0.045804698
  vertex 0.011399867 0.0661821216 -0.0450170599
  endloop
 endfacet

 facet normal 0 0 0
  outer loop
  vertex -1.11022296e-16 0.0652678534 -0.0470982529
  vertex 0.00751226023 0.0544999987 -0.0514545031
  vertex -0.0029562416 0.0544999987 -0.0519158989
  endloop
 endfacet

 facet normal 0 0 0
  outer loop
  vertex -0.0152927767 0.0652678534 -0.0445463359
  vertex -0.00764345191 0.0661821216 -0.045804698
  vertex -0.00797684398 0.059629526 -0.0490834899
  endloop
 endfacet

 facet normal 0 0 0
  outer loop
  vertex -0.0152927767 0.0652678534 -0.0445463359
  vertex -0.00797684398 0.059629526 -0.0490834899
  vertex -0.0133046983 0.0544999987 -0.0502691232
  endloop
 endfacet

 facet normal 0 0 0
  outer loop
  vertex -0.0152927767 0.0652678534 -0.0445463359
  vertex -0.0133046983 0.0544999987 -0.0502691232
  vertex -0.0231128857 0.0544999987 -0.0465810522
  endloop
 endfacet

 facet normal 0 0 0
  outer loop
  vertex -0.0152927767 0.0652678534 -0.0445463359
  vertex -0.0231128857 0.0544999987 -0.0465810522
  vertex -0.0253992062 0.0661821216 -0.0388763808
  endloop
 endfacet

 facet normal 0 0 0
  outer loop
  vertex 0.0216493942 0.0667880401 -0.0400045775
  vertex 0.0300572999 0.0670000017 -0.0326509327
  vertex 0.114 0.0487631112 -0.0180598721
  endloop
 endfacet

 facet normal 0 0 0
  outer loop
  vertex 0.0216493942 0.0667880401 -0.0400045775
  vertex 0.114 0.0487631112 -0.0180598721
  vertex 0.114 0.044129502 -0.027506128
  endloop
 endfacet

 facet normal 0 0 0
  outer loop
  vertex 0.114 0.044129502 -0.027506128
  vertex 0.114 0.0376892239 -0.035826277
  vertex 0.011399867 0.0661821216 -0.0450170599
  endloop
 endfacet

 facet normal 0 0 0
  outer loop
  vertex 0.114 0.044129502 -0.027506128
  vertex 0.011399867 0.0661821216 -0.0450170599
  vertex 0.0216493942 0.0667880401 -0.0400045775
  endloop
 endfacet

 facet normal 0 0 0
  outer loop
  vertex -0.0358955935 0.0667880401 -0.0279386584
  vertex -0.0253992062 0.0661821216 -0.0388763808
  vertex -0.0371671394 0.0652678534 -0.0289283432
  endloop
 endfacet

 facet normal 0 0 0
  outer loop
  vertex -0.0431313179 0.0652678534 -0.0189191531
  vertex -0.0371671394 0.0652678534 -0.0289283432
  vertex -0.0455181673 0.0544999987 -0.0251415242
  endloop
 endfacet

 facet normal 0 0 0
  outer loop
  vertex -0.0431313179 0.0652678534 -0.0189191531
  vertex -0.0455181673 0.0544999987 -0.0251415242
  vertex -0.0496345349 0.0544999987 -0.0155052422
  endloop
 endfacet

 facet normal 0 0 0
  outer loop
  vertex -0.0431313179 0.0652678534 -0.0189191531
  vertex -0.0496345349 0.0544999987 -0.0155052422
  vertex -0.0469373837 0.0652678534 -0.00388934277
  endloop
 endfacet

 facet normal 0 0 0
  outer loop
  vertex -0.0431313179 0.0652678534 -0.0189191531
  vertex -0.0469373837 0.0652678534 -0.00388934277
  vertex -0.0430223383 0.0667880401 -0.0147695877
  endloop
 endfacet

 facet normal 0 0 0
  outer loop
  vertex -0.0431313179 0.0652678534 -0.0189191531
  vertex -0.0430223383 0.0667880401 -0.0147695877
  vertex -0.0358955935 0.0667880401 -0.0279386584
  endloop
 endfacet

 facet normal 0 0 0
  outer loop
  vertex -0.0431313179 0.0652678534 -0.0189191531
  vertex -0.0358955935 0.0667880401 -0.0279386584
  vertex -0.0371671394 0.0652678534 -0.0289283432
  endloop
 endfacet

 facet normal 0 0 0
  outer loop
  vertex -0.0362396352 -0.0540000014 -0.0344483443
  vertex -0.0424322076 -0.0540000014 -0.0264482014
  vertex -0.0429668576 -0.0520000011 -0.0292890631
  endloop
 endfacet

 facet normal 0 0 0
  outer loop
  vertex -0.0362396352 -0.0540000014 -0.0344483443
  vertex -0.0429668576 -0.0520000011 -0.0292890631
  vertex -0.0363124497 -0.0520000011 -0.0372210406
  endloop
 endfacet

 facet normal 0 0 0
  outer loop
  vertex -0.0362396352 -0.0540000014 -0.0344483443
  vertex -0.0363124497 -0.0520000011 -0.0372210406
  vertex -0.0282184705 -0.0520000011 -0.0436774306
  endloop
 endfacet

 facet normal 0 0 0
  outer loop
  vertex -0.0362396352 -0.0540000014 -0.0344483443
  vertex -0.0282184705 -0.0520000011 -0.0436774306
  vertex -0.0197177902 -0.0540000014 -0.045947887
  endloop
 endfacet

 facet normal 0 0 0
  outer loop
  vertex -0.0448902249 -0.0540000014 0.0220197048
  vertex -0.0325686224 -0.0540000014 0.0379379056
  vertex -0.0429668576 -0.0520000011 0.0292890631
  endloop
 endfacet

 facet normal 0 0 0
  outer loop
  vertex -0.0448902249 -0.0540000014 0.0220197048
  vertex -0.0429668576 -0.0520000011 0.0292890631
  vertex -0.0479178838 -0.0520000011 0.020195948
  endloop
 endfacet

 facet normal 0 0 0
  outer loop
  vertex -0.0448902249 -0.0540000014 0.0220197048
  vertex -0.0479178838 -0.0520000011 0.020195948
  vertex -0.0484038517 -0.0540000014 0.0125326263
  endloop
 endfacet

 facet normal 0 0 0
  outer loop
  vertex -0.0242650975 -0.0540000014 0.0437173285
  vertex -0.00505841617 -0.0540000014 0.0497434661
  vertex -0.0190057997 -0.0520000011 0.0484022647
  endloop
 endfacet

 facet normal 0 0 0
  outer loop
  vertex -0.0242650975 -0.0540000014 0.0437173285
  vertex -0.0190057997 -0.0520000011 0.0484022647
  vertex -0.0282184705 -0.0520000011 0.0436774306
  endloop
 endfacet

 facet normal 0 0 0
  outer loop
  vertex -0.0242650975 -0.0540000014 0.0437173285
  vertex -0.0282184705 -0.0520000011 0.0436774306
  vertex -0.0325686224 -0.0540000014 0.0379379056
  endloop
 endfacet

 facet normal 0 0 0
  outer loop
  vertex -0.0242650975 -0.0540000014 0.0437173285
  vertex -0.0325686224 -0.0540000014 0.0379379056
  vertex -0.0448902249 -0.0540000014 0.0220197048
  endloop
 endfacet

 facet normal 0 0 0
  outer loop
  vertex -0.0242650975 -0.0540000014 0.0437173285
  vertex -0.0448902249 -0.0540000014 0.0220197048
  vertex -0.0484038517 -0.0540000014 0.0125326263
  endloop
 endfacet

 facet normal 0 0 0
  outer loop
  vertex -0.0242650975 -0.0540000014 0.0437173285
  vertex -0.0484038517 -0.0540000014 0.0125326263
  vertex -0.0494234115 -0.0540000014 -0.00757138897
  endloop
 endfacet

 facet normal 0 0 0
  outer loop
  vertex -0.0242650975 -0.0540000014 0.0437173285
  vertex -0.0494234115 -0.0540000014 -0.00757138897
  vertex -0.0424322076 -0.0540000014 -0.0264482014
  endloop
 endfacet

 facet normal 0 0 0
  outer loop
  vertex -0.0242650975 -0.0540000014 0.0437173285
  vertex -0.0424322076 -0.0540000014 -0.0264482014
  vertex -0.0362396352 -0.0540000014 -0.0344483443
  endloop
 endfacet

 facet normal 0 0 0
  outer loop
  vertex -0.0242650975 -0.0540000014 0.0437173285
  vertex -0.0362396352 -0.0540000014 -0.0344483443
  vertex -0.0197177902 -0.0540000014 -0.045947887
  endloop
 endfacet

 facet normal 0 0 0
  outer loop
  vertex -0.0242650975 -0.0540000014 0.0437173285
  vertex -0.0197177902 -0.0540000014 -0.045947887
  vertex 0 -0.0540000014 -0.0500000007
  endloop
 endfacet

 facet normal 0 0 0
  outer loop
  vertex -0.0242650975 -0.0540000014 0.0437173285
  vertex 0 -0.0540000014 -0.0500000007
  vertex 0.0197177902 -0.0540000014 -0.045947887
  endloop
 endfacet

 facet normal 0 0 0
  outer loop
  vertex -0.0242650975 -0.0540000014 0.0437173285
  vertex 0.0197177902 -0.0540000014 -0.045947887
  vertex 0.0149681559 -0.0540000014 0.0477069616
  endloop
 endfacet

 facet normal 0 0 0
  outer loop
  vertex -0.0242650975 -0.0540000014 0.0437173285
  vertex 0.0149681559 -0.0540000014 0.0477069616
  vertex -0.00505841617 -0.0540000014 0.0497434661
  endloop
 endfacet

 facet normal 0 0 0
  outer loop
  vertex 0.11649999 0.0100837173 -0.0474401601
  vertex 0.11649999 -0.0100837173 -0.0474401601
  vertex 0.114 0 -0.0519999973
  endloop
 endfacet

 facet normal 0 0 0
  outer loop
  vertex 0.11649999 0.0100837173 -0.0474401601
  vertex 0.114 0 -0.0519999973
  vertex 0.114 0.0104675228 -0.0509355552
  endloop
 endfacet

 facet normal 0 0 0
  outer loop
  vertex 0.114 0.0104675228 -0.0509355552
  vertex 0.114 0.0205065049 -0.0477858037
  vertex 0.11649999 0.019726729 -0.0443069562
  endloop
 endfacet

 facet normal 0 0 0
  outer loop
  vertex 0.114 0.0104675228 -0.0509355552
  vertex 0.11649999 0.019726729 -0.0443069562
  vertex 0.11649999 0.0100837173 -0.0474401601
  endloop
 endfacet

 facet normal 0 0 0
  outer loop
  vertex 0.11649999 0.0285075847 -0.0392373204
  vertex 0.114 0.0376892239 -0.035826277
  vertex 0.11649999 0.0420022309 -0.0242500007
  endloop
 endfacet

 facet normal 0 0 0
  outer loop
  vertex 0.11649999 0.0285075847 -0.0392373204
  vertex 0.114 0.0297059473 -0.0426796935
  vertex 0.114 0.0376892239 -0.035826277
  endloop
 endfacet

 facet normal 0 0 0
  outer loop
  vertex 0.11649999 -0.0461262427 -0.0149873234
  vertex 0.11649999 -0.0482343137 0.00506963069
  vertex 0.114 -0.0514003523 -0.00787424482
  endloop
 endfacet

 facet normal 0 0 0
  outer loop
  vertex 0.11649999 -0.0461262427 -0.0149873234
  vertex 0.114 -0.0514003523 -0.00787424482
  vertex 0.114 -0.0487631112 -0.0180598721
  endloop
 endfacet

 facet normal 0 0 0
  outer loop
  vertex 0.11649999 -0.0461262427 -0.0149873234
  vertex 0.114 -0.0487631112 -0.0180598721
  vertex 0.114 -0.044129502 -0.027506128
  endloop
 endfacet

 facet normal 0 0 0
  outer loop
  vertex 0.11649999 -0.0461262427 -0.0149873234
  vertex 0.114 -0.044129502 -0.027506128
  vertex 0.11649999 -0.0420022309 -0.0242500007
  endloop
 endfacet

 facet normal 0 0 0
  outer loop
  vertex 0.11649999 0.0461262427 -0.0149873234
  vertex 0.114 0.0514003523 -0.00787424482
  vertex 0.11649999 0.0482343137 0.00506963069
  endloop
 endfacet

 facet normal 0 0 0
  outer loop
  vertex 0.11649999 0.0461262427 -0.0149873234
  vertex 0.11649999 0.0420022309 -0.0242500007
  vertex 0.114 0.044129502 -0.027506128
  endloop
 endfacet

 facet normal 0 0 0
  outer loop
  vertex 0.11649999 0.0461262427 -0.0149873234
  vertex 0.114 0.044129502 -0.027506128
  vertex 0.114 0.0487631112 -0.0180598721
  endloop
 endfacet

 facet normal 0 0 0
  outer loop
  vertex 0.11649999 0.0461262427 -0.0149873234
  vertex 0.114 0.0487631112 -0.0180598721
  vertex 0.114 0.0514003523 -0.00787424482
  endloop
 endfacet

 facet normal 0 0 0
  outer loop
  vertex 0.11649999 0.0461262427 0.0149873234
  vertex 0.11649999 0.0482343137 0.00506963069
  vertex 0.114 0.0503400154 0.0130339311
  endloop
 endfacet

 facet normal 0 0 0
  outer loop
  vertex 0.11649999 0.0461262427 0.0149873234
  vertex 0.114 0.0503400154 0.0130339311
  vertex 0.114 0.0466858372 0.0229004957
  endloop
 endfacet

 facet normal 0 0 0
  outer loop
  vertex 0.11649999 0.0461262427 0.0149873234
  vertex 0.114 0.0466858372 0.0229004957
  vertex 0.114 0.0411203392 0.0318295062
  endloop
 endfacet

 facet normal 0 0 0
  outer loop
  vertex 0.11649999 0.0461262427 0.0149873234
  vertex 0.114 0.0411203392 0.0318295062
  vertex 0.11649999 0.0360425226 0.0324528329
  endloop
 endfacet

 facet normal 0 0 0
  outer loop
  vertex 0.11649999 0.019726729 0.0443069562
  vertex 0.114 0.0252357032 0.0454660207
  vertex 0.114 0.0155668827 0.0496152416
  endloop
 endfacet

 facet normal 0 0 0
  outer loop
  vertex 0.11649999 0.019726729 0.0443069562
  vertex 0.114 0.0155668827 0.0496152416
  vertex 0.11649999 0.0100837173 0.0474401601
  endloop
 endfacet

 facet normal 0 0 0
  outer loop
  vertex 0.11649999 0.0360425226 0.0324528329
  vertex 0.114 0.0338713676 0.0394554213
  vertex 0.114 0.0252357032 0.0454660207
  endloop
 endfacet

 facet normal 0 0 0
  outer loop
  vertex 0.11649999 0.0360425226 0.0324528329
  vertex 0.114 0.0252357032 0.0454660207
  vertex 0.11649999 0.019726729 0.0443069562
  endloop
 endfacet

 facet normal 0 0 0
  outer loop
  vertex 0.00751226023 0.0544999987 0.0514545031
  vertex 0.114 0.0155668827 0.0496152416
  vertex 0.114 0.0252357032 0.0454660207
  endloop
 endfacet

 facet normal 0 0 0
  outer loop
  vertex 0.00751226023 0.0544999987 0.0514545031
  vertex 0.114 0.0252357032 0.0454660207
  vertex 0.011399867 0.0661821216 0.0450170599
  endloop
 endfacet

 facet normal 0 0 0
  outer loop
  vertex 0.00751226023 0.0544999987 0.0514545031
  vertex 0.011399867 0.0661821216 0.0450170599
  vertex 0.00388934277 0.0652678534 0.0469373837
  endloop
 endfacet

 facet normal 0 0 0
  outer loop
  vertex 0.00388934277 0.0652678534 0.0469373837
  vertex 0.011399867 0.0661821216 0.0450170599
  vertex -1.11022296e-16 0.0667880401 0.0454869419
  endloop
 endfacet

 facet normal 0 0 0
  outer loop
  vertex 0.00388934277 0.0652678534 0.0469373837
  vertex -1.11022296e-16 0.0667880401 0.0454869419
  vertex -0.00775211677 0.0652678534 0.0464558937
  endloop
 endfacet

 facet normal 0 0 0
  outer loop
  vertex 0.00388934277 0.0652678534 0.0469373837
  vertex -0.00775211677 0.0652678534 0.0464558937
  vertex -0.0029562416 0.0544999987 0.0519158989
  endloop
 endfacet

 facet normal 0 0 0
  outer loop
  vertex 0.00388934277 0.0652678534 0.0469373837
  vertex -0.0029562416 0.0544999987 0.0519158989
  vertex 0.00751226023 0.0544999987 0.0514545031
  endloop
 endfacet

 facet normal 0 0 0
  outer loop
  vertex -0.0394290723 0.0652678534 0.0257603023
  vertex -0.0431313179 0.0652678534 0.0189191531
  vertex -0.0455181673 0.0544999987 0.0251415242
  endloop
 endfacet

 facet normal 0 0 0
  outer loop
  vertex -0.0394290723 0.0652678534 0.0257603023
  vertex -0.0455181673 0.0544999987 0.0251415242
  vertex -0.0395534225 0.0544999987 0.0337568745
  endloop
 endfacet

 facet normal 0 0 0
  outer loop
  vertex -0.0394290723 0.0652678534 0.0257603023
  vertex -0.0395534225 0.0544999987 0.0337568745
  vertex -0.0289283432 0.0652678534 0.0371671356
  endloop
 endfacet

 facet normal 0 0 0
  outer loop
  vertex -0.0394290723 0.0652678534 0.0257603023
  vertex -0.0289283432 0.0652678534 0.0371671356
  vertex -0.0358955935 0.0667880401 0.0279386584
  endloop
 endfacet

 facet normal 0 0 0
  outer loop
  vertex -0.0394290723 0.0652678534 0.0257603023
  vertex -0.0358955935 0.0667880401 0.0279386584
  vertex -0.0431313179 0.0652678534 0.0189191531
  endloop
 endfacet

 facet normal 0 0 0
  outer loop
  vertex 0.0115584144 -0.0520000011 0.0506991409
  vertex 0.114 -0.0252357032 0.0454660207
  vertex 0.114 -0.0155668827 0.0496152416
  endloop
 endfacet

 facet normal 0 0 0
  outer loop
  vertex 0.0115584144 -0.0520000011 0.0506991409
  vertex 0.114 -0.0155668827 0.0496152416
  vertex 0.00128484517 -0.0520000011 0.0519841239
  endloop
 endfacet

 facet normal 0 0 0
  outer loop
  vertex 0.0115584144 -0.0520000011 0.0506991409
  vertex 0.00128484517 -0.0520000011 0.0519841239
  vertex 0.0149681559 -0.0540000014 0.0477069616
  endloop
 endfacet

 facet normal 0 0 0
  outer loop
  vertex 0.0115584144 -0.0520000011 0.0506991409
  vertex 0.114 -0.0338713676 0.0394554213
  vertex 0.114 -0.0252357032 0.0454660207
  endloop
 endfacet

 facet normal 0 0 0
  outer loop
  vertex -0.0108944811 0.0670000017 -0.0430213325
  vertex -0.00764345191 0.0661821216 -0.045804698
  vertex -0.0152927767 0.0652678534 -0.0445463359
  endloop
 endfacet

 facet normal 0 0 0
  outer loop
  vertex -0.0108944811 0.0670000017 -0.0430213325
  vertex -0.0152927767 0.0652678534 -0.0445463359
  vertex -0.0253992062 0.0661821216 -0.0388763808
  endloop
 endfacet

 facet normal 0 0 0
  outer loop
  vertex -0.0108944811 0.0670000017 -0.0430213325
  vertex -0.0253992062 0.0661821216 -0.0388763808
  vertex -0.0358955935 0.0667880401 -0.0279386584
  endloop
 endfacet

 facet normal 0 0 0
  outer loop
  vertex -0.0358955935 0.0667880401 -0.0279386584
  vertex -0.0430223383 0.0667880401 -0.0147695877
  vertex -0.0358955935 0.0667880401 0.0279386584
  endloop
 endfacet

 facet normal 0 0 0
  outer loop
  vertex -0.0358955935 0.0667880401 -0.0279386584
  vertex -0.0358955935 0.0667880401 0.0279386584
  vertex -1.11022296e-16 0.0667880401 0.0454869419
  endloop
 endfacet

 facet normal 0 0 0
  outer loop
  vertex -0.0358955935 0.0667880401 -0.0279386584
  vertex -1.11022296e-16 0.0667880401 0.0454869419
  vertex 0.0248789992 0.0667880401 0.0380801484
  endloop
 endfacet

 facet normal 0 0 0
  outer loop
  vertex -0.0358955935 0.0667880401 -0.0279386584
  vertex 0.0248789992 0.0667880401 0.0380801484
  vertex 0.0406414047 0.0670000017 0.0178269707
  endloop
 endfacet

 facet normal 0 0 0
  outer loop
  vertex -0.0358955935 0.0667880401 -0.0279386584
  vertex 0.0406414047 0.0670000017 0.0178269707
  vertex 0.044095058 0.0667880401 -0.0111663854
  endloop
 endfacet

 facet normal 0 0 0
  outer loop
  vertex -0.0358955935 0.0667880401 -0.0279386584
  vertex 0.044095058 0.0667880401 -0.0111663854
  vertex 0.0300572999 0.0670000017 -0.0326509327
  endloop
 endfacet

 facet normal 0 0 0
  outer loop
  vertex -0.0358955935 0.0667880401 -0.0279386584
  vertex 0.0300572999 0.0670000017 -0.0326509327
  vertex 0.0216493942 0.0667880401 -0.0400045775
  endloop
 endfacet

 facet normal 0 0 0
  outer loop
  vertex -0.0358955935 0.0667880401 -0.0279386584
  vertex 0.0216493942 0.0667880401 -0.0400045775
  vertex -0.0108944811 0.0670000017 -0.0430213325
  endloop
 endfacet

 facet normal 0 0 0
  outer loop
  vertex -0.0108944811 0.0670000017 -0.0430213325
  vertex 0.0216493942 0.0667880401 -0.0400045775
  vertex 0.011399867 0.0661821216 -0.0450170599
  endloop
 endfacet

 facet normal 0 0 0
  outer loop
  vertex -0.0108944811 0.0670000017 -0.0430213325
  vertex 0.011399867 0.0661821216 -0.0450170599
  vertex -0.00764345191 0.0661821216 -0.045804698
  endloop
 endfacet

endsolid AssimpScene
