solid AssimpScene
 facet normal 0 0 0
  outer loop
  vertex -0.0229999982 0.0445674136 0.0267907642
  vertex -0.0229999982 0.0483691953 0.019089818
  vertex -0.0229999982 0.050851576 0.0108681517
  endloop
 endfacet

 facet normal 0 0 0
  outer loop
  vertex -0.0229999982 0.0445674136 0.0267907642
  vertex -0.0229999982 0.050851576 0.0108681517
  vertex -0.0229999982 0.0519468673 0.00235003
  endloop
 endfacet

 facet normal 0 0 0
  outer loop
  vertex -0.0229999982 0.0445674136 0.0267907642
  vertex -0.0229999982 0.0519468673 0.00235003
  vertex -0.0229999982 0.0516251847 -0.00623219553
  endloop
 endfacet

 facet normal 0 0 0
  outer loop
  vertex -0.0229999982 0.0445674136 0.0267907642
  vertex -0.0229999982 0.0516251847 -0.00623219553
  vertex -0.0229999982 0.049895294 -0.0146444216
  endloop
 endfacet

 facet normal 0 0 0
  outer loop
  vertex -0.0229999982 0.0445674136 0.0267907642
  vertex -0.0229999982 0.049895294 -0.0146444216
  vertex -0.0229999982 0.0468043946 -0.0226571895
  endloop
 endfacet

 facet normal 0 0 0
  outer loop
  vertex -0.0229999982 0.0445674136 0.0267907642
  vertex -0.0229999982 0.0468043946 -0.0226571895
  vertex -0.0229999982 0.0424367972 -0.0300519262
  endloop
 endfacet

 facet normal 0 0 0
  outer loop
  vertex -0.0229999982 0.0445674136 0.0267907642
  vertex -0.0229999982 0.0424367972 -0.0300519262
  vertex -0.0229999982 0.0369116291 -0.0366269238
  endloop
 endfacet

 facet normal 0 0 0
  outer loop
  vertex -0.0229999982 0.0445674136 0.0267907642
  vertex -0.0229999982 0.0369116291 -0.0366269238
  vertex -0.0229999982 0.0303796083 -0.0422028303
  endloop
 endfacet

 facet normal 0 0 0
  outer loop
  vertex -0.0229999982 0.0445674136 0.0267907642
  vertex -0.0229999982 0.0303796083 -0.0422028303
  vertex -0.0229999982 0.0230189133 -0.0466275625
  endloop
 endfacet

 facet normal 0 0 0
  outer loop
  vertex -0.0229999982 0.0445674136 0.0267907642
  vertex -0.0229999982 0.0230189133 -0.0466275625
  vertex -0.0229999982 0.0150303207 -0.0497804135
  endloop
 endfacet

 facet normal 0 0 0
  outer loop
  vertex -0.0229999982 0.0445674136 0.0267907642
  vertex -0.0229999982 0.0150303207 -0.0497804135
  vertex -0.0229999982 0.00663174083 -0.0515753813
  endloop
 endfacet

 facet normal 0 0 0
  outer loop
  vertex -0.0229999982 0.0445674136 0.0267907642
  vertex -0.0229999982 0.00663174083 -0.0515753813
  vertex -0.0229999982 -0.00194773602 -0.0519635081
  endloop
 endfacet

 facet normal 0 0 0
  outer loop
  vertex -0.0229999982 0.0445674136 0.0267907642
  vertex -0.0229999982 -0.00194773602 -0.0519635081
  vertex -0.0229999982 -0.0104740839 -0.0509342104
  endloop
 endfacet

 facet normal 0 0 0
  outer loop
  vertex -0.0229999982 0.0445674136 0.0267907642
  vertex -0.0229999982 -0.0104740839 -0.0509342104
  vertex -0.0229999982 -0.018714726 -0.0485155545
  endloop
 endfacet

 facet normal 0 0 0
  outer loop
  vertex -0.0229999982 0.0445674136 0.0267907642
  vertex -0.0229999982 -0.018714726 -0.0485155545
  vertex -0.0229999982 -0.0264448803 -0.044773519
  endloop
 endfacet

 facet normal 0 0 0
  outer loop
  vertex -0.0229999982 0.0445674136 0.0267907642
  vertex -0.0229999982 -0.0264448803 -0.044773519
  vertex -0.0229999982 -0.0334536843 -0.0398101844
  endloop
 endfacet

 facet normal 0 0 0
  outer loop
  vertex -0.0229999982 0.0445674136 0.0267907642
  vertex -0.0229999982 -0.0334536843 -0.0398101844
  vertex -0.0229999982 -0.039549958 -0.0337609313
  endloop
 endfacet

 facet normal 0 0 0
  outer loop
  vertex -0.0229999982 0.0445674136 0.0267907642
  vertex -0.0229999982 -0.039549958 -0.0337609313
  vertex -0.0229999982 -0.0445674136 -0.0267907642
  endloop
 endfacet

 facet normal 0 0 0
  outer loop
  vertex -0.0229999982 0.0445674136 0.0267907642
  vertex -0.0229999982 -0.0445674136 -0.0267907642
  vertex -0.0229999982 -0.0483691953 -0.019089818
  endloop
 endfacet

 facet normal 0 0 0
  outer loop
  vertex -0.0229999982 0.0445674136 0.0267907642
  vertex -0.0229999982 -0.0483691953 -0.019089818
  vertex -0.0229999982 -0.050851576 -0.0108681517
  endloop
 endfacet

 facet normal 0 0 0
  outer loop
  vertex -0.0229999982 0.0445674136 0.0267907642
  vertex -0.0229999982 -0.050851576 -0.0108681517
  vertex -0.0229999982 -0.0519468673 -0.00235003
  endloop
 endfacet

 facet normal 0 0 0
  outer loop
  vertex -0.0229999982 0.0445674136 0.0267907642
  vertex -0.0229999982 -0.0519468673 -0.00235003
  vertex -0.0229999982 -0.0516251847 0.00623219553
  endloop
 endfacet

 facet normal 0 0 0
  outer loop
  vertex -0.0229999982 0.0445674136 0.0267907642
  vertex -0.0229999982 -0.0516251847 0.00623219553
  vertex -0.0229999982 -0.049895294 0.0146444216
  endloop
 endfacet

 facet normal 0 0 0
  outer loop
  vertex -0.0229999982 0.0445674136 0.0267907642
  vertex -0.0229999982 -0.049895294 0.0146444216
  vertex -0.0229999982 -0.0468043946 0.0226571895
  endloop
 endfacet

 facet normal 0 0 0
  outer loop
  vertex -0.0229999982 0.0445674136 0.0267907642
  vertex -0.0229999982 -0.0468043946 0.0226571895
  vertex -0.0229999982 -0.0424367972 0.0300519262
  endloop
 endfacet

 facet normal 0 0 0
  outer loop
  vertex -0.0229999982 0.0445674136 0.0267907642
  vertex -0.0229999982 -0.0424367972 0.0300519262
  vertex -0.0229999982 -0.0369116291 0.0366269238
  endloop
 endfacet

 facet normal 0 0 0
  outer loop
  vertex -0.0229999982 0.0445674136 0.0267907642
  vertex -0.0229999982 -0.0369116291 0.0366269238
  vertex -0.0229999982 -0.0303796083 0.0422028303
  endloop
 endfacet

 facet normal 0 0 0
  outer loop
  vertex -0.0229999982 0.0445674136 0.0267907642
  vertex -0.0229999982 -0.0303796083 0.0422028303
  vertex -0.0229999982 -0.0230189133 0.0466275625
  endloop
 endfacet

 facet normal 0 0 0
  outer loop
  vertex -0.0229999982 0.0445674136 0.0267907642
  vertex -0.0229999982 -0.0230189133 0.0466275625
  vertex -0.0229999982 -0.0150303207 0.0497804135
  endloop
 endfacet

 facet normal 0 0 0
  outer loop
  vertex -0.0229999982 0.0445674136 0.0267907642
  vertex -0.0229999982 -0.0150303207 0.0497804135
  vertex -0.0229999982 -0.00663174083 0.0515753813
  endloop
 endfacet

 facet normal 0 0 0
  outer loop
  vertex -0.0229999982 0.0445674136 0.0267907642
  vertex -0.0229999982 -0.00663174083 0.0515753813
  vertex -0.0229999982 0.00194773602 0.0519635081
  endloop
 endfacet

 facet normal 0 0 0
  outer loop
  vertex -0.0229999982 0.0445674136 0.0267907642
  vertex -0.0229999982 0.00194773602 0.0519635081
  vertex -0.0229999982 0.0104740839 0.0509342104
  endloop
 endfacet

 facet normal 0 0 0
  outer loop
  vertex -0.0229999982 0.0445674136 0.0267907642
  vertex -0.0229999982 0.0104740839 0.0509342104
  vertex -0.0229999982 0.018714726 0.0485155545
  endloop
 endfacet

 facet normal 0 0 0
  outer loop
  vertex -0.0229999982 0.0445674136 0.0267907642
  vertex -0.0229999982 0.018714726 0.0485155545
  vertex -0.0229999982 0.0264448803 0.044773519
  endloop
 endfacet

 facet normal 0 0 0
  outer loop
  vertex -0.0229999982 0.0445674136 0.0267907642
  vertex -0.0229999982 0.0264448803 0.044773519
  vertex -0.0229999982 0.0334536843 0.0398101844
  endloop
 endfacet

 facet normal 0 0 0
  outer loop
  vertex -0.0229999982 0.0445674136 0.0267907642
  vertex -0.0229999982 0.0334536843 0.0398101844
  vertex -0.0229999982 0.039549958 0.0337609313
  endloop
 endfacet

 facet normal 0 0 0
  outer loop
  vertex 0.00805484131 0.0321869068 0.0394218042
  vertex 0.0195000004 0.0205757655 0.0228517037
  vertex 0.0195000004 0.0280915201 0.0125071518
  endloop
 endfacet

 facet normal 0 0 0
  outer loop
  vertex 0.00805484131 0.0321869068 0.0394218042
  vertex 0.0195000004 0.0280915201 0.0125071518
  vertex 0.00771141518 0.0432368033 0.0273412988
  endloop
 endfacet

 facet normal 0 0 0
  outer loop
  vertex 0.00805484131 0.0289103985 -0.0418839417
  vertex 0.00771141518 0.0408965349 -0.0307317544
  vertex 0.0195000004 0.0205757655 -0.0228517037
  endloop
 endfacet

 facet normal 0 0 0
  outer loop
  vertex 0.00771141518 -0.0408965349 0.0307317544
  vertex 0.0195000004 -0.0248772725 0.018074397
  vertex 0.0195000004 -0.0153749995 0.0266302805
  endloop
 endfacet

 facet normal 0 0 0
  outer loop
  vertex 0.00771141518 -0.0408965349 0.0307317544
  vertex 0.0195000004 -0.0153749995 0.0266302805
  vertex 0.00805484131 -0.0289103985 0.0418839417
  endloop
 endfacet

 facet normal 0 0 0
  outer loop
  vertex 0.00805484131 -0.0482736602 -0.0161161162
  vertex 0.00771141518 -0.0408965349 -0.0307317544
  vertex 0.0195000004 -0.0248772725 -0.018074397
  endloop
 endfacet

 facet normal 0 0 0
  outer loop
  vertex 0.00805484131 -0.0482736602 -0.0161161162
  vertex 0.0195000004 -0.0248772725 -0.018074397
  vertex 0.0195000004 -0.030749999 0
  endloop
 endfacet

 facet normal 0 0 0
  outer loop
  vertex 0.00805484131 -0.0482736602 -0.0161161162
  vertex 0.0195000004 -0.030749999 0
  vertex 0.00771141518 -0.0511563048 6.26484055e-18
  endloop
 endfacet

 facet normal 0 0 0
  outer loop
  vertex 0.00771141518 0.0511563048 0
  vertex 0.0195000004 0.030749999 1.73472331e-17
  vertex 0.0195000004 0.0280915201 -0.0125071518
  endloop
 endfacet

 facet normal 0 0 0
  outer loop
  vertex 0.00771141518 0.0511563048 0
  vertex 0.0195000004 0.0280915201 -0.0125071518
  vertex 0.00805484131 0.0482736602 -0.0161161162
  endloop
 endfacet

 facet normal 0 0 0
  outer loop
  vertex 0.00805484131 -0.0482736602 0.0161161162
  vertex 0.00771141518 -0.0511563048 6.26484055e-18
  vertex 0.0195000004 -0.030749999 0
  endloop
 endfacet

 facet normal 0 0 0
  outer loop
  vertex 0.00805484131 -0.0482736602 0.0161161162
  vertex 0.0195000004 -0.030749999 0
  vertex 0.0195000004 -0.0248772725 0.018074397
  endloop
 endfacet

 facet normal 0 0 0
  outer loop
  vertex 0.00805484131 -0.0482736602 0.0161161162
  vertex 0.0195000004 -0.0248772725 0.018074397
  vertex 0.00771141518 -0.0408965349 0.0307317544
  endloop
 endfacet

 facet normal 0 0 0
  outer loop
  vertex 0.00805484131 -0.0289103985 -0.0418839417
  vertex 0.0195000004 -0.0153749995 -0.0266302805
  vertex 0.0195000004 -0.0248772725 -0.018074397
  endloop
 endfacet

 facet normal 0 0 0
  outer loop
  vertex 0.00805484131 -0.0289103985 -0.0418839417
  vertex 0.0195000004 -0.0248772725 -0.018074397
  vertex 0.00771141518 -0.0408965349 -0.0307317544
  endloop
 endfacet

 facet normal 0 0 0
  outer loop
  vertex 0.00500000082 0.039549958 0.0337609313
  vertex 0.00805484131 0.0321869068 0.0394218042
  vertex 0.00771141518 0.0432368033 0.0273412988
  endloop
 endfacet

 facet normal 0 0 0
  outer loop
  vertex 0.00805484131 0.0494139306 0.0121794408
  vertex 0.00771141518 0.0511563048 0
  vertex 0.00500000082 0.0519468673 0.00235003
  endloop
 endfacet

 facet normal 0 0 0
  outer loop
  vertex 0.00805484131 0.0494139306 0.0121794408
  vertex 0.00500000082 0.0519468673 0.00235003
  vertex 0.00500000082 0.050851576 0.0108681517
  endloop
 endfacet

 facet normal 0 0 0
  outer loop
  vertex 0.00805484131 0.0494139306 0.0121794408
  vertex 0.0195000004 0.030749999 1.73472331e-17
  vertex 0.00771141518 0.0511563048 0
  endloop
 endfacet

 facet normal 0 0 0
  outer loop
  vertex 0.00500000082 0.0369116291 -0.0366269238
  vertex 0.00771141518 0.0408965349 -0.0307317544
  vertex 0.00805484131 0.0289103985 -0.0418839417
  endloop
 endfacet

 facet normal 0 0 0
  outer loop
  vertex 0.00500000082 -0.0369116291 0.0366269238
  vertex 0.00771141518 -0.0408965349 0.0307317544
  vertex 0.00805484131 -0.0289103985 0.0418839417
  endloop
 endfacet

 facet normal 0 0 0
  outer loop
  vertex 0.00500000082 -0.0334536843 -0.0398101844
  vertex 0.00500000082 -0.0264448803 -0.044773519
  vertex 0.00805484131 -0.0289103985 -0.0418839417
  endloop
 endfacet

 facet normal 0 0 0
  outer loop
  vertex 0.00500000082 -0.0334536843 -0.0398101844
  vertex 0.00805484131 -0.0289103985 -0.0418839417
  vertex 0.00771141518 -0.0408965349 -0.0307317544
  endloop
 endfacet

 facet normal 0 0 0
  outer loop
  vertex 0.0195000004 0.0280915201 0.0125071518
  vertex 0.0195000004 0.030749999 1.73472331e-17
  vertex 0.00805484131 0.0494139306 0.0121794408
  endloop
 endfacet

 facet normal 0 0 0
  outer loop
  vertex 0.0195000004 0.0280915201 0.0125071518
  vertex 0.00805484131 0.0494139306 0.0121794408
  vertex 0.00771141518 0.0432368033 0.0273412988
  endloop
 endfacet

 facet normal 0 0 0
  outer loop
  vertex 0.00500000082 -0.050851576 -0.0108681517
  vertex 0.00500000082 -0.0483691953 -0.019089818
  vertex 0.00805484131 -0.0482736602 -0.0161161162
  endloop
 endfacet

 facet normal 0 0 0
  outer loop
  vertex 0.00500000082 -0.050851576 -0.0108681517
  vertex 0.00805484131 -0.0482736602 -0.0161161162
  vertex 0.00771141518 -0.0511563048 6.26484055e-18
  endloop
 endfacet

 facet normal 0 0 0
  outer loop
  vertex 0.0195000004 0.00950227119 -0.0292449873
  vertex 0.0195000004 -0.00321425032 -0.0305815469
  vertex 0.00805484131 -0.00204924587 -0.0508515127
  endloop
 endfacet

 facet normal 0 0 0
  outer loop
  vertex 0.0195000004 0.00950227119 -0.0292449873
  vertex 0.00805484131 -0.00204924587 -0.0508515127
  vertex 0.00805484131 0.0101798652 -0.0498642735
  endloop
 endfacet

 facet normal 0 0 0
  outer loop
  vertex 0.0195000004 0.00950227119 -0.0292449873
  vertex 0.00771141518 0.0181402769 -0.0478319786
  vertex 0.00805484131 0.0289103985 -0.0418839417
  endloop
 endfacet

 facet normal 0 0 0
  outer loop
  vertex 0.0195000004 0.00950227119 -0.0292449873
  vertex 0.00805484131 0.0289103985 -0.0418839417
  vertex 0.0195000004 0.0205757655 -0.0228517037
  endloop
 endfacet

 facet normal 0 0 0
  outer loop
  vertex 0.0195000004 0.0280915201 -0.0125071518
  vertex 0.0195000004 0.0205757655 -0.0228517037
  vertex 0.00771141518 0.0408965349 -0.0307317544
  endloop
 endfacet

 facet normal 0 0 0
  outer loop
  vertex 0.0195000004 0.0280915201 -0.0125071518
  vertex 0.00771141518 0.0408965349 -0.0307317544
  vertex 0.00805484131 0.0482736602 -0.0161161162
  endloop
 endfacet

 facet normal 0 0 0
  outer loop
  vertex 0.0195000004 -0.0153749995 -0.0266302805
  vertex 0.00805484131 -0.0289103985 -0.0418839417
  vertex 0.00805484131 -0.0141592612 -0.0488834456
  endloop
 endfacet

 facet normal 0 0 0
  outer loop
  vertex 0.0195000004 -0.0153749995 -0.0266302805
  vertex 0.00805484131 -0.0141592612 -0.0488834456
  vertex 0.0195000004 -0.00321425032 -0.0305815469
  endloop
 endfacet

 facet normal 0 0 0
  outer loop
  vertex 0.0195000004 -0.00321425032 0.0305815469
  vertex 0.00805484131 -0.0101798652 0.0498642735
  vertex 0.00771141518 -0.0181402769 0.0478319786
  endloop
 endfacet

 facet normal 0 0 0
  outer loop
  vertex 0.0195000004 -0.00321425032 0.0305815469
  vertex 0.00771141518 -0.0181402769 0.0478319786
  vertex 0.0195000004 -0.0153749995 0.0266302805
  endloop
 endfacet

 facet normal 0 0 0
  outer loop
  vertex 0.0195000004 0.00950227119 0.0292449873
  vertex 0.0195000004 -0.00321425032 0.0305815469
  vertex 0.0195000004 -0.0153749995 0.0266302805
  endloop
 endfacet

 facet normal 0 0 0
  outer loop
  vertex 0.0195000004 0.00950227119 0.0292449873
  vertex 0.0195000004 -0.0153749995 0.0266302805
  vertex 0.0195000004 -0.0248772725 0.018074397
  endloop
 endfacet

 facet normal 0 0 0
  outer loop
  vertex 0.0195000004 0.00950227119 0.0292449873
  vertex 0.0195000004 -0.0248772725 0.018074397
  vertex 0.0195000004 -0.030749999 0
  endloop
 endfacet

 facet normal 0 0 0
  outer loop
  vertex 0.0195000004 0.00950227119 0.0292449873
  vertex 0.0195000004 -0.030749999 0
  vertex 0.0195000004 -0.0248772725 -0.018074397
  endloop
 endfacet

 facet normal 0 0 0
  outer loop
  vertex 0.0195000004 0.00950227119 0.0292449873
  vertex 0.0195000004 -0.0248772725 -0.018074397
  vertex 0.0195000004 -0.0153749995 -0.0266302805
  endloop
 endfacet

 facet normal 0 0 0
  outer loop
  vertex 0.0195000004 0.00950227119 0.0292449873
  vertex 0.0195000004 -0.0153749995 -0.0266302805
  vertex 0.0195000004 -0.00321425032 -0.0305815469
  endloop
 endfacet

 facet normal 0 0 0
  outer loop
  vertex 0.0195000004 0.00950227119 0.0292449873
  vertex 0.0195000004 -0.00321425032 -0.0305815469
  vertex 0.0195000004 0.00950227119 -0.0292449873
  endloop
 endfacet

 facet normal 0 0 0
  outer loop
  vertex 0.0195000004 0.00950227119 0.0292449873
  vertex 0.0195000004 0.00950227119 -0.0292449873
  vertex 0.0195000004 0.0205757655 -0.0228517037
  endloop
 endfacet

 facet normal 0 0 0
  outer loop
  vertex 0.0195000004 0.00950227119 0.0292449873
  vertex 0.0195000004 0.0205757655 -0.0228517037
  vertex 0.0195000004 0.0280915201 -0.0125071518
  endloop
 endfacet

 facet normal 0 0 0
  outer loop
  vertex 0.0195000004 0.00950227119 0.0292449873
  vertex 0.0195000004 0.0280915201 -0.0125071518
  vertex 0.0195000004 0.030749999 1.73472331e-17
  endloop
 endfacet

 facet normal 0 0 0
  outer loop
  vertex 0.0195000004 0.00950227119 0.0292449873
  vertex 0.0195000004 0.030749999 1.73472331e-17
  vertex 0.0195000004 0.0280915201 0.0125071518
  endloop
 endfacet

 facet normal 0 0 0
  outer loop
  vertex 0.0195000004 0.00950227119 0.0292449873
  vertex 0.0195000004 0.0280915201 0.0125071518
  vertex 0.0195000004 0.0205757655 0.0228517037
  endloop
 endfacet

 facet normal 0 0 0
  outer loop
  vertex 0.00500000082 -0.0468043946 0.0226571895
  vertex 0.00500000082 -0.049895294 0.0146444216
  vertex 0.00805484131 -0.0482736602 0.0161161162
  endloop
 endfacet

 facet normal 0 0 0
  outer loop
  vertex 0.00500000082 -0.0468043946 0.0226571895
  vertex 0.00805484131 -0.0482736602 0.0161161162
  vertex 0.00771141518 -0.0408965349 0.0307317544
  endloop
 endfacet

 facet normal 0 0 0
  outer loop
  vertex 0.00500000082 0.0468043946 -0.0226571895
  vertex 0.00500000082 0.049895294 -0.0146444216
  vertex 0.00805484131 0.0482736602 -0.0161161162
  endloop
 endfacet

 facet normal 0 0 0
  outer loop
  vertex 0.00500000082 0.0468043946 -0.0226571895
  vertex 0.00805484131 0.0482736602 -0.0161161162
  vertex 0.00771141518 0.0408965349 -0.0307317544
  endloop
 endfacet

 facet normal 0 0 0
  outer loop
  vertex 0.00500000082 0.0483691953 0.019089818
  vertex 0.00771141518 0.0432368033 0.0273412988
  vertex 0.00805484131 0.0494139306 0.0121794408
  endloop
 endfacet

 facet normal 0 0 0
  outer loop
  vertex 0.00500000082 0.0483691953 0.019089818
  vertex 0.00805484131 0.0494139306 0.0121794408
  vertex 0.00500000082 0.050851576 0.0108681517
  endloop
 endfacet

 facet normal 0 0 0
  outer loop
  vertex 0.00805484131 -0.00204924587 -0.0508515127
  vertex 0.0195000004 -0.00321425032 -0.0305815469
  vertex 0.00805484131 -0.0141592612 -0.0488834456
  endloop
 endfacet

 facet normal 0 0 0
  outer loop
  vertex 0.00805484131 0.00204924587 0.0508515127
  vertex 0.00805484131 -0.0101798652 0.0498642735
  vertex 0.0195000004 -0.00321425032 0.0305815469
  endloop
 endfacet

 facet normal 0 0 0
  outer loop
  vertex 0.0195000004 -0.00321425032 0.0305815469
  vertex 0.0195000004 0.00950227119 0.0292449873
  vertex 0.00805484131 0.0141592612 0.0488834456
  endloop
 endfacet

 facet normal 0 0 0
  outer loop
  vertex 0.0195000004 -0.00321425032 0.0305815469
  vertex 0.00805484131 0.0141592612 0.0488834456
  vertex 0.00805484131 0.00204924587 0.0508515127
  endloop
 endfacet

 facet normal 0 0 0
  outer loop
  vertex 0.00500000082 0.0104740839 0.0509342104
  vertex 0.00500000082 0.00194773602 0.0519635081
  vertex 0.00805484131 0.00204924587 0.0508515127
  endloop
 endfacet

 facet normal 0 0 0
  outer loop
  vertex 0.00500000082 0.0104740839 0.0509342104
  vertex 0.00805484131 0.00204924587 0.0508515127
  vertex 0.00805484131 0.0141592612 0.0488834456
  endloop
 endfacet

 facet normal 0 0 0
  outer loop
  vertex 0.00500000082 -0.0104740839 -0.0509342104
  vertex 0.00500000082 -0.00194773602 -0.0519635081
  vertex 0.00805484131 -0.00204924587 -0.0508515127
  endloop
 endfacet

 facet normal 0 0 0
  outer loop
  vertex 0.00500000082 -0.0104740839 -0.0509342104
  vertex 0.00805484131 -0.00204924587 -0.0508515127
  vertex 0.00805484131 -0.0141592612 -0.0488834456
  endloop
 endfacet

 facet normal 0 0 0
  outer loop
  vertex 0.00500000082 0.00663174083 -0.0515753813
  vertex 0.00805484131 0.0101798652 -0.0498642735
  vertex 0.00805484131 -0.00204924587 -0.0508515127
  endloop
 endfacet

 facet normal 0 0 0
  outer loop
  vertex 0.00500000082 0.00663174083 -0.0515753813
  vertex 0.00805484131 -0.00204924587 -0.0508515127
  vertex 0.00500000082 -0.00194773602 -0.0519635081
  endloop
 endfacet

 facet normal 0 0 0
  outer loop
  vertex 0.00500000082 -0.00663174083 0.0515753813
  vertex 0.00805484131 -0.0101798652 0.0498642735
  vertex 0.00805484131 0.00204924587 0.0508515127
  endloop
 endfacet

 facet normal 0 0 0
  outer loop
  vertex 0.00500000082 -0.00663174083 0.0515753813
  vertex 0.00805484131 0.00204924587 0.0508515127
  vertex 0.00500000082 0.00194773602 0.0519635081
  endloop
 endfacet

 facet normal 0 0 0
  outer loop
  vertex 0.00500000082 0.0516251847 -0.00623219553
  vertex 0.00771141518 0.0511563048 0
  vertex 0.00805484131 0.0482736602 -0.0161161162
  endloop
 endfacet

 facet normal 0 0 0
  outer loop
  vertex 0.00500000082 0.0516251847 -0.00623219553
  vertex 0.00805484131 0.0482736602 -0.0161161162
  vertex 0.00500000082 0.049895294 -0.0146444216
  endloop
 endfacet

 facet normal 0 0 0
  outer loop
  vertex 0.00500000082 -0.0516251847 0.00623219553
  vertex 0.00771141518 -0.0511563048 6.26484055e-18
  vertex 0.00805484131 -0.0482736602 0.0161161162
  endloop
 endfacet

 facet normal 0 0 0
  outer loop
  vertex 0.00500000082 -0.0516251847 0.00623219553
  vertex 0.00805484131 -0.0482736602 0.0161161162
  vertex 0.00500000082 -0.049895294 0.0146444216
  endloop
 endfacet

 facet normal 0 0 0
  outer loop
  vertex 0.00500000082 -0.0445674136 -0.0267907642
  vertex 0.00771141518 -0.0408965349 -0.0307317544
  vertex 0.00805484131 -0.0482736602 -0.0161161162
  endloop
 endfacet

 facet normal 0 0 0
  outer loop
  vertex 0.00500000082 -0.0445674136 -0.0267907642
  vertex 0.00805484131 -0.0482736602 -0.0161161162
  vertex 0.00500000082 -0.0483691953 -0.019089818
  endloop
 endfacet

 facet normal 0 0 0
  outer loop
  vertex 0.00771141518 0.0181402769 -0.0478319786
  vertex 0.00500000082 0.0230189133 -0.0466275625
  vertex 0.00805484131 0.0289103985 -0.0418839417
  endloop
 endfacet

 facet normal 0 0 0
  outer loop
  vertex 0.00771141518 0.0181402769 -0.0478319786
  vertex 0.0195000004 0.00950227119 -0.0292449873
  vertex 0.00805484131 0.0101798652 -0.0498642735
  endloop
 endfacet

 facet normal 0 0 0
  outer loop
  vertex 0.00771141518 -0.0181402769 0.0478319786
  vertex 0.00500000082 -0.0230189133 0.0466275625
  vertex 0.00805484131 -0.0289103985 0.0418839417
  endloop
 endfacet

 facet normal 0 0 0
  outer loop
  vertex 0.00771141518 -0.0181402769 0.0478319786
  vertex 0.00805484131 -0.0289103985 0.0418839417
  vertex 0.0195000004 -0.0153749995 0.0266302805
  endloop
 endfacet

 facet normal 0 0 0
  outer loop
  vertex 0.00771141518 0.0219303295 0.0462171882
  vertex 0.00805484131 0.0141592612 0.0488834456
  vertex 0.0195000004 0.00950227119 0.0292449873
  endloop
 endfacet

 facet normal 0 0 0
  outer loop
  vertex 0.0195000004 0.00950227119 0.0292449873
  vertex 0.0195000004 0.0205757655 0.0228517037
  vertex 0.00805484131 0.0321869068 0.0394218042
  endloop
 endfacet

 facet normal 0 0 0
  outer loop
  vertex 0.0195000004 0.00950227119 0.0292449873
  vertex 0.00805484131 0.0321869068 0.0394218042
  vertex 0.00771141518 0.0219303295 0.0462171882
  endloop
 endfacet

 facet normal 0 0 0
  outer loop
  vertex 0.00771141518 0.0219303295 0.0462171882
  vertex 0.00805484131 0.0321869068 0.0394218042
  vertex 0.00500000082 0.0264448803 0.044773519
  endloop
 endfacet

 facet normal 0 0 0
  outer loop
  vertex 0.00500000082 -0.0424367972 0.0300519262
  vertex 0.00500000082 -0.0468043946 0.0226571895
  vertex 0.00771141518 -0.0408965349 0.0307317544
  endloop
 endfacet

 facet normal 0 0 0
  outer loop
  vertex 0.00500000082 -0.0424367972 0.0300519262
  vertex 0.00771141518 -0.0408965349 0.0307317544
  vertex 0.00500000082 -0.0369116291 0.0366269238
  endloop
 endfacet

 facet normal 0 0 0
  outer loop
  vertex 0.00500000082 0.0424367972 -0.0300519262
  vertex 0.00500000082 0.0468043946 -0.0226571895
  vertex 0.00771141518 0.0408965349 -0.0307317544
  endloop
 endfacet

 facet normal 0 0 0
  outer loop
  vertex 0.00500000082 0.0424367972 -0.0300519262
  vertex 0.00771141518 0.0408965349 -0.0307317544
  vertex 0.00500000082 0.0369116291 -0.0366269238
  endloop
 endfacet

 facet normal 0 0 0
  outer loop
  vertex 0.00500000082 0.0303796083 -0.0422028303
  vertex 0.00500000082 0.0369116291 -0.0366269238
  vertex 0.00805484131 0.0289103985 -0.0418839417
  endloop
 endfacet

 facet normal 0 0 0
  outer loop
  vertex 0.00500000082 0.0303796083 -0.0422028303
  vertex 0.00805484131 0.0289103985 -0.0418839417
  vertex 0.00500000082 0.0230189133 -0.0466275625
  endloop
 endfacet

 facet normal 0 0 0
  outer loop
  vertex 0.00500000082 -0.0303796083 0.0422028303
  vertex 0.00500000082 -0.0369116291 0.0366269238
  vertex 0.00805484131 -0.0289103985 0.0418839417
  endloop
 endfacet

 facet normal 0 0 0
  outer loop
  vertex 0.00500000082 -0.0303796083 0.0422028303
  vertex 0.00805484131 -0.0289103985 0.0418839417
  vertex 0.00500000082 -0.0230189133 0.0466275625
  endloop
 endfacet

 facet normal 0 0 0
  outer loop
  vertex 0.00500000082 0.0445674136 0.0267907642
  vertex 0.00500000082 0.039549958 0.0337609313
  vertex 0.00771141518 0.0432368033 0.0273412988
  endloop
 endfacet

 facet normal 0 0 0
  outer loop
  vertex 0.00500000082 0.0445674136 0.0267907642
  vertex 0.00771141518 0.0432368033 0.0273412988
  vertex 0.00500000082 0.0483691953 0.019089818
  endloop
 endfacet

 facet normal 0 0 0
  outer loop
  vertex -0.0229999982 0.0104740839 0.0509342104
  vertex -0.0229999982 0.00194773602 0.0519635081
  vertex 0.00500000082 0.00194773602 0.0519635081
  endloop
 endfacet

 facet normal 0 0 0
  outer loop
  vertex -0.0229999982 0.0104740839 0.0509342104
  vertex 0.00500000082 0.00194773602 0.0519635081
  vertex 0.00500000082 0.0104740839 0.0509342104
  endloop
 endfacet

 facet normal 0 0 0
  outer loop
  vertex -0.0229999982 -0.0104740839 -0.0509342104
  vertex -0.0229999982 -0.00194773602 -0.0519635081
  vertex 0.00500000082 -0.00194773602 -0.0519635081
  endloop
 endfacet

 facet normal 0 0 0
  outer loop
  vertex -0.0229999982 -0.0104740839 -0.0509342104
  vertex 0.00500000082 -0.00194773602 -0.0519635081
  vertex 0.00500000082 -0.0104740839 -0.0509342104
  endloop
 endfacet

 facet normal 0 0 0
  outer loop
  vertex -0.0229999982 0.00663174083 -0.0515753813
  vertex 0.00500000082 0.00663174083 -0.0515753813
  vertex 0.00500000082 -0.00194773602 -0.0519635081
  endloop
 endfacet

 facet normal 0 0 0
  outer loop
  vertex -0.0229999982 0.00663174083 -0.0515753813
  vertex 0.00500000082 -0.00194773602 -0.0519635081
  vertex -0.0229999982 -0.00194773602 -0.0519635081
  endloop
 endfacet

 facet normal 0 0 0
  outer loop
  vertex 0.00500000082 0.0150303207 -0.0497804135
  vertex 0.00500000082 0.0230189133 -0.0466275625
  vertex 0.00771141518 0.0181402769 -0.0478319786
  endloop
 endfacet

 facet normal 0 0 0
  outer loop
  vertex 0.00500000082 0.0150303207 -0.0497804135
  vertex 0.00771141518 0.0181402769 -0.0478319786
  vertex 0.00805484131 0.0101798652 -0.0498642735
  endloop
 endfacet

 facet normal 0 0 0
  outer loop
  vertex 0.00500000082 0.0150303207 -0.0497804135
  vertex 0.00805484131 0.0101798652 -0.0498642735
  vertex 0.00500000082 0.00663174083 -0.0515753813
  endloop
 endfacet

 facet normal 0 0 0
  outer loop
  vertex 0.00500000082 0.0150303207 -0.0497804135
  vertex 0.00500000082 0.00663174083 -0.0515753813
  vertex -0.0229999982 0.00663174083 -0.0515753813
  endloop
 endfacet

 facet normal 0 0 0
  outer loop
  vertex 0.00500000082 0.0150303207 -0.0497804135
  vertex -0.0229999982 0.00663174083 -0.0515753813
  vertex -0.0229999982 0.0150303207 -0.0497804135
  endloop
 endfacet

 facet normal 0 0 0
  outer loop
  vertex 0.00500000082 0.0150303207 -0.0497804135
  vertex -0.0229999982 0.0150303207 -0.0497804135
  vertex -0.0229999982 0.0230189133 -0.0466275625
  endloop
 endfacet

 facet normal 0 0 0
  outer loop
  vertex 0.00500000082 0.0150303207 -0.0497804135
  vertex -0.0229999982 0.0230189133 -0.0466275625
  vertex 0.00500000082 0.0230189133 -0.0466275625
  endloop
 endfacet

 facet normal 0 0 0
  outer loop
  vertex -0.0229999982 -0.00663174083 0.0515753813
  vertex 0.00500000082 -0.00663174083 0.0515753813
  vertex 0.00500000082 0.00194773602 0.0519635081
  endloop
 endfacet

 facet normal 0 0 0
  outer loop
  vertex -0.0229999982 -0.00663174083 0.0515753813
  vertex 0.00500000082 0.00194773602 0.0519635081
  vertex -0.0229999982 0.00194773602 0.0519635081
  endloop
 endfacet

 facet normal 0 0 0
  outer loop
  vertex 0.00500000082 -0.0150303207 0.0497804135
  vertex 0.00500000082 -0.0230189133 0.0466275625
  vertex 0.00771141518 -0.0181402769 0.0478319786
  endloop
 endfacet

 facet normal 0 0 0
  outer loop
  vertex 0.00500000082 -0.0150303207 0.0497804135
  vertex 0.00771141518 -0.0181402769 0.0478319786
  vertex 0.00805484131 -0.0101798652 0.0498642735
  endloop
 endfacet

 facet normal 0 0 0
  outer loop
  vertex 0.00500000082 -0.0150303207 0.0497804135
  vertex 0.00805484131 -0.0101798652 0.0498642735
  vertex 0.00500000082 -0.00663174083 0.0515753813
  endloop
 endfacet

 facet normal 0 0 0
  outer loop
  vertex 0.00500000082 -0.0150303207 0.0497804135
  vertex 0.00500000082 -0.00663174083 0.0515753813
  vertex -0.0229999982 -0.00663174083 0.0515753813
  endloop
 endfacet

 facet normal 0 0 0
  outer loop
  vertex 0.00500000082 -0.0150303207 0.0497804135
  vertex -0.0229999982 -0.00663174083 0.0515753813
  vertex -0.0229999982 -0.0150303207 0.0497804135
  endloop
 endfacet

 facet normal 0 0 0
  outer loop
  vertex 0.00500000082 -0.0150303207 0.0497804135
  vertex -0.0229999982 -0.0150303207 0.0497804135
  vertex -0.0229999982 -0.0230189133 0.0466275625
  endloop
 endfacet

 facet normal 0 0 0
  outer loop
  vertex 0.00500000082 -0.0150303207 0.0497804135
  vertex -0.0229999982 -0.0230189133 0.0466275625
  vertex 0.00500000082 -0.0230189133 0.0466275625
  endloop
 endfacet

 facet normal 0 0 0
  outer loop
  vertex -0.0229999982 -0.0264448803 -0.044773519
  vertex 0.00500000082 -0.0264448803 -0.044773519
  vertex 0.00500000082 -0.0334536843 -0.0398101844
  endloop
 endfacet

 facet normal 0 0 0
  outer loop
  vertex -0.0229999982 -0.0264448803 -0.044773519
  vertex 0.00500000082 -0.0334536843 -0.0398101844
  vertex -0.0229999982 -0.0334536843 -0.0398101844
  endloop
 endfacet

 facet normal 0 0 0
  outer loop
  vertex 0.00500000082 0.0334536843 0.0398101844
  vertex 0.00500000082 0.039549958 0.0337609313
  vertex -0.0229999982 0.039549958 0.0337609313
  endloop
 endfacet

 facet normal 0 0 0
  outer loop
  vertex 0.00500000082 0.0334536843 0.0398101844
  vertex -0.0229999982 0.039549958 0.0337609313
  vertex -0.0229999982 0.0334536843 0.0398101844
  endloop
 endfacet

 facet normal 0 0 0
  outer loop
  vertex 0.00500000082 0.0334536843 0.0398101844
  vertex -0.0229999982 0.0334536843 0.0398101844
  vertex -0.0229999982 0.0264448803 0.044773519
  endloop
 endfacet

 facet normal 0 0 0
  outer loop
  vertex 0.00500000082 0.0334536843 0.0398101844
  vertex -0.0229999982 0.0264448803 0.044773519
  vertex 0.00500000082 0.0264448803 0.044773519
  endloop
 endfacet

 facet normal 0 0 0
  outer loop
  vertex 0.00500000082 0.0334536843 0.0398101844
  vertex 0.00500000082 0.0264448803 0.044773519
  vertex 0.00805484131 0.0321869068 0.0394218042
  endloop
 endfacet

 facet normal 0 0 0
  outer loop
  vertex 0.00500000082 0.0334536843 0.0398101844
  vertex 0.00805484131 0.0321869068 0.0394218042
  vertex 0.00500000082 0.039549958 0.0337609313
  endloop
 endfacet

 facet normal 0 0 0
  outer loop
  vertex 0.00500000082 0.018714726 0.0485155545
  vertex -0.0229999982 0.018714726 0.0485155545
  vertex -0.0229999982 0.0104740839 0.0509342104
  endloop
 endfacet

 facet normal 0 0 0
  outer loop
  vertex 0.00500000082 0.018714726 0.0485155545
  vertex -0.0229999982 0.0104740839 0.0509342104
  vertex 0.00500000082 0.0104740839 0.0509342104
  endloop
 endfacet

 facet normal 0 0 0
  outer loop
  vertex 0.00500000082 0.018714726 0.0485155545
  vertex 0.00500000082 0.0104740839 0.0509342104
  vertex 0.00805484131 0.0141592612 0.0488834456
  endloop
 endfacet

 facet normal 0 0 0
  outer loop
  vertex 0.00500000082 0.018714726 0.0485155545
  vertex 0.00805484131 0.0141592612 0.0488834456
  vertex 0.00771141518 0.0219303295 0.0462171882
  endloop
 endfacet

 facet normal 0 0 0
  outer loop
  vertex 0.00500000082 0.018714726 0.0485155545
  vertex 0.00771141518 0.0219303295 0.0462171882
  vertex 0.00500000082 0.0264448803 0.044773519
  endloop
 endfacet

 facet normal 0 0 0
  outer loop
  vertex 0.00500000082 0.018714726 0.0485155545
  vertex 0.00500000082 0.0264448803 0.044773519
  vertex -0.0229999982 0.0264448803 0.044773519
  endloop
 endfacet

 facet normal 0 0 0
  outer loop
  vertex 0.00500000082 0.018714726 0.0485155545
  vertex -0.0229999982 0.0264448803 0.044773519
  vertex -0.0229999982 0.018714726 0.0485155545
  endloop
 endfacet

 facet normal 0 0 0
  outer loop
  vertex 0.00500000082 -0.018714726 -0.0485155545
  vertex -0.0229999982 -0.018714726 -0.0485155545
  vertex -0.0229999982 -0.0104740839 -0.0509342104
  endloop
 endfacet

 facet normal 0 0 0
  outer loop
  vertex 0.00500000082 -0.018714726 -0.0485155545
  vertex -0.0229999982 -0.0104740839 -0.0509342104
  vertex 0.00500000082 -0.0104740839 -0.0509342104
  endloop
 endfacet

 facet normal 0 0 0
  outer loop
  vertex 0.00500000082 -0.018714726 -0.0485155545
  vertex 0.00500000082 -0.0104740839 -0.0509342104
  vertex 0.00805484131 -0.0141592612 -0.0488834456
  endloop
 endfacet

 facet normal 0 0 0
  outer loop
  vertex 0.00805484131 -0.0141592612 -0.0488834456
  vertex 0.00805484131 -0.0289103985 -0.0418839417
  vertex 0.00500000082 -0.0264448803 -0.044773519
  endloop
 endfacet

 facet normal 0 0 0
  outer loop
  vertex 0.00805484131 -0.0141592612 -0.0488834456
  vertex 0.00500000082 -0.0264448803 -0.044773519
  vertex 0.00500000082 -0.018714726 -0.0485155545
  endloop
 endfacet

 facet normal 0 0 0
  outer loop
  vertex 0.00500000082 -0.018714726 -0.0485155545
  vertex 0.00500000082 -0.0264448803 -0.044773519
  vertex -0.0229999982 -0.0264448803 -0.044773519
  endloop
 endfacet

 facet normal 0 0 0
  outer loop
  vertex 0.00500000082 -0.018714726 -0.0485155545
  vertex -0.0229999982 -0.0264448803 -0.044773519
  vertex -0.0229999982 -0.018714726 -0.0485155545
  endloop
 endfacet

 facet normal 0 0 0
  outer loop
  vertex 0.00500000082 0.0519468673 0.00235003
  vertex 0.00771141518 0.0511563048 0
  vertex 0.00500000082 0.0516251847 -0.00623219553
  endloop
 endfacet

 facet normal 0 0 0
  outer loop
  vertex 0.00500000082 0.0519468673 0.00235003
  vertex 0.00500000082 0.0516251847 -0.00623219553
  vertex -0.0229999982 0.0516251847 -0.00623219553
  endloop
 endfacet

 facet normal 0 0 0
  outer loop
  vertex 0.00500000082 0.0519468673 0.00235003
  vertex -0.0229999982 0.0516251847 -0.00623219553
  vertex -0.0229999982 0.0519468673 0.00235003
  endloop
 endfacet

 facet normal 0 0 0
  outer loop
  vertex 0.00500000082 -0.0519468673 -0.00235003
  vertex 0.00500000082 -0.050851576 -0.0108681517
  vertex 0.00771141518 -0.0511563048 6.26484055e-18
  endloop
 endfacet

 facet normal 0 0 0
  outer loop
  vertex 0.00500000082 -0.0519468673 -0.00235003
  vertex 0.00771141518 -0.0511563048 6.26484055e-18
  vertex 0.00500000082 -0.0516251847 0.00623219553
  endloop
 endfacet

 facet normal 0 0 0
  outer loop
  vertex 0.00500000082 -0.0519468673 -0.00235003
  vertex 0.00500000082 -0.0516251847 0.00623219553
  vertex -0.0229999982 -0.0516251847 0.00623219553
  endloop
 endfacet

 facet normal 0 0 0
  outer loop
  vertex 0.00500000082 -0.0519468673 -0.00235003
  vertex -0.0229999982 -0.0516251847 0.00623219553
  vertex -0.0229999982 -0.0519468673 -0.00235003
  endloop
 endfacet

 facet normal 0 0 0
  outer loop
  vertex 0.00500000082 -0.039549958 -0.0337609313
  vertex 0.00500000082 -0.0334536843 -0.0398101844
  vertex 0.00771141518 -0.0408965349 -0.0307317544
  endloop
 endfacet

 facet normal 0 0 0
  outer loop
  vertex 0.00500000082 -0.039549958 -0.0337609313
  vertex 0.00771141518 -0.0408965349 -0.0307317544
  vertex 0.00500000082 -0.0445674136 -0.0267907642
  endloop
 endfacet

 facet normal 0 0 0
  outer loop
  vertex 0.00500000082 -0.039549958 -0.0337609313
  vertex -0.0229999982 -0.039549958 -0.0337609313
  vertex -0.0229999982 -0.0334536843 -0.0398101844
  endloop
 endfacet

 facet normal 0 0 0
  outer loop
  vertex 0.00500000082 -0.039549958 -0.0337609313
  vertex -0.0229999982 -0.0334536843 -0.0398101844
  vertex 0.00500000082 -0.0334536843 -0.0398101844
  endloop
 endfacet

 facet normal 0 0 0
  outer loop
  vertex -0.0229999982 -0.0424367972 0.0300519262
  vertex -0.0229999982 -0.0468043946 0.0226571895
  vertex 0.00500000082 -0.0468043946 0.0226571895
  endloop
 endfacet

 facet normal 0 0 0
  outer loop
  vertex -0.0229999982 -0.0424367972 0.0300519262
  vertex 0.00500000082 -0.0468043946 0.0226571895
  vertex 0.00500000082 -0.0424367972 0.0300519262
  endloop
 endfacet

 facet normal 0 0 0
  outer loop
  vertex -0.0229999982 -0.0424367972 0.0300519262
  vertex 0.00500000082 -0.0424367972 0.0300519262
  vertex 0.00500000082 -0.0369116291 0.0366269238
  endloop
 endfacet

 facet normal 0 0 0
  outer loop
  vertex -0.0229999982 -0.0424367972 0.0300519262
  vertex 0.00500000082 -0.0369116291 0.0366269238
  vertex -0.0229999982 -0.0369116291 0.0366269238
  endloop
 endfacet

 facet normal 0 0 0
  outer loop
  vertex -0.0229999982 0.0424367972 -0.0300519262
  vertex -0.0229999982 0.0468043946 -0.0226571895
  vertex 0.00500000082 0.0468043946 -0.0226571895
  endloop
 endfacet

 facet normal 0 0 0
  outer loop
  vertex -0.0229999982 0.0424367972 -0.0300519262
  vertex 0.00500000082 0.0468043946 -0.0226571895
  vertex 0.00500000082 0.0424367972 -0.0300519262
  endloop
 endfacet

 facet normal 0 0 0
  outer loop
  vertex -0.0229999982 0.0424367972 -0.0300519262
  vertex 0.00500000082 0.0424367972 -0.0300519262
  vertex 0.00500000082 0.0369116291 -0.0366269238
  endloop
 endfacet

 facet normal 0 0 0
  outer loop
  vertex -0.0229999982 0.0424367972 -0.0300519262
  vertex 0.00500000082 0.0369116291 -0.0366269238
  vertex -0.0229999982 0.0369116291 -0.0366269238
  endloop
 endfacet

 facet normal 0 0 0
  outer loop
  vertex -0.0229999982 0.049895294 -0.0146444216
  vertex 0.00500000082 0.049895294 -0.0146444216
  vertex 0.00500000082 0.0468043946 -0.0226571895
  endloop
 endfacet

 facet normal 0 0 0
  outer loop
  vertex -0.0229999982 0.049895294 -0.0146444216
  vertex 0.00500000082 0.0468043946 -0.0226571895
  vertex -0.0229999982 0.0468043946 -0.0226571895
  endloop
 endfacet

 facet normal 0 0 0
  outer loop
  vertex -0.0229999982 0.049895294 -0.0146444216
  vertex -0.0229999982 0.0516251847 -0.00623219553
  vertex 0.00500000082 0.0516251847 -0.00623219553
  endloop
 endfacet

 facet normal 0 0 0
  outer loop
  vertex -0.0229999982 0.049895294 -0.0146444216
  vertex 0.00500000082 0.0516251847 -0.00623219553
  vertex 0.00500000082 0.049895294 -0.0146444216
  endloop
 endfacet

 facet normal 0 0 0
  outer loop
  vertex -0.0229999982 -0.049895294 0.0146444216
  vertex -0.0229999982 -0.0516251847 0.00623219553
  vertex 0.00500000082 -0.0516251847 0.00623219553
  endloop
 endfacet

 facet normal 0 0 0
  outer loop
  vertex -0.0229999982 -0.049895294 0.0146444216
  vertex 0.00500000082 -0.0516251847 0.00623219553
  vertex 0.00500000082 -0.049895294 0.0146444216
  endloop
 endfacet

 facet normal 0 0 0
  outer loop
  vertex -0.0229999982 -0.049895294 0.0146444216
  vertex 0.00500000082 -0.049895294 0.0146444216
  vertex 0.00500000082 -0.0468043946 0.0226571895
  endloop
 endfacet

 facet normal 0 0 0
  outer loop
  vertex -0.0229999982 -0.049895294 0.0146444216
  vertex 0.00500000082 -0.0468043946 0.0226571895
  vertex -0.0229999982 -0.0468043946 0.0226571895
  endloop
 endfacet

 facet normal 0 0 0
  outer loop
  vertex -0.0229999982 0.050851576 0.0108681517
  vertex 0.00500000082 0.050851576 0.0108681517
  vertex 0.00500000082 0.0519468673 0.00235003
  endloop
 endfacet

 facet normal 0 0 0
  outer loop
  vertex -0.0229999982 0.050851576 0.0108681517
  vertex 0.00500000082 0.0519468673 0.00235003
  vertex -0.0229999982 0.0519468673 0.00235003
  endloop
 endfacet

 facet normal 0 0 0
  outer loop
  vertex -0.0229999982 0.050851576 0.0108681517
  vertex -0.0229999982 0.0483691953 0.019089818
  vertex 0.00500000082 0.0483691953 0.019089818
  endloop
 endfacet

 facet normal 0 0 0
  outer loop
  vertex -0.0229999982 0.050851576 0.0108681517
  vertex 0.00500000082 0.0483691953 0.019089818
  vertex 0.00500000082 0.050851576 0.0108681517
  endloop
 endfacet

 facet normal 0 0 0
  outer loop
  vertex -0.0229999982 -0.050851576 -0.0108681517
  vertex -0.0229999982 -0.0483691953 -0.019089818
  vertex 0.00500000082 -0.0483691953 -0.019089818
  endloop
 endfacet

 facet normal 0 0 0
  outer loop
  vertex -0.0229999982 -0.050851576 -0.0108681517
  vertex 0.00500000082 -0.0483691953 -0.019089818
  vertex 0.00500000082 -0.050851576 -0.0108681517
  endloop
 endfacet

 facet normal 0 0 0
  outer loop
  vertex -0.0229999982 -0.050851576 -0.0108681517
  vertex 0.00500000082 -0.050851576 -0.0108681517
  vertex 0.00500000082 -0.0519468673 -0.00235003
  endloop
 endfacet

 facet normal 0 0 0
  outer loop
  vertex -0.0229999982 -0.050851576 -0.0108681517
  vertex 0.00500000082 -0.0519468673 -0.00235003
  vertex -0.0229999982 -0.0519468673 -0.00235003
  endloop
 endfacet

 facet normal 0 0 0
  outer loop
  vertex -0.0229999982 -0.0445674136 -0.0267907642
  vertex -0.0229999982 -0.039549958 -0.0337609313
  vertex 0.00500000082 -0.039549958 -0.0337609313
  endloop
 endfacet

 facet normal 0 0 0
  outer loop
  vertex -0.0229999982 -0.0445674136 -0.0267907642
  vertex 0.00500000082 -0.039549958 -0.0337609313
  vertex 0.00500000082 -0.0445674136 -0.0267907642
  endloop
 endfacet

 facet normal 0 0 0
  outer loop
  vertex -0.0229999982 -0.0445674136 -0.0267907642
  vertex 0.00500000082 -0.0445674136 -0.0267907642
  vertex 0.00500000082 -0.0483691953 -0.019089818
  endloop
 endfacet

 facet normal 0 0 0
  outer loop
  vertex -0.0229999982 -0.0445674136 -0.0267907642
  vertex 0.00500000082 -0.0483691953 -0.019089818
  vertex -0.0229999982 -0.0483691953 -0.019089818
  endloop
 endfacet

 facet normal 0 0 0
  outer loop
  vertex -0.0229999982 0.0303796083 -0.0422028303
  vertex -0.0229999982 0.0369116291 -0.0366269238
  vertex 0.00500000082 0.0369116291 -0.0366269238
  endloop
 endfacet

 facet normal 0 0 0
  outer loop
  vertex -0.0229999982 0.0303796083 -0.0422028303
  vertex 0.00500000082 0.0369116291 -0.0366269238
  vertex 0.00500000082 0.0303796083 -0.0422028303
  endloop
 endfacet

 facet normal 0 0 0
  outer loop
  vertex -0.0229999982 0.0303796083 -0.0422028303
  vertex 0.00500000082 0.0303796083 -0.0422028303
  vertex 0.00500000082 0.0230189133 -0.0466275625
  endloop
 endfacet

 facet normal 0 0 0
  outer loop
  vertex -0.0229999982 0.0303796083 -0.0422028303
  vertex 0.00500000082 0.0230189133 -0.0466275625
  vertex -0.0229999982 0.0230189133 -0.0466275625
  endloop
 endfacet

 facet normal 0 0 0
  outer loop
  vertex -0.0229999982 -0.0303796083 0.0422028303
  vertex -0.0229999982 -0.0369116291 0.0366269238
  vertex 0.00500000082 -0.0369116291 0.0366269238
  endloop
 endfacet

 facet normal 0 0 0
  outer loop
  vertex -0.0229999982 -0.0303796083 0.0422028303
  vertex 0.00500000082 -0.0369116291 0.0366269238
  vertex 0.00500000082 -0.0303796083 0.0422028303
  endloop
 endfacet

 facet normal 0 0 0
  outer loop
  vertex -0.0229999982 -0.0303796083 0.0422028303
  vertex 0.00500000082 -0.0303796083 0.0422028303
  vertex 0.00500000082 -0.0230189133 0.0466275625
  endloop
 endfacet

 facet normal 0 0 0
  outer loop
  vertex -0.0229999982 -0.0303796083 0.0422028303
  vertex 0.00500000082 -0.0230189133 0.0466275625
  vertex -0.0229999982 -0.0230189133 0.0466275625
  endloop
 endfacet

 facet normal 0 0 0
  outer loop
  vertex -0.0229999982 0.0445674136 0.0267907642
  vertex -0.0229999982 0.039549958 0.0337609313
  vertex 0.00500000082 0.039549958 0.0337609313
  endloop
 endfacet

 facet normal 0 0 0
  outer loop
  vertex -0.0229999982 0.0445674136 0.0267907642
  vertex 0.00500000082 0.039549958 0.0337609313
  vertex 0.00500000082 0.0445674136 0.0267907642
  endloop
 endfacet

 facet normal 0 0 0
  outer loop
  vertex -0.0229999982 0.0445674136 0.0267907642
  vertex 0.00500000082 0.0445674136 0.0267907642
  vertex 0.00500000082 0.0483691953 0.019089818
  endloop
 endfacet

 facet normal 0 0 0
  outer loop
  vertex -0.0229999982 0.0445674136 0.0267907642
  vertex 0.00500000082 0.0483691953 0.019089818
  vertex -0.0229999982 0.0483691953 0.019089818
  endloop
 endfacet

endsolid AssimpScene
